<mxfile host="65bd71144e">
    <diagram id="K9N5ZNZ1flYij0LCveo0" name="Page-1">
        <mxGraphModel dx="697" dy="397" grid="1" gridSize="10" guides="1" tooltips="1" connect="1" arrows="1" fold="1" page="1" pageScale="1" pageWidth="850" pageHeight="1100" math="0" shadow="0">
            <root>
                <mxCell id="0"/>
                <mxCell id="1" parent="0"/>
                <mxCell id="2" value="" style="shape=image;verticalLabelPosition=bottom;labelBackgroundColor=default;verticalAlign=top;aspect=fixed;imageAspect=0;image=https://redux.js.org/assets/images/ReduxDataFlowDiagram-49fa8c3968371d9ef6f2a1486bd40a26.gif;" parent="1" vertex="1">
                    <mxGeometry x="30" y="380" width="370" height="277.49" as="geometry"/>
                </mxCell>
                <mxCell id="3" value="" style="shape=image;verticalLabelPosition=bottom;labelBackgroundColor=default;verticalAlign=top;aspect=fixed;imageAspect=0;image=https://miro.medium.com/v2/resize:fit:982/1*4bxAkSA4oHcSAeAzzcJPHA.png;" parent="1" vertex="1">
                    <mxGeometry x="30" y="10" width="390" height="240" as="geometry"/>
                </mxCell>
                <mxCell id="4" value="Prop-Drilling-1" style="rounded=1;whiteSpace=wrap;html=1;fontSize=17;fontStyle=0" parent="1" vertex="1">
                    <mxGeometry x="165" y="270" width="120" height="40" as="geometry"/>
                </mxCell>
                <mxCell id="7" value="" style="shape=image;verticalLabelPosition=bottom;labelBackgroundColor=default;verticalAlign=top;aspect=fixed;imageAspect=0;image=https://miro.medium.com/v2/resize:fit:3410/1*Dee4cg5Hzg7JME1A9tjZJQ.png;" parent="1" vertex="1">
                    <mxGeometry x="450" y="10" width="478.95" height="210" as="geometry"/>
                </mxCell>
                <mxCell id="8" value="Prop-Lifting-2" style="rounded=1;whiteSpace=wrap;html=1;fontSize=17;fontStyle=0" parent="1" vertex="1">
                    <mxGeometry x="660" y="250" width="119.47" height="30" as="geometry"/>
                </mxCell>
                <mxCell id="10" value="" style="shape=image;verticalLabelPosition=bottom;labelBackgroundColor=default;verticalAlign=top;aspect=fixed;imageAspect=0;image=data:image/png,iVBORw0KGgoAAAANSUhEUgAAAlAAAAFkCAYAAADv4QVjAAAgAElEQVR4Aeydd1wU1/r/B1h22WXrLE2KgAUFe+y9x5IeKypiwYK9G40FjcaosDS76bk3Jvem3eSmmOSbYm6qmtCLNYmpxmhiB3b38/s9Z3ZgQVBQQJDzx/Oa2dmZM2fOPLvnPZ/nOWcEk8kEbrwNuA9wH+A+wH2A+wD3Ae4DlfcBgTdW5RuLtxVvK+4D3Ae4D3Af4D7AfYB8gAMUV+C4Asl9gPsA9wHuA9wHuA9U0Qc4QFWxwfiTB3/y4D7AfYD7APcB7gPcBzhAcYDiTx3cB7gPcB/gPsB9gPtAFX2AA1QVG4w/dfCnDu4D3Ae4D3Af4D7AfYADFAco/tTBfYD7APcB7gPcB7gPVNEHOEBVscH4Uwd/6uA+wH2A+wD3Ae4D3Ac4QHGA4k8d3Ae4D3Af4D7AfYD7QBV9gANUFRuMP3Xwpw7uA9wHuA9wH+A+wH2AAxQHKP7UwX2A+wD3Ae4D3Ae4D1TRBzhAVbHB+FMHf+rgPsB9gPsA9wHuA9wHOEBxgOJPHdwHuA9wH+A+wH2A+0AVfYADVBUbjD918KcO7gPcB7gPcB/gPsB9gAMUByj+1MF9gPsA9wHuA9wHuA9U0Qc4QFWxwfhTB3/q4D7AfYD7APcB7gPcBzhAcYDiTx3cB7gPcB/gPmAywWg0MpPhSP4simK1tg+VZzabQUvZ6JzVfR75Ospblj0XXSvtJy/Lfl9eGQ19Gwco/sdZrX8MDf0Hxa+fP5VyH6hfPiADg8FgKIYH2kaf9Xo9WxLseHl5Mei51ftLYELlkVH5Op2uVsGpbP2pPmRUF7k+dO3y9rL7888l/s0BigMUByjuA9wHuA80aB8gWCCQ0Wq1zDw9PUGm0WjY0hmubhUgCM7ofLQMCgpCeHg4AgMDbwuwEDDRdcrXTW0gXzdtc4Yoqi/ZrV7/nXQ8Byj+x8l/ENwHuA9wH2iwPkAQQepS586dcffdd2P48OG4//77MWzYMHTv3h0tW7ZkahHBBXX+BBW3CgEEZAQoixYtwocffohRo0bBx8enWsq+Ud3k+hMMUR1CQkIwePBgjB49GmPHjsWIESPQp08fNG3atJTqRtdPbXWj8hvS9xyg+B8n/0FwH+A+wH2gwfqAh4cHg4UXX3wRv/76K3755Rf89NNPOHHiBI4cOcIAZ/ny5UwpKk+FoW2VVajk4wlE1Go1tm/fjr///huzZs2Cr69vMUDRfjUJIlRfqsOAAQPw3HPP4eTJk/j555/Zdf/+++9sfffu3WjevDlT5mh/Asz27dszmKyoflVpC/n65DaRP8vLmylLPra2lhyg+B9njf5Qa8uR+XlK4vK8LXhbcB+ovA8olUo0a9YMH330Ec6dO4dnnnkGjz76KNauXYt//OMfyM7OxuXLlxEfH89CbaTaUPtSB08QQkaAIUMJfabvnO8BfScrOPQdlaFSqZCQkICzZ88iNjYW3t7e1y2DyqOyqRwqjz7L5cqfaRspTOVtd66Pu7s7A8KPP/4Yv/32G/79739jyZIlDORWr16Nd955B9u2bWPtQu3TqFEjvPrqq9iyZQsCAgJYaNP5nHK95LaQP1Ndy7YFfSebfC1yWWXrTtvla6FjnK+hLqxzgOIAVeecsi78MHgdKt8B8bbibVWffYAAoUmTJvi///s/ZGVloW/fvnBzc2OAQ/lAFF4jiEpLS0OvXr0YwMgQRDDRs2dPPPzww3jggQeYSkOhOAIDahNKFCcAoM6f1JyBAwdi5MiRbEkhssTERPz5558MoOTQWuvWrdG2bVumSMlgIS8pnEgqEKlVVDbt16lTJwY18j4ysFA5pBpRflXZ+6NQKDBx4kSmPJHyRnWha6bt1B4U0qTroDIpTys6Opopci+//DILbfbo0YOFNqnOdK0EhNSG/fv3Z9dHbdGxY0dWhtwWVAcql+oVGhrK6kT1v++++/Dggw+yOtA+clnUVtT29957L9q0acNATL7Gstdzuz5zgOIAdc2P63Y5Iz8v74i5D3AfqG0fcAYoAqVBgwYVKyykEhFAUJ4ShfWGDh3KgIGSy6lT37x5M9LT0/HDDz+wsNfBgwfxyCOPMOWGOnsCJwIaAoT//Oc/OHbsGL7//nvk5eWx0Nn+/fuZAjVjxgxWrr+/P1O9aDtBCsEHHU9LApo9e/bg008/Re/evRlAxcXF4dChQ1i2bBmDKoIPCg3S+b744gu88MILDLhkqKK2JeghBWrChAkMikhxi4iIYOBCx8tAJCfQU3gxPz8fVquVhTjpGjMyMrBixQpWJ4JMAqaXXnqJ7Udt8eOPP+Lw4cNYv349K5vagcojUKN2SEpKwuzZs4vblcon+KLzU1iRlD9qI7ksgtvx48cXq3S17SMVnY8DFAcoDlDcB7gPcB9osD5QFqCoA6e8KOrMCTzuuecefPfddwxUSG0i+CAQIDihPCk5/LVmzRocOHAAZ86cAYENwZCrqytTbAg4Tp06hR07djBwWLduHf73v//h4sWLLDw4bdo0Bi4Ea5999hnLwxoyZEgxgBHUUHkUcqMwI6k2VG9Sywjujh49isjISDaCrkOHDvjqq6+YujR58uRiJckZAggM27Vrh/fffx+U80ShOYIyUqvouuWReQQ+dK5nn32WKWVUN7o2gkRKuCdIpGR7yhUj2CHAmzNnDihnjKDn0qVL2LVrF1OcqN1IQSMlj8KWFDp877338Pjjj7PwIal5BI0EhASacltR3UgZpGskpY/qVFeUKA5Q/I+zwf5xOv+h8HWufHAfaJg+IAMUgQipQ4sXL2Yj8Wg0GqkkpPgQKFFeFHXyFOqaN28eA4Ynn3wSYWFhTPUhKCH1imCL1JeuXbsy1YUUHgrT0fEUeqMwGZVBsPDll1/i6tWrmD59eimAIoCgEBaBAkEcQQMB1LvvvsvOS3BFShOVQ4D3zTffMLh66KGH8M9//pPB09y5c1nITFaxyvo3KUIEJKR2EUQRpBC0kDLVqlWr4oR2qi9BEqlEpBxRPei8Li4urO947bXX2PVRm5C6RfuTUbt88sknDJbGjRvH2oLCmFTXwsJC7N27lwGbXBa1HyW0EyDSPSDFja6R7g+pYJTcT8oUQR61R9nruR2fOUBxgKoTjng7nJ+fs2F2mPy+8/vu7APUQZOiRGoMJYsTLOXk5LAOu6CggIXmKLGa1CGCDoIa6uhpX0q0puH/FF6ifB1SfEhtImAihYamCCAAI/jo168fO57OTQBAKtfTTz/NVJqZM2eWAihSW0gJKwtQpNhQeIxCiVQXKoNULgK948ePMyWIRhImJycjODi4uL7OITw6P4EOlU3XTjlVdH0EkFRPUofeeustlntEOUsEOBSiozrt3LmTAQxBGUES5TNRCJNUJQppUn2obDoffb9q1SqcPn2ahToJHgmgqH3++OMPpniRKkVl0TkokT8zM5ONSiQFi9qVwItAdunSpew+kDpFYMYBioMLBxfuA9wHuA9wH7jNPiADFIWcSOUg+KBRcaS2UFiKRufJyeMU3iIQ+Ne//sUAiob/U95Ubm4ugy5ScegzdfSU00NwQirT559/ji5dujBYIIAhwCB1JSUlBX/99Rc7H4GEHMIrD6BoJBxBHuVi0VxVFGajcqj+lFD+5ptvgoCPIIhCjaToEGjQPmTO0EifCaDIqB4EPqSuUbiOEsUpDEngR4ngBDeUU0V1IoWKFCA6juCnW7du7HoJvlq0aMHOR9BFRt8TGFJ9Samj4wh+CKBIpaO8KxlICbaofSjv6cqVK+waCGLpMxm1LxmpXQS7HKBu84/G2Zn4On8i5T7AfYD7QMP0AWeAos6dJpEkaCB/oJye8+fPM5giRYdAg+CAAOrChQssf4dghkaKEXzQOoXXSG2i/SjPiACKwlZySI/KJQChslJTUysEKAIwGRQIcghAKCRGuVSkQBHMEXQRhFDojgCD5nKicBwpODQtggxZMkQ5gxSVTcfTUgYpAhl5ygJS2GJiYth5qHwCKKovgZYMUASIpBrRNVLYj85HChQBHZVFoThSxAgUqVzKgaI2pgR3Ai65fgRb1FYEn6RYUUiTwobUptS2FKaktqU2pNCe83Xczt8tD+FxkCv1ZHI7nZGfu2F2YPy+8/t+O33AGaBIQaLcIwILUnBoJnJSVyhsNmnSJAYOtP2JJ55gKs2GDRuYakRhNEEQWF4QgRGBAe1HitJ///tflls1ZswYBiNy6I1AhOZWokRrOYRH+UWkhJFqQ/BA9SCjOpIKRqEyUsUoPEgAReBBuVTffvstAxwCJ1KpaB+apoBAh/ZzBihap+0EeAQ7VD7ViepMoEbw89RTT7EwJNWLAIsAivKyKCFcDmXSuUmN++CDD5hyR/tQGXJZVP7zzz/PyqHEcjqnDFCUQO8MUNRmBEbyqEQKh1K9KM+KjNqXyia7nb5S9twcoDhA1SmHLOug/DPvXLkPcB+oSR8g0KGwEIELhYsITggCCBwIKGiKAcqLolAejXojmCGFiUbEUd4R5Q8R3NCcRhSGGjVqJMsZIhiisul1LQRglFdEr4hp3aoVC41RUjklrVPYTZ7GgACBIIVmJ6d8I1LDSNmhEXIEI5RgLQMUlU0QQmEt2kZ5UAREpICRIkQj8Ui1kXOSqA1lkKLzkLJD56V9aC4pUoBo3qgFCxawemWkS2ocXS9BJalDX335JbsGyneieZ+onQiOqH3eeOMNphRRfamshQsXMhCkulC7UDlUX1KgSJEjmKLj5Tq5KxSsPqR00TFTp05l9bmrQwf07NGDzUVFSfoEZnRMTfpEZcu+NYASTTDJRolp9dAq21DF+8nXy5cl9/5OagsO1HXij6n498bvB78fNeQDcn9FHTsB1Ouvv85yc2SAok6aIIpAiHJ4KDS2adMTTIFReXiwDp2g6qeffmZQ8L/P/sfA4MSJk9i790kGCxTGouRoCgUSZBA8vL9/P4MbUo1IUaKQHIXK6HwUOiQAopnAKR+LIIhUmW+/+46pTDRdAKlk/ftLCeYbNmxkoTvK1woODinOZyKoodAaTZLZrl17VjYpSzJM0TXTTOsEK6Qs0dxONEUB1YegjhLDY6bGMDWK1CFSnZ55+mlWV9qXYJOmMvDz82OhQnmqgfS0NDZSkEKNdL2U60TKG12bDHw01QO1GwEUgZwMQ7ROihZNk0BtQ+FIyiX77MABVi/KN6O5pwigDHoDRJPI7Hb+V9w0QMnO57xkF1KfOtNK/jCdr5Gv109Qvrn7Jv1A6djb+SPl5+btz32ghnxANMHTUwO/Rr6YGjOVTU8QER4Oo8EAsyjCy8sMT40GHTq0B83zRFMDNG/eDGqNmqknXbt2Y9MT7HvxRbz99tt4ad9LWL/+MTaCjuXqmIwMEghApkyewl4TQxNJPvnkXja6jPKcFi5cgF49e7L/GJ1OmgizW7fuWLVqNfbt28fALsFiwQDHLN9z5kh1CA0JYSrPoysfBdWZQnX0X0XXQyASOzMWNN9Ul85dGKTQd15mMzO9TseuiV7fQnBHc1lRvf7xjxfY9VASOoXcaD9qCyqzRYswLF2yBC/texGvv/Yapk6ZAh8fbyiV7qzMESNGsgT81159FS+9tI8BWteulDivZWXptFoEBPhj/vz5mBYTg8DAABgc0xGIoom1N52HzkmqGL06h9S1/7zxBp577lk2V1T79u1gNNLUDgaIohF03O38bdwUQMmdEVVcXicaNJHRm6rri8l1dloyqhVFRupE69waaBs4fKIuPOXczj8Ifu7b+wfN279621/ur+R2lX7fFNoyQKnygEIhDatn//ukcBBweHs78o2UUKs1MBmlV7QYTUaoPGieIhXL16EypXwlFTw81KDvzV5mpuKQuuLurmQwRWCi9lCzz6TukBpEcEFKDBmpXnJd6DhWpkrF9qMy3BTu0Gp1rG/SqKkcd3h6akv1VUzxcdRNhhT5ms1mCQzpWhTuSpbMTtDC6qVWs210HqqHfAy1B4EkhTS1Wk+2LqtHpGyxOis92HXTOsvPUqqgUnmwMpj6RQ+iTIlSs+1MeTI6GMLR15Yuy4OVS/WiUJ+7UgWNhpLUpWkY5GVxHZkiJZUnbXMwSQ0+AN8EQBEgUehOhFE0wyB6wSB6F5vR6I36YgaTN8ozo+gDZ3O+Pr5ecq/v1LaQ7r03jKIX83H2YMCAqnr/zOUfPl/yduU+UPM+IHW4Ut9lEs0wsd83/c59YTD5wtPgDU+DF3Qmb+hFb+hEH7ZuoP7A7Au9yQt66jNEH7akdTKtwQy1zggPTwNb0mf5O53RCzojffaS9tMaoPLUQ601Qv7OU2+Cp0Fk+2mNZrakY7QGERqdiZVL+9B5qW6eetrHmxmty5/1og8Moi9oafTyg8HsC63RG1qTD/RsO31XYjqTL8joujU6M1RaEzNPI11/yX7yukH0Y+V5aEWotSL0Jl8Yvf1hMDeSTPRjZXnoRKh1ZuhMVB+qx7WmF/3Yucv73sjKk86l1olg59OJ7Nx0TjIq08TMl/1PS/dTftgnwCqdXlRTv69KA5RM7kTsRtHETGc0QqPTQ0PEyYZC6mE0yEbSX902g0EPfUWmp+GdOuj0Omj1WifzhFbP7c5tAy08dTp46sinddAb9eyBgfyefoTy76CmfpC83JrvSHkbN5w2ln6vcijeeWmCyWCEQWeAQUdLE4x6UkgMMNFv3qgrMYMWJr0nTAZPiAYtM/aZtlVkhut8V+YYo04DyTxh0nk61mlbmTIc5zfpqT7OpoOod5hRD9FE9ZeNrqe0iSYjShuFz8gnjNfsW96xtF/J8fSfSMc5jNZlY9sM7HPJ/s7HXn+dzk3hQ1LQDDTdAplWx+6Z0UD3TwQtjaRikYJV/B9N61Qv+X7XnL9XDqCKaY7UJzP0RqJeAzz1GniZPdE0xAftIwLRs2MI+ndriv7dm9QL69e9Kcq1bk3Rp2sT9O4ayq2BtUGPziFo1yoITYJ94OWlhadeLT0cGE0wGGmGXacnG/anU3M/Tt7R87blPlA1H5AfcEqWUp9lFEvUIp3eCJNBBx+TBoGiGs19tWgbZECXpkb0DjehTysT+rYyoV8Z69/KhP6txGq1fhEi+oWbKrT+EWXOR5+vY/0ipLr3iTChtInoEyGiL52vlYi+rUqWpdYjpP1oX2ej42g/ed9+rc3Fn9n2MvuXPVY+p1zG9ZbF+zrqS2XRfekVbkLPliK6NDOhfWMjwv10CBY94U2waqAHXiO0ehNT++h+UwSBKVOOdAwpklA1f7rR769SACXnAVHoTm8gZcYTQQEiBvePwPJ5w/FC6nR8+NISfPXWSny3fw3S3l9bL+y7/XH4bv+6MhaHb/fH4dv31lZga/Dte9zuzDZYi2/eWY0PX16CZ1NisGTOUAzsG47GgSL0espzoGRIx/BZDk/F+RE3+pPh31fvnzZvz+u3pwxP1E7Ud9GS8miMei28jWo08dOiZytvRPYLxbKRrZEY0xnPLeyBV1f2wttxvfDu+p7Yv64H3mfWE++v64X31/XG++sl+2B9b1SnUbn71/W6xmh7+efpgw/WX2tyOe+t64X34mTr6bQubdtP13Ide29d72uOkcu73rE3e9z16kLf0TnZNa3vhXfW98Hrq3rhn4t7Ytv0rlg9ugMm9GuGvq0bISzACD9RUvGkvC8zTCYy8hdJlapuiLouQMkymFQJMwx6HbzNagzqEw7LYxOQdWALLh7fDvsPSbCf2AT70TjYj6yB/chqx5LW67Dlr4U9P06yI1R3srXMbEfXgtkRx/LoGtiYyZ/5sriN5La6I5ZxsB57DAXHt+BsfhIOf/QYEjdG4u5+LeBj1kOn1cFolJMTpT9n3qFdv0Pj7cPbp6Z9oBiaHAOYDKIZOpHymajf0iNA9ES3MDOiBzTB5qmd8MbaATiUPBQn9tyN3/b0w5ndXfHnznY4syMcf+5ogbM7wnBuO1kLnNvREud2RuDcznBmf+2MwF+7qsmo3B3hOHuNSeesynnO7WyFszsjcHZ7OP502JltLXFmW4tS9ue2lvhze/0x1jY7w3F2ZzjO7IzAmZ1t8Meuzvhtd1/8sHsYvku5F+9tHI5d83tjzr0t0aelF4JENbyMFN6jXDHKXaOcN0f0oBqTyisFUKLJDKNOhwAfT0wf3xsH9z+Gwu+3AcfXwZozH7bM6ShKm4KitMkoSpvqsBgUpdUfs6bFwJpO9Z2KogyyGIdNRWHGFG4NoQ0yp6CQLGMyCjKmoiB7NoqOr8al4wn48r8rETuhH4K8jdBpNDAZpBh7ScfAoaqkLTgw8LaofR8giJJHgOtFIzwNOpiNKrQPNWD2PeF4aXlfZKTcjV9298afO9vg722huJDsh4sWMy4lGHEpQYdLFk9ctmgkS/DEZWZaXE7Q4rKlBixBi0vxnrjkfB7nbZU+pw5XEvWlzaLH5QQdLseXsQTafmNzLu8yK+vGx1C5zsfRelWOLa9eJeXpcNlR3iWLERcTvXA+qRH+Sg3BuV2t8Mfe7ji6YxDeWt0Xyx8Kx6A2/gjxofwpLct1NomUj1W9eazXBSjJGU2sAr4mFeZM6oOTBxNReHwTCrJmAVnRsGeMgT1tBOxpI2FPGwV72mjY02hbfbTRQPpoIGMMM3ZtdH0Zo2HLHMXtDm4De+YokCFjJJAxgpk9YxSsGeNRmDUTRUcfw5FPNmLR5EFoZNZB66l1mraD50VxYKh9YOBtXqbNHSPD9SYT9Ho1gn00GN07AM8s7I7s1MH4fUdH/JUchCsWA6wJCtgSXGAns7gADqN1u0UoNnk7Wya4ADVg9ngXlGe3fi4B2FqOxQtAZSxBcLreSh5D5ZY6jtqsCsdWpl6OfVibOe6hNcEVVxM88LfFB2e2tUJ+Sm+8uaYP5g4PQdtADbz1HiwhnWYOkEfsVcfvp1yAkrPZjaIIg0kPvVaBkcNb4djXW1H0/eO4nBkLW/ZU2DOjYcuIgi19Amzp42FLH3dHmD1jPMhsGeNZB2rNHA9r5jhud3IbZIyDLWMc7NcY+fZEWDNiYc9fh6z9jyL6oU4w6j1Y4iKLqbOwQfXLw9XxA+dllOlkq1G+5217u9tWHm3lqIdoZKPAzXolujbTY924cHy5uSf+2N0RF7YF4ZLFgKsJalgTVSiyKFBgcUWRxRXWRFfYrjEXts2e6AYkKoBEd8CigL2azZbghoqsKueCxQ2wuBaDoAx89ngBZa3SYMbKozJdnUCqEhDpfFxVj60koBL4EgBbLS4osrig0OKGIos7ChNUuJygwflEL/y5Mwx5qd2wOzYCQ1uL8NMrYaRRlJQPxUbtSWrUrfyOrwtQFEfWG7UIb+6N/fsWwHYqHgXpUxhY2DPHAZkEGhNgz4hyGH0urxOqn9uoQy0GJ1rndse2QWl4kvwYGeOA9LFA+hggPRLIjEFB7hq8/cwsdG/nD72nSlKhWKKicwiP50bdyp8SP/Z2g0ndP7+c88Qe9pnyJLIwjbfeHUPamfHcom74fmcv/J0ajKvxKthI5UkQJLMIsFkEWC0CitjShUEUgZSz2SyuILNb3GBnoOMKW0LdNHuCDDmyAlQNS6bKOQNUJct0Pq4YoCp5LFOvytvXGdwc9zFBgI2MFEP53srAmCCgIMEFF1LM+GNPR7y9uhsie/oj0OQuTdVg9i4O98q+dDP/O9cBKFKfaF4MFWZP7ITLJ1JQmLMY1oxJDJpsDJwInmSAouWdBVAEg9Sxcrvz2+DG4E++HQV73iKc+notVswYAB+DisnCJpOXY7SHPOrDAVB8pB4fqccVrxrzAZbz5Jjrh+ZtIni69y4Rr63ojl93dcPFVH+mOBXGK2BlaoUETQROkknqBakY15hD4SCVoz4YC0XKIckGspTuiwOiZJhKEGBNIDCWVKmrCUpctBhxdk9HfBE/EFMGBCFIVLIRmWwmdMfoPMmXqv7gUC5AyUP9DAYdmjY24JXdE2H/Pg4FadFMdQIDJWdwIgXqzgSoG3es9VNd49dV1fsWCWSMhT1rMq5mL8frO8birhZ6KaGcARRBlGwcoG7maY4fU/U/8AbbZo7RduxtAUYTfA1K3NPRjNdW9sAfuzqhMFmEPd6V5QDZ4qVOVg73UOdaDEwEVuWYDE1yqIgpHU6ddN37XD9AT27X6lo6gyOVKYEyLemey7llrrhs0eHvve3xZcJAjO8TAF+tgo3OlOaKcrxd5SYedsoHKNHM3g1k0ivRt7MfMj9YAnv+PBSm0VO4bBygOIRUFULq//62jIkoypmPr16dgnv7hEDroQKNUi2BJ4IoDlANtmO/iT9h3laVB0c53ELJwPJEiQa1EgPC9di3uDN+TO2Iyyl+sFs8WGI2wVNRvAuKElxLoKkMQFVXZ87LqWsQJ+WXWRPcUWhR4VKiCWf2dMTHj/fBfe284KVVsYRyo5kASvrPrqoSVT5A0bQFNCW8zgUPDgjAqS+XATlTYacncJbj5AhnFOc+yTlQBFX1v5Pk18DvYfk+ECkprXmxyH5/GqLuj4CuFEB5O0CKAxSHgspDAW+rG7eVDE7yUhpN5Q2jTouWvhqkTO+IH1I64XKiN2wJCjbKzL5VYLlPRfGu1wCUrELJ0OOsZMjr8nd8WdfAqOL6yPeOcsLIKEHfmkA5bFIO3KVEPf7c2wEvL+2ETsFaeBm17IXRzJ8cUxxU5fdYAUB5SaMZdC4YdXcAfvvmESA3xpE0Tp1rRQBF23nnW3EbyOodb6eK26gu+08kWO5f/izkfRSLqSPaQa8mBYqASQ7fkRrFAaoqf0J83xsDBG+jkvl7mEpACpTBAH+tAvOGhyDd0gvnU4JRsFUF21Y32La6MHiykvpUDkDJITwZjqiDldf58s5rC0oyp/takOCOC8leOLWnD1aPCEWYlwLeohEmkR5+Hf/bVVCRbwhQY4b644/DMkDJQ70JAEhtKmscDOonGNRlaKlLdSOAGg9b3gzkfzQdMSPbQq9WshdXyrP1Sz/Cqv8QeXlzfS0AACAASURBVAfJIYL7wHV8QJ5F2pH7RMPQtUol+jf3wNsr2+HczpYosmgcOU8uIHAqZXJ+TJklh6U7D5ZK7qnT6DzHKD2ak6ooXsDf20Pw9RNdMLK9Hv70kmaTA6CqOPDnxgA1LBB/HF7JFCiauoCG8ktDvp3VFOf1utTh1bW6UAhItrpWN16fG8OvA6BypyP//6YhZmQbB0DR+/EImmS7TkdQhacb3qHydmzoPlCckyKaYBRNMDimLKD32vlp3LDqwRCcTGyNq6neKEpQsOHslOBNycQlHSlfb+htISlQElDZLC64ZNHiz53hSI0KQkuzAl4Gg/Qg7MiFquzvruoAlSkDFO9wK9PhIoNGbxE0UXuVhSeu2N24DeuSn1UEUIbiOUXY+5Y4JNXY0PXK/rHx/e5A+GQAZYbBLLIHl56hSry5rDUubgsATXgpd5ISQJUMb5fmCHLMOl7OEP+GDhcN4/olf5B8QYA1XoA11Yi0Jzrgnggt/LRKmIxGyLlQlf3/qACgKL4sJZGPGVpGgeIAVYk8Lycwyo6CPSca9qyJTlM9yIpdXYIDXpcbw1xFAOVQoKr49FLZHynf7w6EAQ7ZlYNsR0iF8gzNJpF1cDrRCFHtjpkDvJCxtQ2ubvNir2PheUxcabs+DDoUKArn0ejMBCXOPdUdq+73Q6jeDSa9XhrZWYVcqHIBymikN1jrIGpdMHqoP04fWuEYhRfJZuYuPWsz73gr6niLMqNwKX0izqdF42r6JNgyomFLpxGLToBVPKqRQ1VF7Vh3tnOA4jDHYe52+IAMUAaTGWq9BqEmVyRGBeBUUiiKkjUAm426BCA4TJW0xfWhoqHtJylR8rsAr+6NwEtzm+EuHyVEnRYGNhio8jmsHKBqZNRgJOxZ0fj984l4JaE79qy6CweeGoKijFmwZU5xAJRzOE9Oxi8LVmXhVIassvuV/Vz2uLKfncuR18vuwz9fC24coG5H58nPyaGN8gspcVxvEqHWKNE1RMBrixrjTKo/ChOV1wAUh4aGBkaVvV4HQDleeHxlRzC+fqwNhjbzgFmnAgE6y2WtZDSBA1QNABSyJ+By9nS8uX0YWjQSYHAXMLq3P34+EAscXwB7OkELzalFEEXrBFDybO4ELjLUVHbpDDvyMdI2NmrM6cXI9PnG5TuXx9dLQIoDFIcZDjO3xwekARo6owmeGiXubeuGL9YE4tI2EUX0rjqLlOPEwamyINFQ9ysNUFdTvNgghEmdPOCtdYXBKA8EqpwKxQGq2gFqPOx5U/HjV9Mwa0xTuAoCXAUXNAvwxD+fGAj8sAr29ImwpY9xQBQBjbMCRZ+rCi0EYvIkp6WPld/jJ78U2XbDHLabOX/pc1a9/vXleA5Qt6fz5NDSYNu9eFi5CKNRhMFggkmrRHRPLTIeC8DVFJ0DoCiJXJ48saHCAb/uGwN0CUBRmPdKoh5/7GiDJQPV8PUUJP+iHCiuQNV2pxwJW/pY2LKiUJg3Cx89dz9aBgpQK5XwNpmg9xAQNSQIZw8uAHJnOtQnGXpkiKJlJJA1FsgeC2TRCL4xQMZoIHM0kBMJ5I6XLGectE/maNgzyGQgI5iSrp3e3UZl2bMppDgWtowxsGWOkcrNGQ+Q5Y4DqCx2LlkVq+22qy/n4wDVYDtynvRduaTv6m6nYoAyw2QUIRqN8NEqMXuAEXkbfFGUrIY1UQG7RcFmnZZmn+YgcWOQaNhtRPNB0WjNgkQNzu8Kx9rhavhrqxugdDyJXIaRGy8JoMbAljMFp7+bh7iZbaB0FRDeJADjRt4Lg4cbwkMNeHv3vcCxZUBWlPRy2uIpDgiexrM5tgrTI3E5LRIF6eOBrIlAziQUZUXj7KEJ+PmLsfjp8zH4/ZtIXEqPAnInwZ5NChbBD0EUmRQaJPWpIH0cLn8XicL0CbBnR8OWOwVXMibh9NeR+OnzUfj5i9E4czASVzOigdzJsNOowSorYPUFgG61nhygOEBxNaxWfaAYoEQ247+o18FHo8D8QSLyH2+EQgZQFMKT3nvGAaphg1FlwbEEoDxwaW9LPP6gFgE6FxgMNKLaVA0KlEEPs84FY4YGSKPwcqeCTaR5wxDQrXZS9fX4SCAzEta8WBx8Kwb92muh0ygwcURvvPZiMtqEeUHUuWHx+AhcSF8K5E1l+5fkQo2DLTMKV76LQsbLQ/HPNR1xYM8gXE6fg1OfT8d7u4djy6JOWBrdHIsmNsXa2FZ4bkNvfPf6CPydNhnIjQYyx8CeOVpSmrKjcf5QND57sg/2re+IjJfvweWsBch6JxL7Ng/A2tjWWDyxCZZOaoJN89vitaSByP9gNK5kT4U9h0YM1tf7UJP15gBVq51ndasZvLzboyLdSruXmcbAbNDBz1OBBYNMOLLRjwMUnzD0piZMLQEoFS7vDcMTD2kRpHOBUV8NAEXv9aJ5oBhAlZ2JnANUBQpNJGw50TibNRfJqwfB6CEg1N+IZ+Kn4IesfZg5rhuULgK6tfTC5y+PBb5fAGSR6kTKkRTKs2VPwp8HpyJx3l0IdBPwUOdGeGvXSCyb2Bbh/gJETwV8vXQwmzyhUbrAy0PA3Z10eObxXvjj8FRJQcoYA2vmaFjzp+HYgWmIGWZGsF7A0tEheGPbSIzu54UArQtEgzu8zRoYdEqoFQKamAVMGm7Ce3uG4ELGNNiyoiu4zpoElLpeNgcoDlBcgapVH3AGKNEMb5MRflp3zB9sQv5GUqA0sNIkmlyBuimQqKxic6ftVwJQSlze25wBVGMOULenA6aZxml0W1HuNGR+HIOhvXyhUrhgaPdg5H24CueP7cBL2yaikUEBX6M7C+8VHF3EgAeZYx2hvHEggPrj4Ew8PqcHNIKAIKMK3Vt5obFRjUE9m2HexG5Yt+g+LJ89BA8Pb4PQIDPcBAHN/dXYtaoLzqfPYOE8a+YoFB2ZgfwD8zDu7iB4uguI8FehYwsjmgbq8MDdrbFkRk+sWjAEcyb3Rf/uYfAWNVC5CujX2oT9e4fCdmQWy+fi4Txnn+IAVaud560oF/zY+qc2lXfPOEBxMKoBla0igDJxBcq5w6uddfaqlqxoXMiYjee3DoZZK6CRlwc2L+qOK9lrcDV3JfI+WYSHBjZmeVGD7/JB3nsTgJPzWBiPkr0ZqGRH4/TBmXhsXm+oBAEKQYC3yRPzJvZB5kdrcOVoIoqObcGVo1vx/cEnkLBuApoG+TCI6hRmwIfPDIH92CxYSYXKn4n8AwswdlgIGwno4eaCVs29kBL3AH48vBmXjsWj4EQCLh5Jwbfvr8e8yf1h1KvhqRQwYUggfvl8EnA01qFClSSmN2yg4gDFAYorULXqAxygOEDVKEBRCE9SoCiExwGqFnN3pDmWCNLGwpYTg2OfzMCE4f5wcxXQta0fvnl9Guz5s2HNmYJzmYuQuvZ+eKoEBPmqsH1VF9h/WAnkRIFUKJb4nT0Rvx+KRdy8vgyKlO6uuLtPOHL+txXWU1thz1sMW9ZMFOXEwnpyHX7N3YE1Cx6ARiXArBOwdGJTXM2ZB2tWNKz5s5F3YDFGD20KQRBgNqmxeMYgnM3fhaKTm1CQPR9FWbNRlLMUth8SkfnxJtw/qDUUlPgeqsa/E3sBJ5bAnimNDGzY4CSDOAeoWu08y1Mk+LY7Q1mq7H3kAMUBqlYAypPlQEkAdYvTGPAcKLnDvP6SAMqaMQG2rAm4mh2Lt/eORhNvASa9Cgsm9cKlk0nAifnA0ZmwHluJr996BD3a+ELtLmDUgMb4/eBC4EQs7AygaLoBCaDWzevD1Cdf0QPr5vdFwcmtuJo5FdaMKNjSJ6AoIxKF2VNQeHQVPv5XLFo1UcPdVcA93QPxw6fTYc+fBWvebOR9ugijhzZhABXR3Aev750A24k1KEifjqL0SbCmRaMobRKKcmbjXHYcdmwYB7NOAW+DgFUxLVGYv5yNAJRG9V2/LRoGYHGA4gDFFaha9QEOUBygahWgDLc+EzkHqMrBAgOozCjY8qbi529mYMmktgx8GvuZsGnFSBz6eCUOvjECB197AAffmIh3XlyAcfd3YSG1sGA9Xt0+DPYfFsPKph0YA2RHMQVq3by+rJymQUY8bxkBnFoPexbNBzVKmhcqazSb24nylHI+mYMHBoXCRRDQpbUvvnltPOwnF8GWNwt5BxZhzLCm7Lvu7Rvj8H9nwk65TenjYE8bB6RFAmk07cE4FOYuwv4X5qBlqJGF8SbdF4azacuA/BjHtAiVa5M7G6Q4QNVq51lZlYLvd+eqUhygOEBVO0AJKMmBkkN4GkmBMhhgIp+7lYk0TSZzySi8oYH44/BKIDeGT2NwTXhwPOxZk1CUNxufvjQK7UIVDFYMGnd0ivDBgM4i+rV3Rb92Avp1UKJXBzPCGhvhLggwaATMHBmMvzIWwJo9mU2GSa+AoRAeARQlh4eFmvHKznHAqXXFuVLIoJDfBNgJ3PJjcfyr+Zg0qg1Tmdq39MInL46G/dQyWPNnIO/AAowZ1gRuLgIGdA5BzgdzYc+bCVvaeNjSomBPm8BAihSmopz5OPDKQnRqJSlkYwY3w69fLwKOzADL8brm2hsiUHGA4gDFFaha9QEOUBygqhWgSmYilybSLA1QotEBUDQbeSUezCp+lYtBB7HsRJqZ40CvBOFzBEnwgAyaxTsGf3w7Fxvnd4RSEKBSKhDkL6JZsBeaNjahaWOjZMFGNA02IbSxGV6ijgFShxZmfPTiSNiPzYON1KXs8fj90MwSgAox4V87RgI/rWFzPNE8U8iMhp0mxUyfAOTPwPEvZ2PKqFYOgPLGx/8YC/uPyx0ANZ+F8BQuAgZ1DkbO+7FA/jQGTda0ibAziKIE8TGw5s7BZ6/OQZfW3vBQCBg9uDl++WYpcJQDVImqxgGqMn8qfB8OWdXmAxygOEDVKEB5sCTyTQ+qEaSl9BsDjEaTw4wwGh3zQlUAUxUDlF4HUctnIi/pPK9VXJA5HtbcWKS9HYPBnfVQKFzRLiIQW+MmYe/Widi9KRJ7No3Fns2jsWfLaOzeOgbbnojCjOhh0KkV8DG5Y1Vse1zKWQp79nhmkgLVhwFWaKAOT28dDvy0lr2KhQDLlkHv0RvHVCjkz0LuJ7F4eHBjpnx1be2Hb16Nhv3EYljzZjIFinKg6H18PdsH4tv/xsB+LJYdX6JAERRE4mruXLz3j2kID9VAoxQQdW8LnPluBXBkOlegitU3DlDV1jFW8IfEy+fwVcoHOEBxgKolgArUCjDqCKCk9y4SPMlWyied/rs4QBV3jtcC0vXgiX2XE42/M+fiqceGQlQLbC6l1QuG4/KP+1B4IhWFRxNReCwFBceScfW4BVeOb8Hl77fj6/e3oMddQXB3E9DnLl8cfjMKODadzeF0+lAs1juSyH1Ed6yd2wnWk6tgz5beY2dLp/fj0bvyJsB2ZDb+93IkOjRVs+kR7ukejO8/nScpWgRQny5kOVA0Cq91mBfefvph2H+YB1vaGCBtrMPGMHD7O2se9my8H156AaJBgcUxHXE5Lw7ImcIBqthHOEBV9EfCt3PwqREf4ADFAarGAMoFBYklClQJQJkdEMUBqgZn0yb1aTryP56GUQP82fD/bm398eXrC2A7sQFFWTNhy4yBLSMG1oypbNRbQfoEFOTNxumsDXhs6XCo3AX4eymxZXEHWI/RS4ZjcPrQrGKAotF69/UJxLGPY2E/NhO27IlANr2zLho4HoszaXOxdf5d0LkJEHUKLI5qh0tZy2HPiYE9L7YUQPmZVVg9uyPOZS+APX+69C6+zCggezKsR2Yj/b2pGDO4KVOrmoWa8GzSCNhPxrFcK54DJcM1B6ga6SSdnuh4+RzESvkABygOUDUKUJQD1RSbHvRACUBxBaoGwYk600jYsybiUsYsvJp6LxqRaqNzx6KoDriQsxbW3JlA9lggk0bNjYI9fSTsaQ/Bnn4vrFmjUHBkCT55dTYimuigUgi4r5c/fvxsOnB8IX4/OBvyNAY0kWYjLzVWzOyAvE+m4K/0mbicOQ0Xs6fhp4PT8ULC3WjfxI3BW6cIb/x3z1jYjy1ms6LDCaBohB5Nc9CumQlPbx6CH76ehQsZ03ElcxrOZ8xC1gdTsXZGR5g1AtQeCjw8vDVyP3sE1iNLpLKKX3gsg0RDXXKAKtW5cfCpVKIpb7NbgEIOUBygagOgHuIAVcPQJEODFEKzZ03ByU+mYfoIaabv8CZeeOvpKNi/X4EiGlWXNQH2jPGwp4+Xco7Sx8KaPgoF6WNQkDcHPxxaiZkTurLk79AADZ7Z2JeF6n4/PA9x86QcKIPGA6EBPgj2VWDCcD9YlvfAsxv6YXdcLyyZ1BJtQ90YGIUFaPHEwoH48/AK2LJjYE0bDVuuHMJrAoWbK8wmLQJ9zWjpr8H8qHBsX90Xz27sj22P9kbUvaHwNwrwULqhV6cg/Hv3BFw9thZXM2kKg3E8hMdDeBwUOCzeHh/gAMUBqkYBikJ4TbGp2gHKoGej8MYMDcDpQyuA3KlMeeGj8Ggk3FgUZkzGp889jC7NBPgYFBh3X1v8+u1q2I/MgI2SvTNlcBoHyltiljYWRWljUZg9CRdylmDf9kkIaaRFgEHAjPsa42zaYvyesYQBFCV+NwsOwLI5kRh9z11oEqCDl6cAP40AUSnAUyHAV1SiZ/sgbF40BL99E4ei7IUo+i4S1rRRsJECdWAxxgxtApXSDd07t8TiOWPRvUMIGpndIaoE+NIM5koBOrULGjfS4t6BEXghaTzOZcWhICcWRRkEgTI48iUpj2z2eQrd/t80xIxsA71aCdFEIzUqP3stVyRuQZHgIHN7QOZ2tTsHKA5QtQBQTzzkwUbhGfUGmIxyDpQJRtP1R+KVm0TOJ9K8HiwQQEXiSlo0vto3EiuntMejM3pg/z8mwXZiLWykPjmmeqDRcmzSyvRI2NnklTT/0gQU0WziuXPww/+WI3XVECyd0B7bl/fEr1/OYABFITyaByo8LAivP78G+V/vxbZ1D2JaZGc8PKwTHri7E8bd1xlxcwfigxfm4K+MjbAdeQRFaTGwp9M8UeMAx6tcaCJNSlYf0q8NDn+Sik9fX4x18/th4v2d8dCAjhg1uCOmje6KxNX34tA7S3Axdz0KsuehMH0Cn67iGnjkAMXhj8NfrfpABQC1YLAJ+RsboTBZA2uiG+wWN9gS3GBPcOXAUa3A4XKHtafzPFByEnlTPPGQGkE6msaAHoa9QHNhMj93+F9FPs8B6ppO8nrwJH1HSdW2jGhcyViISznrcTl/A67kr0JRzizYMycwgHFWbth8UenjATbv0kRpIsvMKSjKXYaruY/hUvY6XMpagcKcBfj94NySeaBCvfGv3TNhP70Pl48l4deMBBw7ZMGxbxJx6nAiLuSlwHZ8M2w5i2DPmAxkRAOZE6Xz00zkny5mo/BoIs3+XZsj69P1sP2UjEt5ifjlcBKOf56Ak18m4NfvLLh81IKio2tRQO/ay4hyzD7OXyLsfB+5AsXhoaI/Ur69hnzjOgB1hAPUHQY3tQFrHKDqSFiJwnRTYM+h0XGxKMqk0XYEMARQ9ALeEhArBqh0mv1bmsDSlhYNW9Z0WLNnwUrglRvLZgn//eAcxM3rxxSoFqFeeGVXFGw/PoHC7Gmw5s2C9chC2I8shj1/IYqyZ6MoYxpsBE/pEwFSnwjUKOk7bzbyHQBFE2kO7BqC7A/mwX5kPmzZs4DchUDeEmb23AUoyqKQHb1vLxo2Hrordf9K7iVXoDgo1BAo3K4QWV0/b0UANciEsgBl5woUB6obqm8coCro3EqApaTDq+ltpNCMdRgll9MEl6XhSa6LBFETmArFlKjvolD8WhY6LisK9typIIBaN6+/A6DMeG3XWNhPrYYtcwRsmQ/DlknvrpPPSev0jrxICZwInpwAihSo0cOagM1E3iUYeR/OAI5MleaRonmgKKzIQI+ug+ovXYNcZ76U20decoDiAMUBqlZ9oAxAeZmM8NO6Yz6F8B7nITzbDYGhNlSd+nQODlB1CKBoZnDJ2Ig7GnXnpDyVXUeGA3DSooA0Uowo3EYWBWRFs9fCSAA1oASgdo6D/cc4WDPHwJo5GtZMRyfudN7ichk8OUbN5c1G3qeLMGpYKAOowV2Dkf9/s9i77SgfC/QqmIwo2BxmZ2E7Ct05Rg9e5zrKXlfD+cwBqlY7z7qujvD61XxCezkA5VsWoCw8B4qDVGUhjgPUdSGlrnfmxUoUhdvoxcAOYCEFCjlT8fs3c7Bmbn/2apYWoWa8uoMAap2kPGWOgo2pT6Vzk1iZbLoBecqBSNjyZiP300UYOSSEvUy4f+fGyPtgBpAf41CaCPbKmgxP1wfBut7GNVc/DlAcoLgCVas+4AxQJjO8TAYQQM1zKFBFyRrYHABFITwbTyLnYbzrqnK3DaCmsdFlfBoDOZxzK0sZXAhYpKkCJICagjOHZiE1bhjatvTBff2b4f3no4GTqx0hNgrZ3ei8UjjOlhuLE/9biIXRbdC2hRmTR7bDiY+nAXmT2ChCCZ6oLLkuzssbnaPhfs+nMeAAUasA0dBVrlIAJVYMUAyeOEBxJepGSlQtA9TYYYH449uV7DUjNDyfA1R1woMMLVIOFIXxLqfNQOa7M/DqrrHY/8x4/PTZAthz5zvAqbTyVDFMRcKWNRV/fTsfX/wrCq/tHInPX4nBX4djGQRLOVTVeR0NpyxbxjjYcqch/6MYp3mgDHweqIbe0fPrr5lwXjkA5eOsQCVpnKYv4ADFAeoWAEpL0xjQfzlNYeCYxuAGv+sbTmMwekgATh+miTS5AlUxsNwsQBBASceyJPLMKFgzJqEwey6K8pfDnrcM9uy5bJSdvF9ll5TbZM2kkXuLYD++BrYjK1FIn9PGwpZOVlkYu9lruzOPKw1QrR0TaXKA4qoMV+ZqxAccAEUT1ZrJjHqUAigK4RWPvmt4AGVPcIFsBE/yOi0rC1PyMZXdv37vV74CVa0zkbOJpIx6eOkE3NfbG6c+XwzkTWfzC9kck0RWtiPn+1UOJJBF0x9IOUjW9PFssk2CIJbcnV4CWpVvz/HsRcA0LYE1cwozW8ZE2GmUIBspeDNlVu5aKl/H+leeHMLLem8Sou4Lg0GthJnPRF4z6sMNnv5qpMPm56yj91KE6AAob08pB+rIpkZgOVANAKBkyClvKQON/F3Zz2W3y983zGVtAJRohslogJfeDT1bGXDwtUnA0VmOCSJpCD1XL6obEmj6AxmgaB4mNhdTJo2SGw9r8XQDVYAeepUMU7QmwpYZDTuzKCDbYQzW6h/AVHe7V628SAaltpxY/G/fSAzr7g2DRgWz3OmKYh3tfLg6wmGrnvsA/bZEEaJRj/IASkoev7MVKBmEyi4JhJy3OYNRRdud96mP687XVXb9+tdTWwBlMsJsUKOZnwp747oBJ+az5GNkyPMQUWcuG++Iq9YRX9teEkDJgOSYk4leyZJJ+9LrYySFSt7vxssJrLOXZkan17s4jqfRfgRRTPEiaONWURtI95TuiTw6MRL2nMm4mD4bzz/eD62CFDBq1ezJmHXQHKA4QMowzZfV6wsyQJkqAKh4eoWLbJUPX12/s61L5Ugdvy3h2iUBBF2H1bG0JwggK7uvvF3en74v2Ub716XrvVFdnK/vRvs6fy8dB9Y+Ja9yqeYQnuNJ2miAj16BCYO98cfX04AjMQCbyJEgSu5Y5M7lWii4VahoSMdTJ14yMk5qS+dtFXXyFW+XAYrgSbYJDnCqKow1TMgq8T9ppCRTXo/E4ujH0zBnVDP46BTsiZi9SJh1mFyB4kpPPVd66ir4sYeT6yhQVQCosopFRZ/rAlA4w47VIsBG5oAj9plBkKRAlQAUfRZA3zubMzDJ11afAUquu3wtlVvWJkCJZpgNnmjhrcLzG7qj8OQi2HOpcx/lUC4oR2eilKfDntKpo7kTTFaCqgsKZTiq7nKvVz/5nM73Q952veP4dyXKqvP9igRyJ+J85kw8/8RAdAhVwqxTwiSaYKSQNweo6lUc6mpHzut1e+7zTQKUMxxJHaysUpVdOqsUdWddBigCoSIHQJWAg6QgId4FiHdlL1JGgisQTy9VdmHwRMfIJgOXBGB0jXLIU1as6s513wiG6PrgMOd7LLdXxcfXKkB5wUs0wtfTDYPaafHZi/fDdnwWbHkUAqJJGynE5NxB1/f16pyJ2wErZUJkZVWmEpVDAhca5VV2G/98+9rExvL9xgK50bicMx0fPnsP7u/iDbOHK7xENYwMoGTlSV5yFYIrUdwHqtUHbhKgqCOVO1VpWRacpM9yJ1xxx3u74UJSkwieKPzELF4AmEkARRCFeAUze4IrrAkCioqVKAmoShQsum4lbAkKR+iPwKIkl6rutoN0Hxg0bnUFyBhASkAl3+uK618bACUPHRXNEE0m+Jg08NW64OHeOnz+0n24lDsTODoZ9qyx0szYLFenvod55LAWveJEmtFbfjdc6Zm+HeDI9qEX95ZjpaDJqVzHi4aLw27XHCuBQrllXrNvOecttY9zPZ3Xb3RcQ/9evvf0jsHRQNZY2HOjcT59Cj58ejgm9muERh4uEHUeEM0GGEUjgyjqLGiUULV2Glzt4O3JfUDygVsAKHl28mL4KAYPB4DIQOJYSgqPDF6lweLGHXQJaMlQVpVjKu74pbBcMTyR+kLX4Vjatwqwx7vATkqUQ42yxQuw0na6rsTS+U5s1vZ4JWzx7rDFS0qUc32rq87Xu56b/Y7qJgGUAGxxgsji3K+Se3DtOWoDoIp/tCJE0QRv0QAfowo+WhcM66rBSwn9cfKzSFjzpsF6NAb2I1Ngz5vEOhrk0Dvd6qtNAnLIomHPngg7W9L6tSbtJ+9/nWXuZKAiY+e6zrH8e8f9qM02igbyooEjk4AjU1CQNQXffzwG+zZ1xYjuZgRqXOGjU8PLbIDJTOE7IwvjcYDiiguH5xr0gSoClDMATu/CLQAAIABJREFUWJka4wq7xQ1IVgEpGiDF08k0QJIKBBXlhYWoE3aGi2s75Ws7bOf9netSmWPL24fKkGDJoTZRqI62paiAbZ6wJ3lAuk6BKU92CwGVgMLNpEK5wZ7qAXuSiilOsLiCjIHTVgXsW91gd4T9nOst16M66i+XVX1LVyBVI1mSCkh0AywSZF7/HLUJUKREiSaIZi94eZkgGhQwqgV0CFZgybhQvLN7KDL/byx+PRSNC+mTUJA9FYXZMSiqdzYVRdlkVPdpkuVMQ2HONBRkxjjZVBRkUqc6VbLsGHa9dM2lbVqZz+V87yi/MJv2dRhto7KyuNV+G0xl7U739kLGZPz2TRSy3huBN1P7YnlkMLqFCgjUusDXoIKX2QST2YsNqzY5ARTvQGuwAy1+qOPnaJB+VkWAuqYTTVTCmqzD2a165D9qxOFFIg4vNCNtiYgTcUac26pHgUUDa4JCAqlkJZBE67IS5QIbQQfrpEsDVal9imFLYMcjxR12C+UnlShAJTlIcjn0nQRhZcsquQ6HkkTlU6guQQEkq3HeosPJx0T89JgOlxLUKEx0QxHVkQAqwQUFCSr8tsEDB2drcWS5FpcTDECiCnbaJ1kJexKpUG6wsSR8Cb4o9CefV6pP6frJ3914KYdLJbCRlT06jkKM5R3vfD7n9ZJ9pbpdTVDh1HojTsaZcMFihC1VW9zOJfteC7ZyAn6NjsKjsB37kYpiSY4H5XqYtBCNHjB7quCndkOnUDdMGOKF9dPD8dTqzvj35p54I6EP/mOpj9bbUe+++E9iP7yR2BevJfTBq1t74ZUtvdiSrW/tiVfjyXrhtQSy3lWy1y298bqlT4VW1fL4/lVr/xu117+39GK+vGFaC0QPMqFrqIAAjQu81Qr4Gj3gZdIxVZbmpJGMd+gNskOX/yP5snbCrDcNUDRyzQ1XEvXIXGbC3vvdsaC1gJhgAdMaC5gRImDFXQL+M94dpzcZUZBEIOWJ39Zr8ed6JQrjFSXTI1gkiKLOvzyjUCF1+qwDT3TH35s9cPoxNa5sVTL4KgECGUik/aXtdJzT8cUgJkOAlM/ERtLFK2BNNuDkGiP2jVJiZWcBz94nsPpbk9WsHLDReq4o2O6NL+apENtYQEpfAb8/4Q8ka2G1uOO3DRr8sdEDBfFKh3pFeVKSyRAiX4+0LF1f+Ts5RCofIy1leJKW8jVK4ETlSAAlb5ePlcuseDuBqRsuJprwj+EKrO0o4IX71chboUOBxaO4DeVy5HJLlrWgQJUAFIUoyAikyMzMvExGeBvUMKldYVIJ8NcICDMLaOsvoENA/bf2AQLakfk7lvLnMsv2gQJq0toFXv/8rI5l6sS33VqbtfGXfDnQU4C3ygXeFLLTu8Ns9IRoNLJ3JLFRdw6A4nlPHCA5QNaCD1QRoEjtYJ0mqT+pOmSt0GNJRwUGmAVEhotY1icIK/sGYH4Xb0S39MD2oe74ZaM3rLuC8OvjZjx9twIfRClwPtkH9u1apjxZ4wVQXhF1zhQysie5A2SJ7qDRbxQyY5boBtsOH3w4QY3nBwg4FScC2wxAkpKFmYrzmBJdgGQFkKKUjNYTJbXGWaWSO38GN5TflKzH6c2+eKKfCvcYBUSG6fHsaBGnN3vDmuQh1Y8UqEQ3XN3mi0PLRGzo54kXHtbh980BsG834EK8Hk8PU+DN0QL+SjDDTgpOorsDDB3hQgqLJbuX1C+pJEwmXYMLgxkpfOYqKW60Pxm1C8tVovwrV0c5KimEmqhg37HcLDn/zEJlkarmaAtqE6f2kIGIqViJbriY7IN/jzZjVns9+nu4YVV7AT/GGVGUKAFk8f2XgbZ4WQsAVfyH4AjhFT9pyyE9mmTTZGBP494mDYMps1YNk6caJs0dZnRN5dmddp38eiTf9VRDpBwngxreJk/m42aTHqLJyAZUsIcL+XfB1YfaUR94O/N2vkmAsia6w7rTD/8Y44nOooDIDma8u6oH8rYPxJHUHsiO74AvHw1GXpwPzid640xSMN6YpMeDfi54rJ8Kh+ICcWK9EWc3uKIwQQFbogoXtyjxU5wS+cs9kLvUAydXeuDvTUqm6tCotivxahxb54t5LT0wxiTg7ek+yF9txs9xpPa4M7Cxp3jgkkWF79eokLVUg+xlapxar8SVRA/Yktwc8z1J6pMMD0zpiVfAvssfXy024+4ANzwc6oH/LmqPU4ltcNFiYkoSgxsLgYsClxJF/LQ1GIeXeyE/LhBnEwJwLt6Az+bo8GAjNyzrIODgIz44vsqIP9d7wBqvAiwqIMkT5zapcHSFBzKWaJC3Qo3Tj6tQlKRhoEXhTAp3/vGYEn9scMelBD1+Wa9G7jJqEzVOrVXhaqIO2Cbiry0aHHtUjaylnjiywhN/bvKENdETdguFSF1ZbpY1SYPfH/NA/iNqZC3TIHeF1B4XtipRZJFVQAkuKdfrcqIBZ1Oa46sNnXFPU0/0dhdwYK43riR7w8bKlVU+WcGTl7UIUNRZlDYaZSSFLoyiF0wm7zJG2+Q3GfMlb4v66AOU2+QFo+gNo8kHJma0zSyF7Jx+E8UPGryD5x0894Ga9YGbBigVCnYGYefDOoQbBMwe0gQ5Kf1xds9dOJsSjL+SA3B+ewgu7wjE30neeDtGh0lhbohQChgS4ILFnV2xsZMLPpss4GKSAb9tNOC1cSps6OGKR9oKWBohYEV7AU8Pc8fRlZ64muqDvOU6bO7rim56AR3VAma0dsUj7Vzw7DABv24wwr7dhF8eN+KV8Wo82tkVc1sKmNNCwOoeAvZP0+CvLZQUTmoQAYMMURIQ2Gmagt2BeH+2iO5+bpjdW0TW5s74K7UZriaoJfWJVB0CKIsbriY3QsZKfyQNUeLViTr8YmmFz2bqMK+VgAiVgEGNBCzvJGB9WwEfjBNwYasJtlQvHFthxt57FVjSRsDcMIGFPeMHKXBwsR5XUkwoTNGw9nj5PgV23y3glSgRW/q6s/aY30LAqq4C3psp4ttVgXjyYQ1WtnPBfEc52+5WIXelFC61JelwwWLGZ9MMSOjjhkdaCVgSLmBRhIA1PQV8NFOJCxYdCIRJiZOUJVcUWpS4nOqDH5+8G1O6GdFRKeDtWYG4tK0xbBYlm+ZBbjtZwZOWtQhQN+ogSsNVWdjin3n71GMfoMETDli60e+Af18LIRwOKDULKHW9fW8SoIosShTtDMRbs/3QO1CJQSFK7Jvojx83BOBqkpklH1tTPVCUqsG5RBNejQnA6FZmNPZQoF+oGQv6NMOG3oH4ZJoBF1L8kLZMh2Wd3TC5jYglfYKxtG8YRrb0RW+NO7YOcsePlggcXN4Eq/sGoJVejXCdElO7hGJ5r2A8+ZAXftjcBKcTApE6XIkhooCHWvpjwYAWmNmrBfoGeuKhxgLejVGzHB9K9qYwmHOoi1Qb7A3C/vle6NZIgUV9VDixKQjWVBNLBnfelwCqaHtTfDzbD/f4KfBobyWOWHrh/dgWmNHejCC1At2DRXaNcb388e5kPc4mheLYWj+s6uKOwb5uiL4rBMsGhGNSxxB01qoQ01LAtyvMOL/dH6e3BWN+hAe6qAUM8RMwub0fFvcNw4xuzdHV7IFBjQWMChfwYDMtZnVpguX9IjCilT/aebgjrrsrfn2iEQp3hOKzWCMi/VzxYBNfLOrbCqsHhWFBj2CMjdDjubGeOGfxgjWR5qyS2kKCKAHWZHf8trsTZnXXootKwH9mh+LSrjDYqd0codZrIaoOAVRJIq2cUMuXvE3quQ+wuZxkpVUahcoBiQMS94Hb7AM3CVDWBDcUpIg4Gt8Scfc1Rh8/FYb5CFjZzQ3/jvTEt0u0OLPFA4XJKlxI1OGnXd0QHx2OcG8PzL8/HAdT7sfP23vgrCUIV5NM+G2zGV884ovDT3TAkR0DceypsXjz0YEYHmLCyGABn66MwO87u+HAY33Rp7kXeoWo8ebaoTi+YyB+TQ7HuZ1t8OZUEYN9XDCqtTfeWDMcuU+PQfpT45E68y708FNjRisBuXHBsCWLbFZxNkGmPMdRsgb2p8PwynRvdPB2w5J+Cvy0xQf2ZA/Ytpad18oVhdub4/05wRjkp8SiPlpkbe2JP3f1wUuzWqKFrxrRg5rhy8R78OP2zjiTEoLTKS1gGeiJ/kYBjwwNxeeJI3Hi2XH4MmkU5vVvirs07kgapsSp5Jb4cXs4ZrRRo5GbgAldvfHB+r7I2fUA0reNxLKhjeHv6YYwvYDkSa3wXeI9OLZ7BN5eOwR9QwwYrBVweKk/zu/qhOTBWrTXCHh0REd8vWMyTjw1Eke3D8BXa8Nw/PEAXEk0sLCcM0BRmNKe6Iozu+/Cwt5adPAQ8NyUIPy9uzWQ7An7VlLuCJbk0J28rEsAVdefWnj9GvZTK7///P5zH7gzfKDKACV3mC4osLjj7+2NkWPpgGemtURMzyAMDNGhv9EVUU0E7BymQt5KLc4neOLsnrbYHe2Prt5uiLvPFyeS2+Hqdn8UWjzYlACF233w145QnNzUBOnLg/HNI23w1vwOGBViwFA/AW8vbYG/97RG+hPtcE+YAfcEC/hyTTtc2hmGolQzzm1ridW99GirErDw7hC8tawLPl0Wjo8faY9/zu2IgY316Ooh4N15zXE1xQ8gxYnNME4jABX4baMOXywOwsIuanRvJCAp0hu/W/xRlKgqB6AEFOxohvfmhqCfnwrz+2iRs7kDiva0xnuzfdDBV4F5A/U4ZmmJS9t9UbTTC/kbQzAqWI0+/38QzfbxrfDRss74ckk4DqzsivjRzdFJVGF6KwE58Z3w4452mBqhQQuVgOfmdsafezri8s4mKHy2M/49tznCvFUY3V6F7ITOuLizJS6lhODnXQMwraOJ5Sy9P6sRzuzujX3RIehvdseYDn7YO7kDDq5qgdNJoSjaEwr7Ni/YEqRwZgkMSTOx2yzuOLuzPbaNC0JPHwVmdfbEu7GB+GWdBkUWD1hp2gkHRJUoURyg7ow/BP7Hzu8j9wHuA9wHKucDtwBQ9JLdK4kaXNjeGKd3d8G38b3x8oI2eHRIY9zfVI3eWgGP93TD9+tFnNvbDnujRPTyErDhHgN+SAhFYbIO1gR3XLUYkLlUxJMPqrCukwtWtRKwvI2Ama0EdNMJGBwo4N1HwnF+T3NkbGyO+5tr8UBjAd88GoarqY1gS/HEz5ZmmN5ej+ZuAu4OEjA5XMDsFgJmNBcwIUxAbx8BA7wEvD2/GS6n+rFEcAIoSrameazeneSOyCYCItwFTOykxUdrWuOv5EawOhKni0f4OUa3Xd3RDO/MbcKUt3l9dMjd0g7Wnc2wf6YOnXxcsaifO05uaYSryRrYdppw8NEgDAr0QHsPAWObCpgZJmBhcwFzIwSMCxPQyyxgVnsBmVs748edd2FquAZddQLefqQTLm4LYEn22BOIt+b6I8LbHfP66/B9QjMUJRtgT1Tjt9QOiO2kQ0+lgHdnB+H0zi44ntAVSfc3xgNhnhjm7YqYFgIsQ9xxYKYn/t5igj1RGllYAlA0SpBASIG/U5rh0OPdEdtVh9YqAfd6C/jPOAEXk+WwX1kVigNU5X5w/I+JtxP3Ae4D3AfuDB+oIkDJyoPU6boywKB5gmi02IVkf5zbEY7vU7vg9cXtMayZHoP1Aj6c7YvTe7tiT5Q3A6j195px0hKGqylGWFNF5K80Y/ld7hjk7YoZHfxheaAZ9kSHY0tkOPr4azHAX8D+R8JxYU9zpG9sjvsIoIIFfL2qJS5vpzwlPX5IaI7JbfUIcxMwuXtjbBwZjq0PNcHWB4Ox5aEQWEY2xlMT/JC9IRRXUgg6CJ6o03f9f+ydd3hURdvGT3rbvukJvZfQQyhSRJEm0qQmgdB776hUkZZCCgHsXeyv+qlYEXtF0hOKoq8vdsEKKbv3d91z9iRLTCD0hMwfc53N2XPmzMyZnfnlfp55BoXbjXhzTjBm92mALsG+GNnWglcWNcbJRH/YRWgAp33ynADq1bkN0EsoUHrkx7dHye4meHWGAR0CXbHwel98tbUu/tmugy3dik9W1UXvcG9EWlyxcmBjJIxsju3D6mP78HqibKkjwvD8NCuOJLD9WmN6S1/0MCh4bXkbnNoRIlbUEaBemROIdgHuWNrbC99tDUcJzWopOvyQ1g7T2uvRxUPBq3Pr4tfUxijc1QQ/pLTBa0ubY/OQBpjQOQy9Az0wPFzBC3Em/JVkBdUmvktVSWIgUTrVM0xDPXy4ojnGd/BFVD094qLq4f+mW3AyKRC27d4ibMSZfUEC1LUxIMiBXb5H2QdkH5B9oGp94IIBimYcNxUwUryBZG5p4omiZD/8s6shDu8aiOjOddDBXcFTk4Jx/N6euHt8CLr7K1g/OAjfJrdCyU5/2HbXx57RBvQyK5gcFYB3NvbF9/cPwk+PjcZbmwejX5MA9A5RsHd5S/y5u7FQoAY30QsF6sCa5ii5ux7s6Qb8mNYKi3qZ0dxHwepRHZGxewyO398fP93bGz/f1we/3NMLv+7siJMpdXA6yQslIiAmI4S74nSCr/BRyk0fgPXD6iLC6IaN/Tzw4xarGl9Ji6nkdDyd3sRJgTIgP74dSnY3xCsz9GhPBaqPH75NbIDiND3sO0zI3tAMAxv6IdLqhj3L+uDYgyPw4/3X46e7u+Pne3ri5L2dcSK9KX5ObYTvUiMwvYUfeuoVvLGslViBKLbL2R2Ml2f5o0OAO5b38sDxLcHCR4vbzRxPa4Np7XWI8lDwf3Pr4URqfZSkmFGcHo6/72mPH+7tjYyUG7BjUit0tHhjfH0FR9YEoGi7b2mQTMKkUNq4ynBXEyT38xE+VEuHNMenyf3xv+TGwp/NxvhcDH7KDZUZw0v4Q0mAqtoPTg5Msp1kH5B9QPaBa6MPnCdAqaoNtzRxR1GCNwoWeePTOX7IW+WH/673wfGNvvh6vRVPTmmIHuF69A12xRsL6+Kn+3vh8Wn10DPYHdM6G/Hx2ub4ITEQv6a1wD23BqGrmaEDQvHRnVH4X1JT5NzZDFtuDkFbkweuD1Pw+oqW+HNXIxRsaYZxrQy43qzguWnh+O/WUPy8VYdf0lthz+xG6BXqhX4NffHYtGY4urE+ftgahm83hiNjcRgKVgTij3iLI64U4Unz53LD6SQjCu9vixfn1UfnYE8s7emG7zYHAsm+auBKJ3giZNCEpylQ83rqkB/fBiW762DfQjMiQ9wxqoUnPlhVFz9sNeLEVh8cT26Ddf2C0dHPDdM7WvDmksY4tjUU/93kj6PrQnBgfgC+WWPAydS6OJ7WFpOb6NDNT8HrDoASsLozBC/N8Ed7f3cs6+mJ41tDYU/2QUmSF75LicCUdjpEuit4aW59nEhvhq9XGpGz0Ihv11nxfXw4/pfeDnvXRiEqxA+DgxRk3R6C09uNKEl0K90SRwDUdlec3NkSK7r6ilV4j8xshx/v6YpTVAwZQFVsu6OBk9aGEqCujQFBDuzyPco+IPuA7ANV6wMXClDbfUS4gof6eWFSXQWzI9R4S+t7KlgRqWBogILeYV5IGBWEY/GN8PvutvhkdQtMbq9DN6uCuV2M2NbXG6/Nq4u9i1ohJsKAnoEKZncxYnNfHyzt4IJxjb3QxeKGAXUUvLm8Kf5Kr4MfUltgy+AgXGdww9gm7ljTyxMPDXHFoU1NcCS1M7YMDkOfYHfcEqaW467errijmwtm1VdwXz8FP23xF3vdERRU05XDPJfoAeysg1dmBiAqyB3Lenvju20h6mbB5eCJ6svp9EbYOzccfYI9saCHDw7Ht4RtZxCObm6IiVFGdPRzxcwOvtjcxw2vjlfwY0oEPl3bBgu7mdHL4IoxTRSs6qlgbW8FyyMVzK2r4I04T/yS3BDfp7XD1CY69PBT8Oay5jiV4i/21LOnB+GV6WZ09nfDqp5u+H5LkNjsuDjBE8eTW2J6ez90dZjwTuxuhxdG+2FlMwXrOivYeoM7Nt7ki5gId3QMVrBukAn/3VoHhdvph1YOoJIVnNzdBku7+qGLl4InpzfFb+mtUCx8pmji05Jm+lPVKCpSWrsWJnnjn3saYdMwb4TrFJj0RphMFkcywWRSU2WrcJXKvpDnr/KyXTmwVm1gle0k20n2gWu/D1wgQNmSfHAqOQR7p4VjUc+6GNu+Lka2CcPIiFBEtw3H/K518PCkpjiyrTVOpQTjdLI/fktugpdn18f8XqGIjgjAlDZmPDExFF8ndsILsxpjYU/eG4zxrQMxOzIcOye2RtLoutg0wIgDq+vgrxQL/kgLx+frmmLTzXUR2z4I41qbsPF6A7LXN8DJ3U1wOL4pHp5cH/N7hCM6IgSjWoVgZJsQzI4KwzOTA/FTYhjs21VViX4/hAGhuiR4ALvqYu/MIHQJ8sCsKA8c2VYfJbussHHrldLrGEjTFadSQ/H5ylCsvdGIe2Mt+C6xIUqSDfhrR0PsXdwUi/vUwZg2gRjfSo/HxujxfUID/J7eDJ+vaYz4YQ0wPiocI9oEY3hECMZ0qIOVPcLx4bI6+Dm1CX5KbYFdQ8y4vYceB9Y2xD/bDapalmLCF8stWHG9GY/F6vFLvBk0p9GP6afkBtg50h93RPnhwMpQ/JreGvsX1sHq3kGY2DYIsRHBiIkIxJROIUgYVQdf3tkCfyQFgvG8aLrToEhAULoffr47CjPa69HRQ8GzMxviZHpzFCd6iS111GCiajuwLaQJTw6U1/5AKd+xfMeyD8g+UL4PXCBAlSR44lSiBb8kN0NeYld8uKkn3ll/Hd5Z1x0fb+iO/Piu+CWtHf5OCUUJJ95EDxRtN+NkSjMc3hqJz9a1wxfrW+JYfFP8kdIQJ1Jb4lBCJ3x2ZyQ+WtsRWdu64Ntd1+HbHe1wLKEBfkqw4O9ET/yd6IsTqfXwTUp7fLapIz5Y0xy5d9XHL0nBOLXdgH9SQ/BLelscTuiCj9dGYf/qLvhgQxTyEiOFevXn9kDYEhgQ0rEvXSkYuQE7gvDpqgYY2NBH+F3tvDUYObf5459EH3XfOce1BK9/kvzwU2Iwvomvi2+3N8CJ7f5ig+RTCXr8ktIMBQkd8eH69vhodUMc2xKGk4lm/JWow++p9fBtWiS+3NoF722Iwjvru+GjzT1xeHsUfkltjJPbg3AyyR/H44NxLL4efk4MwukEL5TEu6AowQu/JgTh6NZGOJ4Qjr+TfB2bFLvi9yQLvt5WF99sCcNviYE4sT1UwNjh+Ah8vKED3l0biffXdkLmlkgcT+uE31PqC98vsY2NAyRtiQoKk7xwaLUZD01ogi6B3rjeX8E7y+qJlYDFDHsQr0VjdxEgKQGq/A9K/i0HWdkHZB+QfaB29IHzBChVbaDJxg22BE8UJ+lQmBqA0zvCcCq9DgrT66I4LRxFyYEoTNSD5iXu70a/GSolxYk6lBBiuDR/RwhKks0oTmB8IT2KUwJQvCMUJTvCUZQahH+SzCjk96kmnE70RGGCC4ro4Jzog8JUK4p2hqJ4ZzCK08woEjDhheIEbxQl6VGSGgjbjnCUpIejZGcYitMC1PMJVFHc1BhQ3JTXyRxVsl2H/21vieTR9TG0uQ8G+7tgR18FP91lUDcsLgUoRZTjVLIPCneYcCrVgNNczRbvguJ4V7Fn3+lkC4rSQ1CcHoCiZB1OEzjj3fFPvJfYb64wNRhFO+qgKL2eOBam+KOQ9Yp3F8mepoct1STiZLGtBUDFu6IwyQeFaRYUpepRnMRVkIpIfP7pZAOKUs04vd0XpxK8RH5FySbwWYVpYShMC0dhShBOJZpQFO/tiLBe5sNUkuSKP5P9cXd/DwwJVNCzoQ6bRgbiq/g6+DtZJ+qmAlQZPEmAkgNl7Rgo5XuW71n2AdkHyveBCwQo1fyl+sCoS+A5EdOc4wp7vItIqsqj+ctovkYuQv1hROuypACM9r1NgX2bIkBE+w7bHNfHl/nZlH82YzlBJJra+Fk1zWlmKe16nhdlovrEIJqly/fV64sT3PB7SiiOprTF3uX1sWNEIF6cZMQvm40iDhPzUX186IBOcHFBcYKLMK9p35UCmVidpojNi1kOAZ6sgyPZGYNqmysgktpearspQuURZRfbprD9VMjRnN7tNJsJIHXkn1h2TTEhLtFRJt4v6sr8+V7K3o0AIapJWtlYnyQ3/J5kxUsTLdhxayCeXtQCedvb4PcUK04nuKLYqTwsg5akCa/8j0r+LQda2QdkH5B94NrvAxcIUGVKlKZgqPBUClEOOFHhQV2hpYGMBgTO5iNep8EH8yYUqYkOzkz8u/yztOuoKGnJ+Trtel7nMNk5gEKDJy1PDXJOJXjir1QL/thVB7/tboCTO4LxT5IvihPcS53Oy+IfUYVTy6eBmwZY4hoBNircONdHrbcbuIEx1TCtblpZyvIvK7/W3mVtotazrN1chTN4cSJVKReR1HbU2sj5/aj58nnaM3lkSIe/E/1wMi0UJ3bR8b8R/koNQKHwkyL8qe9RK8uZR/U7DcikE7kcPK/9wVO+Y/mOZR+o3X3gogBKA6MylYkTugoj/I4TtTbp/vtv52u1zxpEcUJXFSNXh1qkAYMGBOrkX/46DQi052r5akfmrz7jTDjRvud9BJBTSW74c7sX/kqiKcxdwIkGJBo4aFCkbgmjKVpl9dXyFM8sVb1YDzWVKWJlZWL5yyfteSxbaX0dQKn9zaMGpGXtruZVVufy7+bMNuD9hQke+DvRB38neQuzZLHjOcyjrBzl7+Pfar21684OUGaYzKaz/u7kKjw5MJ+1g8jVmHI1puwDsg9c9T5wUQBV0URa0TkNKrTvKv5bAw5toq4cJLR81GPl1535nMqv0/Lj9epnLu2nSY9H7Vxlx3/nqz1XPf77+3OVWytPxUctP608/Fv7XNGx/PUVXVN2TlWyGBtKJGGWPXv+6r1qXc8GUGaTFWYz07k3k5cAJQFKApTsA7IPyD5QvfvAFQGoqkzAlV2jwUhl32uA6NfzAAAgAElEQVTnq3qddn3lRw3k6CdU+rlSBeZ8n6tdrx0rL0cZ1FT9Gg2WzgVVleXtXF/tc2XXnnlerU+lAGUwwmz2lwB11f9jkgNy9R6Q5fuR70f2gZrTB6o9QFUdHs6c0OV9V7Y9zg5QZgNNdhKgas7AIAdx+a5kH5B9QPYB0QcsApQqMJlKgDqr+evKQkhNhj4JUHKwlYOt7AOyD8g+cI30AWdo4tYZBoMBRiNNKU4gJQFKAtQ5fKiqBpESoM78YTn/yORn2TayD8g+IPtAjegDBCcCk16vh6+vr0iEp8DAQPj704wiAapqUFCTFaErXXYJUGf+sJx/ZPKzbBvZB2QfkH2gxvQBQlRwcDBatWqFvn37YsqUKVi5ciV69uwp6lCqREkFSipQUoFy+o9CDnI1ZpA74z9B+d7ke5N9QPaBi+wDBCOqTf3798fatWuxY8cO7NmzBwUFBTh58iRuu+02BAUFCXVKjD8SoCRASYCSACVhRPYB2QdkH6jtfUDzc6LidO+99wqISklJQVZWFn788Uc88sgjiIiIgJ+fnwqrEqAkQEmAkgNnbR84Zf3lb0D2AdkH2AdovmvUqBEaNGggjsnJyXjooYeQnp6Ot956C0OGDBEAJcx4EqAkQEmAkgOHnDxkH5B9QPaB2t4HCE9MVJjoQD579my8++67iI6OFv5P+/btw/Lly2G1WlUzngQoCVASoOTAWdsHTll/+RuQfUD2AfYBrsDz8fFB165dheJE5YmKVFhYGNatW4dp06YhNDRU+EpZLFaYCVEmAwL83DGvrxmHNoWgONlXbJRri//3JrRyBduVXuFWE54nV+FdMw6cFsrYpckCi1km2QbXWh9Q+7iEJglNzn2A6pNOpxOO4omJidi7d69YhUc1iia7xo0bC5gKCAgQSpUAKDquS4CSStRFKVESoK4ZgBIDisV5YLXAbHZK/I9LJtkGNaUPOPddfmbfdk4XuXLLeQKWn53HjZr1mfBE9cnb2xuxsbHYv38/5s2bB8ISY0JpsaHoaM73rF6vKlYqQHlIBeqiIKImKEWXq4wSoGo8QFFlOQOUxM7PjnMmDi4cLNQkJ4qaNTnU1vel9Vf1qPZlqgYWq8P04ujzat+X77S29hOt3jTdtW3bFi+//DIeeOABtGzZUvhDEZ6YtOv4mYqUUYyHJocCJQFKmicvFLAkQJX+uLQfWc06avBkhdkcAIPRCp3eDD+dAX46HQwGHYwGHQx6Pxh0PiIZ9b4wGfxgNupKE/+WSbZBdekDRoMf1KSDXq8Tk6FOb4DZpPZzk8kKk0lTVCVA1awx69K9L810x+PGjRuF79PgwYOFnxPbhE7jPGogpR2FEk8IFyY8CVASoCRA1XAQOv9BRVOe+F+6XmeAzk+HAIsRLZrUQ8+ubXBzv0iMGtoN40Z0x9hhXTB2SGc1DY1CzPCuiL21O8bf2h2xI7qLv6OHdYFMsg2qSx8YN7wLxg3vhltviULfXhFo36oe6gabYdL7wc/XDwYD9zdTV1+pvm78DWn/UPB4/r8peU/NaTNCE9+Xl5cXhg0bJlbdcaUdI5FTZeL2LQQo1WR3phKlOZFbJEBJH6iLMl9KBaoGD7RWGI20/fvAatajZ5cWWDh1EO5NmIHX96zCp3vXIXPfeuS+uw65+9cgd58jvbMGee+sRf7+dch/Z534nLtvNXLevkMm2QbVqA+sRva+NTj45hq89/xKPJU+A+sWDMbQvu3RMNwKnY8XDHqjWCxBRaFsAYXDV0oCVA0e284NcoQjOo43bdoUTz31lIg8TjMeQxnwOy1JgLpQdUXed25lTgJUjRtkNOWJ/4HrdD5o3igIC6YPwhtP3YbvDyTiVP5WFBesRcmhFbAdXgwcXggcng8cWgAcWnhmKlgIFCyAPX8+bPnzZJJtUM36wHzYChbDVrASxflr8duXG/H5K2uQvC4Wfbs1R4DJDwa9HhYzlQarClNUoc5YTHHuyVgqTzWrjQhFIiCm2YxVq1aBcZ5GjRpV6jSuqU+aAsX36+wLZT5LGIOSBFfY4l1QFspAgsS5QaK2tpEEqBoDUOp/2JSt/YUTpMHgh66RDbFz60T898tk2L5OREn+ShRnzUBxxgSUZMagJGsc7FljYc8a40hjYc9kGvPvlDEadplkG1SnPiD66TjYMmJQkhGHkuy5KDm8Ab/nJePNJ5YhZlhnhAYZ1MnRGgCzxR9m50UUUoWqMePb+UIsV91x77u3335bxHkKDw8Xvk+a8uQMT//K22H+08IYzL3RjIK71DhQBKiSbRKgJDRVBQolQNWwAcYCk9ECo8EXke3C8ejOaTiZFw/7kVWwZU2HLWMCbJnRsGWOcxz5WSbZBjWzD9gzo1GaMghS0Sg+GIfinPkoPLQRHz6/GLHDOyEkQA+j0QyTJRAmswpRpSv0pBpVw8a4c6thNNPVr18f999/P5599llERkaKCORUpqoKUCbCtVEPf193zL3BhIKNwSje7gikSRWqNFVlIpXX1E7gkgBVYwYXk4h3YoZB54em9cxI3TgSJ/K3oih3IWyZ44GMsUDGGCBzNJDJ41iRVMVJU57kUbZHzeoDaj/W+vVoIGM0bAfHoThrKv7OXY3XH5uLAT2bwujnDa7Oo0Jb5kx+7sn4X+qEVK2q7ZhIQGJsJwbIXLBggXAcnzRpkigvTXrO8HQuBepsAGVPcFMjkguIknBUO+GoKu9dAlS1HSy0gZ2mO04IJosVeqMB/mYfTB7VCf/7YgPshxehSJg3OCnyv/UYx3Ec7JkyyTa49voAMseJfwxsGWNRkjsTJ7PXIG39EDSpY4DeT+cET3IlnjaGXEtHrrq77rrrhN8TNwzmdi10Ji+vPl0oQNkT3SABqirwIK+xJUiAqhEAZTJbYOR2BXpftGzkj6d3xQHfbASyY2HPvBUlmSMdvk2EKE6aBKprb/KUdarN71Tr2wQoqqwjYcuKhu3IEhx4dS5u7dccBl9PEdunNOK+VJOq/fhWVbgjIBGUuJ9damqqCJrZq1cvseqOeZRXnyRAScC5/MqZBKgaMMBYQIDSM4quwQO39KmPrz68Azi6Qpjt7BkEqFGw0Vm8FJqcP9fmSVfWvaxPXEttwf49Rvj62fOn4deM5diw6AaEWj1g0Pk6qVDShFdVQKnO1xGeuIqOvk9Tp07FO++8g+nTpwto4hYtFalPEqAkQEmAkv9Blk4GeqMRARZ3zB/fCqfy1gF5s4U/CAHKljlaqk6l8HgtgYKsS+UAqEKUPTsaRflL8HDCMLSo7wc/H2/Hb0aNQl2dwUCWreqAS7+njh07io2Cd+/eLeI/EagIVhKgJCxdfliqqI2lAlUjFCj6QBkNRoT7e2HD3EjYDt0B5Ex1hCIYVQ6e6AclfaEqn3gllFw7baOG57AdXoTnd49GhxZm+HrTmZz+T9IH6loANM10FxgYiM2bN+P111/HgAEDhBqlxYLiNRWlSutPRYv/nFewCk/6QFUECvJcxYAmAar6A5SIWWKBUW9AvUBvbFscBRy5DfacScJsZ9NMGaUKjASoawcQJOxV/i7pEzUGyBoNHFmAlx8ch85t/OEjAIqBEyVAVQoQNUjZJyTRcXz06NHCdLdkyRKxXQtX411w/SRAyS1cLmoLFw0oJUBd+I/wSg1CDoAyOQAqfkkUcHQVbDmTRaDMkqyx4sjYT+pkw4mlzOG28glIu14eZRvV1D5ABWo07EcW4pWHoxHVNkAAlNFEnxkJUBcMGFdqbKvCc3x8fNCqVSsR7+mhhx5CRESEcCYv3Ri4Cnn8qx0kQEmAkgBVdfv5v35AF/Kju1r3nAFQXti2uDNwdCVsOZP+BVBlEFVTJ8TzLbcGi1U9nm/+8vrqDZcaQC3AKw+PRVRbf3h7ecNoJEBJH6iaPO5ppjuC0po1a7B//36MHDlSRBun4ziVKc2Ed971lAAlAUoCVO0CKNWEVzlAcdsWNQJ5bZv06UysJectarRz2rG2tUttqK8zQI1xAihrGUDJSOTVX2Wv5J9TT09PDBo0SMDT+vXrUa9evdL97qQCpZmR5LFi/6Qr0S7ShFf9B5czfKDODlAaRFVv1eASTuxZY4HccUDeOCCXn8c4pbFAzhgg2+EnI/ZVI0xdwufLvK5ye5YHKCu8vXxgNEqAOm9VphKIuRr5aOpTw4YNQbPdM888g06dOokI5NqqO17DzxdUPqlASQVKKlBSgSIwaT5Q4rPYA692AAL3tyvJjMbpjFj8kzEef385Hn8eiMUfB2Lx55fj8U9GHIqyJ8GWNxU4NB0omAx7Nh3sa0f71I56VgRQNOFJgLogsLjKEKWtpKODOM10dBjnZsExMTEClniO9TprjKeq1EEClAQoCVC1G6DEKjwBTGNRkjlOpNrjAxUNe85EfLdvJB5a0xabZrZD/Nx22DSjLe6a2RabZrdDwvyO2LWyMx67qyveeuAGfPX2SJzOmgh73kTYGcH6nNHaK/KrOh/4quh+7dzF5HM+917r10qAqomgVFGZCU9aNHGuuuvTp4/YrmXLli2oW7euMN1p9/Fa7fMFHSVASYCSACUBSlUZxtY+36esWNjzZ+CTp4fghjYKTO4KgnwUWD0VWL0UWL0VBPgoCDcpaBaqoEcbL0wbWheP33Ud/vdhLOyHZsCW5axGXQjYXEo44fMvZX61Ja9/A5SPt4/wfzKZHU7k0gfq4mCjKorOJbhGAyiqTwSmXbt24cUXX0SPHj1KTXcXBEsVlU0ClAQoCVC1G6CQM8kx6dYuvx5QOSL85M/GR0+NRLdW7nBzUdAwzIoxQ7piwqjrED08CmNuicTNN0SgU6sQWPVu8HFV0KauLzYv7IDjn0yB/dBMdSuQckqUtlktGGMok3uuMWnO6Vpba8ClHcsDC6/jPdr9ah5qnmPFZriiHqXO7873RwOZTOqmueXLod7H6yV0iTYWYQy4Co9O5FYQoMxmf0cywywBqkYAFP2ZaKJj2ILZs2fj3XffFdu1+Pv7i9V2F606OYOUBCgJUJcToIZ6I1ynwGygjx7Hoqr9M6dcsv8QnDt7bf9ciRN57QQowgfBJAb2vDn46OlodGutg4ergsF9IvDF21vw1ecJKHhvLXL3rcXnr6zGC/cvwLLpA9GsYRhcFQUt6/rhgY29UHhoIUqyY8BApKWr+LLGCT8p5E0ACiYJvykcmgIme16cw4eKcKSBlDP48DPhbhzsueNhL5gE+5GpABPzyJ8E5E5Qv8ubAHt+nJpyYkF/Lk2BKgMnOsaPBw5NAg5r+UwGyyaeUWkZypfpWv773wqUrzf3wguQAFXDxk0CFE13Xbp0wVtvvYX09HQ0adJExHy65POKBCgJUJcFoLzwzz2NsEkCVDVStyRAlcIFAUUAVFYscGg+Pnx2Arq2NsDLTcG4QW3xY3YSSr5NxOn8O1BcsBYlhzaj6GgqvvkkGXcuHYMAkzd8PRTEDmyC7z6aAVs+o7k7AConGiiYiJK8ifjjy1j87/2xOPrmrTj8xq04tm8UTnwag5LcSUDeeBH92p7JLXR4rwooVIaQHSNAqTB7In78aBy+2jcKh94YiaNvj8H3H8TgxGcT8NtnPEbjxGcxOPl5DE4dHA971gTYnLbfQU4skD8ZpzPicPz9MTj0xnAUvDEC3743Bn9+GQs7ISonBraMykDuWoYm57pJgLrkcHEVwIvqEk13oaGh2L59O1599VXceOONAp4Y6+mCV9tVVhcJUBKgJEBVI8ip7Id6Kc5LgCqFFM3ny549ATiyCB/+ZyK6ttbDx13B+IHN8dMXK2E7tBjFGXEoEWkSSjKnw3ZoLT54dhm6tw+Di6Kgd1RdfP7SBNgPz0RJVjRKsmJx4rNxOPjiADyV0Al3zWqFWbc2QuzNdRAzMBxTb6mLDZNa4NltXXD0zSECYAhetgxtH8JoIHci/sqYjAPPDMLdK9tj8ejGiLs5HDH9wzDx5npYOKYp1k9tjfVTW2LNpBZYEdsCqyc1xxs7+sCWPRX2LIJULOy5k/H7F5Pw0WMDsGNxW8wb0QAx/UMwrn8Ipg+rj61zW+GdB/vgxOcTYMulGbdMvdJgrvYcJUBdCwBFQNLpdJgwYYIw3c2bNw+a6e6y1K8UoAzw93XH3BtNKLgrGMXJPpB74V2J+EnXyjMqjgO1eZg36pxhwqMZ79zuBNKEdymAqXweEqAqBqijix0ApYOvu4K4gc3xy+fLYD+0APaMaCBjXFnKm4+Dry7CLX0aQ1EUdO9UFx8+Fwf74Tmw5cSiMHsyPnjsFkwc5I+IBi4I1ikINbiiQZg3Gob6IEjnigAvBe0aeGDphHrIfWUobAXTUJLJFZCjYcuJw8kvp+C51L4Y0SMAjawK6hg8ENnCH9e1D0PbRiaEGV1V53ZvBXV0rmgZ4oFerXxxz4pOKM6cIVQoe/5UfP/xJNy7risGRllRz6gg2McVjcN80CjMB4E6FwT7Kejb0Yidt0Xhv+9Gw5Y7xeHL5azM1JbPEqAuC2CUH4Mu89++vr5o3749XnjhBTz44INi6xaeozJ1SX2ftHpYrDBxs2mjBlBmCVCXRJG5VsCoqvWoCKAaY8swHwdAUeTR/DEt5/THlACl/UAv5VECVMUARQXquTh0beWnKlADmuPnz5bDXrAQ9oMxwMFoNWXGAIcX46PnZ6BnB4vwg+rbvRGy9s6CvWCW8IMqzJ2BfY+NxS29wtCtY31MjemHjStHYde2WOzeFofVC4bjuk4t4O2uIMTihrWz2+Jk5nzY8iejJHscTudMxdsPD0PfDhb4uCmIaBKG1QtG4cUHFuK1x5ZiT/psLJgyCA3rBovnt2gYjNULh+GF+6cj75UpKD44E8ibgl8OTMHOtd3Rsp4PDD4e6N6hGe6YNxL3xU/CPfETcNv8W9ClfRP4uStoEeqD7cs649fPp8KWO7GWmvMkQNVkgCIcUXli+IINGzbgzTffxNChQ8U5OpRr8Z4umQmvdEEBAcoKs9EIf18PzO5jRMHGYJSk+EoFSoLUeZs3kaDAnuCKoiRf/H13E9w52MfhRK4BlHQiv3orWSRAVQBQ44HDC/HB0zGIauEDbzcFMf2b4+cvlgFH5wP0Z8qlP9IE4PA0/PTZDGxb1gNBJhcYfN0wc2wn/HLgNqHeMBBpYc4UHP9kLt54LAavPz5dOKL/mp+CPw4n4p+jyfg5byce2z0XHVsGCgDq370esl6bCPvR2SjJi8NPn03BhjmR8PNQUC9Ej7tWDMcPufeh+Ot0FB7djtPH7sbhj1KxcEo/6LwVNGsYhIdSZgDH74e9YBVs2TNQnDcbb94/GN1bGuHjqaBf90Z44f7F+DlnF04dScHfhxPxQ/Z2PLF7Dnp0rA93RUGPtia8+WA/2I/MErGtSk2ctcbBXAJUTQYoghG3axk+fLiI+bRy5UqEhIQIfygtJhTrd1kAinslGk2wentg+nV+KLgzBPYUHewJbiLZEtxgS3A978n06m0rUlXVRF53qd9RGUDp8MfOprjtRm+E6RSYjIxXRniqWtwyqUBdSuVJy0sC1L8BKour0xbg/aeiEdnCWziRj+zbHMc+XI4/cxbixOex+OWTGHy9bzTefWwA7pzbBhGNDWK1XlTrELxwbxxKjq5BSVYMbFmjUZw1TpjxivPnwXZkCWxHF6Pk0BwUF0yFjVHMv7sDXx1Yh1kxneGmKOjaLhj7nhgF+1fzYTs0DYf2T8GkYc2Ef1XPyHp47/nZsH+7AcWZcSjOjEFJ/mwUf30nntkVg0ZhnrDqXLBmegcU5S0FcqcC+dPwwyczsGZqW1VdahSA+xPH49SxFNiProItfwZK8ibD9vUynDiUgPg7boXZ4IEgkyLqdip3HpA32bE60GlV4TUfW0oCVE0GKJrpmjVrhieeeAKPPvoo2rZtK2I+EZ7oA3VJ4UkbT8VRVaBMRjOsPp6Y0MkTOWuCYEvWg+BENUGFJwlQlxo2rsX8SgFquxG/pDbFgu7eCNG5ih0RzJy/xRx+bp9tCVBn/EjP3WBVGvwkQFUKUB88FY3OLbzh7qKgTUMrlk3sirXTo3BbXAQWjW2JuFsaoU8nE0LMCry9XNApIgjpG0fhl6x1ICyJvQOz6Ag+GvbsaNgPT4Ht61koOTQdRdkT8deX0fj9s7E4cWA6CvYvxOKJXeGpKIiMCMJrD90K+1EC1Azk7ZuK2MHNVHXqukY4+Poc2L9eDPvBYbAfHCJWzOHYSux9JBatG3rD5KNgRWwE/smcD+QxXMIMfPl/4zGsd7CIadWvR2t88MJKnMi6Hb99PAm/fTQWv340Cr98MhG/ZqzGEzsmokl9vVDepgxtiR8+ngMUzHK0kwZQtcEPSgJUlcaQyzEuXUSemumO5juqTvv27cPo0aNLlSYCFFWnS6Y8lS+rxQyTWc3f6ueJwU1c8NHSABQlG2FLJECVqTT87Pz3tQgAsk5l7/tC2sKeQF8oFxSl+uPrLY0Q29oTQX4eMFLllAB1iUCo/I+4qn9LgDo7QLX0FqqQr5sCo4cCE5ObAr2LAr2nK8KC9Ijq0ASTY3pjz+7J+DFjDYoKFqAoc7zYR9DGYJc542HLn4ZfPpmAj58ZhCe3dUXKog5YN7kNlse0wqKYdpg2sgOiWgY7ACoQex8cLgDKXjAN3340C4vGR4rvOjS34Lldw1Dy7RrYv5ohoMx+bDFOFqxB2uoBCDa4oo6/F5KW9kJxwUogZzLsebPx1sOjEdXSV8BgqwaBmH5rVywfH4ll4yKwdGxLLB3bAkvGRWBJbBRG3NQaARZvAWwjbmyKw2/PBg4vECvyygJtSoAScFHq93KVf8dV/b3XkusY8+mmm24Sq+42bdqE8PBwYbojXDF0ARPf36V1IneYUiwmmC0GAVEWvTc6+7vgmUkW/LndH/btXgKYJDRdHFRcCIjUtHu0PkKAKmHaFY6PV4SiX5g7AnVeMGrmO6lAXcXBVwLU2QGqhZeAjub1AjF5bF/MjrsJs8ZfjwWTbsTtcwci7a5xeOXxxSj44E78UbARxfmLUJw5QWxEzD0Ebbnj8fuXcXjr3ptwW2wzDIgyonW4gsZmBS0CFLQMdUFEQ29ENDIi1OIlYC0yQgUofDUf9txJ+CtzAZ5MGo3W9c0w+Lpg2PWheGbHQGS/ORZH98fi4KtxuHvjIPSICBUmugHdGuDDp6YDh5eI1XclOXPwn/RhaF7HTShQBi+uAlRQ36iggUFBPR1X7imo46cI58RgvQKrUYHVoGD8zU1w9J1ZsB9ZKAGqrRUykOZVHKuqAH+a+lS/fn3cd999+M9//iOCZzICuQZOGjxpflCXDqI0gOKSciOMLK9Rh8a+btgy0Affx4fBnqoHEitWnbQJs6ZN9LK8lwcGtf5AgCqmE/k9TfFojAGRRhcE6P1gstAMLU14V8+BnD9wCVDnAChveLopGN63PfI+SMfxrHR89/lG/HBgI37JvAt/FWxE0dE1KD60EEU5U1GSNQH2TEb/joEtZyL+yJyC59JuQJ+2Zvh7KWgYYsGowdfh9nnDkbZhFO6NH4nHd03CvSnTcEu/diIMQilAfU0zYAyKs2fh+IfLkHTbzWjVOABGbwVtG/tgxE3hiBncCEOvr4OWdXUI8PPAgO6N8GQKn3s7Sqg+MQ5Vzlw8nzYUzcJd4eGuoEuHhli/dCQSbx+BhJVDEb98GLYuH4oty4Ziy/JbsHXFLdi6ajASVvbHSzuG4tdPZ8KWOx22jNqgOjnXUZrwapoJj3DEFXYLFy7E/v37MXHixFJwYl00s50GTzxeOoA6Ey6NIpyBCaHeHohr64ov19VHyQ4rkOgKToqcILVJUkLI5YGQmtyuav9gP1FgS/LCTynNsLCzN5r6KAgw6mGWAHXmD+6qDFYSoM4BUD7wdFUwdkAH/JKTBtu3iSjOX4aS/MUoziM0zUJR5iThzG3Lcmy1Qudq7qdXMAu5e6MR089frGprGm7FXUuHIXP/JvyUGY/f87fij4K7cOrbNBzLSMbcyX2E2UwA1EPDYSdAZYxFceZElBxagcy9CzF6YEvhm1QnyA89I8PRKzIU10eGYPhNLXD7nL54+/HZOJF1J4pyF6I4g0Ewx8KWNw9vPDgOkc39BAyOubkLCj7Yjj/yEvHbwTtx8uBGnMzYiBOZTBtwMnM9/shcj78zbkdhxkKUZEyDLZPRzJmflpxB41r9LAHqqoxJVVCaKisXlaaePXuK7VrS0tLQuHFj+Pn5nfFPKoHJOVWW18WeN1r8YbJYEOTnia4BCvZMDcEfqYGwJ7uXwlNFEKWdk3BVu6FKhWzV/wlpJry/JAA3hbijrq8r/E0GmCyO8AVV/L1IJ/IqNtR5/fAlQJ0FoGLQuYUvvAhQ/Vrh5wOrYecedxljxB53VGRsGdFqKh+xOzsWtvz5ePP+EejQUIGXu4JR/SNw9MN1sH9zO4pzpqAoOwZFWdEoPjwfOfvnYuzgRk4AdSvsX88X8Zds2XH47fMpeHDLjWjTLACtm4Zh8+pxeOvZ5Xh7z1y8s2cGDu5dgB++WIVT+ctQlDcTxdlxjtADY2AvmIsvX5mJYX3qi/x7daiDfXviYDu2HMVZE1F8MBYlGbEood8WV/VlRsNGFS07DsieCGROADJj1T0CS48EqWsVnLR6SYA6r7HkcoxPVcyTQESn8eDgYCQlJeGll14S27VwCxdNdbrSdeEER4AKNPqivpcrFnT3weFNQbDt8IM9yQVIVMAVVnAoURKYajcwlVfLSgEqyQsnEwKw6UZPtNYrCDb4wsLfhZi7qy7CSICq4mByXgOFBKhyIDAW9mw1jIG6Cs8RB2pAS/x8YBXsh2bDlnEr7JlMox3JeWWaqtAgZwKK8xbh5V2j0DLMRQTJHD+0HX7KXgt8Owf23FFA/mjgqzj8UTAHj2y/Gc3q+ggTXqeIQLz60EjYv16gms3ypiHnldEYe5M/vD0UjBvSGV8d3AX8+hBwPA34LulqXXoAACAASURBVAH47wbYjy1DyVFuLTMeyIsBsscB3Hw4fxZ++mIp1s/pAZ2ngkCTB5ZOisB3n00FvpkFHIoBckcDeWOAgjHAobHAYW6oHC1WD4LBQjNiJEBJH6gzlJzzGmcux9jllCdNd3Qcp8mOprs5c+aIUAUEqKtWTsfY6m82IpCBa60KnppowB87AmBP9SoDqHgXgEma9GptXCxNdXSGKAFQiW6wpYfirZkG3BLqino6d/ibTOfl+6T1fwlQTgOG1igXfZQAVSlAvf9UDCJb+Ar4iR7UCj8duB32Q/OFWY2msYoVGBU0kD0e9oIleH/PVPRsY4ari4LIVgF4aufN+DV7Nk5lT8MfmVPx1YcT8GDiDbi+Q5gw83EvPYZDePWhUbB/vcgBULOQvXcqxvWrL6Kid20XhsTb++GZHX3xYnov/F96D7yU2g0v7+yCdx+9Dodfvxl/Z8QB+VMAxrTKmYzigiV4Z88kXN+5rlChmoT54fYZbfDxf0bgp8+4wfEknPxiIn74KAb5rw/D6/f1wn8S2+PIK/1EFHMqUMjQVCjWUSpQ4rcnV+FdPUBxjIdUn2i643YtL7/8Mu655x60aNFCKFIXPT5e1JirBTi0wGrUoa6nGya1dsNnt4WgMM0IUIUSCpQCxDOpPlHaZCoVqdqpSKngxLorsO0w4put9bGwoycidAqCjbqy4JnnOfZIgLqoH3MlUp8EqHIg5FCgDi/Ae0/FoGMz1QdqVL+W+IEAVUCzGk085wAoqjZ58/DfD1bgtindYfJW4OejoFsbI5ZMaIPN8zth9fT2mDCkCdo38UPzOoHoHtkCBl8PdGwViJcfHAnbMW5cPA62vJn4+cBtiF8+ECFmT2EODPdnbCoFHZsoiGyqoFNjBZ2bKejTwROx/UKwe1VnHNs3FsifCdCclzcdJzJX4LG0SejWvr7Y3y/E7I7+XQMwb3RL3DGxLVaOj8Cckc0x5qZwdG/th8FRHnh1dxRwdA6QOV4AFNUou0gSoCRAVTKmXI5xqpI8CU90Gg8KCsLmzZvx2muvYeDAgaUhC+gkfvUgSgUomvEYFypY7yEmwfU3+uGrDRaUJHNrF1ehPAkFyqFCUYm6NGqUupeamIhFLKHq8nftBCNndUn7XBEkC6hOVGBL8cXJtDCkDzWiq8EV9XVu8DcZy1bfVfKbqKy/S4A6zwarrCHPOC8BqmKAOjQPHz8Xjes76ODvp2DysOb48YvlQP482LmRcIUARahwAoysySjMXo4D/5mHueOi0KqhBWYfBXp3BQE6BUF+CuoFeKF/z2ZI2zgdDyTPQ2TLQPRo64/XHxkO27FFKM6diJNfTsNr941E7KDWCLV6IjzIgA4RjRDVoRm6dGzuSE3RtmUdBFl18FIUNA32xl3zO+DHT6cBh6bDnjUettw5+OXLO/DSfTMwbUwvdGhVF4EGT5jcFVjdFVjcFJjdFAQZPNCqkT9mjIrA58+NAg7NFj5QNONJgPKF2Rzg2MTz3Dugn/Fbuxy/31qeJ/2bqD6NGTMG7733HpYvXy5giiY9RhsnYF29d6ABlBkmixH+Fl+E6TzQM8gFu4f74PimANhSdGJVngZNmhJ1aQBKgooGKtX56Kw48rPoAyne+Cc9HE9PNKN/kBsa+noI9cliZoyxC+vTEqAux2ApAaocQKkr6Gy5U/Hde1PwaPxgJKwYiP/bPRK/f7kQ9uzpQEY0UKED9ZkARUfskqyZOJ1zO47sux17UiZgw4L+mB/XB3PjrseKGTdgx/ohePeZ+fgpIwnHPtyIxxPH4OHNQ3D07YmwHZmHP7Nm4MWdA9CnXQDqBfhgRL822HFXHF54eDn+7/HleOWJFXh1zwq88sQyPPfAQty1YiSiIuoKc2D3Nma88fAgdUsYOocfjEVx5mz8nbMWh9/bgOfvnY1tK4di2ZQbMG98b8wf3xsrpt0ozj2ZPhkHXl6I37+YD3vWJOEDVQZQNOVJBUpMzOcpo1+9yfzqq0WXuu6EI66wa9myJZ566ik89thjYrsWbdXd1YUntrdjorOYBECZLSYEmfVopHPHgFAFD4zU4aetQUCqEUh0V5Uo4QfFMAdMlQFQmZKkORqXHTUzoJZHdT3KEA4q1JVt6yOUJ5pyk31QmB6EV2f4Y0Q9NzT1VRBq9IU/53+ONxc45kiAkgD1b9ipEGS0VVQXfmQcp6LMKfgnayn+yb4DpzIWoyhjBmz0LRJKTEV5nwlQKmRMgC1rOmxcHZe/FicObsD3n23A959vwM9frMFf2bejJH8FirPnozBzHgpzlqMwewmKs2bAnj8X+W/EYeLN4fB1VXBTt6Z496nF+Ct/CwqPbsTpo2tLU+HR1Sj8ehOOf7kZG5cMgtFHQZM6XrhvU0/Yji5BcUasuqLvYDRKsqagOH8J/ilYg9+y1uH7z9fif5+sw/8+WY8fPl8vQhmcOrQBxYdWoCR7OuwZsUAmoZHJSWG7TG1fsW9ZRe19uc/JVXiXGnouVX6EI81B/I477hBhC0aOHCnO0aR3qZ5zcfmUARThyWK2wN9kRahRj/rebrgpWMG9w3U4vikUtjQLkKRClACneBfYmBzxos5PQeGkzM2Kq2uq3XsAqoqTIw4Yg6oybXMoT6k6/J4UgFenmDC2gRua+nkKeAowsf8QnqhA0YncCdCryAUSoKrYUOf1o5cKVKVQViIUpCmwZc+ELWsqbJlxIkjm2dUXQpSWOMGrUFXC6OTZ02HLXSBgypa/HCW5i1DCvDMnwZ4xHvbMCbBn0fGbiU7g8/De46NxXWsv6L0VzIvpir9yt8KWN0cNP5A9EYWZE1CYGYvinPEoOTwPv2WvxvZVA4WpsGk9PzywtS9Kji5DER3AM0bDnjFKhGDgVjOns6aiMGeOWC1YImJbLUNx3mIU5sxDYdYMEd+KoQ3OrK9WNx4vN8Bc7fwlQJ3XWHI5xqdK8qTpztPTE4MHDxar7tavX1+6XUu1K7NDNbCYrbCaAxBgsiLE4IsG3q64MUBB4k06ZK804fR2PZDiqUYqj1dQsk1BSTzVJlWlKElwRclZoahMzdDukcfq3CaKuhKT4SwS3YAUPY7fZcIjw3UYHe6KVr4Kwox+8Ddbwb6j7nsnFahq8t+RQ9KXAHUWEGA8pBiRzoSii5vYGZCyLF9V0SlTeKIB4WMVA+QvwEdPT0SfjhYRvmB0vxY49OZ82I8sgP3wTNiPzITt8AzYjsyE/ehs/JU9F68/MBK3dA+Hp4uCHp3qYP9TcSg5QvVMVaBEYM3MsY6tZrSYT+Ng47YzpYnlU9OZ8HRx9a55wCUBqtrBiGP/OprpGjZsiAcffBDPPvssunbtWg1W3VViJi0FKAusAqL8EWCmEmVEfT9fdLe4YVF7N+yd4o1fthhh26GHPdlDXdK/TYFtmwvs8VU1xWkmvGvwyFWKWnKKnaUqOjWwvsJc5wak63BquxGfLdBjcy8P9PN3QVNvd4QbfBFoMsNi9i8HT9IHqvpAlASoswAUgYGr7RjnyTnW0/mChJYH40aNcqTyMaR4jXodMscIHyvkzcE3HyzB0ildhAIVHqjDzJEt8WRCT+x/bCA+fXYIPn56MPY9OgBPJvfEujkdcGPnEKE+NQwzY+uKwfj1y5UoyZ0ugMnOmFBZBCPCkvY85zI5l02rL6873/peK9dLgKpuAKWZ7nx9fbF48eLS7Vp4XtvjrrqVWSsPTXhq8ofFHAB/sz9CzCY0MHiijd4Ft9ZXkNzPGx8v8sNv23SwpfoCKR5CkaJjsX2bAjsVKafEv53Pi795riYkp+1syiBI3brE+W/n+mqfVZ+vmgBNWn20oKkKsN0VYBywNB3+TNLh4HIdHrnVF1OauSJSr6CJ3h2hJipP7C/c746pEjg/j/PShHcejVXlBncAlElvQL1AL2xb3Bk4uhLImeSYOGvzBHqpQUAzf1Ul32jYsifjVN4yfPzCHEwdFYmGwQb4eytoXc8DvTuY0L9bAG7q4o+e7U1o3cATgUYFIf5+uKlnK6SsG4NvPlgFe/5i2DJiYMsaB1t2jNhbj9HG1W1ZtHJo5dKO2vnafpQAVeVx5HKMTeXy1JzCGTCzd+/e2LdvHxITE8GNgxmFvDqVtdKyaE7AFrNYIWg1mxFA53KTAfV03uhscsWEpgpS+nvi7eneOLbOE6e2+8Kepoc9xQ/2ZG/Yt3vAnuSm+s6IjYkV2BM1nxpX2JOcEvfdq1HJ4ROklflsSpPwH6rG9RPvwU1s3YNUb2CHDkjTozDZgB826fDhXD/sHuyNKS1c0MOqoJHOE0FGPfyt3GqIJjvVbCd8n8r9FirtX2e5TgLUWRrnQhpU3MN9ocwWlAcouwSoq6y8UCmKRVHODPyduwq5b6/C/VtjsTDueowe1B6DejbGTd3qov919XFLn6YYN6Q95k/ujbQ7x+D9F5bj18yNsBWsgD1rsqiHjZsKZ9FkVwZPFa8krO3Q5Fx/CVAXPK5chrGKAEXTXZ06dbBjxw68+OKL6NGjB6hGXa3tWi6ufWiKscJk9hcpwKxHuN4Tjb1dEKVXMKKOglVRrnhgqDfemu6HrOU++GatD37e5Ivft/nhrwQf/J3gjVPxXo7kjdMJPjid6IvCRD8UJvqqf8f74FQ8r7u6SZSN5UvwEWUrSvTDuRLrUJhQSRL1ZF2rX+I7YPonwRd/bPPD93d6o+B2X7w3yw9PjPTDum4eiG7ggm56BU29FYT7uSLQ5AeDxR96SyAMlgB1rzuC9iX6LUmAukQNecaP3kmBqh/ohfglDJy4ChKgnCfSq/U5Wt2bLnsy7IcW43TBWhz/bAOy31qDT19cjg+fXYyPn1+Cz19ejrx3bsf/Pl+Hv/M2wHbkdtjy58KWxQ2ANd8mNS9NeWIcKzVdrbrVhOeOAbJGA0cW4OWHRiNKbOXiI+NAXY5xqAp5cnUdlaYZM2YI9Wn69OlCxak+q+4uwMyi+UdpipTFAq64CtTpEebjjeZ+ruhmVjCsjoJpLRSs7OiKzT09sGOAF+4f6oWHh3ni0aGeeNyRnhjmiSeGeWHPCC/sGe4F/q19Vx2OpeUb7oUnR3iLtGeEN8qn0u+Ge+OJs6Vh3niimqXHh3nj8eHeeHSYF+6/2Qs7b/LEnVEuWNhawei6CnqZFbT0VlDP2xuhfgYEMWaZ2QST2QyjRU0mTamkz18VfhtnzOmVXC8BqpKGqUrjVXqNACgzjA4T3lYC1JHbgOwpjmXrNWGiu5bLOFaFoKxYlORMR3HBchQfXofiwxtRfPguNR3ZgOIjd6D40FIU585CSVacw0THe7VU5hRO5UmFJ/paSRNt5T5eY4DsMbAfXoAX7x+JyNZm+PoQoBjd+mpGuL6AifpyjB1XME+qTwyYSWfxvXv3Yvfu3WjatGmp+lQzFSjn98ho5f4wmgNhtAQK9cHfrEOwwQPhOlc08HVFUx8XRPgo6OinoKtJQU+rgt7+CvpYFdxgVXAjk7+CvkwB6pF/87vqlLRysmyVpdLyV7HsfSwKqlO6nu/GoqCnWUF3o4KOvio0NfJRUNfXFWF6DwSbDMIPzmIOhMkcAJNQIxl0VU0XGu+psrleAtTlGLA0gDIYEGp1x23TWqEonz5Q00oDRlLFqHySkd9dqbbheyjJjEZxFgNijkdx5gRHGo9iYaIbC1tWmcO7qj7RdKeqUCynCk8aQGmO5PIdVvwOCVDjUHJoIfakDUZEY1/ofL3V6Nb0T7gcv8eLyJMQQTWGSXOo1vyGKiorv+O1BJPLoeJoz2a8JpaNiSa48/VXYj7Mg9u1bN26Fa+++mrpdi1aPSuqX1XPMX+Wie1wKfKr6nMrvU5MoIz3Y4TFbACjT3P1XoDZIlZlUbGgr0yQQY8gvR7BTIYzU4hBD6by56vT36L8rAPr4pyqWG7nuvNzdUqBej0CHXUjKNHHLcBsgNVCaDKJoJh0EqcP3JmJ8Z4cMZ+0QKwXMSY49zEJUJeoIZ0bVY2Wq65g8Te4InZQXfz42ULg0FwBUJxY1CXtcpKteJK9Uu1C2NFW7lV01FbQ8cjvVWVJM+Fd3bJfqTa6tM8RKxXzxuOvnAVIXt0bDYJdYdB5w6I5eYrf44UtKT7zN+isRJz/Zw0w6FxNQCFsEAY0UNFApvwzCTShoaFo0qSJOPL7yq4tf29V/mZeWn58FrdWady4sXD65nmeq0o+hBrGfBo7dqww3S1atEjcx7pq+Vcln8quYTnq1q0r2oGQVtVyVZbfRZ93KBDcQ89oscJoCYDBHAyjSEFOaoWqhKrKBX2palAS9WLdrDCUSzxXo+pSUbuzDk7JaPEX/k30beL7pOLE1XXqqkzVTOcMUpfKbOfcFyVAXUaAMpvMMOu80LW1BW/vGQV8s9xh3mHMoDLHYzkRX9pJWrZnNW/PQ9NweP9kzBjVEladC0xGH8d2Cho4acfzBx/nwe1iPlM9CgkJwaBBg7Bs2TKsXr1aLPHnSrWAgIB/qSoEBCY6X99www3YsGGDOBJIeF6DEu3Ic4QYHrVynu07XsNrmV+jRo0wbdo03HjjjahXrx5WrFgB+i4FBweXAp6Wp3bkvVric1jOiIgIEe/pvvvuQ+vWrUU5uFGwVibn8mjntPwqOvIa1omJsDlu3DjRDh06dBDlrigPntOSc57atTyerZ20e7XrtTy089rfPIqFPcyPm8c63omoo4BSgm5ZKt3eQ/ObqaZHllkrq2amquioXeN8vXauJhyd343z59L369QO/66P5YL3uivNvxJOkABVScOcq+HO/j0nADWZDH6oG+CBdfPa4vSRZUBenNg415Y5/pIHk5TgUM3BodaZbdX4WAwciizHXodZ41GSN0fsRdi1hR5GHw9YLXqhQF3ohp5n/y2eH4RxQiU8cYKdOHFiKWAkJSXhnnvuEecIKt7e3qWwwns4yVOd8vDwEODwn//8B7feemupauVs0iMEaWDFZ/E+Po8ql5Yv8+N3Wr7aed7XrFkzLFy4EAMGDBAKz+OPP44tW7YIgOJ1hCPmqQEQ79GewSOv4Xfr1q0T27UMGzZMgNiECRNw3XXXiWv5bN7Ha/mZiXVgGcu3N8vOa/lcXsdnuLu7C7BjQE7mqZWBebBOfD6v43nmp+XP75gfr6P6x/M8x7z5bN6nqYE8z6TVTfuOZeZ55+uYp3MevEen47NNTn2vbNzWxu+aclSVNaprauLf5ZP6+6q5daz4XZzf77t8373YvyVAXU6AEr5QOlgMLujVwYx3nhgCHFsIu9jKg9Gya8PWHRJqaj3YZo0DssYK3ycUzMSRNyZgwajGCDe6w2LUw2q1gMoHJ8CLHdAu9n6WgRMtzXD33nsvXnjhBdx0000CVDp16oTmzZsL2KAy1atXL1FuTtSdO3fG0KFDRSRv7h/HcAAJCQmgaWzlypUCdmjKIhB07NgRM2fOBLdKWbVqlVCSWH8qWwMHDhTgQQWLAEZliErTkCFDMGfOHJFYnilTpqBnz57ieVSQnnjiCaGQMT9+16JFi1K4oNJEhYrANHXqVDRo0EBs1/L2228LZY2O4zz/wQcfgJsH8zPPsUwsD8vPvfFGjBjxr61dNLjh5sN8Bsu9fPlysQExg3KyHdauXSvqyTz69u0r/K4IMO3atRP38Ht+x3rSJEmFjdvJUMFiHmynuLg4USbex3fDtqEyyLIx8dksM9//zTffLPJjvv379xftSoAiyM2fP1/kt3TpUuE876y4XWzfuRr3l5qlSk2UZQ7TzkqUUGUu4eqzq1HX6vhMCVCXBaAcVCykYToteiHU4oa4m+sgZ280cHgekMM94DRfKHU1l+oXpW5zon52Pi8/yzapeX1AhUfVCR9HJuN/n0xE/KIO6FDPG4EGb/hbrLBa/asNQGlqCidywsC7774rJui2bdsKtcTFxQWEBULLmjVrEBgYKJQSmtQIMf369ROw89577+GNN97Apk2bBIg9//zzAkB4L9Wshx9+WMDLtm3bMHr0aGEupAL0zDPPCKVr+/btmDRpkjAD7tq1SyhFDzzwgAAAggy3WyEoMeAlz+fk5IDX3XXXXXjppZfEkUBBeKKT+M6dO3H77bfj/vvvR3p6uigby0vzGiGC0JObmysUN8JImzZtBJQ8+eSTSE5OFokwNGvWLFFWQiMnNMImFTEG33zuuedEGVgnruwjrBw8eBBU49iWfB4VKUIUVSKCIKGOAPToo4/i6aefFvd16dIFTz31FF577TXEx8eL9nr99dcFPLKsLB+/Z/uzbFlZWUhNTRVwO378eDzyyCOi/jzHPGlSJbQ+9NBDonx8Hst4yy23VGiOvZITtaagsT0Ih+f77PIAxSX7zuCk/S0B6vIoVRKgLidA0YxnMcNqNSLA7I1GAR6YMawBPnl6GOwFc2E/NA32rNjS7UbUjWm5OS3TmHJJOy+PZ7aTbI9q1x6ObXpsog+PhT1vothn8Ov9o7FlYWtENvJDsNEdARYDLNYAWKoJQFF90hIns/bt22Pz5s14+eWXxURMXyPCAiGIEzgnd6pKNNsRFhgKgEoRTWKM6L1x40ahilC50kCE0ECIIOQQhDixM4glj3v27BHBLHk9HcN5vlu3biJfKmFUU2g+ZKBLrpqjOkOAInz83//9nwAS/k1QevPNNwUgEOw+/PBDYeJj2VJSUnDs2DFkZGQIhUeDICpqr7zyigAkKmF8LoGJYEQVjMqbFmiTyhfBibBJMxufwefNnTtXKF+aEsTyHThwQKhw9NWiMsR2WbBggVDHeI5wwzYhaBK2hg8fLp79/vvvC+gjuLItqIwR/Fq1aiXgk5DE7whjn376qTBp8m/CGtuCMErQYp533nmnaLu33npLgCchl++WTu6sP+txvuByMddrpkVtgQIVNapxfHfnW57yAOUMT86fJUBJgLqinfxifiBl96r2Zg7KAVYjAk0eqGNxw4jegXgyvie++3AicGgWcHgKkBcL5I4BckYD2Uw0eTgnNX4OY+jIJNugWveBnHFAXjTs+XFAwTT8cWAa3n/0ZiyNroeIcA/4+7nC3+wDK012Fn+xxQJ/I2W/m8sz2J0rf5aBCgfVJ06q9MPhpMaJnzBESKCpiaYgKkj0O9IAiuY1QhFNT6NGjRITOZUlwhXzoTmJEHD99dcLxYkKFoGJ+XIyp/mKk//kyZPF6jjNB4hqDAGO97NsVMBoLuSzCG0sH9UoKiphYWFQFEXAAtUbmuKo8Hz55ZdClSGkUBX773//K6CCgEaTItUPQhHBjmYzV1dXAYLMg39zondzcxNmtP3794vyE6B4L32Y+GwqbCwrr+V39IGiiY3lpOM9y02zIq9bsmSJMCNSLeK9bAOqaCwnzaDdu3cX5aTCxvy5WpCwSvWMbcV3wHyoJLFOfAbhku+FsMj3RGWKChShlkoVwYs+bWwr+owxDwIX3/OVBCgqTgQmKnTsH2wjKoesA0FUM/Oeq6/+6/uzOlE7HM0vq1hwdX6z/2qHK1xHqUBdiQZ3/GdrtZhgNnI3aA9ENffBougmeDqpC754bgC+f380/smMQ1HuRBTnTkJx7hQU5051JH6efEYqypkMmWQbVLc+wH5blDMVv38RhyOvDcfenT2xZWZrDI20orHVFQE6T1hNvrBYjOrqoUscl+ViBlRNfdJAihMrJ29CCVfkcZKnKkOVhOYg+jhxwuMkT1ChTxGVHPpAUe1gdG+CEIGMEzonbprMCB5UmWii48SpmZNobiIUsA4EET6bShAVldtuu00AFEGGoML7CG2EIJaFcEF1jGWNjo4WZYmNjRWg8NFHHwm/Kp6nSZJAxnxZbtaRz6ISxPMxMTECoKgKEUQIabyGzyX4EKBo+iIkaf5P9FFi3QmBLDO/IzjSLEiTJMGGAEUli0oazYDMg4DGutMZnkBDtYjwyetZFvo9sYxMVMJYT5oW2b4EQZol+QwqflTN2KY0nRJux4wZI/y3qDZR3eH3BFDmzee/8847Ar7oD6aZIy+m71TlXq29WEcqmARW9qmvvvoKNptNqJRU7y7ElMfnU406W6pKGeU15weCEqCuBEA5VuRxFYTFYkKAxQeBJjfU91fQrZk7br3OioWjGmLT7FZIXtYaO1ZFIG1VG6StdEpOf6euiEDqcplkG1TDPrCiDZKWtMGayS0wpX84bmzpg2ZWBSG+Lgg0eMDfzJVPDnjif81X5PdX9ecQnjiBEUyokHCCpipEp2NCAlUNqiCc+AkYXA3HCZlg8fHHHwslhBM81RTCFlUUwgHvpdpA1YMgQ3WIZiZCBMGAUERTE01zdASnGkGwYOI5Ahr9rajsEH54H01hNIMRzLKzs4VKRZWF6gzBJSoqStxPaKH5jb5Q+fn5YtKmGqRN1AQewgehhaYxAgnvpbmP8EZwotM7/ZAILbyXUMN3R/ii+sO24L28jqYzQgtNiWwDTYFi3akIEfwIoVSLWC62A+/95ptvhCpDEyUBlG3A57B8aWlpwoeK+fK90GxHsyjbjI76LH94eLhQBWmK5LP53vh+2LZ8Nt8F7yW4fvLJJ+LZjNdFoL0S/ZAgyjYnaNLcSUd4vkPWhX2HoMvvCHS89kqUST6j6mNDRW0lAepKD+COWCP+9Iuy6BBg8EWQ3hNhBgUN/RU0C1XQIvzM1DxMARO/EylEQVOmYJlkG1S/PtAkSEE9s4IQPzcE+HjDqvOD1cjozxystGXUFzdwVTSYXYpzBChOYDSzEHK4Eo/hC5iotND0wgmXK/Bowrv77rsFmBBOqB4RrngNIYjmJZ7nNfyOChEVD/oGcdsUQgGVFZqtqFLRD4oTP006vIcwxLwIMIQyXkNFiz5Y9Mei2kWzHUGBZaEDOQGPDuj0dyJwUSFj/oSN77//XkzS8+bNEyvdNOWFygivYz5UsghrBBWWh/BHaGKiIzjNa5zceQ/bm23BclHx4bN5P59PkyCfS4ChIzvNhPRlIpDSJMqVdoQItgNBjb5mrAPNk1SqOp7xJwAAIABJREFUqLjRv4llZGJbEKiYL53wqd7wepaPplC+H6p7NNXxGSwv25BtzHdF5YptSz8qnuPzaE5lG12KflOVPLR2Yx8jGBJ+2V4sK6GaQEkYpFp2paCuKuWW11Q+VkmAutIAZWZ8DivMFi7btiLAakaQVY8AsxcCTEye8C+fjB6wGt1hNbjDYnBTk94NFplkG1TDPmDVe8Df4IkAow8CTAZYGFBW7HOnRgpWIaryQelqDdia6U470r+IygbNPoQJQhUVBMIDJ8OGDRsKwCFsULGiAsIJmYlgw/s5qTvfy7wJUlSRCCN0zqZpiXly0uQzeD2/J3AwLzo78zzvZdsQWDj50qzIc3Qs5/dUhqgcUVXR2pDAxXLRrEWVjJHHmR+fyTow8Vo+mxM3AZDPZ96sK+sRGRkpwEbzmdLu4X18Pu9lovmJddLuJ5Tx2czXudwsqwZtvJYKEdtSu5bXs+1YL60eLAfbgn5DNL9RuWHbsS0JVFSUCGasL6/jO+F7o/LEcrC+vJ7lYyLIsszOddGedTmPfB6BkKoaIZiqE0GTdaaPHE29rLumDl7Ossi8L34MkgB1xQFKc+izOELOE6T88f/snQdYVEfXxzc2pOyyC9iiMa/mTdc0e2J6sysdbNh7jb33LnZFQOwVe40lFopUiTGmmbwp9oIl1vfr/+/5z92BdV0EFJYFhuc5z1zuzp2ZO3fuzO+ec2bGUwCVdKjV4IrnCVnspOTqq1z4TYmqA8dsA9RKaAOyh8kTGSKcxTNXTHbUjpvvGQdaKRxgpQmJA54c1CR8WP7GgZv/c4AkHPCY8WUceS3vXQ6gTJO/Mz7P81rGk+cZj7/xHI9lvcn0ec7yGl4nr+V5CjU/9IXi7DdqfFh2xmEaMo513rwXCRfMm/9b3p8shwwlRPFeZFyWjdfyHPNhHIY8x7R5LY8tyyzrgvF4LOPJuPSvokaOoEEnfAIINVA0YVKjRFiSdSPTZXlYFvksZflkHch7sFfIemAZaNYk9FFDSTDl/XICAjWHBEzLe7dX2VQ+uQcqBVAFAVAZpgzuu+QlRNs5WtvPJ/PYvKO0h1fmHkC29ghS5wr/Pk9F4hl6mfcUk+1Ya9uOqnGyHjCsAUqCFM9b/8b/La/noG/5/9MeW6fP9JhHToXXExKoAePsPpoiLX2XrMuXk3Str7H831Z5LX/Pi2PCEfOhGY/mPDq4EwrplM17o2aO+ch7sTyW5yzDvChTbtJg2QmN1DbRvEjfNmrD5H2x/GxzuUlTxc099ORlnSmAKjCAsvgiz3YKKncRV6LqwNHbADszM1hYtumCfMdymTcHuZxIXnbCeZGWJRjwmAM1B2P6LXGgpnZDaqwswTCrvGV6Wf1eEOf5XFgu3gePaaojdEhtlyyzZWhdTvmb9fn8/l+WnbMT6cyempoqIJDlZ5kYMg7LIcP8LpNK/+nhSwFULjtYuze6jIFIDp65AS8VVywgl1GHqj7yvj6s2qWjv09FtHwSDBhSo0FzFzUz9HuiUzX9gHieA7XlYG33/uwp61/CBU1chEQJhY5+Hyw3zak0M3IJBs4+pN+XhEH+nhOwdfT7LG7lUwD1lC+0fRoMv0yUqDpw9Dbw9F909nmfil45LQGKpjvO1OPMO65Szhlo9LGR8KTMRPZ//oQ9PiM6vNMfTS5XwPYun4eEKAmJ6l2w/3PKbZ0rgCoUAOX4DSm3DU/FV89UtYG8awMcnFmf1MzwmFP2OVBz1pp0SCZAycFa1X3e1X1O6pIaQW7dw8VCuaYY/aCofbK8Vmmg7PtMLOv+SY8VQCmAeuglftKGlBfX8ctLfn3JMC/SVWkUvo5JPbMne2ac4cX1oTjVn+tCcWkADtQKnp6sPp+2HbIfo0aQS1JwcVNuqMx1sXhOQi/zkPDEUPV9BfOsnuRZK4BSAOUQAMVOg8LOnqsb01+AgwG/nlWHUng6lCfphNQ1uX++fCc4AEuNE/+nmY4DNaf403zH9Zs4UPM39Q7lvo6ftl2yzvl8+AyoEeQGyVyBnb5oFKbPOJbwpADK/s/paZ6zAigFUA4BUBwM+JXMxfjkwn2cgs0vaNnZPE1DV9cWro5JPa/snxffF5qCGPIdoZ8NVzmn9olblvCc+gDJvh7zs63xY5D7CnKrFq7wzjWe+JyYpy14UgBVsM8rt21BAZQCKIcAKGqeuNow13bhvlrcC4sbbX7yySdCE5Xbhq3iF66OSD2v3D0vapu4Sjq3ZeFWJdTWcmsSuV8ft0qRjsuqbnNXt3lRX4Qjap64mjr3OuSegNymhs9NfhAyji3Ji/xVGvZ55gqgFEA5BECxY+H2FNxPS/59//33QuVNB0x2NKpTsE+noOrZ8euZmg0uwsiNgglR1NRyX73du3fj008/FQO1pY+Neqb2fabU/HHjZ26uzM2Cuc+g1BSqZ2HfZ5Gf9a0ASgGUQ4AJAYp7QHGjT/l36tQpsU8UBwsFUEWn08nPDq24pE3tEt+XlStXig1yuXkxtRxcoZtmINYDB+ziUh+OdJ/sq+jDSVcEagS5vx1906h5Uv1Y0erHFEApgHKITlYBVNHqWBxpQCuqZaHZe+DAgcI5+ffff8f27dvRp08fjBo1Sjgtc2NgS5NRUa2H/LqvJ4EdXkNQIsTyY5DuCDSt8hw1glLyq8wqXfv2owqgFEA5FEBxhV75pzRQ9u0MHL3z9TDJDbhVKLUcdFBOSEjAf//3fyMtLQ1bt25F9KZojB83XkyXJ0AZ3eUGz7mrN0dvD/ldPprhKLk1hdL3KSQkRDwPmle55YxMR4JUfpddpW+fvlMBlAIohwIofrX93//9nxAuOteqVSuxrMGTfA2qTsQ+nYhd61ltywNux8P3gWY8moYGDR6E0NBQMQHDz98fDRs2xIsvvigGbsYT705u662Y94uEJvpkcpaj5ay5x7V11jPhiRsb05xK86rcwJnpiedg3uz4cemo3wpPv6UAqph3FI7yslqa8Ao7QClNSe40HTmpr4x2mlsQKOLxaSqqWrUqnqv6nDAb6Q16uLq5ZixfQD8oD08PAV252gfR3C96FMP+kbDDWY3cS5DLQtSoUSNbiCIc0aTKfmzKlCliKYkWLVqI5yB9n6RvWm41Whltvxg+C0e/dwVQqlE6rAaKJjxvb+/CqYEq4gN3rgbjvKgLrpujTHgP14F5ZqreTS8GeA7UHHA4UFsLIUoINVI5qEdt30nz5tvFrI8k4HDiSo8ePbBgwQIBUdxPkJooWcfWAzsBitc0adJEmO7Gjh0r1nwiVDEuf5caKOtr1f+FR+Nk/awUQBWzzsG6ATjK/1IDxWUM/vd//1cITXgEqEK3jEFeAINK42GtiRmgPE2eUPKYOvDwhJeHV5bi6fGYay3qlpBlIqCxHRazPlJqoLp06SL2EvT39xfO+vXr1xdaJmuIIhjRdFe9enWsW7cOmzdvRq1atURcqW1S8FQ025ECqGLWOThqZ0iAkutA2QIoRy23rXLl5AtfxcmZJsSynghOXkavnImJEFEuU/j/k15rmY6t45ykbV0eW+lYnstJmrbux1QO5TyyFq8cpsu61iCqaA58tt5beU4CFJeE+PLLL8UaW40bN8aAAQNgC6IYnx95Q4cORXJyMoKDg4W2yRq0ZPoqLDptSgGUAiiH+MKUAMU1U/7nf/5HCDVQ3DuKnZOjdTr0DXlYONPJCBOdRYWY4GlU8tR1QJMU1zQyeaCckeKZrZQ3eaK8yeshKWfK/jqZtvW12f2fXdq2ypNdmvxdlic3YXbpZlfWjLxMHqLePUzGh9q5o72H+VEeS4Bq1qyZ8GOi+Y7LEdAnilBVoUKFjNl59JciWMXExGDWrFl47rnnMnym8qN8Kk3HATAFUAqgHAJOChVACdOGZuLw8ODu6Vy40BNGIzd49YTJ6AUP93LwMJaDSclT14GHqTw8jZp4GcvjcVLOVB7lTRUekXKmCuBvQmykof3GOI9eays9y3PlbKTHMvL8k6THtLMq5+PuXeSZxf3L8mZV1kfSZZ2bvOAhNFFs39wJQIrjDGD5ARMSoLh6OB3BaZojMAUGBiIsLEwsjFmvXj3RbxKsuF0Lz+/Zs0fMgHycr1R+lFelWXDtUQGUAiiHAyiuaUM5efKkQ2mgMjROYhq5dAz1hIenF0we5eBu5KauXjC6lxfi7l4e9hCDe3lYSl7laZmmreO8yicn6RgN5WE0lIPJ4PWQGA2sby8w5G8e7l7wdC/3WGEcW5LddbZ+F+kwX1uSg7LkOk1b+Vife0y+srysK1Fvor1aHIt6JPxXgIeJUk58HNAfyoPt3krzmuFsXoT6UWmSow/UjBkzMHnyZLHfILVPdCynozg3PSe4UDveqVMnYbpjfDnTTvk8FRzU2BMoFUAVoRffng0nr/Oy1EA5KkBlfoHzS1xqnkzQ693g6uoMN1dnuOudYTK4ZIjR4IKHxRlGg5Kc1wHr0hkmfVmY9E42xSjOl4Gnwemx4mVwgpd7FpLNtVmmrXeCh1sZm+Kpf3x5skyTZdHbTjOrvOR5Xvf4dM3l1ZeBSV8GRivR6pj17Qo3Z2e4lHWGQW8wO5R7wkRta4YGtmjO0pMARTAaP348Bg8ejLZt26J169ZigUxuoUP/JjqO16xZU2ieuAAwNVXUPomlI8wzJPO6n1TpORaYKYBSAOUwGiiuZzNv3jz813/9l5Bvv/02YxaeY3QcmuOzp8kDRoMBzmXLwqB3xkvVy+PzD19Hh8AP8VX3phjetzlG9W+O0f0ZNrOQphjVP29ldP+moIwxi/z/afOR6ch0rUP5+9Pmk5PrmdeofpQmGNm38UMyqm9jjOrbSMjovo0wpl9W0hhj+jfJkLH9m2DsAE0sz4vjfo0fk45V+n0bgfnakqzLYpWGrTJnkaatfCzPZZunRbqy3h4K+zXGqH7NMLBLI7Rp9R7efac6KpXXw8XZCa6ubsJMLbQrlrNEi2AfyuUHuHQBAalatWpiU2BqoyZMmCDO0++JwnOHDh0CV4TnNawbqYVyjD7LsYCjqNWJAqgi+PIXxkZKDZSjAhTNFqJOxRo6Jhj1bjC6lkbNlyqgZ8jnWLmgF2K2j8HpwxPwe8IknE2agLPJ43EuZRzOJY/FuSQpY3Au6SkleQzOWcn5pDGwFOvfn/R/yzRtHT+U7tPeV1bXW9zr2aTROJs46hE5lzgS5xJHQIRJI3FOyCicS8qU88mj8YikjMF5io3ftGtlWrZCc9oZeTN/a7F1XXbncpKudT6W/2eVfk7TZf2Owe9x43Hq4Hgc2DAUcye1g1/zuvjHcx4wuDkL52kPD25ULH2jiuYgTS0Tt2Chpomru3fo0EE4kleqVAmlS5cW/lEpKSkYMmSI8INifKV9KpptIasxVQGUHBxVWKCaKEuA+s///E9QuLeXXAcqqwZsj/PC70N8cbtDr3dG5XLuaNOyHjaE9caPx6bgyrdTcfuHCbj7w0jcPT0Y904PxP0fBmhyegDun+5vln64f1rJk9bBve/74d6ph+X+qX54cKqPJt/3xQMpp/vhwSNi8buMJ8NH4vbLTEvGsQwZn/+f6oP7p3rjgRBzOWyVx/Laxx1bpGszTZl2VmFWaZvTvS+uY3mtyprxf1+wTu9/Pwj3To/EnR8n4PJ3U5B6cAwWTOuAj959ER7CBG20cDKnSbvoDZw05fG+GFKzxD3teFy2bFmhlVq/fj1WrVoltFRS+8T4jCu0dEWwToric36ae1IApRq5Q3R+WQEU98Ir2GUMzAsKmowCnqo954FBPb7Aia/H4Mb3k3Dv9CDc/bYr7qW1x/20Nrh/IhgP0oLw4GQw/n2ydZ7Lg5OtQbmfjch4Txpml778XaafH/dqmeaDb1vjQRqljZW0xr/TgvHvtCAR/kdaMLISEedEIP59IuhRSQvK8rqs05P5Mm9bknVZskqT58X9sIw208zufGaeWr1Y/5/99fI6Ud8n2+HB911w96fBuPzDdOxaMxDen9VEeXcXeBjczRBVtBfcJAxRu0RIYkiAGj58uNiuhR94PEeRAzFNeAqgih5Qy+drGSqAUgCV8eJbNgx7H0uAmjt3Lv7jP/5DyIkTJ8RmwgULUCYYTR5w0+uFL0jfjh/g9OHRuHN6DO582xO3U9viXkog7qf4436Kn5B7qX64f8IfD9IC8kXupwXAkSTv7zNQg1CCqJQTQXhgUwhEATmTVH/8Oys54Z+zNHKaV6GPl1kf908E4W5ae9w+PQA3Tk/GgdV90PyD6vB0Kw0jHcyLUR9Kvyea82JjY8Wed5UrVxaO41JbpbRPxQOcZJtXAFWMXn750B0xdFSAMppMMLCNGJ3R6stXcXzHQNw7PRT30triflqgAKX7BKZUf9xPDcD91EDcM8v9tCBw8FGSgzpgXT1UX8FCm0eN3sPSGvdPZMqDE8GPapNsaZjM5x6kBkKKTU3UY64tzvEJr6Idn+yCm6dHY+28QNR5pTzcnZ3F4rFFcTkD636SfRTNeFzzaevWrWjQoIHYPFhqnyQ8ydD6evV/0YMrHclZiaqDgm4DEqDmzJmDf//730JSU1PRsmVLYcIruPKZYHDX441XKyBiViBunB6POyc6416KHx6k+uJBqj8epAaYRRucCVFKnqYOgnA/1VqCcS+V0vohuZ8ajAepQRlQJOEoJ6ElEOUkfvGOwzbOj4RgPDjdB+cSRmFQhw/xfDk3mAzUQtGp3ANGU9HrSwk+7H/oON61a1ehfWrXrp0w09HJ/HEAVXD9VtF7Do5YlwqgFEA6BEA7HkCx0zSJztHT5Izglm/g+28G48GP/cUgopns/IVZSfqMaL4rmkZEmJsstB3Fe/DN1Po8aT0QqDSAkiClhU8KUJbwxOMnLVfxuy4AD060wf0fR2Hbkg5o+MazMLm5iQU3tZl5Gmw44mD3pGUiQNF099Zbb4k1n7hdC2cMc80nqVWSWifLUILXk+arrnN8CFQApQBKAZTNNsCBwAMGvSuqPWfA5CGNcP3bEfj3yRDhK5OpdbLhm6PAKV+A5FGtlKalKn4Q8/RA+uR1Ro1roJjheHpfP7Rr8jLKcVFOdxM8ubSBR9EDKH7cUcs0e/Zs7N69Gx999JGAJ6l5khBlHSoAcnwAetpnpADK5uBZ9B/80zacvL7eUgP14MEDUArWhKcBlN7NBTVf9sTy2T64d2oQHqT44wGdxYWJ6WnMVOpaZeYsjG2Afn4BuP9tZ5yP7YOhHV5HZWNJGNz08DSvUp7XfUNBp8dJLAEBAUhKSkKfPn1Qrlw5MSOvoMul8i/4cVoBlAIoh9NAOQZAcWNgD+hdXVDrtQqIXhKEB6e/woMU+j0RoArj4KfKrJ7b07UBal4JUPfSOuBqUj9M7lML1cqVhnsRBChqlLiIJve927RpE5YtW4ZXX301Q/ukAKbgAaagn4ECKAVQDgVQoaGhuH//vhCu8ltwTuQecDd6wM3VBXVqVMLWiNa4f/orbbmCVH/cSwlQouqg2LWB+ykBoNw5EYIrSX0wpV9t/LNCaeEHJTRQZofrgh7Y8iJ/rvtE4fYthw8fRvPmzcX/9H2i+S4v8lBpFG4IUwClAMohOgJpwiNA3bt3T0hycrLYLoEqdPt3NGaAcnFBXQFQwWKF8XvJfmIG3t3kACjJrg4CcTc5EHceI/xdk+zSUr87Qnu7l+wPyu3U9riS1BuT+ryF6uVLwujqCu4RWVQcpwlITk5OaNq0KY4fP44RI0aIJQzYT9m/LyrckFGU60sBlAIoh+gQHBagXF1Qt2ZFbA0Pxr3vB+Beki/uJfsqeMoRQPrjbrIUP9xNthb5m4IjR4CjnJSB8MRneie1Pa6m9MbEPm+iWrkScHd1hUcRAShpuqtSpQqioqLALVvefvttMROPMCA3Cy7KYKDuLWfQqgBKAZQCKJttINOEV68GASpIAVS20PSwxkkbkP0EcBI67yX7CLmb7AOKps2Q8MRr5XFBhVIbJsOCKofj5msJUNdS+2gA5VUCBgFQ2kKJhXnwJTxxbSeu+dSvXz8cPXoUQUFBoo+U+90pgMoZXBTmdpDTsiuAsjl4qgaS0waUV/HorMm1VThV+O7du0I466VFixYFtJCmBlB6FxcIgFoahLvfDcDdRD/cTfLDnaQAJTbrwB93RP344Q61FWnBuHuqPe7+0BF3f+yEuz90wt3THXHnVAjuftsGd1OCNROfzbTsXccsuxR751048rtrrp/bKe1wNUUDqH8QoFxcwE23C7sJj+XnXnf16tXDgQMHMHnyZNEvSdMd13kq7PeYV322SscIBVAKoBxCA1VYAOqOAigb4BiIO0mUAHCAvZvij7vftcXdUx1xLaENzuz3wYmtTXB84xeIW/85UjY3xk/7fHDhWGvcSg3B3ZMhuJMSjNuJhBdrkJBpW4fW8XLzf1ZpSXjKLMdtcV/avT1attzkWTTiFmWAIhixHyIkzZs3D9u2bcN7772XsdedgielWLCGRgVQCqAcBqCee+45cJXfO3fuCElMTCxYDZTJA3oXZ9SvURHbwgJx5+QA3E7wAyGKg70SyzrQ6uTOiba4eaIjvt/ZElET3sJA/+fh+34lfFzLCw3fMqHhmyZ8/I4XWjaohK5NnsO0ntVxMKIBLsYG4HZKa/yd4GdTbtujzpODcPtke9xOa4PbSQHq+dpo41rb98Pfye1wNbk3JvR+E0VJA8UJK9ymJT4+Hl26dBHaJmm6UwClAEoBlAImhwAm64bIL7/CAFB3FEDZAAs//M3B9tsQ/BnbDisnvQu/jyvipeec4OGsg3MJHQxOOlRy16Giuw6GMjo463TQl9GhiqcOvfyr4NRuH9w52UnA0814X9yM98PN45rcOu6HWwSrRH/8nRjwkNxOtA06WrxA/J1IefiaW+b/ee0dcX2AmFX21ze+OLDkbRxf+R6uxnH2YGvcSbCIYwMoihtEF1WAovaJ27VwnafNmzdj8eLF+Oc//5nhOE54UgClAMp63FIaKAVUDgFUlgB1+/ZtUBISEsTaKwW2jIFZA1Xv9YrYuiQQt7+lBspXyN8J/lDCOvDD30l++PtkB5w+EIgJPWvgjedd4VxGBzc3J9St/TK6hjTHpOHtsGhqJyyc2hFTRrZD787N8VnD11HrFSMm9a+LP2O64VZKiEjvVoIPNGmFWwkt8XdCS9xKaIW/E3zwd4KvhVBbZfkcAsz/Sy2W/E3+z2u1tJmOfJYCgtK6YvvcD+Fd1xljQqril/2+uH2iPW4f9xai5SvTK74hNbB85reS2ollDCb0fqPQa6AIT1zbiX0Q13zau3cvGjVqJNZ8okM5B03GoVgPoOr/4g1VCqAUQDlEp+DIAFXfDFB/nxwgBm8OvA8P3MV3QBUA9W07/B4fgon9a6FqOSeU1OlQ/XlPDOrdGPuiR+D7mKn4PXESziaPx9mUcfgzaQJ+ihmPo9EDsDuyDU7t7oTrST1wM0Ga8HxxK9EHfyd54/YJX9z+Lgi3T7fH7dMhuP19CG5/1xa3TwTh70SzZkpAFOEpEH8nMPTD7ZRAzRSXGizMcQKYkvxw+2RrLa0fQnD7JE11PNcOl1N6Y1yn2ni2rA7dW76Inw53wu2fe+J2WhBunwjG7WSmbQ1sxe+5F0WAIgTJNZ+4YObAgQNRoUIFtV2LGhuzHRsVQKlGkm0jscdXlgSomTNn4u+//xbiKBooAtSWJYG49W1/3DyuaUBuJfhDiT9uJQfjxsmu2DjnM7z9ohue0elQ7TkvTBjuhx/jJuLKt8Nx7UQv3EglJLVBelIwbqa2x80TXZCe0gPpyT1wM6kzbiW0xa2EINxM8MfNpCDc+rYjrqd1xtljbZC2sxVi1jfCN6u+wJFVXyBtWwtciG2Lv1NDcDMp0Gzq88fN4wEijevxQTh7qBXO7GuG84d9cSOpDf4+0RGX49vh1I4WOLziI+yPeA/Jmxrh4vGOuH5qAA6sDkKjBs+jrE6HgC9exeENXXHmcDf8vNcHv9Dh/QjLFoRbCcyj+D57oX1K8MPNpLa4nNQL43sVbg0UtUqcdff888+LNZ/Cw8NRo0YNAU/KZFe8tUs5GfcUQCmAUgBlsw14wF06kVsA1C0FUGaAoH+Sr3AY//FAe/QKeBmupXUw6UuiZ7v6+O7QCFz9diiuJIXgWmIwbiQF4XqiH64n+OBGkh9uJAXgemIQbia2xq2EYPx9PEhokG4ltcbFY8GIXd0Ic4e8gc5NnsfndSqi/hteqFvDA/VreKBRnQoY4Pc8ts2pj7MxwbiZ0g43j5sBKjkE5462w9KhtdGmYQUsGVoPf8X1QNI2f4zp/Aqa1K+I+q+7o84rbujf5hVEz2+MiX3exftvPQsvdyeUfkaHyuX0+KDWP9D03X+gSf1K8Hm3ElZO+ABXjrfHrWRClAKoogJQNN3RRYBrPnHZAj8/vwxfJwVQCqCygygFUDYHT9Vwsms4ef27pQbq1q1boHALBe4/VfA+UBWwZXEAbqb1x814H9w67pPh4CwdnYtfyDogQPXAjqUt8W4NA0rodKhdsxKiFwfgSmo/XE0IQjqBKdEPNxL8kH6c4ovrCb64wfOiHn0hnMTpKE4ISu2E1C0+6OP/PKpXKA2jkw7l3crg5WqeePPViqhe2Q3uTjp4uujQ4CVXLB31Hs7Hd8CN5Na4Qcfz1M749Zsu6OP7OowldGjX4m2smNUC7Vq+gEqmUjA661De9AzKuT2Dds1qYNbQj9G4fnlU9iwFN+eS4h4MLqVRraIbXq7sjBcrlETNKjrM/qo2LsR3xM2U1sX62fMDgs/9RmJbXErshXGFWANF7RNNd1yq4Ouvv8a4cePwj3/8I2OfO+X3pMbB7MY5BVAKoBxOA6UAKnMGmuOCmQ9uJfrjamJ3zBv2ESqbSsCptA5tW72FtL09kZ7SEekJfriR6IMbCRo0XT/uB8oNDsDmgVhA2HFCFMUfN1M64ZcDHTGh5xto8UElDOj4IcKovjBiAAAgAElEQVSmtsWWZd2xa1UvbFzaDf07foRqz7oLbVGjukYcWtEIt9I6alqo1M4480039PSpAZdndHilmgfq1iyPapVKo8knL2LKSB9Ezm6NqOk+2B8VgsQt3bF3ZTdMHtYKNV+pLEyQHzd4BUtndMS2yO6IXhiALYt9kLq9La4kdMDNRGkyLAzPKO/LWFQAinDExTHLly+PBQsWIDo6Gg0aNMhwHOdeePkFUEybzuk53ZCYcXMTP7tBX/2ed2CoAEoBlEMB1IwZM3Dz5k0hXIvFUTRQmxcF4MaJfrgR5yO0UNR2FG/xwc3EAPx5pDNGdK4vtEJe7iUxvOd7+COmF64ntcb1BH+hdboW74v0eKmB8sN1UXf+uBFPsaxHxm+Li3E98N3ubji+vSd+OjwM5xOH4HJqX1xO7Y3LaSOQ9vUodA2sB1cnHapXfAZh4xrgekpX3DgeiBspHfHToa7o5ltDLJ/gVPoZlPd0Qqc27+Pw9pH4V8okXEwehsspA3AlqReuJfXB9e/HYc+anni/bnXhAN+m+ds48fUwXDs5Rsw0u5LUE1cSOuFqfGtcF2W2LrflPRTtYy4xcSOeQNwGFxN6YlzPwukDRXihZrtTp06g4zjXfiIw0aQnZ95lZcLjtdSYy9XJeV1OoETG47pSlvlkdy3jU7KLl1/AZ5mvvAeWn8s+0H+MwvqQ9WYZPy+PZd55mebTpqUASgFUti/m0zaynFwvTXgKoArLAOwjnL3PHOyIAW1qw6WkDpUrOGHqsE9xMbEfbiQG4fpxX1yL84UAKGG+0yBKAyhb9+mP9PhgXI0PwbWknrie2h/XU3ohPYkO6G1xPaUdbpzohfRTk7BwQktUreCE8kYdpg6sg8sJXXAjsbUFQNWEc0mdAKJmn9TAN9uG4PL3k3A1tQ/SEzvjemIIrie2x43EDrj53UDsWdUW79epitI6Hdo3r4lvd1GL1gfX4tviWnwbXI0PRnp8IK7HB+CGkOIJUUUBoDgQc9B/8803sXXrVkybNk1s18I+iHBEYZysAIowQ80VhXFz0r8xDuPy2latWmH48OGoW7euuDarNHie++61b98e/fv3xyuvvJJlfhIueI2UnJYrp/GYB8GJZk/CUuXKlYXJkw74lSpVEkBJqMpLkGKevB/CKsOcltVe8RRAKYByiEZpCVA3btwAJS4uDs2aNXMIH6joRQG4fqIfrsf6CC3U9Tg/FG+hH0wgft7fEX2CaqNsCR2qVnLCzFGf4VJSP6QfD8C1WB9cjSVE+eFavFni/JCeTd3x2uupIbj+XXdcP9Edl2M74I+DQTizLwA/7WmNU3u6YdrgD1HtWSd46nUY16cuzsV1w/XENrie3BE/H+qGHv5vwLmUDhVMpTF50Gc4mzwE6ckdkR7rLZ7h9Vg+vwABRNdPdMXu5f5oWLuKBlBNX0PaDkJWZ6TH+iI91g/psf5IZ/yHxL/YtYEbcb64HueL9ONtcOF4T4wtZBooDsgc5AkyBKddu3bh448/ztAIyUGa8GQLoAheL7zwgriW17/88stC+yKve9zATQigcKbx999/j+DgYNH3ZqVd4vly5cph7dq1YmV0+mplFZf5U7y8vAR0yf8fV56c/ibhjPdOaKSjvTR7bt++XWx5w8VHWR/vv/++uKe8hCimxTLIUJYnp+XPz3gKoBRAKYCy2QYyZ+HVe70CFEBZAqMGDjcSgvDrN50xsH09uJTWoZJXCUwc+B7OxvXCtXgNoAhL1pIVeAqw4oy9E53x68Fg7FjYENN7v4Rezf6BwPeqoHn9Z/Fl3cr4uM5zeK26Ca5OJeDpqsO4XvVwPq4Hrie21QDqmx7o4f+mAKiaL3pgzVx/XDsxEOnxQbgR0wo3YnxwI9YPNyQMpXbGnuW+eL92ZTNAvYq0HdR6EaB8zBDFe6ZYQpQCqMIEUBx4CRalS5eGj48Pjh49KmbfEQoIJhI6GM8WQPF3mv1o7ktLS8O//vUvBAYGCvjKCmw46BPYqLVhvjxeuHAhzp49i44dOwow4LUSCnjMOIQVCgGKkELg+uCDDx4BKHlPLFfjxo0xYsQIAXW8ltoilpkAIdO3NL0R5nICOqwLlv/FF1/E3LlzkZycjBMnTmDLli2IiIjAihUrcOTIEXHOGgqZPvNheXhfEoIsoYb3LOuP5ZX1xbi8L973+PHj8dJLL4l0mJ68L8t0CuJYAZTNwTPvnMwK4qEWtjz5cvOlePbZZzFp0iShfaIG6tixY2JFYL5EvCfZCdjn/hRAZQU6GkTQGTwAZ4/1wNjeH8DkooPRRYcB7d/GmcOdkZ4YKOCD2oqs08mEMgFZicG4FB+CXfM/QefGVVD7RTdU9SyB5/Q6vFauJGpVK4sGr3vgg1pV8PoLnnBxKgEvVx0m9KqPC7E9cT0hE6B6BrwJl1I61K7hhc1h1B72x/W4IA2cYv1xIzZAA6hYarsyAaqMTocQqYFK6gxNU2XWVhVzeOJzLMwaKPYfHMirV6+OVatWISwsDK+99poADfYpclBmPGuAktdWqVJFAMPp06dx8eJFcN0oaqQsIUj2T8yL4EGtEK9jHELU7Nmz8ddff2UAFEGBwrjUxLMf5LZW7BP5Px3cT548KbQ7llAk8+F1FIJZTEwM6tWrJ8BDggbvhXmzH+U5mtuYPu+J55iHTMtWyN9pplu0aJEo95o1a4QZ8o033hBQRS0czZEtWrQQ8Mb85P3IvpvmPtaDLCvrmvkzP5ZNmgYZn9DI8vFciRIlxJhAYLO+L1tltfc5BVAKoB778tijQfIFYmfz1ltviY7t+vXroHz77bfo1auXKB9/t0dZMvN4GKA2LfRHempfpMfQBORt1krQvFMcxV/cN+HiSmJfREz2xj+ruKF0CR2af1QVMRt9kZ7a3hxHq59rNOUJUxjNYZoIOKEpjf/HByI9qQN2LfgUTeq4w+Skw/Pl3dCmeS3MHR2IjfNDsGdZJxxc2wtHtgzHqP7NUKWCq9BATexVH+djeyE9oZ0w0/10sAd6+GkaqNqveyI6zAfpaX1wLTYQ12N9zcJ8A5Ae44/rKZ2wJ8pHaKA0gHodaTu7Ij25W0ZZ0xk3Q3j/vIfi9+xpwqZWjn5h5+NpwquJ5z1LwODiAg8H3+6E/Qy1G9TS7NmzB02bNs3QOmW+99rHMwd3OcDL3wg/vr6+SEpKEpqYjRs3Ck2Ut7f3I3HZXxHOuKr56tWrhZkrMjISHTp0wLJly/Drr78iJCREXEdQIKS88847GDVqFDZs2CDiE4io4WJZCRANGzZ8SKvEcjEf7t83duxYEOp+//13kR/hkH5WhDveM/P4/PPPERoaKoBs27ZtYuFQloHAxt/lfVqGBB1CDTdWphaMJk+a6VhewhjrlCHzYChhkLD05ZdfivvhfdPER/Bi3RO8eB2FPl49e/ZEjx498Prrr4v+nvGo3aKGjvfAez937hzWrVsngJX3yn0KmZeEXssy2/NYAZQCKJsvjr0aIV9cvkT8eqGt/8yZM7h27RquXr2KCxcuiLWguD4LOyN2FvZ7YRRAZQ0IGjwQRgiV+1Z2xcf1/gGdTic2EF46viGupvbAdS6eGdtSCH2PMv2PvHHdDKKEUXGc1B5nDrXHoLavaWs/mVzQv+NnSNw5Fr/HjsP5+MG4dLwfLiUNwqW0iZg7vjmqVnQyA1QDnI/rLQCKMPTjoZ7o7vuGcCKv9boHNi3xxrW03gKgNJOcjxmi/M0A1Rl7ojJNeO2avIK0nZ3FzD4NGAhKhCYKQUoBVGECKAlD1H589NFHYsHMoUOHiu1aOOjnpK+TWpolS5bghx9+QMuWLdGmTRukpKRg6tSpwgmdfRnzYj9FrQwB6McffxR761FTReCiqeunn37Cb7/9JkyBzJtgRiihVoyQQpMdAWjHjh3CzEhTIc1m77777iMAxXuqVauWADpCGdNlPkyLZi9q2whANDvu27dP7C8qQYSzD7nbg1z/iuW37l9ZP9QoMb3z588LwOE9Epgs643XSaBhXVGDxHvm/TI/3g/3GKQmjUAly8W+n4BJf1dq2mJjY4VjPyGze/fuAvgIhjR58r5oLpw8ebLQfMn8LMth72MFUAqgHnoR7NkA+QXCF49OiXyBCEyEJwlQ6enpAqQIVXPmzBEvDV9c6y/D/CmzCe4mE/Quzqj7WgVQA3UtpS+uxWggoGlUqFUpjuKXoU26ltgFPx38CgNCGkBfVoeyZXRo8VEFHF7vg/TTPZGeRPhohvTYFkiPaYn0mFZmaamdi2PojfTkzoiPDoL3x1XFYpZ136iC6KWdcSltHC7F9cSl2Pa4GNMal5J64Le4rzC4S30Yyj4DD1cdxvdqgPOxfXDteFukJ3fCDwd7oJsEqFdN2LS4Ja6e6IWrsYHCsZ3O7RRqka7F8rl2xq4oHzSsXRmldDq0bfIKUrd3RHpyF6FloubsWix9uij+ZuG54vfshfaJkwPiWuNcXA+M6ZGpgZKgkj/v45O7VbBcHNSpaSHULF++HG+//bY4x0E4J+UlhNCJ+5tvvsH69euF1oeQIAd9+ukQQKRmhZqWn3/+WQz4n3zyidCY1KxZE4MHD8Z3332HP/74QwAY41Nbs3jxYgEJdDCnqYqaI4IRHbN/+eUXJCYminWqrCGH/ScBh9orAhG1Y/wYpVaKWhqmT/CiFoswExQUJH5j+jxPbQ/9uSz9sSzrg4DGxUUPHjwo4I4Ayj5Y9t3M31pYpwSjL774Ap9++qnYGof5sYzURPF++BvT5r0TzmjSJCR27txZWCIIoDR78sN5586dQrvWpEmTjPvidZblLKhjBVAKoAqkIfKlY6fGToLqWglOliEBisJz/DIbMGCAgCdem/8vjAIo24Bghg4zSFyJbYOLSf2xa3knfFzvBaGFMupLwu/LytgX1QSXT3RD+nddkZ7WUTPrpYYgPa0T0r/tjPQTHZHO/fHiApCe3B0xG9qj2YfVRBrvvO6FDREBuPbjIFxNbo9riUG4dqIDrp4cgG2Lm6PhmyaUfEYHk5sO43q/i3NxGkBdS+qEHw/2RDffNzUNlACoVrh6orcFQHnjWizFV5slmNIJX68OxMf1q4qFNJu8XxWHozsh/dQApCe2QXpiO1w73kZcf1UBlDa7spAAFOGJ/QUBqFu3bgIEAgICRP8hISC7voRaGGqVqNGh9qlr165C21KyZEn06dNHAMiQIUOERqtUqVKoVq2a6NMIJpxFzPyZF38jdBEiqFHh8gQEIoIZ/T0pNNMxP55nmdk/EoxoxmI8S4CSH5KMRzikhokfonXq1MkwsbGPpVmQ0EJzGMGDAMR0qPmiJi01NVVogegkzvOW9cG0CX7UDFFofuP1UvvDe7MWXs/6IiBR6KRPGKpYsaLQlBEe+QxYNvo7EeL48UytIP/neabPa5nWpk2bhOaKdcHyWJfRsrz2PlYApQDqoRfGXg2QLwFfEnYif/75Z4bWiaY7W3Lp0iWhCuaXCV/O/C/nwwC1cYEfrib3wdVj3kILdTXGF8VX/HA1RpPLMYG4FN8Jf8QNQ/iMdnjnlcpi7SWDawm8/4YJIzq/gvWh7+Lw6i+RtKU5Ere0wLG1jbEz7CMsGlEDc/o/h7iV7+Naci98v783uvq8jTLP6GB0K4123i9i/5pW+PVIO/xxpDXSdvoibNy7+KyOJ4wuz6BUCR1MYhbeuzgb2wdX4triSmJH/HiAJrw3xUKatV6jBsobV1M1DdTVGB9IuRLjA8rV5BCk7OoM30Y1hParsmdZDOlWFyk72+H3w23x0x5fnNnrg4tHA3A1NsB878Xz+V8z19+VuNY4W0g0UByICRX0+5k4caIYzDlIy4E/u76Egzb9c2hSo+M4NVDUFFE7RH8lms52794tNCzPPPOMCLmvHs9xrSmpNWfIfKltIkTQ/4j9IH2oqDmi2YpaI8ZhmfhbhQoVhEmLMEYzH8+x3PzdEqAIKBKg6tevL+LJPpZmR5r2uP4U4Ywwx+sJUOxPCWh0PqeGiL/L9GUcrj/FGYs0V9auXVuUT9adrZDlJ6hxpuOsWbNEfbHOaKojrLEOW7duLfIiXNE0R98t+mixjmQZZDoETpr+eF88Z1k+lrEgRQFUAT+Agnz4BZk3XwR2AF999VWG9skWOMlz1ELRhs6OkC9+/pddAVTWgJgJUFdi/HA5JgCXj3fDmWNDsHJOCBq9/zL0LiVRuiT3nSuJV6u5oM5rJrz/lpcQbgr85ksGsb1K/Zd0WDmhtlgV/MLx/lg9yxvvvFJeaII8jaVRr4YX/D+qgtafVMGntSvghSrOqPFCOTT7pDZeffF5mJx1GNejAc7G9MKVuGBcSeyAHw/0QFfvN+D0jA7vvOKOjQub42pKL1yJIfwQoHxxxSyXY31xJT4YZ+P6YObQL/F8JTeh2apS3gVf1K+E4I+roFW9CpjV7y2cOeCPq9RECXhUAOXoAMX+RWpLCDwcqKnF4QBtqUF5XF/CwZoA1rt3b5w6dUpMbKEpjNoigsf+/fvFOboZ0EGccMIZaYcOHRK+TNTe8IOPZSHQULiGEoFBAhQd02m+4nnOdmPfyDKxjAQRAkRWTuQsH/tDS4Bi/rxHeZ9Lly4VH6nUNvGc1LzxOmqdWFZqrmwBFMvOWXv0y+KHLssqwYxltAYolp0mRZowqbEiSNJxnRo6+jQxHTqE03+MZSFA0QxKDRmfjYRMlpHHNAXSQsEJRbwv+Twf98zs+ZsCKAVQdoCRR78S+PKwobNjIiRduXLlscI4nAFC3wV+Eeb/S2KCuzHTB2rDfD9cSeqDK0db4eqxVrhyzKcYiy+uHMuUy8d8cSkmGBfiu+PXY4NxYF0fTBzSFM0/ewGvvVAWlUw64RiuL6mDWwkdjGV1qOz5DGpUL4P2zapif2RzXIrvjAtxHfHLoV6InBGAlp++iOqVysBYWgdTKR0qldWhumcJfPHuc1gwqS22Rw1Fu5Z18NbzOswdXAfnjnXF5dhAXD7eDj8d6IRhITXwYnkdmtT3wM7wFriS1A2Xj/njyjFv8dxEmUW5WXZ/XIzvhrTd/TC+/+di6QMP/TMwlNbBs5QO1fQ6jOn8Os4caI0rx1vjyjE/8/0XvzZADSzr8HJsa/wV2x2ju1v4QDlYXyrhguYi+vBw2xYO7hIg5OD/uL6EQECooZmJWiL6CtF3iD5PNLfRX4kzyAhAXBOJGiT6H/Fjj5BFsxNNd8yT/RYBgPHo80PtO/tB+gMRYDiJhhohCQkEN8ILNV9ZOZHLe+QyAcyT0EIQYhpMm+GUKVOElowz6Rif90QIogmS0MK8qS2jv5Hsl2WdEOJ4jo7bhEQ6g9MMSfhi2hIKmSbLyzSpKSJcEjQJbfShommOadIHTfp/Md2cAhQ1V9TmMV/WpSxfQYcKoBzspS/oBmGv/Pli8qVj58HOISuIunz5MijscPiFRls/X9z8L6cCqJxDojcuH/PGpWN+uBDbVkxv//nIAMTt6I+ty3ogYmYXhI7tjMnDOmLikBDMGtMBEbO7YmtkHxzf1h+/HeqKC0eDceGYDy7GtcO/jvVD3Nb+WDu/K2aNbIfJg9tg1sgQrJjdHYc3DMaZY2Pwe8xIHFvbDTsX+yJtC69th8vH/ARE/Xk4BPHrW2PbwiDsj2yDn/Z1wKW4tuJ3eU8aQPnhUowvLsb44kJsa1yI74nTB77C9hW9MW8yy9oWk4e0RsTk1ojb0BFnj3UU6WsARYhSAOXIAEXtCRdfpOlITkJhnyPBSYaP60s4YBPA6MQ9b948AQNMl+BAAODvBATCD/00CQyENIICZ9vRb5NaJEIUzXt0qiZcUANFLQzToYM1IYkz9niO5WF89nM0ddF0dvz4cZtO5IxLcCGIMA06rtMUxnNMg0BDPyyWn9ofLhXDMvM8y0nNHE2QEyZMELDG8ljXB9MiFFGbxDJyrT5CIuuBeTA9XsO+mXE/++wzAZv84CVQcnYuhSZIOuHTHUNqoKSGjeUmzPH5sF5ZDh5Tc0cfKJogWXeEUObH8cO6nAXxv042IhU+6gyn6iR/64QvCr+cuK4HnSqphZLAZB1SzcwX01YHmD/P6WGAWj/fD5cTe+PykVZCC3X5qA+UyDrwxuWjFPoJ+ePCsdY4H9cJ54/3wbnjg/FH3Ej8FjMWZ45OwC+Hx+HM0TH4V9xI/BU/VDh/nzvaDucP++LSMW9cjPHHhbgOOB/fB3/GD8VvMWNE/DNHRuKP2BG4cHwoLsb3xvlj3XAhthcuxvbEhWMdcOFIAC4d9RVapovH2uBiTBdciOuDi3G9cCkmBJeOmn/PeG6+Ij6voVw4GoDzx9rifFx3/Hl8EM7EjsTPR0fjzNER+CN2EM7H9gDTvXTUH5eF+OEy88tIT9ZF0Q6viOfsLTSOf8bY1kDlz/uYu76IWgr2FWPGjBHalUaNGolB2Vr79Liy8nrCEX2TCEecLcyBWw7eHNx5TNChdodmNvo3cYo+Z94RFgg/XIBy2LBh4D6f1ITRFMYlAWjy4/WEDh5Ty8IN1LnQJuPzOvoe8eORPkByJXLrMvOeWAb2owQcghSXJqCDO+GMoMT0mD5n4xGWaGLjkgB0iqcfFzVpTIflsU6fYMLfCGI0WXIWIdMhJFK7Re0UZ9KxnqjFYp0Relhn1LbRfDd9+nQBYDxHh3HpQE+AouaMZj3eH+uceUlh3bDsBCwCGcvO+6Lp0VZZrcue3/8rgLIxiyC/K12ln9kZ8kWhkyJfeHZA1qY8dh6cxkqHRNYbXxq+0Plfhwqgcg4Hj4LEpaPeoFDTcyUmEFdi2+JKbAexr92l2La4FBOES8f8cfGoDy4dMccV8anJ8sZFYV4LxOW4NrhM7VFMsOZrRX8rAswRCTC+uHREEwKNph2iqU77XTM1Zg81EqQuUosWE4CLcUFCa3WJ+ccE4vIx5ss0LeXR+855nWVfJkdMq7AAFDUVhCZ+eEktELUauek3qGGhOYwgw7WeqE3hRx/7H8ITwYQhB332YYQEaqmo5WE+XEiSWnOWgeY8Onmzn+NsM66FxK1XmBbhhxok9nGEEDp006xGEOJCnAQjpsOy2Co/02AZqBXiTEFCDs2NXK5BzpqjjxShhWsyUQPG9BmP8EPfIlvpynO8R3lM0OJsPmqzeE9cR4rpff311wIQWQaWhQDJMhMYeT+8d84G5DIFvEcJtPRxYp0QwFhvls+IfT3rhlpEgjDrUd4Xfcs4dshyFVSoAEoBVIE2Qr4kFH61UP3NLxq+5HT45NfLoEGDhGqXNnT7vjAmGMw+UHVeq4D183xxKaE3Lh1uJbRQl45w4Fdiuw68celIqwy5eMQbF4/44MIRf7NQ40NtFc8zLkXWpXatvIbXUbTfzfEPy2tkHvxdgpQW9/IRH/GcqDF8OH2Zlu3w4hFfUC4I8RPHmfnbviaz7EX/98vm53XxWDD+ONYNo7rVyFiJ3GR2hyiowYz5SiCpWrWq8NdhH8LBluAjyyX7HBnK89Yhf6cPEmfgUaskf2ceFAlR8pjaHmpgOF2fvxEOOPh/+OGHAhhooqI/FU1d9HViyGuZrjSdEUBoqiJgcMYb0+K9MB3OyJPQJq+TZWIo+9EGDRqI6wlGvIbn2XeyPLwXmT5hiOXJrh6YNvOT6bDchB15X9yMmZN7WEfspxmP8VkfNNvxXug3RmsDy8M6YhqW8XhOXsu6s8yPdUO/K8v7knEt778gjhVAKYDK6BgKogHKPOXLxJeMX3N8ofgCsgOx1VnI6/IvVACVV2Ag4Omoj4AmgpO1ZA8oEpisAcXyvB8uHaEQpGQ8y9/luceFvJZp+JuFx4+LX/x+c2SAYj9BUKBfDs08NA1xiQD2LRT2FfLYMnxcH8J4TFNebx1XQhRDGZdxCCuEHct85O+WoWV6lud5THBg3pb58x6Zl4QM6+t5jbyOaVBkHOv0rdOW8bILLa+TeViX0VZetuIyL17LMvN3mTfvkyKvkelZ5i3jFmSoAEoBVEajLciGyLz5kvBL0VLki8WXyb7lswCoVytg3VxfXEzohYuHW+LS4Za4eNhbSQ7r4MJhb2jSChcOU+T/Wph9XbbCxcOUrOrcBxcP+1oI/88qblbneY0UmZb8P6trit95amD5LOj0//vR7lYaKE1zYN/3NNMdgPnSZ4aaFZqYaDLiBxlNSpYDsfXx05RXwgxDqR1iehIAZL/FPHOTz+PiM02Zr0yfaef0vmS83JQnq7iPK6e8JidxZFzrUN6f5f3yWJ63jm/v/xVAKYDK1Ytt7wZacPkpgMo9hBQkUBB2LMGnIMtSdPN+CKCO9MCoblzGoKTYTLigTXj0WaLmh4s3cuadpWO0HMQlPFiGT9vHWA7u9hrYmY/MV5bf8p7k/crfCmvIe5Rl5z1bijxfkKECKAVQGQ20IBui4+WdCVC1Xy2PNXN8zBqoVkoDlWvtjj2AQgGUPYA3E6Ba4/cjPTG621t43qskDM4uMBrc4W53TbGmgSIwcHp727ZtxWwvuRyAPUBCwoy9+zAJE/bOV+WXqfVUAKUASgGUzTaQCVC1XimH1bNa4uLxnsIERTOetRlK/f+wWc7+9eGDC4d9zcLjgi5P0cxfmO8Ot8L5I8H4nRqorm8KgNJz9Wx3TUNgzwFWQgS1T5xxxvWYOBtOruhtr7KwHPbKS+WTCTAFXRcKoGwOno7zgAq6gRTf/DMB6o1qeiwZ/xkuxPfSfHi+aYnz37RS4lB14I3z30hRzya/2ucF2faPtsEP+zqiX/BLqGIqAaNYgJFLf9gXJGjikY7FXOBx69at4KywrBypi29/psa0/Hj2CqAUQKkvJ5ttwCiWMTC4OaN6+ZIY0/0t/HGku5jefv6bFgqeHAqeFDDlFzBZp3tBtP2WOB8Xgpj1fvD/pArK60vBw6AXGih7AxQ1P1zzqXnz5mItIu63xsUZ5aww6ReUH4OnSlNBmQIom4OnahiqczCKvfCMBldUMJSA/6fPI4KR0kAAACAASURBVHZjEM7FtcNfB1vi7KFWOHfI2yw8thb5mwoz6+lp6sK6ftX/j7Y5e9RJS5yjpi++K5ZNaYhaL7rC6FIGJneD3QGK8ETTXbVq1cANc7ldC9dL4ixeCU4yVP2ZGtPyow0ogFIApTRQNtsAAcoIo7seHm5l8NYLZbFoVD0xcJw76o9zB5vj3KEWNsDJHoOYyqNg4KF41Ts/ErQPBd53S7O0wPn4NvhuXwh6+r+ESu4lYHB1MvchNN/Zx4RHeKKZjtonrjTOVbubNm0qwMla+2QPR/L8GJxVmo4PfQqgbA6ejv/g1Mtlj2dEgHKHh7sryhtKofl75fH18uY4n9hVmPAIUGeFNsobZw/5mIXHHHiopVKSd3WgDeZnD7F+leRXHUhtIdP/yyw81oC1Bc5xz8CErggbWx/vVHeGyaUkjAYXs++T/QCK/R/hqWHDhgKeuD0KVw0nVPE3qXmSoeov7dFfFt48xAQIToLIpSiAUgClNFCPbQOcWeQOo1tZVDGWQqcWLyA2OhDnEjvi3FFfnD3YDH8daIqzB5trMEWgEsf8X0ne1oEZWEUds56V5HUdnDvYEhSmK0zVB1nnLTSN61E/nDveBdvmf4Yvahnh5VYKJj1n33HgtI/miSBE7ZPcP44b73JvtVq1agl44m8KlgovyOT02bHN5VayTdvIZThyJwqgHjt4Fv2GmG2jKvb1o5nyPAyu8HQtheoeZdCxaTUcWtkM5453xLnYIJw91AJ/7W+Ksweai8FHDkIq1AbjvKiHvAYFld7j4VNA1IGWOHegBc590wrnYrnyeHusmd4AjesY8ax7CXgYysBolBu62hdcuOZTx44dxSa1AQEBQuNE7ZMCqKIxZuUWjnIbX4578rrcgpOMrwCq2ANC0Xjh5AuRL6HwhXKHh8ENni5l8Jx7KTSt64G5Q2oieas3zsaF4K/Y1jh7xBdnj3jj7GEfnD3sqyRP64B1aq7Xb3xwVkk+1YG3lu5hP5w9GoSzse3x59F2OLz8S4zp/BLqv+IKL7dnYNKb4UlofOwHTwQkOo6/+eabYtPxcePGoUqVKkIjpXydikJfzrZkFrat/BKrPHJrupPxFUApgFIq72zbgDZAcKaRp8EFXq6l8KybDjUrl0HAR16YMfAl7Fj0PpI3NcHP+3zwrwMBQn7bHwAlT1oHgfhtvya/7g8A5cz+APzydQB+2WcOeawkT+uAdXzm6wCc3uGLpI0tEB36HkZ3qI5Gb5vwcrlSqKB/Bh5upTS/J3dqn+wLTzTd0Umcaz6tX79e+EBxrzvp+5QvH1DZ9g9FAVwK5h6kBuhxodT2WIcGoztyI7zeaDJmioAzzWRHIDK5m2yIB0zuWYsCKPVyKIDKaRswf2170LFc7wYP1zKo6KbDixVKocHLbmhR1wPtPy+Pbs0qoGuzCuhiDnmsJLd1UBFdm1VEFyGZ13ZuUgGdG1dAl6YV0VlJntcB67VLk4po/WF5NHvHE3Wru+IfppIo71oKnm6u8OB2LQa92UnbvoMuNUw03bVs2RK7du0SJjwupCmXLVDwZN/nkWf1Tb8jgri1tklqiWw4djO+wfio6N2NsCUGC9AX2iMjNyTmPntGGNj/GzSA8iAsGUwwGYwwZogJRoNtUQCV08FTxVOgZQYo7WvFAPpFeehLw8O1BLxcdajoqkMlVx2e1etQyaDDs0ryrA4qu+tQxahDFYMOlfWasJ6V5G0dZNStm9aWy7vqUE5fCuWMrvAyGcEBxuhuyti2xV4+R9J0989//hPh4eFiw2AeE544kCvzXeGCJ0uNk9AsSVgyO3HzuZYpXQZlSpeGUxknOJUug7KlMsWpVBlkKaWd4FzmYSlbxgmUMqVKo1SpUo+V0qVKgfK4eDKOAigFRgqMctsGMr6U+AXDwcT8deJmhLurAW4uBri66s3CYyU5rwNZb5mhm5seBr07DHoDDG56GN0MMBncYRJqd345KsnLOvBwJygZ4WE0wsNkgofJAx4mT02MHjAZzaYO8RVvHxMeB1Sa6oYMGYLo6Gh88cUXGf2WWqqgcMGT0FzJ2W4PaZfc4ebmgrJlS6NCeU/UrPEqPnivPj7/+H18+fEH+PKj94U0+vgDULT/G+LLjzKl0ScfoMmnH6PZF5+g+ZefZkizLz5Fsy8/RdNGn6Fp48/RtPEXaNr0SzRv1gitmjdGqxaN0apVE/h6N0OAbwv4+zaHn08zs/D4YQn0b4mgwFZQAJXbwVPFz+i48kyFW2jrlIOHBUQJkNIGFIO7AZq4CxUx1cRKclIHst4yQ3ejQZteLKYuG2AyusNkMirJ9zowgSYyk9EDHkJ4rIl0orVXH8A1nz799FPs3r0bAwcORIUKFYQvFDVTCqAKL0AJbT5B3GCAi1MZlC9nwnvv1kL3zm0xdsRAzJoyCvOnj8XC6WOxaPoYLJk5ToTyePGMsQibPR4Lp4/G/OmjsHDGGITNmYClcycibO5ERC6YimULpyFq8XRELZmJqLDZWBk5F2tWLMTaVYuxdvUSrFsTho3rIrB5UxS2RC/Hji2rsGv7GuzaQVmLXTvXYveu9dizaz327tqAvbvWY9/ujfh6b7QCKHt1ACqfJ3vJ2UHay0zwxM/I/DWVUVazqU9zsCVQKcmzOjC3B1nXKtTej/ysB2vtFtdF08wuT/ZO5+Y9433RcbxixYoIDQ1FWFiYmIFnabpT5rv8fw65eWY5jUsznta23FG2TGlUr1oJXTsEYvrEoZg/czQWzByFsNDRWDp7JJbPG4MV88dgzaLxWLNoAlYvHI/ViyZkHK9ZMhFrwyZhTdgkrAubJI5XM4yYgnWR07Bu2QxsXBGKzWvmYev6hdi2cTF2bFmKXduWYc/O5di3ayX27V6NA/vW4sDX63DowHohhw9swpGDm3Hs8BYcO7IVscd2IC5mJ+JidiHu2E4FUDl92Cpe/r6k7ChZx+wsS5YsKYQOo+wo5W+F5xkoYMozYFLwWYAAbnuxQnu+h4QjLlvQrVs3bNu2TTiQM3/L7Vos4dGeZVN5PcGYQPgWmmSa3QlQ7nAtWwYvVK2E/j3aI3z+JCwJHS3AKWzmCCydNQJLZw5DxKxhWDpzKMJnDcXyOaOwYv5YLJ8/BisXjBNgxZAQRVnBY8JT+BQQolYumYjliydi5dKp2LBitoCo6LXzBUTt3LIUu7dGYve2SAFT+/eswoG9a/D1nlXYu2sF9u9Zjf271wg5sG8dvjmwEUcObcbRw1tw9JstCqDUS/AEL0E+mNzYUbIjfOGFF1CvXj0hXOuFX57sLNVzcoznpJ5DMXwOUuMkw3x4/63blfxocnJyQp06dcSSBcOHDxfbtdAXSgKUJTzJa6zTUv87UJsVa+pZbJmid0UFDz16hPhjaehYRC0Yi8UzBiGcwDRjKCJmDxfQFBk6HJqMwLLQUYiYPRLhs3luJJYJoBqHVQvGY9XCCQKgVi6eiNVLpwhZFTYZq8OnYk3EdKyPmo0NK0KxYcUcRK+Zjy3rFmDbhsXYuTkcu7ZGYM+OKOzduQL7dmny9e5VQju1d+dK7NtFuFqLA/vW4+CB9QKmlA+UHToD9QJn/wKzU+ReVr1798b+/fuFcLbNhx9+CHaiqg6zr0NVR6qOikobIAxR8+Th4YEpU6aI7Vrq1q0r1nuSPk/W8KQAqjC0/0x4MtHq4OKEz96vhbmTh2CJAKahWCoAagiWzhgiQIowtWwOwWmE0DZFho5C5GwNnAhPNO8Rqng+au4YrFg4HqsWTxThGjNErY2YhvWRM7EuwmzKWz0fm9cswOY1DOcLiNqxeSm2R4dh55Zw7N0RhX0EqZ0rsGfHCk0DtXedAKj9e9ZgP0Fq71qlgSoqHU5hvw+a7ipXrozx48fjX//6l5B9+/ahUaNGYu2Xwn5/qvyFoXNXZXSUdkoNE6eRc5sWOo536NBBwJTUVNuCJwVQhaD9mrWY2iQEd1Tyckfvjv6ICB2FJdMGImLGV1gybQCWTPsKC6cMQNiMwVg6cwgihAZqBKLmatongpKApfljsWzO6EwxA1TU/LGIoGZq0QSsXDIJq5dOxdqI6UI2Lg/FppVzEL1qLrauXYBt6xdh24ZF2CpkMbZtXCI0UjujNa3U7u3L8fWuVUL200/KDFIH9iiAUpoNB9HASYDi1gwSoPbu3asAykGej6MMrKochWCQfMo2SxCi1vnVV19FZGQkJk+eLEz71FJnBU7yvGofjtk+CEzi2YjVw7VZta4uznj1n1UxfkgPLJ87GhGzBmN56FBEzBiEiJmaBorwRIiKmE0fqCGgSU9qmghQy+eNFdonhivmj8PKheOxfP44rKApb+EE0JS3fNEEIYQpgtT6ZbOEKW/jyjkCoLauX4QtaxeC4c7opWYJx46NYdgRvRQ7tkRg55YI7N66DHt3rMQBQtTuNTiwWwGUAqin7OzyqsPKDqD45ZlXeal0HLOTVc9FPReCECeO0Hw3YsQI4fv00UcfCZ8naqUkKNkKVftx3PYjAcpgNEBv1EPvrodzWSfUf+d1zBjbD8vmjETE7MFYPmcYlk7/ChGzhgpgippDjdNwRInfhyFsBiGKcUcibMYwobmi+W4loWn+WKxcMB5R88ZiJWFp8SQR8ph+UJS14dOEFkrzh5ol/KEESK1biB30hdoUhl2bwrCbEh2O3ZvDNaDaHI7dWyKxe2sU9myNwr7tK7Bv+0plwlMvnWO8dBKgxo4di99++03Inj17xIJ5nI2nnpNjPCf1HNRzyO82wDWfaLrfvn07unTpIkx3aq+7otHutLXx9GKNPOeyZdCw7huYNb6/0DCFTR+IyFlDET5jMJbRZEffp9ARwhcqcvawjP/pOB45azjCZ/LcCETOpn+Udi6SPlGcnbdwLFYtGo9VNOEtGi80UavpTL50CtZFTMeGZTOxIWoW1i+bifVRM7F51VxsWTMPW1bPxfZ1C7Frw2Ls2rhYwNSOjUuwe3OEBlCEqC2R2MOZe1sjFUDld2eg0s/Zi0+AevbZZ0GA+vXXX4UogMpZ3ak2puqpqLQBap6ef/55zJ8/X2zX8vLLL4sVyHl/1DoVlfssrvchAYr3z7Wf3q9XEzPH9cXSmYMwf1JfLJk6SHMenzlUHEfMHIbwGUMQSViaOQzLZg3XgMp8vGLuaAFZ1FAtI0jNGYHl80Zh2dyRQlYuHIflC8Yiav444Vi+eskkrAufig3LZgiI2rh8FjaumI2NK2Zh00qGsxG9KhRbV88Tso2z9ISP1GJs37AEu6LDsGdLBPZsDsdeBVCq43WUF1kBlGqLjtIWVTkKpi3SRMd+oEePHti0aROaNGkiZt2p51EwzyM/6l3bjUEvFmJ1KlMSDevVwKzxfREZOhSLpvQX2qew6YOweMpXmD+xn4CoJdMGIXzmUETMHCoAikBFkCJQrZg3Wmimls8diRVzacobg6h5nJk3WgAUtVFR88cgcu5I0LF81eIJWCNMeVOwftl0bFwxU8gG8/GW1XOwefUcAU8Mo1fPxebV87Bp9VxsWTtPOJvvFBqppdizJRw6OSVUhYaMLQFUXdi/LiRAjRkzBmfOnBHC2Tfc84omPPVM7P9MVJ2rOrdnG6DjeIMGDbBhwwaxXQvXgKPpjpone5ZD5ZX37d7doG34nKGBMhrgXLY03q3zGqaP7Sk0UAsn98PS6YOxeOpXWDp9CMKmEpyGiP/Dpg8RMMVzYdMHC2iitioqdCToJ7V8riY8pj9V1LzRWLFgDJbNHYWoBWOEFmr5wrFYuZhLHIzHqiUTsCZ8MtZwpfJlU7EhSoOp6JWzQdm8KlST1XMFREWvmYut1EatWyDCHRsXYfvGRQqg1MuS9y/Lk9SpLYDatWsXPv/8c9Angl9DT5KuusYxnq96Duo5ZNUG+G5brvm0ePFivP3228KZXGpBsrpWnS8c7co2QJUyA1QvhM0chIVT+iNs6ldYOHkAls0eLiCKWqdFUwaKlchpoovkLDwusjl9iDgfNm2wiBs1e0RGHGqgNBmNZTyeP1qA0+olnJU3HmvCJmorlS+djDVLJ2HN0snYsGwaNhCklk3D5pWzsXV1KLasmo2ta6iBmivASTPnLcD29Quxff0CbN+wUAGUegEd4wXMCqA+++wzBVAGx3hG6l1RzyE/2oBc86lNmzbYsmULfHx8xAcTz+dHfipN+7fjrACqYd0amDGuFxZP59pPA7B0xmCheaJmiWY7CgGKi2oSnqhhYkiY4m8Muc0LoYqmPW73Ehk6QqxQzjWjCE9CA7WQPlDjQYgS++WFT8E6SsQUbIicio3LppllKjZFzcDmFbOECJCiSY8O5mvmYfu6Bdi5YVFGqEx4anByiE7KEqB++eUXUHbu3AkFUPbv7NQAo+rcXm1Aap9ee+01sebTyJEjxYK67A/sVQaVT/63d1sAVdappOZEPr4PFk3rLzRQi6YMwKLJA0A/qIWTGA4GfaCocaKIPfFmDNVMdzTfhY4UZj8BV6EjxD55woRH53JhzuMK5SOxlJBFUx/NeZyhR1+opZMEQBGi1lILFTkNm5ZPx6ao6di0fAaiV8xENJ3Ll8/AxqgZiF4+G/SR2kqN1Jr52LF2gdJAqZcn/1+enNSxAijHeA45eVYqjnpWedEGCE/0caKMHj0aa9asQcOGDYXpTmmfilYbswYog7seZcuWQsN6r2P2xL6ICB2KsOlfCQ3UkqkDNd+nKV8J/6dFU2jWG4iFE/sL5/IlU78SSxgIDVSotpwBQWr5HIrZF4o+UfNGa/5RDKmN4ky9uaMQKTRTXOqAWilqpCYKmFofMVXAEoHJUmjW27iMUDULm5eHYuvKOdi2Zp4QpYFSGiiH+NKTAMWO9OeffxayY8cOfPrpp8qEp9qoQ7TRvICG4pwGgYmLZHJSCFcVZ13Qcbx58+ZizaeQkBBhuiNQFed6Kor3LgFK724Qi2jqDW5wLlsK74tZeH2wdCY1TQNBeFowqS/CZw4WMEWzHLVSYmuXyf3FMZ3MeW7+hL4Io3aKZr/pWnyuG7V8zggxI4+z8uSyBlzaQC5vsMKsgWK4ctE4rBYQNUlooYQmKnwqNkZOw4YImvamYxOFZj1qoFZoALV91VxQFECpwckhOisFUEXri7MoDgLqnp6ujfIdf+GFF+Dr64s33nhDwBP/X7hwodgwmMcSrFRdP11dO1r9WQOU1EC9X78mZhGEZnDpggFCuJwBNxQmGHFRTcJSxCxu7TJI/E/QWjx1gAAtHotlD6YOEPE4a4+LcXIrmKg5w7FsznAsnzcSy+dxI+JRWDF/NFYvGoe1SyZq4eKJWBs2CetowgufImRj+BRQ1odPFuc3hk/FpmUzEM0FN5fPwrYVodi+co4CKEdrZMW5PBKgRo0ahZ9++kkIVyIuzBood24/o0TVQRFtA7ntr+T+dgQmbg7M63v27Cm2a+FyJYQnmu6oqcpt2iq+YwOXNUBxK5cypc0+UON6Y/7kvlg4qZ8GUVM1HygJR9Q+EZKkiPWiZlLrpAFV2DSa9LT/uQWMAKhZdDofKlY0j5g9FGFiH72hiDIvsLli/hisWTwea8MmCphau2Q81i2dhI10KidARUzBpsipWB8+RQDWRmqjIqZhU4QGUltWzBIQpTRQSgPlEJ1VUQAoCUsGseYJBwF3GNy5ho2V8JySnNWBdd2p/x9tT/auEwKOgBwNdGS75yApB0pbQEPznZeXF6ZOnYpJkybB29tbOI537txZ9EElSpTIWHVcQZRjA5Gt5/u4c7JdSBMeNVBcSJMrkc+a0MfsQN5fmPGodaI2asGkflg4mX5PmmaKx4SpxWYfKWqZNM3UYAFL3O6F57gNjGbGGwlxLnQ4IkKHIWLOcETOHQECVeTc4VixgGtFjRbbvgiYWjIe68MnYUPEZGyKJEBNwQauE0XtlACqaYheNh2bl8/E1hWzsHXFbGXCe9xDV7/Z7yW2BKgff/wRlMKmgcocSPRwN1Ae1UCJNuVuEHtBaYvKqePs6uHhetQGaTlYq9Ce9cENvaXINm7Zzh8PUNQucb2n4OBgREdHY//+/QgNDRVa5pYtW6J79+6oWbNmxsbBqv+1X/+b33VtDVDUQDk5ldB8oCb0xZIZ1DJpmwjTDEchLNFhnEKYos8TQwlW8yf2FWY9qYnStE/DBDRFcUuXOSMQPmsIls0d8ZAspylvwWgwFMdcJ2oR987j7LxxWLd0ItaHUyZhY+QUbOQyBwKopiKa60Qtn4EtK2Ziy8qZCqDyu+Go9HPWCRR+gNK+yvXuRujdTdC7e8Dg7gG9wQS93gA3vR5ubnq4moXHSnJWBw/Vmd5ch65ucKVY1Kk6zmxfeVYXoo61emYb1gttl0lr12zbor1To8r2b/4YeIxWn2Y8QtLKlSvxww8/4Ouvv8bGjRsFUM2cORPvvPOOmoX3mPorrOOJNUC5Gw1iFt4H0gdqJn2eBpmhiQtnUrs0VIR0LBe/Tf0KNNfxf0IVAYq+UBpgaXC1dLp0Kh8k1oaiNiqKPlDzubgmVygfiZULxwhQIkStXjwOa5aMx9olEwQwrQunP9RErAubIITnNaCSmqmpiI6ahi3Lp2PryhkKoAprgyxq5ZYAxXVg2LFStm3bVih8oKghEc9DzDBxh5veACdnF+Ek6+zsBL2bE0zuZeFhcoanyQVeJheUU5KjOmBdsc48Tc4wubMeneBhNIupbOaxPKfCPK0TT9axifVdFiZDWbg6l4FTmdJizzq2cw2g3GFpmnlc38QZdjTj0fdp3rx56Nu3L5o1ayZWHq9atSpMJpNDuBQ87h7Ubzn7KLasp4cByg1Gk7vYykUDqD5YPJ2O4QPNs+wGYMn0r7BkOh3EabIbIHyctJl5mrO5NvNO84GSx7ye2ihuB0PtFUNh4ps1BGEzByN89jBEhg5HJLVT80dpprsl4wVAEaQyICpM0z7RJ4rnCFjrwiZhA32kwjXzXnSkpo1SPlBy8FNhgXZchReg6AdiFF/kLm56lC5TBm4uTnj5nxXR5NPa6Na+EUYODMDE4cGYNDxIyOThQZiiJEd1wLqS9TZxaCAmDg3A5BGBmDIy+FEZEYypSvK0DljPk0cEYeLwIIz+KgC9OjRGs8/ewYvPe8ClbCmUKVMabno36I1GuJmnqHPglAOm5SBqefzss8+KBTMJU3J5AzqRqyUMcg8nlvXqqMeyPWig7QahgXIqhQ8avIHpY3th/uR+mD9J0yLRSXz+pD5Clkyn3xNn5WlAJUIzHNFXioAkQuEPxbWk6A81TPhB0YxHfyf6P4XT78nsCyUcyuknZWHCo/lOQhTBiX5QQhtlhinhExUxBdEUwlPkNGyOmq40UI7a4IpbuSwB6vTp06Bs3boVn3zyicOuAyV8c8wOtf/P3nn/NZVt7z+C9GZBxYqKvVfEigok9N4RK9hQbNil2VCK9C4lkISEKup06aFa7sx8/6Dn+1pr5wA6fqbce2dk7uSH9TonITk5Z++T7DfPevbaVlbWsLaywJZ1zricGABl0QV8q76Jvpbr0Hdcw1DHZQx3XDREMkY6Lhnjd7TBcMclTMRFDHVcGG/HoQ56PBET7Su1s3H732gTamN9RzL626+gtzUF36mvoybvNM4cPYT1K2fD2tIENjZWcJhhx2k84Vn79Zl0BEqTw1g4838TnKRx7GOAsmOAsrIwY4DKu3+JPVCUmqN18MgsTrWgih5cQMmjZFagSh9fQvHDi2wyp7IGpY+EWkVLvJACxSUPssW+5KGi9F350xSuBUX1oCgIoni/gIpqiqC0Hi08XE9RnIbGcqE6qcoprUcGckl1esQeKPZBPc9Ca40xhfdFVRfp5jJu7TklQP+VUgpvqgOUNEA48Aw7Bz73ubNtERHghoaiZOjbb+PDy4v46cUJ/NQRg586wvBTRxB+5gjE/+sIwv9rN8bvaoPxdqP2Cza0oWhLatPJIdpXamfj9r/VHqKNQ/BjRxh+7IjGj53H8P7lefS3XoGy4BTCfTZh7kxL2FhbwY5nnkqz9P63ocD4u/37+3cCoOxg52CLybPw8h5c4hQbQRDBE0GUSMeR9+kqQ1M5p/OuoPwpVSUXBTXJA0Xr5HHxTcNzUjVzSuXxDLycGwKYCJYMEFXLBvJ7DFDkg1JSYU0qqGlI5xE4kRrFipTBC6WteAhd5UNO4TVXE0g9RsvzLKMCZfwS/P4vwZ/ZVpICdfv2bfz8888ctLDoVFSgJIAi46yVtRUWzp+Js8e98LrxGt69uop/vTiFH9ui8WNrKH5sC8JPbQH4qc0fP7X5cfzc5oef2/yN8Wtt0OqPnym43fzxY5sxvnwbBODHtkD8qy0UH9oj8b7jON6+TsY3jReQEOmKeY42opaTwQv4Z/5eGI89NX63f28/fApQlMKzsDDFXtcNyMlIHl8Hr5jUpce0pAuZwQmeyCROdaGuoJyLZooyBgRb7HMi1YmrmFN1clKlhG+q+NElNpyzOpVzAxU0sy/3Jm8rDFBVS7PvyFBOAFVMKTyqC2XwPFVQgc1MrhXVWJIODalRNDuvPAOaikxoKx9AV/XACFC/9wYwvu7P/cL+nQBKzDiaAWuqazPTGsej9+BbzSW8e3ESP3WEClBq9cHPrd74mbe++LnVGP9WG7T54idjTKE28MFPbVL44ceOUPz4+ji+ViYixn8L5s60gK2tDZvLqQ4a/bNh/O00toEEUDRTk0oYsAJlYYp9uzbgaXoS8u9f4Fl1VKKA0nOkQBU/SkbJ40sozbrMMEUQRYZyAVgpDEO0uDAFrYtHkERQxftUxZzhygBOOTcMAHUDZeSdyruJGlojr+AeSJFikOJlXTIYpMgHRebxhpIMqEozDAZygqaHaK6eCKOJ3PgFnxI/cH8fgKIZRw6wsbWBjZUJPPauQHPVaXz46iw+tIXi53ZSTQieJocRnv4teDJApxGgphJESvBE5+THyuCH9lB8eH0O6oJj8NzljJl29UJ1ZAAAIABJREFUFrCzkwrJGuHBCJCT7gGp1AUtJmxhCvc9m5CdcQGFj5KRn5nE3qdiNpRfGPdA0WPyP5GxnJQlAihaA49BygBJUupOeKEETJEHqjLnJp7TIsIct3kGHi0oXFMo4Im3BiVKqFHpUJZkcEpPMparyzJYcWJwek7pOxEtzx8bFSjjzT3p5v6CMEkANX/+fNy6dQs//fQTR0tLy5RK4dF/0+TxoKnbltZWWLZkFjJT/PDu1Xn82B6EH1sV+KnVGz+1+uCnVl9j/Jfa4MdWXxhjqraBN/7V6oMPbWEY6ziNtIuHsHyBA2ysbQyV+H/dTG78/Z0av79/XT8YCr86OMDSMAvv2YNLKH1ymdUmYRqnmXekNBEskd9JKFEEUQKmLqHo/kUUZJLJnF5zmZeBoX1RI0ooVaRAUS0pmoFXxeULbnFBTVrOhaNAFNQU6lMar41HihOBk3juHpQlqWgsSQVBFKXuRPruPrSV91mNMipQXxAa/rqbdup/SScD1I8//ggKqlZ86NChKTMLTwIoG3sH2NpaQO6+Eu01Cfjw8gQ+tPjhxxZv/KvFxxjGNvhH3QMfWnzwvtkfH17GQ1cSh4OuS2FvYwF7O0rVGAHK+Ds/afwx3A9UusLK3AwHdm0CA1TWZZRnXUZBxlmUPLyA0sfJqHhCBvFklGUlo/LpFQ56joHq4UWU0Cw92hJgPUwe35YaHpc9Jh/UFVFPit6fQ7WgrqMq9zqq88hcfhM1+TdRV0iz8O5AWUyGclpsOBWqsjSOxtI04XtiD5QAqKbK+6AgH5QRoIwANWVSeJICNVUBSqxtR+k7O8xztMDZ+K0Y7DiDD+0R+LHFh+NfLb7/qMHTCIxGYKZ74EOLN963B6Cv+QSOhW6Bo4M5bGysP1ozzwgSk0DinzruSABl7wBLA0DlZtJCwhcYiIoyz6KUAOrRBZRnkaJ0kffF42SUZ5FH6iIqyBdFKhXvX0JV9hUOev04bDGUXUJlNs3eI4C6wvsVvH8V1bk0Uy8FNQU3UV94C3WFt6Asuo3GknvQlBM4UaRDUyHUJwmapK3RRP5PvYmn4HVLCtTNmzfxr3/9i2OqKVDSIsG2NjZYvsgGdy/swWhnAt63huBfzT4cH5p98aHZxxjGNvgH3QO++NCiwLsWBUY7TuBqwm4smmPFZQ2k74wRnozwxPfAZIAym479rhuRdfcc8jPO41laIgozz6H4wXnkp59G0f3zvC9tS6kOFClSjwVISTBF24onlzhIfaL9yieXx6Mq9xoqc65yEDBJUZN/AzXPrjNAETzVFtxCfeFtKIvuGGDqDu83lNwDKVEqWifPkMqTVCijAjUFYeKf+GPztwAoBzGryM7aCqsW2+Dh1T14/+oY3rcG4kOztyGM8GQEyH/ePfCvZi+8b/HE+8543D3vhqVOAqC4LhTVhjL+zhrbgO4BA0DNcHCAtbk5p/Cepp5nkzgpTyUPkzgK0s8wTBFQURSkn0XxgyQQRNFr6DkCK3pMAEXQRWAlgRPtV+dcxXMGpmuomgROz/Ouo+bZDYPydBv1lL4rugNVaSoaS6mswV0BTpO2EkSJ9F46VJzaSzem8Ixf7Knxn9HfAqAMA4GNlSVWLrLB42t78IEAqsUfH5oVhpAGT1KiPg3pb/9rW3Gd75v98H78mqfSNU7uh6l0Xv8r5+INAiiKD53xSL2wG0udrGFjRYU1ZwgzuRGgjAD1CUBZGQAqJ50WBSbV6AqKCYoeESRdYCAiWKLHEihRWo/2CZ4kgKK/jwMVv/YC/43AitJ5tBxM+ZPLkJQo2hJEPX92Y1x1IuWpoeSuiOK7DFPSY3VZGtRlVAtKSudloKmSakFlGgHKCFBTD6A+fPgACp1ON6VM5CIdYQ9ra0usWGSNRym78f5VPN4xOMjxvpnCG++byVT7Twq6ZgkgFVOyDd41+0AK0Te+DHv/rH76M+5J6ntSXz3xgQDqRTxSk9ywjBQoI0AZoelTcJ6kQFlMn44DuzbjaVqSUKAeJ6OQTeRJDE+UjmNIIigir9MTAU+0L9J4lxi0CKooKp9e5scVT8iQfgkV5KGivz29zB4o8j4RTJXyc+SHorSegCkykxNUcRqv6A4aiu+OBylTEjwROJEniuCJZuIZU3ifdrDx8Rf50k9WoKY8QFlNBqijBoAicCCAmgAIMWD74l3zbwcpNyL+jEHuzzymN97xNcsNCtxEKnOqwMm7ZnGOdJ5Sn0xWy/698/ztPpX6/e/bt7/nvpHgmQDKEx9eHGWAIgXK2ghQX+S3dEqLApM8UBZmBoC6dx4FGeR3SkJBxhlhIjf4nYTyJACJAYrgiX1Ol1ldIqVKwBOZyK+xOlX19CoqDUHKU3UeVSsXsESpPIImCnqeHnNKjwHqBmrzhZlcgilhLL8DkcKjFB8ZzCfUKCNAGYFpSnzJJYC6ceMG3r9/z6HVanHw4EEuYzCVfhSsJYC65oZ3L+PxttkP73QKvNPJDVtp3xPvtB6Tgh574p3OC+855Hivk4Le4/23i7c6b7wlta0zGO+/jsb7l+Gc0nyv9cb7KXA94vy8MdaswFsKPicfvNf54r3Wj7fvdD7/RruLPhb9KPXnp1vqW3rd37Nvf//9qMB7nSfeaz3xvkMoUB8D1NRQuafSb8g//VyoJAx5oMhE/uj2GeSlnUF++lkuY0DpuGdpp8fTcgRJBRnCC0WKFD2WtmWPyANFSpTY0n7VU1r2hWbmXUVVjvA/0Uw8CvZCSeD0jBQnKmUgUnnK4juoL7qNusKPg9UoNpKnoqH0HlRlwitFqT0jQBkByghQf/Ae+F0ARam8Dl+8f+mP952+eN/pZwh/8dwLP7xvp//wCTRoAJLg6d8ZzKX3foFtsz+Gm4LQ+mwvim+uRv39reip8+K6QL9/AP7zzlsCPIK8tzpfvCNw0nnjvdYH77W0T8/90Tb3wfs2P7zvoL6l/gwwRCDev6QIwPsOP7xvFerMRDvQ5/zRz/rz2mbivP7TzzAC1D8diP7o9dPSLuSBOrhrM8gDVfRAKEsERgRFbBhntUmAEZU5EJHEhvHCTDKZn2FDOZU4KMg8g6L751D2SJRAIFM5eaCovIFI4V1GVc5VVBBE5VxFdV4KR23BDdQWUi2om2goJjM5wdMtNJQImCKgImBSld2DuiwVmkpSn9J4q60yeqCmBDz80Zvvf/H1kxWod+/egaKpqWlKK1APr7rh7ct4jOl88VYrN4QCb7UKDKnk+OH5YXxdfhBfVRzGaw5PvCr3wleVcnxf64sBdRDG2iPx7mUk3rUHsjoijkPH8J4UPnirpZj83JfeF9f5tj0M39eHIjFkFRbPMoO3qz2Uj93wtj10SpzzmNYHY1pfjrdaX7zTeuNdk9wQ3njbRH33R9qWjueH3jovfFV2AK/KDuFVuQdelnniZZkXXpbL8U2VN/obAzHWRn0bg3cvQjGm88HbJrpHPu3bL92P/+nn0/XIhcra5IF37fG4x7PwJqfwjArU/+Jv9n9yTaRAmZua4uDuLQxQVGGcPE+kPEnwRCoS7YvZdVRI8yqrUiUPacYdmcwJqsR+6SMym4vHtKXHVBOq7EkySg3bimzyP11ECb33aTLKsy+hPPsyqp9dw/NnKajKvcpbhqqCGwxVBFakTDWW3h2HKAapijRoKowKlBGg/qD68p98aX7tvf87AOWDd63BaH62FzEH7bF5oQ22Lbbh7aaFtti0wBZbFttil4sd5FvsccJ3NvKurWWgekfQ0UwD+uRBlgZsEWKgFzA1GQwIEH4JARJ0TQCEBBK/PN5vDaLSOQgQEZ9neE9HJL6ui0SUfCXMZTK4rnPA84cH8LY9/JNzmnwNv/15k6/1/wZHqS0mzmvyNdIxxproNdQ+vhhrUuBta4AAmuYAjGq8J/1daq/fOLeWQPTU++BGtAt2OVtj0wIbbFxgg/ULbLBhgS02L7TFzqW2OLzBHpEHZiD11DJ0FntgrC0Mb1v9J0H25M+R2vdzfUXX9jvPzfC6iTb4XLuI5ybad/J50L50Lr987+ffYwSoX/tdM/7t8/AspfDc3YSJvIgKaT4Ss+sImiTzuLSlGXoEUPRYgiYCJKl8gZhxR8u+JKHyKRnKDZFNs+/I/0TKk1CfxtN5eZTeu4rqZymoyadZeWJLAEX7tZzaI4XqBpTFNEuPqpXfZphqLL3DQGVM4U0RgPinf9EkgLp+/Trevn3LodFoprQC9eCqG8Y6j2CUB2o5D9BjpGi0hqMu6xD2rLOGhUwGu2ky2JnIYE8xXQZrUxnMTWSwnC6DndU0zJ9lDrnrTFRl7sTbtnCMav0wqpGOpxDKRdPkxxPPvW3y4r8THIw1ERBMDnpu8mvl48d6y6//3Hsmv1/ap2N8ehxP8Ge3R+BVbRwi5WsZoLavnYPKB3K8bY80nAt9hjj33/+ZE+/5+Hqk85G24nWiDagdJofUXgIK3lKqUeOLmtS1eJAwB615bkKZ0ojrkM7x//48+iwCsBC8qQ3Gce9lmGEug5lMBmsT0b92MhlsZDJYmMhgYSqDjYUMjvam2LnSBvfPbEB3gz/GWvwN94l0DWI70b4fXwOrVuN9//F7fnmun2uPyX0+sS+u93PH+7SfJ79HtMHHnyt9pgfeajzwtv2IoQ6UUYH6p/+m/9r1E0DZWFjwLLwHt04jN41ScucNcQ659xKQn36GPVFFDybqPgmgoll7pDiRykQmciquaahcnnURFU/JdE7FNqkK+WWGp4psmol3CVV5BrWJakQRMD27zgoUbeuKbnKQL4rSerwtEKk9qaQBpfKkUJenGj1Qv9bJxr99/r+HP6Nd/hcAigY7UjzG2iJQ+8QTu9bbw1Qmw9bVi3D7QjByUmPx5HYYHtwIRspZBcJ9N8JlkR2my2SwNJ+GfVvsUZW5m98/opFjlAd3GtCkQZUGK0o7SYMcDf4GkKH0EMMTqS7eGB0HKem10jFoS68Vx/p4MPzcgCqOR8cW75PebzheeyRefw6g2qJEW3wEap8bgH/5maPcjhMA9Ovn6IUxbgOpLSbaQ8Cj4fjtYXhd6Y0Yz/nYstgEOZe34W0LpRnF+8aa6Di/1ibi3Ok9P9SG45i3C+zMZVgw1w4JMQeRe+8Ism+F41FKMO5e8EZC9B64bZwLeysZzExkcJljjnunNqJXFYSx5oCPQFe0rWjfj69FautfOy+6Ph+M0n03fm/Q+6T2MPQT9zn1uxfeajzxy+ul94tjiHaj100K7pPJ99XkfqN7zAhQf8bv4v/qMckDZW1hjoNuW5B19ywKMkl1EsEm8nQylZOvKQkEULRGHkVhJgWBlYii+7R2Hr1PbCWwoufKDDBFaTyCJ17KxaBCScqTBFGfQhPB1GSAohSelMYjgGIfVEU6ZHZ2djCGsQ2+9D0gAVRKSgrGxsY4SIFyd3cfn4X3pc/Rzs6evyuSifzBlV0YfXEEIzSAkWLE0OOD0ZYI1GTJsXPdTJjIZDjkthbN1Vcw0Hkbfc1J6G2+iO7mq/hacwPFWafhvnsjv87G3ASRXi74pjYIIzpfDKs9MKpVYKwtAGMvAjHarMAIPycXz3WGYexVJMZeR2OsPQxjTX4Yo7SURiFC542xtkCM8euiMPYqWkRnOMZaAjDapODzHtXQ9uMY0SgwovESf5eO8yIMY510nFhxnI5QjL2IwavaaEQqVo8rUBX3FRhrjcKoxhd0nFGdL8bagzHWGYrR1kB+jp//3GfqfDDWTuccwudO6t6n50ZtPaLxxChBT5u/4foM7fBVjDi39lCMNfsJUNH5Yez1CZQ98MD2VTZwmW+OJze9MPb1OYy9jMAYeZTagjGqFecrrv3j9pDOYaw5FN89D0ecYgVszGRYsXQ2su9Foa/tFnq1F9DXfJ77903zTbTW3sKJyMNwnGkD02ky7N1gjZosdwZk6Xi0pfuG06ptQeJaOiMw9jISYy+jMdYZibG2IIxqvQ19RWD9+XMbbaa2CBd91El9HYOxl1HiOeo7Keg17cEY4eul41Ib031D0CrHWIsvxjpCxGe/jsXY6xiM0Tk1+xs++9NzoHvfQ0TbEdw9t4sLaXIZA7sZkL43X/77a/yd/+J9YC9+QwmgLM2nw93N4IF6RIoRLSZ8jmfUURqPFCRSnGgrzbIjo3jxAxEMTg/OsfepyLCl56RgDxSl+cgTlXUR5VwD6qLYf3qZ/VFUF0pK8RFgEVBVU2rPYDSnxxT1RbegLL6FuiJhMJdSekaAMgLklADo3wKoGTOoorH48n25H4E/AFCPvcYB6vCuFWirSsTIi3MY1kZiWBuFQV0c9M0n0d+RgpyMOKxZ5ohp5CHa4Ijapwd5gCN46m/wxIuivWh+tgs/PHfHaLMvg8V3zz1Rlb4ZuVdXI//6GjTn7MWgipQNgigfjLUEYqw9HF11PlA+2oH862uRfXkV8lLWoPbhdnz3XI7RtgmgmRiUaUD1noCcVn8eeN/U+6L+4U48u7YWTy+vQdGtjWgrcIe+8zheaY4jUrGG01mUwpMAis+jyRe9dQq05e+FNscN31Z5YlDjhxHDZ0x8roJBdEDlg84ydzTl7sKrMnfo1b4MNpNfR/tjLX4YbQtEV70CjU93o+DmBmRfWYO8lPWoytiOl6UeGNQEYKw1mIHlVWUIjvqtxExrEyxyNMPlo7ugyQ9GU647tLl70Vnsjj4lAao3hlVyDKsJ0n4JKmPNIfjueRiOyF1gO12G1c72eHbXF4MtidA3RXP/DmmjoNfFY/DFJTRXXoDXnvWsMi6YOQ0ZF10x2ByJUZ0PSGUcofRvewhGW0PxfbUCmie7UX53E/JT1qDwxnrUPtiBr6vkGG4JxehH0DsJYugYHWHQa0PRlu+O0lubkXNpDZ5cWo3iO1ugfLIXmtwD0OS5oynvAJqe7UNniTv6G0i5Iigy3DMEum2h6G7whSp7F/JvrsOTK6uQf2s9NDl70asiY3wow/3HbWMEqC/3m/Q3g0IJoOzsYGVOdaA2Ijs9CaWPhdmb1CeCJdpSwUwCKHpMM/DGK44/oJIGZwU43RevI2iitB0ZxqV18QiYKDh9l03AdAkVOdJsPErpkT9K+KAIomrzr6Mu/wae0ww9rlaewkvB0HIw9QU3oaTZegU30EAgVXCdHxsByghQUwagnJycQArU6Ogoh1qtHlegCKAcDEXYvtyPlQAoKytLuCyyxv0ruzDSEYdhDQ2GpNZ4YYT2m8Px/JEAKErhebouRXt5LEbbYjGi9sKI2lNsm7wx8uIoNCVH4bXbBTKZDOtXzERB2gGMdkSwWqPN34OwQzOwc5UVHl/dhje6ODxK3oz9G2ywyNEc82aaYelMM5zxX4GehiCM6kipCsG3tYG4f34tvDbbwsXREk4zzTF3ppl4vaMF9q+1wY1jLuis8sdoezin/AhMJPVlmACnLQRdTWF4enUT5Ftt4TJn4jhOs8yxwdkKJ4NXojDTH1H+m9j7s23tHJRnyjHaEimUjeYQ1DxwhY+rDdbNt0Jy5Br8UOuPER15kghSqM0ErIy0BUNXdAhRnk5YPdcKJ30WobPcCyMtwYbz8hJqX1soOiu8cPuEMzw22cJlrhXmzjSH40wzzJlpjkWOFti6xBrXY1eis9gLGQkbsc3FDjNszPkcbaZPwxwHKyyZZ4elc604Avc5oDF3H0bawkUfToJI0SZ0jnKM6oLxbXUo4rwEQK1xtkb+bXcM6yLBbabxwAiHJ19jt+Y4ToZvhb3VNDhYyXD5+A70aqIwovNjEOlt8ENl6lac8p2DvSuoja2wcJY55s805z5b6miB3SttcO2IC15V+WC4ORjDBnVwmNqO/HKtEVA+3oMjh+dgwyIrLJgl+prag/rJxckK6xdaYf18K6ycJ67Xa5sVah/txUhzCIbVPhhpJQCLRH7KBvi72sPFyRJzZ4k2pe3q+VYI3GWHktvb0dccjuGWIMP1SkrlYYyqD2O0NQ53WIGyEoU0jQrUlPh9/XK/mZ8A3iSAsjQzxX7X9Xh85zQKyBxuWOOOvFD5GWdR/JBm1ZGidJFn50kGcjKOE0ARNNE+g9MjsfQLzdgbByjyQTE0iVIGpETRrLvK3Kv8PO0TQBFIkbGcAIqD/FBkIKc6UYb9uvzraCi+DVXJbajJQF5yG43Ft40pvClzY/3DQY4UqF8DKEl9+rIQ9fsBqnqSAuXhugxt5XEYbTuCUbUPRtXeIkjhaI+DrvwYvPeuGAeowtRDGG2PxmhbOOpzDmH/VnvMmyHDseAVSIpzxRJHc1ibyzBvhilcnKZj7XwZrsatxkBTJEbbo6Ar9kK013w4OZjDYroMM22mYf1SK7iun4FNLlZwtJPB3FQGR7vpCHZfhKYiOUY7I9lHI2BGztDyrTIUl6LXw3mWOSzNZHCwlGG9sw32bZmHHWvssXCmCeytpjP0bXSxh5WZDARQFZlenMYkJWtUF4Hiu/v5c61MZIjxXoNvasMxohOpPErHiZScD0bbI6DM9cL+bY6s2PjsWYDmYj+MtEYaAIqgLhyqPHcE7neEo50pX5+9pQwu86dj/TJzuMync5LBdpoMiQHroc31x5mA5di0yASLZpqwudtqugyLHC2xdqkV1i81weqFMoQfmgNNgRwjbREYafL9SIX7NYBa7WyD/NuHMKyLwbDGf1xZY6DW+aFfdxxnYrZihq2MAerqSVf0NsVgVOfPCuCLcj8EH1oMeysT2JnK+Bx3rLHD/m3zsMnFFjOtp/GEA+qrhPDVeF0diGEdwYsAz1FdOEpuu2LPBjvYWZpgjp0MezY7IsJnHcJ8VmPbWntuj+nTZKD2X7PEDodcHXE6bDGa8z0xrA1mKOvRROD60fVYtdAcVuYyzLaVYb2LDXZvm4v1LlZwsJbx8yvnWSD99FZ0ayIwogtmxY7BUmMEKONY8gksfW5Mm5RFMDc1wd4d63H/5inkpCYiP/008jNOIzf1NHLunmIPFPmgCKay75xCXir9nR6fRu69U7wtpJTeQwIuKn9A6+hNLEhM++VPklGSJcoZFFPZAzKbkx8qV9SEInAitYkVp9xr4xBFqhNBFIETRW1+CitPBE6TIcqoQH2uk43P/aX/NREcWVtbY+7cubh06RJGRkY4GhoasG/fPpiZmX2UvvtyEDUJoBZaI/PyLgy3x2GI0j6sLHlhmPZ14ah+5IUd62awt+nwTme0lUdhpC3mEwVKgZEXR1D2KBCbXOwYoFw3L0JdbjBG2mP59bW5/tiz1QlW5tNYcXKaYQHnxfNwPN4PBU8uorYoCcqCo3hRGYWB5li8rAnCkUAX2FiZwMrMBHt2rMPDO6ehLr+J1ufXoatKQXZqAuT7NsHO0hR2FqaIkjujs8oPw62hInXV5IMBTQTun3eFy1wzvgYX5wW4djaCj9NeexvN1TdQ+OgsQn1cMXemBSynm4AG6e1rHVGe6YWR5giMqBUY0kYj744C611ms5k6wnszvqqNw4g2EMNqSplRUMqM4CgSdL17ty7kdKan22JoC0Mw3BrNrx1uDUJruQIhnotgZWHCEOi2dRVSr8WipuACGkqpPS7iaepx3DyrQM2jMPQ0nsU3tUnQlFxCTNBu2FmZYr6jHS4mBKOx8gYaSpKgLjmHjqoEvGmMwYA60NCfCvGZamlrSOvpgvFNdShivVxgM12GVc5WyL29H0O6CH6fUBc92Ks20hGCF7WR8Du4gq99gaMJMi8fxJAuHiNqX4w0BaKnIQ53zuxFqHwdrp8LREXOWegqL6Gt5hq0FddxJzkaq5Yv4vZYt9QMebf3YbApHCNNCoy0BKK5UAGfPQthaTYNi5xm4NKZQOhqrrO/7uumG2iquob4sP1wnCF8WBGBB6F+fhPf6y6iTx2NwaZgDGhDcSdxHVwWmMHURIbtm1Yg40Y8VOXX0FKbgqbqFFy/EAoXZyfu47ULzFF0+yCGddEY1vgZ+tEDI6rDGGmJw52zu+DsZFSgjED1GaCaBFBmJiZwd9uEJ6lnUXD/HIoenGdoonRdQSaVK5C2wlxe/PAiCjLPMWjlpiawkZwB6gEtBXOWC2mSikUgNb59lIRCevwoCUWPkvhzaJ8gqpRSflnJqKZlXajIJvmhCKhyrnLtKdo+J7gib1TuVU7bEUgpyWBO28IbRgXKeJN/5ib/CwGS4MnGxgbTp0/HmjVrkJOTw/A0PDyMFy9eIDY2lv9ubm7+EdR9GYj6YwC10wBQHm7L0VEbj5Gvj2Gk3Q8jHf4YeRGCkY5wHgBDPZwZduytTXEkcBO+rT+KEV0oRlqiUZsTgN1bnTBtmgwmJjKsW+WER7fD8H1LCnrbktDfcgKDLUcx1BwHvS4Wjy+7Ydk8M1Zw9m93QXXBGfR13sFQ63kM6RIwqEtAb0sS1GVnEOS5mVNaSxyn417CFgzpojBC/qTWUGgKvOHtNp8H/iVO9riZ5IfutlvQt53HgO4E+nWn+PPb6pIQFbCD1SfycG37BKAGtVECoFbM5GOFKzbg9fNojOgCBKyR12gcoCJQm+uHvVsXMLQpdjtDVxwqFKgmPwzqQnEnYTMWzJjOqoyn22pUPzuDnrYU9OtO8zn1N59Gb8t59OgS0auOw4AmCkNtx/FGl4yEaDdOpTnPt8X9a4Hob7uKXt1x9OvioddGQ68OwqDKF0Pj0CTBE20lgAr5CKDWLLNBfqYHhl/GY6QtCCPtARh5EYiRznB0a8Jw7dg6LHQ0Yzjet9MZdXmR3FfDKm+MqLwxpArDm4Z4fKtKRLfuLAZ0CdBrj2JQG4+hlkT0tNxE0tHDcJxhhVlWMlyL34ouZYhIAbZH4On17VjtbMWzPcP9dqKt7hIG2pPQ3xSLgaZY6DuSoSw4iX1bl/E9sXe7M+qKjmDwxUnomwIx1B6F+uyD2LdlJqabyLB13XwUPD6Cno5r6G85jT5tPAaaj6Or5SpSzimwaL4D92O0YileVARgWBdsBKi/8Pfybz9eTQYmBZsuAAAgAElEQVQoUxMcdNuM7DSCG1qe5RwIjKigJtWEKn10iU3l9Jj2K55cEbPxMs8a6j8RUJ3lgpmilAEZxpM4PccLCxv2CZYkYOJ0Hc3Em6Q80T6BUg15n2hxYYMiRfvsi6Jq5c+uMUAJ79MNgwfKCFAfDcp/+5vzb/hFJuVp9uzZCA0NRX19PXp6ejA0NMQQpdfr8dVXXyE9PZ3hiiBKSuVRX/31EPVHAMoTEkC5bV6MskfBaC8Phe6ZO1RP9qDo1iZcjFwAt3XWsLEy5QFwz5alqM2NZYViSO2H4eZI1D4NwO4t83kAnudoh0un5OjWJTFMDOu8Maz14HTOcGsYXtdGIMZvFQ9wi5zscfuCHP3tSRjShRsGOfJeeWJI44uBtlN4mhqGVcsd+fX+B5bhRVkgRlrCMdIajexru+DiZAqzaTL4ua9D+/MEDLXHY0jjhWGNB4abPDGk88bAi5PIzQzHWpc5fI6TAYoUJr0uCrl35FgnAZR8PV5XR2FESwBFih0FwYkCw1T+YRJAeUsA1RKBkZYQtFf4IeDgYlZJXBbPwv3rwRhoS8aQNkK8X+2FIY0cw03eGG7y5etkdbAlEG80R5AQsZnTWc5OZnh0xR1DLXEY0nhgSO2OIdUhDDV6YqhRLkIl52ryfF4MVJ8HqOWLbHAveR9aqW8LPKHKPYDyjB24e8YFfrtnYcFMoeq4LLJH5mUFetQJGNKEYVilwIjKEyONdFxfDGv92c80QubyZm+MtPiwwjTyzSVkp0dg9fI5sDOT4XzEZnxfS0buIAbsO4lbGNDsLGW4luCOHt0pDOv8MNS4F8MUukB8UxuLcI+VsDaTYeNKO5Q/8sBQazCGdAoMtkbi+vF1WDCbUp+muHbWD90vUzDy+jiG20Ix3ObPMfL6NHTPk+C+azXPKNy6wgpV9yl1SfeWj1DcjAqUcTz5rTFoEkCZTzfBAbeNEx6oB+eFaZyWcnlIpvFk3pYwUAmIIh8Ue6G4DpQwmZNxnLxOZaQo0dp4BiWJa0E9oVpQ5IG6xBXIpb8RYBEwkcdJ2ieDOKXy+Pn8G7yWHu3XF9Iiw9c4hUe+JzKRq8vuGj1QRmD6cuqTlLaztbVFSEgIXr9+jYGBARA0kfokBcEUQdXjx4/h4uICCwuLjyDqr+3DXwLUUFscBtWkJHhhWOWFIVIVdGGoeuSJHWtFCs/BwgzOjrZYPs8Wy8gk7GjFZmd7GxOYTZeBtooDy1H+OAo92pPQq4MxpPbBkC4SNU/84bZZANSWdYtQlhWDwY5EDKp9eYCnz+XQRaAhzx+HXJ0YZLZvXIyKrDDom+PR3+iDQbUXBlWe/NpBOsfWeDQWHcXhPSs5PbRjnSMq7x/GcGsM+tThSInfyIrHbHtTXIh3RY82EXpNCB9jWO0JikG1HIOt8agviMN+1+X8uVvXOqI00xPDzWEYUssxoCWA8hoHqDCv9XhVHYXhJn9x3tL5qxQYag1Hba7vuALlvXsJdEXk0YnAcEsYqrMOY9emmfw5+3auQF1BPAZbT2JAFYhBlYKvUa/2hJ6vVYFBlQ/0Km8MagPwg+oIToZtgZ2FDEvmmeHB5UMYajmKQTW97jAG1R4YVFEb0WMBT7Qcz0SIdibP0NdVhhSemQwWZiZYMMNK9O1cayyaY4V5sy0w0346p10JQDevckLm1QB8o0yAXhODIZU/hhsVGG4keFRguDUYwy+joG8Ow5taH7wq90RroTs0OQfQkBeMK6f2YdkiB9iayXA6bCO+qQkR3iVdNNLO7oDzPCtYmcqQfHwvulsTMdRK/eSOIfVBDLeF42V1NPz3Lme1ccMKW5Q+9MRgaygGW/zxfUMYouTLuSTDwjk2uJqogDI/Gg05nmh4ug+qp7vR+HQPGvJ8UfwwAgd2LoeZqQwr5k9D4a19GNJEYEjlg2HVYQw3HsZwcxxuUwpvnkjh2RpN5EaomgxVBoCyt7OD+XRT7N2xDukpx/HkzklDbaezeJZ2hn1QhQxLSSi8n4Tce+SROgfxHC02nChSdg9EUU1Srxikski9uiD2DbPwhBdKzMgjwKog0/hTqmx+mZUoLlmQc9XwmNJ2QomSYKo6h2BLKFD1vGbeLdTTbLyim8YU3l87AH85YJlq10ngRDC0ceNGVFVVMTj19/ejr68Pg4ODrEIRPEnx9ddf48yZM6D3kWr1Za7nY4DKuOSKwdZY6GnQZfXCE4ONCgxqw1D10AM71jpwKsp8mgw2JjLYmspgbzBjO80yw+Y18xDiswPpKRForjqDN+oj6FP7GwZ1HwxqI/A8iwBKpLQOuS6HtiwWQ20xGCIlqYFCjkEKXRTKH/pi27qZDEQH3VzQVBKBQW0w9I2e0KsMYThPUm3aq+MQphBT7Ncss0PO9b0Yaj2K7+oikBiyFtZktp5ngbtJNPU+FgReg42k2HhiSO2BIQKylig0l8fC9+Aq/twtax1RkumBIV0og0h/UyRybnux0ZwKSoYTQFVFYkjjz4oPtdtgo5dot9Yw1OT4Ys94Cm8JtIVBGNSFY7AlBvlpnli/woHVOr+Da9FSHg29LowhSa/yMlyjh9g2ekHfqIC+0RuDTYH4vuEIToVuHgeo+5cOQq87yn2nbzS8h47RKMfgZ4PO0QtDTUH4qjIUMZ4uDB2U9rKhfqWq8mYy2FrIMHuGKVYsnYGDe9bg4ilf1BecRpf6DPTqCJEipHuE+qzJD0NtEego90Lm+WWIOGgPtxW2WO1kjcVzrLDA0QpOjraYYW8Fi+kmfPzEiE34+nkohjSBGNLFoDTdG5tXz+P7bO+22ajNC8DQ6wQMvT6Coa+PY+jVeWSnHMQaZzvuH8WBFdCUhkLfEoLB1kB0VIfAe+9SNphbmZpgtoM1fyZ99oLZVlg425KBf4GjNebOtoWVpRmnkxfMkOHp5b3Qq6MwqCLF6zCGGg5hSBeLW2dcjQA1GRqM+xO/1waAokrkNAtvz/a1yLx+Etn3EpCXdvqjIFjKTz/L0JSXdoZ9UeSNepZ+Gtl3TyEvLZFTeJTGo+fID1Xy8ILwU3H5A5rBJ9bHoy0BFqlXkmLFChV5oKiUAalUWcnjcEWQRR4o8fxFPM+7aohrqKV187Ivsw/KaCI33twTN/df2BYEQQRDlLrr6upiUCJwIgWKQgInaUvPFRQUYMWKFWwqn/oANaFAbV7jjNQrkSh+cBRFmREoexSD2mfH0Vp1Fl83JuGN5gy6NfHoU4dy3SNSQYZUvhjURjJA7d48n1NpPvtWob36GIZaScXwwmCDJ/QNco5BXTRK7tNgas8D5eE9K9BcHonBllDoGSY8GaTGgUUbgRc1RxHpu4nrN9FssifXdrNf6JvaCBwPWANLExmc51sh/cpeDLXFs6IjgSLDEyk0LdForTqCQM+1PIgzQGX8mwDVEo7n2T7Y/RFABWNQF8EAlXvXAwR6BGKh8g3oqI6BngBRpcA4QBEsNsoN8EQApcBgUwB++ASgMi+6o197BAMEWdSO4yD3WwAVPAFQDJgzcP6IAiX3TyA/LQYFmTGoyD4GddlpdCqT8IP2PHqbTqCf4YmgUS7AV+0LfVMY8lI2cYFNWvKFln6h2W8rF5rCdb0tDu6cA/n+5di6fgHsbc2EAhWxGV/XhkKv8cOgOhDf1R3F6chtmDPDHJbmJti+1gZJMcuQdW0rl704FbwEa5ZYwWy6CZYvnoGHKX7o0cZD3+TLANVSHghP1yV8f9laToOzkyVWLDTDigUyrFkkw9olMqxbMg1rl5hgzRIzPhaZzXevNUfxrT3Qq8OFGmoEqC/yO/plfgf/AyFAAig7OwYoMpE/unMaxY+EQZxAiPxPVLqAoIdm4UngQ8oSzdQjUGJYYt+UACJ6DZnHS2jhYK4FdRnFVITzsShlQHDE4JSVzFAkARLPvuO6TymcupNqQNHzIgiiCKYuMzgRPJEa1UAFNYtvGRWov90N+BdCzp/ZNpaWlpg5cyZOnTrFwETwJAEUpfIopOekbWVlJTZt2vTlAcrSEi4LrZGe7Ap9a+z4ICyARsEDY8WDCYA66LoGTRXJ6OtIQZ82gaNfe4KNvv3qUPQ3+qJP6YUBtRx6ClInGmmAjUT1Y3+4bRIA5btvBdqrKW0VwyqJnt5D0eCFAV0Uqp4EYtcm4UXa5+oMVZE/Bpv9oW84DH2DhwCFhsMYpNCGorUiCsGeq1nRWbfcAbm33THYdhLf1kYjIWg9qxKL55ojNWknK22sQCnF+wk6WKlpjkJrZSz8D6/+CKDo+AQyfZpIZN/ywjqXmWz8Dpevw8vKCAyq/QwASBDoJUBQF4rqLAXcNjvxsRRuS9BUEAy9NoIN8s/ueWP9ilk8Eyzo8Bq0VoRhQOuPgUZPDJCKNH6NdDwCTENo/PG9Mh4JIYYU3lwzpCe7o68pDv0NCgwoPTGgFO0uAekvt4ZjaoLxuiJEKFA0C2+JoRJ5+030as6yx6lXe5LN1/1NYRhQ+xtULqFgDTZ4CMWtKQzPbuzAttWWnMZd5GSL2PC9yHlwEnUlydBVX0ZH3VW81N7HvetxcFk6jxXBhPAt+KqWjuuDgQY5+tRR6KxNRNKJA1jgZMfHsrMxxWwHcw5bKxPMtJZh35b5eHorCN83JGBAQ6qdHIMtAdyGnm5LGUqXL3FE2vU46KpToCk7D3VpElSlSWgsSYKKZyvSbMYkaEvOorXkCL59Hoq+Bn8MNJCidhiDdG9oJylQlpawtXMwViL/H/nN/q+MB78AqI14eDsRRQ8v4Fn6WVaVRH0nUVGc1CUCJzFLLwnPDOvjMUDREi+Gv9NruGaUoR4UAVMJVTPnulCXWV2iGlFcJ+qpUJtIYZKiMvsqavKucxFNSunRY/JLkX+KFiGmNfVqnpGpnBYZphl4orCmUYEy3txf5D8nqvtEClR0dPQvYInUJskPJcETbUtLS9lMTmUN/itf5j/c94YU3h8EKPedLtCWHINedxIDjaEYUIWgv5HAKRADDX4YaPBGf4McA+y/IUWEBiQJoPwmAGrvSgNAxQp4kQCKAEAbgcaCUBzevViYudfPRfkTOQY7wjHQQIDgyQMuqy3Kw9Brw9BYEILDbkvE69fNRdl94WnqaYzFlbitXPdpjv00XInfhAFtHAY1/iAA4GMQnFCqqzkGmpIoyPcKDxQpUMUZHgxoBCEDTVHIu00m8hmsckQqNuL18xgMElgwKBIskoLkA31LFAozDmPzarEEjsLNeQKgmmNR/jgQOzc6scJ2YOdi1Of5Y0AXioFGOQYaCSTpGgnIJoIhahJA2VuQqmaJjMsH0dsUh16lAn1KOQaU3gwCBAMiPgUqCaCC8KoiGNGey7mMwZqlDsi764sB3Sn0NYZjQBWKATX1cRAGVL4Y4LQnpXipT2lLqTsffF0ThFjFCtiaTcNsexOcO7ofncpz6NIm4I3qCLoaotDTGIWB1otIv6LA0oV2nDJMCN86CaC80KcOw/faRFw5vRsL5llivqM5/A664FjIJhwNXIcLR1zx+IYf339djafQr47GgCpApCq1/vi6LgYhniu5ztcCRzM8vhnMn9mroXOIwQ8NsfjeEG+UcehSxqFbGYNeZRj6lARP3qIfjQD1hX6T/gM16A///v0XPssAUHa2tiAT+X7XDci4cQJ5GQKe8lLFIsIMSvfPcQ0ogiUuW5BJa+adRYG0Tl7mOfZBkf9JLPFCCwyLlB1tSylt9/ACgxSpUgRTXCuK9g1FNmlLEEWwJGboUX2oq6gkuOIq5VSp/Bov70JpPFKfCKAqsy/xDD0jQH2Jm8j4mQxPpEK5urqCKo5LqbvJwDT5uTdv3uDGjRusWn1xD9RnAcrDoKiQAhUKoUAJEDi40xm6kkj2KdGArlcaUm9KOQYNwYoHG6FpQJoMUBMKlM9nAErPg78nBjRB+KY+BqfCtsDSVIb5s01x4+xWDHaIdI1eeQh6Aqf6g9A3HsZgSzRybh/GysWWrPbI961Ea2kE9E3hGGiKweMre7HUyYxVo5BDK9BZE4PBtnAMNhzEYOMhDNIxKI3YHo+iBwHYvEqYuwVAebIPjJWlpigU3FNg46rZDD7+h9ahozKKl1nR15NqcVCcE8GGLg63z+yE00wTcU7jClQ49NpwNJdEwnv/Cj7O0vkWeHBlLwZbj2BQ7SPOSXUQgxxkChcmd1Za1H74QRmHxLAtDIUL55ohNfkAerUx6FcJ9YrUHBEEUAKmPlahPg9Qa51tkXfbHQPUbkpSvA6zH06kBCV/l4DEQfJjEUDp/KEt8sfhXc5C/Vs5F/n3w6BvjYdeTYC6D3rlbujVh9DXFI3zURsx29aEZ9GdMgCUXkMGeTLphyHn5k5sWm2L+XOtcPV8EF6q7+C7pmv4Tp2MH7RJ6NGeYJDVsxpm8MyRgqj2Qb/2GJKPbcPc2WasQsUHrcfLhkjoWwmO3DHQsB8DjftE0OPGQ5CM+hJIMwiTsmZUoIwQ9Vtjm7097B0cYGtrwwC1e/tapF07hqf3EvDk9glk3zmB7LsnOXLJF5U6Ec/STrN5PO9eAnLunMAzgq20xPEoourlmedQmH4GJeSBoirmZESn5WFIjTKUSuC18gyKFa+59+QySh4nc/qvnMob5KVAXZ4GbVUmNJUZaOJIh7YyHcqiW6gtuM61oUiRMgLUb3W48e9/2o8CAdSsWbNw8uRJdHd3j0OUlMKTtgRSlL7btm0b6D2kXE0VBWqgJcaQBvKAXunBqaABTQjKaeFag4n84A5naEsioG+OBqXdROpNAb1yIiiFxH6cRkop0fO+XMyy6vGEAuWzl9bUOwJ9S4xIedV7YqDeC/1KL/Q1+KJPG4vs255YtdSOp/q7bZ6Fyide0L86Cn1LAPRaP+hbAqFvj4CqUAG//YtgMX0a5s+1xPXT+9DTdAz9DX6g1JMyLxiHdi0VsELAcXY7+tvjoX8RAn2zD/Q6X+jbw/CyNgxHA9bB3tyEX0uz8ErSPTmNydepCUdVVgD2bF3IStfGlQ7Iv3sA+tYo6Fv8odd6Q9/sB/3LeNQ988PBHXP53GkRZrnbYmgKAhme9KoA9GrikXLSFXNnmMLcdBoObZ+D2mwF9C/ieMDXt/hC3+YPfXsQ9K2B6Nf4oY/ASO2NLlUMzkVvwQxrGewtp+F87Ha80R0Rr6Xr0fqhX0VqFLWngoP7ZLLKR+CrDsSr8skKFAHUYfRrogzvkVKSArgmIIyURQHHem0gdCVBkLuJ2kxL51si66YC+o6TfN56nY/Ytoaj8M5ubFnlwDXAqAzByfAteF0Thn6VD98vXcoIJEWsASmFVN8q43oI3uguoZfUTt0xDJDPSxvL5ST0LRFsHh9Q+xrSlpT6jUFlVgB2bJjP0LpwlhluntqC76guVmck9C1+0Gvl0OsU0LcFQd8ein6VL3prPdHP8C7dr558/+u1Mbh52mAiN6bwvtDv1H9BKfqzxr1JCpSlmQn27lyP+zdOsUE8l6qRZ5wRtZ4yaL27c7xP8MNr5NE24+w4MBVmnEEx1YTKOIsSMpBnnkM5KU60pYrk98+h7OEFlFFFcqpAniXWyeO6UE/IMC6tk3cFBE6kQHFkX4GqPA3KkrtoKLnLAKUqT0Xz8wdQld7l9fAIpKjsgRGg/qwbxXjc3/XjQWrS/PnzcezYMbS0tIxDlKQ+EVgVFhbCzc0NUtpvci2ovxakfpnC+xigDhsAKhTl972wfe0sHpTcdyyFtjhSABQrUORdkgYeAVH0mP04lM76FKDIRC6TQbF3JVqr4j8BKDn66+Vi0FcF4qu6OJyLc8VM22k8xX7bOgfcObMBqlxPtBf7QpfnjftJ67F/sw1sLEx5SZgQr7VorTqOflJkCDgafdDVeAR3Lnhi0XxbBpqVi8yRHO0CVbYHOkt80ZzvhbybWxF0YC4cbc3Yl0Tr/m1ZMwclaV4MPezPUofgdW0cYgM2sZpFP5p7NtrhYfImLiLaUSyHJvsgMs9vwJ7NM9gITQU5CaC83JZAUxBkOJaC05RNxdHw3reKi0KSaXrXenuknVmHhifuUGe7o/bhHmRdWo3EwFlITViB15WkzpHSEo2M5D0gWDGZJsNGF1tkXNiG9lI/tBV7ouXZfnxT6YE+SqcyQFFaj8LgM2Of1McARbMUCVZz7niyUkSLEdPrP4YmKRUoUrOkLupVfvhOGYdjweu5LpWZ6TTs2+KInBt78KLMHy/LA6DMOoTkaGesW2oJawsTLnLJABWxFa9rIkAQ1N/ghX51HJ5ck2Pt0tn8H/3y+Tbw3O6AkP12CHe3Q4S7LaIP2uKo3BbX4uaj7vFedJPvTu3H4N2vCkR301GkXnTnUglUrHWBgzkiPRchO2U76p/QAsSHUfd4HwpubsW12PkI3G6D1OMr8W2NAgNqPwPwSwAVawQo42////3bzwBlD0rh0czS/bs24sHNBPZAEUDlpSaikBYLNlQmJ0gqobXvSF26fw4F6YkoSEtAYUYiCjNOoyjjNErIB5V5FkUZiSh7cA6lDwRI0d9ov/Th+fGofJLMIFWWdYHN4eR3KqUaUk8vc+qOQKokKxm1hbf5uaq8FDRV3cfzgpuoL74DZfFtPM+7xrWhKJ1nBCjjzf5/3+x/UdtIM/I2bNjApvKHDx/i6dOnuHXrFvz9/bFo0SKGJ6pY/tcC06f/yU0A1PKF1ki76Ir+5hjQwNmvJHg6JAYlTRjKMuXYtlqktfZuXwJ1YTgbvYVhWfz3Tv/BTw7y4kiPB5S0nEo4Kh8q4LpxDgPFIbfl0JXHYKA5Rgzu9R7or/NCX60X+urk6K33Ro86Gm1Vx3E6ZgfI02I2fRpm2FEdKiusnWeD5XOsMcveDOZmMthbyxDkuQoNRSfQrT2F7oYgVmD66jzRpwrHq9pTuHB8L/tqaIkPB5vpWDbbCuudrHkB3zkO5nCwMsGuTcvgvnsNbK1MsXnlTBTeO4iBpjC+lj6lD8/6qsgOw+5twp9lbjYNc+zNsHKONdbOscayWZaYZWeGuQ7T4L5rBbZsELWpPHYthupZMK/xN8CQ6I+epuOozo6F9x4X2JjLxq9vwSxLLJ5lCSc6lr0Zq0wRXssYkPpU/uhTB3MKMEy+CjaW4n1z7c2xZp41Vsy1wv4Nlii6uwP9WvL2eKOvXs7eKNEfpEpRn3lyzanO8iCEui/jukorFlvi6U0ypEfyfSABF6mCvwwBZARofeoYPM8Kx/4tzgzHVE9qnoMFVjvZYI2TDRbOsoSdtSlcFtsjwt8NG9ctZw9ZfNBmvKwKRZ/KB32NcvQ3xUGZFwP57uVcDZ4AyMJMBktzsXYdrWtnbSHja3awMYHLPEtcjFqJzjJv9DcGoFfpI3xU6tO4c1GBlYtm8ecQtM1yMMeiWZZwnm2F+bMs2ZROx7AxkyExbDVe1/gbQEyOgXoPEU1GBerL/kZ9+ps1xR5PAihLs+nCA3X9OJ6RByo9EXlpCWKNu8yzvGBwEYERw9FZBqb8tAQUpAl4KkxPRGH6aRTTOngZp1GYlohiAq6MMyil5VsIru7T+wWElTw8D4rSR+SVIpP6eZRmXWRgosWMac08gqe8zLMoJ19U9lVU5F5DQ3k66kruoa7kLqqepYi19Ggh4pwrRoAy3uxf/gtGKTmCI1KYqD8orUfVyWmWHj3/5cFJaqPfA1Ce6FcFozZLDt8987DCSYYYH2e0lJC5OMygaNBg/MsBltJHIoVkMDWrg6HMVSDEYwHWOE/DseDlaC+PQL8mDP0ETwxQnugngGKI8kJ3vQ+6VRF4VXcCj2+Hwsd9LZYvsMJsKxnsTWSYaSbD0rlW8Ni9Encu+qOlMhHdqqPoY3gicPBEX70Hm6t7VJF4VXsCD2+GQb5/LZY6WWK2pQwOpjLMsZZh08oZOB65H9UFF5F5IxTbVjtAsWsOnj/ywIAmWABUPZ2TL35QxaE6NwaxwZuxYYU9nGaYcu2kGdNlWDJrOvZucULKOR/UFV/B+eMeWO9shjjvpWguDuZZYwRQpNL1KQPR3RiH5rLjuHHOmws7LnK04PpadtNlmG0jY++Wh+sCPLp8EN9UR6CvwQ89SkrjRaKxIBZHw3dhxWJ7zLKUYaapDLOmy+C1dSaqHx5CfxO93ofhaTLQCoDywoDKH68r/XEuYhlWLZLBfbsDSjLcwbMpDQrU5/pWeo4Ai/Z7lf7oUh1FTXYsYgK3Y+ViWjjYUCfMgq7BEn6H1yI77TiaKq/hVORWbF0+DSnHN+Gb6mD0q/zRrwlG/s2t2LdxBhwszbBkngPcd69HoM9uhAXuQ0TwfkQE7kOgfCd2b1uOOTOsWSlcOGM6bp7ahu9qQ0TKVumDflUkfmg8jYrHR3EslNKGjpg/wxQO5jJQu86ykWHhHKpdNgsx/htQ+TAQXWQkZ8WOVLrDkwBqJ5znWcLamML7wv/wSb9bU2hrbwc7ezu2YdA/DftcN+DelSPITU9EbuopZN85jqd3jvE2795JPEs9BdrS87TNu3sSebR/5zjyaUHh1FPI5ccnUJCawBBFryGYIrgi2KJjkFpFwfuZZ1BMKhcpWARVjy+igEogZF1E8eOLyE5LZHBqev4Amqr7qC25B2VZGmoKb6Es+zLKDKk/Km9gVKD+IpXFCGq//SUmkJJgiqBJejx12u5TgNqJPl20mMlVfxj99YcM8OGN72pC0VoWB23JUbyoiMH3NSHorfNjxaifIYVA5ePorfcEhXhezurA9/UhaKuMRVNpHDqrYvBDbRh66yn9IhQRaWDvq/NCb60Xemrk6KrzxQ/KcHyrOokXNWfQkH8MZZlRKLgbhpK0SDQ8O4HOmnP4TpWIN6pY9CgD0VenQG+dJwcpUL11Xuiu88UbZSS+a0xE2/NzqMk9isK0cDy7F4aKRzHQliXgtfIcvm1MROfzo9CWHEFbeSy+rw1BL6s4Xnw9PXVyvKkTxSxf1yVAVXwCZY9jkZcWgcL0SNTkxKOtKgHfqBLxnSoBndUn0bG4oNcAAB7ySURBVFJyBC/KI3mQ5+s1pCl7CRDrA9HVGIvvG0+jvfoMnmcfQX5aOPLTw1HyIBI1uXFoqzqB7xuOoqc+GL31CvQo5ehS+jPIddafQV3BCRRmRiL/XgjK74dCVxiOH2rD0dcQyOfeW0+Knoi+ei9Dn9D1eKOrzh+dFSFQFUZBVxrNlcHpHAVwSa+V+vHzWz5OfSDeqOLxWnkW9QUnuIZUTmok8jOjUPvsKPfdd+qz+J7apCoOLcXReF0ZiR5lEPqbwlFydwfc1tvAcvo0HNi5EvmZR9FRn4JXjVfwujEZrxuS8RVtlRfQWX8NN8/7YNnCmZzC9HdfjKZCX4b9vnpvvqd6lRHobjyGb+oToS05jqqsKBSmh+NZWjiKH0ShKiceTeUn8br+BL5XRqGr3g+9hrbpp/u/jrxgMbiRuANLjABlhKePxlbx20nwZGdvCzsykZuacCXytGtHkZ2WIAzkZCK/c9wATKfwLC1BgBOBVGoCG8ef3Tsl0nhpCaw4cUrPAEyllPqjWlKkOnEIBYrSfxSTVSjyQNHsOzaQZyWj7MllFD68wABF55NDhT0zz+JJWiKepCbgKalf5KvKSuayBlRk0whQH3Xybw/yU2cwN57rX98XvwegDqNX6YleUj0aQ9CjCkNvQxB667zRW6tAfx15ln57kCWQ6qn3QpfSB29UQehShaC3IVhAWD2lDD8GKFY4KO3EIOWB7lpPdNX7oKuBziEWParj6G44ge6G46zg9DSGo7fBF71KD/TVHUI/Ra0H+skczEHPezBE9JBa0hiOrsY4dDUeQ5fqhDheYwy6lQRLfqyo9DaGoLcxWDyuV2ACPDzZdMxtoAxGd2MMulTH0aVOQJfqFLpVx9CjikC3QSnqJaBThaKnIRBdNLjX0bEU6OcwtB2rdX7oawxFtyoWb1RH8UZ9Al1qOr849KrC0a8MQD/DASk+nuhReqCblKjGEPygisH3qqN8Hj2qeBA80OcS2BBwSfAkAYKAWi8BllLbNgahh/qFrp/7hFKwv923E+AslL6uhkBxPuqTDEvfq06KUgaN4ehu8GeQFm0czEoh+Za6lFFICl2DOTbTsHCuNdKu+KOr6Qx61JF83/U2BqG/IRD9Df6cqutvS0BTeSL27xTp0QM7FqI2m4zzIeivo/vSUwSBKn0mtSv1r/oYujUn0aU+zu3a1RCBLmUgepQ+hnYS1zsBUNG4cXoHljgZFai//vdpKo8JEkDZws7eBvZ2wgN1YNcGZF4/wQpQ9t0TIoVHYETVxSmdx36n0ww+lIoTM+/o72cMECWUpqKMM6xO0fMU9FoCKzoO7XMa7+F5VBE0Pb4AmolHAFVGabtHF1GWJcoYlD25xOeSk5aIx7eOIevOCWTdPYknd08ilyDtwXl+Tzl5qZ4kGwHKeJNP5S/dVDu3SQC1wBqpF3aiVxuNHlIq6g6jr+4weus80FPnie56OQMMpa966rxBKkwvBw3CQun5rS0dp6tejjf1PnhT78eKEB2L1CGCm4+ClSu58O7Uy/nzumoVeFPjgzc1fnhT44+umkC8qQ0wPPZGV60cPbUeHL21HuirmRT0mM+TjuWDnjp/9NQHoqc+CD11wbztrgswnJMPeuk19b7oraPwZk8W+bLGo1bOAEnH6q73R1d9ELrqQzi664PQXe+HnjqFoZ3oGukzDe1WK0efFHxMATIEVhPHI9iiYwaiuz4APXV0PDovOn8v7pOeeqk9ffGmPgA/1AfhDV1PfQCDqfhMcQ7UXyIm9xcdx4vh9E2dHN1KX/TU03UL4GLfVP3k1/92P9NndNcp8IbSnPWB4+f0pt6f+536n0Ca7jH6LG7bRn98UxOJOK9VXJ18tbM9ctOC0Nd8jGGL70dJPSOgU/ug78VJFGQGYOMqUWjV9+AKqAuD0ENwX0Pt68lB95a4btFPpPZxn3M7BYr7YFLfUHvQfUz3fl/tYfSpo3E9cbtRgTL+Y/6JAicBFClQNnCwF5XID+zaiPu3TrKy8/TuCeSmirRdIQOUKFHA694ZHufcPQFWoNLF3yhFJ3miqKQBpe0oNUcz8KR9Mp6Tj4pTduytOoNChqqzKHpAqlSSMK7T/uMLyElNwJM7x5Fz7yTonLJuH0PO3ZPIuXuKfVn0+rLHF1CadcEIUEaAmmqQMpXP59cAyoMhSgCUB2iw7iEvEak44/HbA+pkqCKAEjAm1ChpsJKO9xFAMVDRQCYM5WwqZ2CjzySwOzgpDk2ckwGgCKQIonprDEEAZRhUJ7b03ESIgdPgv5J8WLydBDwS+Ixv6Xwm2mriWsQAPn78cUCk5+kzJh+THtPzBpWMr4+uia7z/7d35m9RHlseRxYbmrfBLYnmZrm5cUsyk6g3RqOiIKBixCQuEZCdbroR3GXthQZEQLYGNLlCg7gkd+bOXJPnmbmThFY0f9l3nm/VW90NooDGhEj9cJ6qd6vuPu953/r0qVOnJMQKT1wUtIYhytQp783D8b14aIKv8LaF4UHBkywJFeq+qHsirycs00vHYTp6YqSoc+dW8jdE3Z/xdDwaT8dDIRl4NC5/kwAU6oS/+VYOJu8Uo/qrTVhli4XNEouCg+/jH18fwS//LMAv/8w3y5P45R95+Hn8Cwy4d2H3pteQlBCLVcticcGxC/83michk7oUEMRSgbnSJf8YZEg4CtuEvB8STvnHgDanACpfA5SGp2nwxHf6VIBKSTHELGEm0qQHqr/FhW7Ck8+BHnd5OFUB4YdeJ0qvp0IcI0QRaBjPxP1XG0shwMrHWXwV4Xo/g9K9FaIt0Y6Ih7KLmXwEKMoQg8zbuN6eS4AUg8vFd/CWS2+YCWoMWCeEfdNejb9xCI9xUF1nNUBpgFrIwLLQvttUgPLUbMXDv5/AJL0VY3vxcCxDlJNjmZikF2pMysOxLDyryDbo9VASaZO5eISMRpWsj8p4KNnxq85fgZyCOHmO+K6jmZg05eFoJigSpNiW2R7bnFH2CQ8GvRizCmO0wrqg54t64T7z+4r2zc9Uv43lY5+rvpf5u6MgMNIm74kS+RnqfkTKqd9hcmwfHhd5beR7q/sqh0kl1FLHEYk+d2516QUkxIr7Ma1kG5F7zXuTjUd3TmC080vs/ugNiMWqExPw0Tor8g+8iqq8t1FT8GdUnXgTeftXYNtGK1Yvt2BpQixWpMSg9PgW/P1aEe6PHxU6Evc4fF+UrUa+k4RrdR/M+yx0K21S3r8MPBrNwKO7eai1aw+U7lemv7unApTNZsZAbX0f7gtF6GbMkQk/nfVF6G4qlYDks5txUCoeSgJSDxcT9kT2CZgSw31OsV4e18wL+CsREB4ppygHW2UqBGYtvyY8T6dkMHmLU2QwZ54oxkjRU8X0CRThufJVCm8WvVrML0UhROkhPP1PYYZ/CtMNX29HXobyJWBNSsS7b1hBgJr87isBN48B1K8AT9Gdb6TTVwBlQoeCj+hO9rE6vUt7TWE90iFHf0Z0PfqcqfUngdTs+yUsqQ5alQpQ1O+JfLepn/vk/dHfWwHZzKX6zOhSwZUC1MfLmb93dBu/Rj2ih5m+OycISH1IT+HkzRyxzMpwx1c48dkWvPWKDYnxMUhKXIJkaxwMaxySk2KRZFmCpXExWJkaj53b3oHnwue4N+pA6E6BmB2p2nxch9N/07T7a4IvwZ7f99GYAqgTqHVs0UN4um+Z1rdMBSh6oJIS4rFLJNIsQ39rlVgHj14heqAIOwQZAhDrBBvWOUzH2CjCDQGq3yfP4TF6opRnidv0TgkQEsu/VIahie0yoDw6nQFzTakAc17LdghZPG/Ax3xTzG7OHFOnwsIEnTqIXBv6NEPXwBQBppl1YVgTse5NKzynPsYkg6tHszE5uheToxlmGfHoKM/Oy1VmYXL0WWUm3US3NdPx+eyLbmt6faZ2pp8z0/ZM1/3e+wjScoma/715CmPdZfCfy0FN0XaUH9+MsmObUXHiY9SUpcF7MRfXu4rxX0EXfrzjxM+38zAxdgghcQ9ps3P5LdP1QptXkoWHoxlS7pzApcc8UDM/R7M9Z/r4S6o3zsSzGWIW3q6PP0BbfYVInNnVVCaAh0NvhCYCEIVAQ5ARQ3IeuY91HhMlZ8c1OwVYseT5EsCkN0pClPQohesmVKm2WbItHiegcZt1tselYRiMzmVhCE1inT0uWtx+WgOUfkhf0of0BYKx1WrBu28kwV21GZN3jsrhtUUFUHPpcPU5cwOTZ9OTBJZ0kbaCqRqYOX7i20r8eLca/7pzWqQv+Nfds/jxu9P46TumrCgVqS04GYGTBx4IaCL0P9vnS4CeCaDkEN7UPFD6HaP7mWgbMJDKWXhxcdixZSNaOQuvpQo95pAcAUYBFKGGEgGaSrEOXo+nPHx+Z0NJ1HCeXCdPgZVocxpocQiPQeqqTXqfRGJNeqFMTxQhiYAkFicW3qrINof6OHynPVAvsJPVD0z0A/Ny1Zkg8J01iWh0bsHkneOyQwruxYNgBh6IkvVMPAhmmSXrWrQOfm0boJ3Rxg4gNHoIE2NfYGLsKCbGjpnC+hG5fzQXE8EchIL78SCYHSXPaqO8TrWThclgBiaDezF5Ox8XKz7GW69GpzF4uZ5//W5/3vuZjGUpNiTFx+HTzRvQfKFYBJETdnrNhYK5WLAIDm8qN0u5eDDPITBdbSxDdxNnxpWji7PkmsolRJnB5gwEF+IlfNGrJL1a9GQRzlgKWGo7JbbFAsNizT0ekyBFeBIz9Oh9MuGK10WLHsLTEKWH8OZpA8lWK/60MhY1+RtEIC6noROe2IlMBaindZjsgLTMroOn6XCxHlN2o34/QWomSceDYLRIyJE6V/DDku2ptuZa8hrVRqaEp2AWfgoeh/3oBqxZHotkayIMNftqns+YhpTnhZSFfH0yUm2M2aMHagOaL5YgYKYp4LCcDA53gF6mPq6Px8SZzZXS4+SNDN1Jj5UJSj6HgCk17CbhSQ7xRQOUBCXGO1ULEBJDfSK1gSs87MfP4jUMROfni4B0E8LouVIeLJYaoPSDrQFqXjaQAluygZW2eBzNfBv3vvkCD27nmh3YXAEquvNRnZAuIx1ytC6epXOfKwS8LOc9yZ64P1rU743ex7raP5+S16n7RA8Uk5QexH9f+wK5u98Wy9IwVjA8fX1ez9hC7vz1d3t+uDUTaTIT+V/fQ1tdOQbbZPoAAgqH3661VQtgIhBxm/vplVJxUdxHgBKQ45OQI0GLsU4cnpPxSzzObbWP1xGQpg8RqmsFUJmxTwqiCEpDrdXiO319hYsRnxUARgjTAKUfbA1Q87IBziZJhZFoweb1y9DrScODb4/gQXCPkPvBDNwPZs4iWbgfzNYyJx1QV7Ppc7Efp45mkxehI3lvCGD36QG7fRhXa7fjw7+kwJYYD5vNqt8t83q3LBY4iwDUrr++j8tmEDlzNklgYkC3nEVH2JHB4hEPFIfrCE/CA8U8UE2lU7aZ8FKBFtuUYhel2q88VQqSuE1IE8NzYiiPcVJVGGqjp0rKtTbGQZ3B9cunBUzxXA1Q2sD1S25eNmAClDURry7jAr9r8T+jR/Dg1gHcH+FwCf/Fm//OR8x/+mYZ6eQi8BQKZkPLk3UgQVND1MKDyCyEBLRlIjSSifu3PsMPNw6h6NBbWL18CWxWi5hp9fzeisUCFYvpd0YAijFQYimX1ioJPUykGQVHhB/GPNH71NlQKuqd9cXh9fIY/3SlvtCEKCbYLDOH/uidkikPlNdJerfM3FDmUBwBSoCTACXGR8kYJ4Kb8F41uzDYzPX1qtDXWIFO5qy6VIJBrxPXW7UHSsPDvOBhMT3kT/uthCgrkhLjsO6tRDSf3YL73x2TnpLhPbg/nIH7w5m4P5z1mIRGshAtEyNZ0PJ0HUh9yY46NLIXs8rwXoSmy1yu0+fMrtuwjjIQCqYjNJKO0Gg27t89jibXB9j4Zjxs1qX6varfq0+xAQlQiXGx2Prv76KxJg/dIni8XEBSR32xBKb64jAwdTVKeOpi8DjXpfMwgLwMvV7WZSkzk1egr5mpDioQ8JsA5bej3y+BSA7pyaDyPibIZLJMc1aeKhk/xYWLpYfLgQFvJfpqy9BZk4+2yqPoPVOI7rOF6DpfiBi14r0uDWgdaB3MyQb4cjQM2JItsCUuwdb3UtHTtAOhu0dFZxK6kYHQjUyEbmQhdCPbFNazEBrOwsRwJiZEybqWuemAOptdfr6RiZlkLtfqc2bXb0RHGZgYycDE+AGEvj2GjgtbsPkvVqQmxcBmWGDYbDAMPics9XtF68C0A5sBw5aMFINpDGKx7cN18F4oRo/XgW7T80R4IejQ88RSgIzPIbbVEBwBit4nOTwngYow1d9slxnImYSTACW2WUrPFq8P+J3hGXxsn6L28xgBqsdjR6/bjoC3Er11ZfA7voSvKBdtJV+iu/IEWks+R0P+AQ1Q2rD1y23eNsCXgJGCFCMVKclJSLUuweZ1BlprPsJPY18idPuw9DIRpIYp9IiY9ZEMhISkIzSsZS46mBjeA4o4l7pTeqP3I1p4zo3dUsT5vMbcN7xb1qPP1/Wp+nuiPkybVXqnLY9mIXQ3Fz+PH0Gr6wNs+nMiUpYugWG1SGASAGWIPxrzfr40cL2E0Pk4QFkT4kUQeXujQ66F10QAqhTeH4IMwUltE6quMlWBiGmSwCRn6TEWivvl2nhqCI/brMv4KHkdvVfKgyXX0qOHilnHObOO6QzkEB4/u9/nRMDnxICnEt0XitFUmIMzOTtReygdDYcycH7/Tpw9sEMDlH64NUA9mw3If9dMCLfMWIplSUuw7tV4lOS8jpuX0xG6dQShu58jdOsAQmP7EApSGDeihqJ0ydiZeQv1N5otO/CxLITCko3QGCV639Pq6nxdSr09SQ/UYdSxWznCrn8cy8U3zdtQkP0K1r4SjxWWGCyzJiDFSIYhvAzyvaI9UPr9Kt+vjwMU80BxFt7lBjv6WxgDJYfOlAdKeIO8dnPhYOlBUnmfCE3KC3WljjFQjJMqlTmhzKE95YGSQ3rS80RgkikOJDwpz5MavhPpFEyAGvJXob/RjkBdOQLnS+HOy8HZnJ04nfkpTmdtx5l9n2qAerbOUz8UWm90RVNSYDNSkWoYWJGUgDVGLDa9ZUFB9nL4XWtxw78N/9GXjXtDB/H9tYP44TrLA/h+aL+Qe0P7oUTt06XUDfUwRTeD+/HD4H58P7gf9wb24d5ANr4f3Dcv4TVK5nvtYjz/3uA+3KO+h/bjPwPZGPZvh6/yXRzfk4p/+1MCXjOWYEVSPFKSrDCSU2FwhqoGqJfQg/S8fd4MAJUQKxJp+mvL0Od3CY8TAYkxUAwYp8eJHqMrdXKbx2QgeZHwLilvE0GKdbWgMDOZc5sAJQLJvVx02CGG7ghlAT9TJcgcT9wfrguAc6BTBKyXIeCpRF9DOfpqy/E39yl8XefC5dJj8OcdRsBVhH5XkQYoDQLP+2As9uulJ4pj+suNJKww4rEiKQYrEpfgdSMO615LwIdvW/DxWgu2b7Bg+0YLtm0wZb0F29Zb8ImSdRZ8oiWsg23rpH5EudaCHRss2PWeBTs3yPqO9RZsX2vBtlmE58zlvNnaWbTHzfuw5R0L1r3KPwlxWGlZgpXJMVhhi0OKsRSGYZVxTxy6mwJQi/39oH//TB4oeu6ZSPOTD9fCc65IBpG7y3GVGciZ78mcjdfrlfFI3CZAqZl1EppKxbp1BCcCk4yBIihJcBKz7/yRbem1YoC5bIvtsf0wQNE75a9Et7dCwFvA60R/kwM9l0ox1OBC4EIFOh156LLnY9x9FveuejVAaYDSD/hz24DpiTKMVAgR2ZcZKJkAIylGSEpSDFKtUZIUA+7T8mQdMCBZSGIMUhNjsCwxBsuTpKywypL7eEwd57aW59fB8ig9hu+BsOElSE1OQKphFfnQko1UWI0UWG02JNsMISKAXMdAaS/UlFi2qR6oZak2LBUAtR5tdRXoYbC26SUi0NBTRMCht4h5nRgPRbDqMWGJsU3dbuZ/isRDMT6qizmhhMfJLo7L88rQ66sAZ/LRq8X2KGybwnxPLDm818ugdQFrFeh1O3DdX43rzdUYanKh1ZkHf/kx9FQXI3CmHCMNpzVAPXfnOcVINIwsXn1KT5SYnccZejYrUmyJSDUs4h96qrEUqQY7nngtz6QD6m6pjDfT5W+mB2m3tF2KxZQkpBCg+O5T3qZoz5Pap9+NGqLCNjAVoORiwhzC24grbid6fJViFp6MUZIwRaCih0gCFIFIepoUPBGgOhtL0FFfFM4L1dlQLMCJwDRVZMwT24t4tfg55iw8ERslt+mBEp/ZVIG+JgcCbif6GyrR4sqDv+Ir9NSUIHCmAoPnHBqgFm+Hr2HvV7/3quMQ/75TxEy9sFfKWAZDiOmlUt4qXUqv3ax6oP6Wa1kQOuC9oB0z/s+caRe2fbkt4Crceep3za/+rvnD6XYqQHHINzFeLuXCIPLeZnqcCC6RYTymEuhsKENHfYmIhWI8FGOgCExMYUBRHiaWyhvVa8ZAMRZKxUPRK0UgE+kJCFFmndvdbgVn5ehqKkN7fTGu1JWgo64U3Q0V6Gmwo6fOjtbqAnjKjqK9Mh/d1SUYOGfXAKUNW7/cfhsb4AtEy/PpgFCqAfT30YH6QxBdmvFO7MyjAOq3eZ70e+uPpeepAGUzks08UOvhPluITjNgnLDEoHECDIfsuE1oIuRwdp4U6YkScU8+OwhM0vPEoTomwCSE8RoO+ckAcw4BEs4UpLGu0hrI1Aa8zo4erx1d7gp0ipQH5ehutKOzthQ9DQ50nCtB3clcXDi2H+7Cz9FRWaAB6o9lhPqloe/XYrUBvoCjO29d//31EQEo5YnSnqfF+nzO9runAhTTXSQlxGP7pvXwnC9CR6OEG5nryS6H0Ag0wkNE+JH7mGyTcMShO5YKlGRJKCoRoKQgiudRGP9EUGL7SiJARghziOu6msoFPLUT3Br5uQ501pWjr8mJQFMVWpx5OHd0H1wHdqH64G4NULpDns3w9XFtIwvBBjRA/f7ANB1aIwCln5GF8Iws5O/wOEBxFh5joDiEFw1QhKauRoIMh+VkAk3pPbKLOKmrbrnmHfcx5cEVc0ivo6EYl2tPhiFKARahSnqgVFsEIykKoghoBCtCVkdDiZD22mK0XyoRHqjeBoeIg7pcVYDGglycOZwBe+Y2DVD6wV/ID53+bto+lQ1ogNIApWxBl3+898IMABUXix2bN4J5oNrr6PEpE0K4UcNrHL4TeaDC8U9cPLhIxEFx2I7xUCylp8n0TLlLxWw8ghZFzb67KtqVHii2T0CbIiK+qgTtdUW4fKkIbZeK0FlXir5GB/rqHWivOYnagoOoyd2DUwfTcConTQPUH88Q9ctD37PFaAMaoDRALUa7f1l+cwSgbCmcaJCMhDgZRN5ax+BtOXR2+VIhKCp5Juttl06ivbYI7XXFQgg/V5hs0xyao6epva4wAk3mEJ8ctpNQxXX1ZBJOBqFTOHsvso9tKg8UoYnSVV+GHmYib3Kiv94Bn+MYXIfSUJ75CZz7d+JMbjpiVq9eDS1aB9oGtA0sbBtYg9WrX9eyYHTA+7Eaq9fo52ZhPzcL5f5E2cua1Viz+jWsWpaKjB2b0drgQK+/Ct2eSlzlUJrHIeoDrdXo91eBZY/XKfb3NbvEvm6PQ+RrYs4mpiJg2ceFgJud4jhL7lPHe3085gJLVVdt8TMCrdUItFSjz1eFHo8TPW4nehn35HZhyFuN/gYnPBVHcfbYPpz5MgsXju2Du/AwYtLS0qBF60DbgLYBbQPaBrQNaBt48TawC2m7duLTT7airOAobgT8GBvy4/b1Nty61oJb11swNtAsyttft+H29VaxzX3jQ34hY4PNGBv0IRjwYDTgxeiAV9TF9oAXN4eaMTbgw/g1v2iTbbAtti/auOYXx3j8Jtvk9pAfowPNCAa8CPZ6EOx241a/H98OtOLbQCuGvOdw5WwFWlxFuFxdgt6LLg1QL95Y9AOpdaxtQNuAtgFtA9oG0tJ2IW33LqSl7cT2rVtRXngMIwOtAlxuDkZgR4DP9RbcJCgN+ISwPtLnxnCf24QlL0b6PSBM8VqWESBqEWBEYCIgCXAy66MDPlCCLAebhfBa7mN7N3rdGO71YKzPh9uBFnx3rR3jPT5017pwuaYUPkcBPPZ8eO35iFm1ahW0aB1oG9A2oG1A24C2AW0DL9YGVuKVV1Zi1aoVsFmtyPh0M9rqHbjqZSZyB3q8DjEMx6E8bnc0cDHhEnQ1cZmWClHvbCwX+7nNurquv9klloRhGxzyU6U6zpKpCdimaIPXm0OGXW45E7C9nkHrTNhZgauNDvS7qzDkrYHfmYdTn6ejKncPnAd3ozJnN1yfpesgch2Q/LIEKerfoW1Z24C2AW0DC9MGooLIbTKIfGksg8jfh/d8Ma40MBC8GG0XT6LtUqGoM+hb1BlAXsuZdyrwu0wEmvP8K+Y+lgwCF4Hh5ow91RaPyWB0BqQXymv4efUlQjrMesvFk2i5cBJtFwvRdpEz8ZjCoBwd50txPu8ATu7ehMI9W1CetR3Vh7NQl/8F/h//xPiYFGja5gAAAABJRU5ErkJggg==;" vertex="1" parent="1">
                    <mxGeometry x="970" y="24.61" width="350.5" height="210.77" as="geometry"/>
                </mxCell>
                <mxCell id="11" value="store-3" style="rounded=1;whiteSpace=wrap;html=1;fontSize=17;fontStyle=0" vertex="1" parent="1">
                    <mxGeometry x="1085.52" y="260" width="119.47" height="30" as="geometry"/>
                </mxCell>
                <mxCell id="12" value="redux-architecture" style="rounded=1;whiteSpace=wrap;html=1;fontSize=19;fontStyle=0" vertex="1" parent="1">
                    <mxGeometry x="122.64000000000001" y="670" width="184.73" height="30" as="geometry"/>
                </mxCell>
                <mxCell id="13" value="" style="shape=image;verticalLabelPosition=bottom;labelBackgroundColor=default;verticalAlign=top;aspect=fixed;imageAspect=0;image=data:image/png,iVBORw0KGgoAAAANSUhEUgAAAhoAAADTCAYAAADHwbpzAAAgAElEQVR4AeydB3xVRfbHbxrphN6bqChiQ127a1kLa/uvdXVd+1rWLgrYxbLWVYE0QECwK/ZegOS9l0JVumXpJYSEkP76e9//58x9k9yE0CSQADd8DnPfzNyZuXPPzPndM2fOGOFwGJvsPrB5wOYBmwdsHrB5wOaB3cEDxu4o1C7TZlabB2wesHnA5gGbB2weEB6wgYat0bE1WjYP2Dxg84DNAzYP7DYesIGGzVy7jbnsrxn7a8bmAZsHbB6wecAGGjbQsIGGzQM2D9g8YPOAzQO7jQdsoGEz125jLvtLxv6SsXnA5gGbB2wesIGGDTRsoGHzgM0DNg/YPGDzwG7jARto2My125jL/pKxv2RsHrB5wOYBmwdsoGEDDRto2Dxg84DNAzYP2Dyw23jABho2c+025rK/ZOwvmX2BBwB7jNjzpM0Du8ADNtDYhc7bFyZR+xlsMGDzQNM8EAqF8Pv9BINBwRq2oLHnSpsH/iAP2EDjD3acPTk3PTnb/WL3y77EAwI0VqxYwa+//kp1dbUtaOz50uaBP8ADNtD4A522L02k9rPYwMDmgaZ5QKkxgNzcXP7yl78wcuRIqqqqbEFjz5k2D+wkD9hAYyc7zJ6Um56U7X6x+2Vf5AEBG/PmzeP8888nMTGRYcOGUVRUZAsae960eWAneMAGGjvRWfviRGo/kw0QbB7YOg9YgYZhGAj94x//YOnSpUrhYffd1vvO7hu7bzQP2EDDBho2Mrd5wOaBJnhAL53MmTOHIUOGKJDRqVMnTj/9dKZMmUJFRQViMCqkJ1Q7tIWrzQNb8oANNJqYYDSjWCcR67WegHY01OXZ4ZYMuLf3yY7ywB/Nt7f3z+5q/57oT13HzJkzeeGFF7jrrru48sor+eyzz9i4cSNr1qxRBqL7C9DQz6n7RYe76x3b5e4786UNNJoAGnoA2aHdA3YP2D0QCASoqalh5cqVXHvttdxwww38/vvv+13HaMEvD97UtY6zw30HIDTXu7SBRiOgoWcP6WCPx8OGDRvUBLN8+XK1zW3VqlUIrV69WpF81VhJx7eW0No2+7rhu7L7o2X7wzpG9LjaXaG1rq29d2sefS1bW5csWYJoNRYsWMDbb7/NSy+9xPz58ykpKUHPC5KvpUmAUOP+k+fQz6ufyRpa0+Ra0vT8Jr/Xrl1LeXl5nS8RPT9KKP5FRMshf80lkOxy9k2QYgONcLhusMiAKS0t5fXXX+eyyy7j8MMPp2fPnvTo0YPu3bvTrVu37VLXrl1pTPo+idfXuzuU9kq7bWqePpD+1LS7393+UH7jMbKjvxv3zfbeydbSd7S+Ll260LlzZzWm+/bty6233sozzzzDmWeeWccPUseOlren8zXuL/1b2qGvG4fyPHrekOsDDzxQ2aU8+uijzJ49W32AaXAhYEPIBgj7JkBorve63wMNjcjLysrIzs5W4KJNmzZERUUp4y9taW6HpsW93Q92P+wOHpDxtiO0O+reVpnSpujoaGJiYlRozSvxQta4ffk6NjaW9u3b889//lNpdLQQstpu6Dg7tIGHlQf2a6ChQYaoC+VLpWPHjiQnJys65JBDuOqqqxAUL18w4qxH6KmnnuLpp59Wcc8++yxWknyStjWS9P/85z+K5D5rPmua5LGWtb00KUuXK3mFrO2yrxu+J7s/Wk9/aD7fWZ7V91nHUEtcSzv02NvbQ+s8Is/y3HPPqfnujjvu4JRTTlEgIykpCfkQO+6445g2bZq946bR0rtVuNrX9WBrvwYaov6TdUgBGXFxcaSlpSk1oUwesk5p/9k9YPeA3QN2D4Db7eaLL77gnHPOUYAjISGBY445hh9//FEtm8jyibhr19oNW8jWC1m7L8Lst0BDBoTsg09PT0cGTUpKMoMHH823337TYF7RTCL5Nem4Bhmb+KHzbS2U8vQap1xb8+m6mgol37bus5ZjXzfPgG/i9dpRu9ADVr5sisd3V5y13sbXW3ucxvkat61xekv/trZPt0Xi9PWOhnqOkfz6T7yi3nvvvcp2TebNiy++mJ9++mmny97RNtj5mmf+aul+3C+Bhgwg+RPL8SOOOFIBjcGDB/PBBx/o8RRB5mJNvXMW1XUF7IAltnVCaDwRNE7b1u+mmEja0VT8jsRZn8G+NntgR/rNzrNvTIr2e6x/j3rekT7Rf8XFxdx000106NCBtm3bql04mzdvVsl239X3nd0X9X2xlwENQeU7j8ytLzwiNtThSBMmTCQ1tS1dunTjrrvuobbWo4BFIBAiFJRO0kBDC21d/7bC+s7V9eoB2ppDaav9t2M9oN+rHW7J6zvbJzvW4w1z7Wwddv5de08Ne9/89cknn6ilE7HXEFu2RYsWqYTt9bUGLhJuL6+dvmvvrTX1314ENKxCXwv+MCHZnroVaqqjZTSITF23bh133XkXbeLiGXTYEUyd+jGEIbItvG5shc1t4o1AR+O2NPV732GSpvrRjrPf757gAatgsoVTy/OcOC+T9yD+Na6++mrEOPSoo45Sthrm3FrfRv2+9DsUftFxe4J37Drq30VL98VeADRM7QHhIIQDEPZD2NcEeSHssZD8biqfLJuEWbF8GVddcQnJibGccuJxzJlVoOLN8v0Q9BIOeCDog6D8lnqlfmmHUMgkQSaKghAKQMhvUjhAOGzuL69DLfbFXt0DLT1Y97X6tQD6I+G+1het/Xm0vYYGGlVVVdx9991q+UT8bHz00UfKGLQx2LD+bmrwt/bnttvXPGCl1QONkGgZwhAMQ2ArJGmNaWt5A4ILgOXLV3D55f8gKakdJ574Z+bOXaDGgSwgaOwg15rkHoEoQtaygxpnNBVG2i7Murf87U1t3ZN9ak84zTPh2P24d/SjdWzJOxOgobURklZdXa2MQuWQuYMOOkgBDQEh+k/fI2HjP80DEq+v7XDv4Is/+p72AqBhLo00ZtZd/S3bV6/95z+JiY7hpBNP4rdff93VIre8X2w8Qqa68I98tf3Re/4oM9j37duDvbW+3y0HTtMx1vY3nWP7sdYy7Ost+d0KJqy92RhoVFZWcs899yjfQ6LR+Pjjj7ECDZ3fWoZca82Irsd+B1u+g32xT1o50JDlCVkC2UzI8z9qy/KpLsmhtnQG7tIc3KW5eEoceEty8apQrk2SeEnfkuTe6dQWT2PGZ89x69VHMXnM7fhKHfg2Oagu+pGq9T9Qs2GaScXTqNn4I7Ul0yxk1u8pzcFTkqPq95U68W3Kw1tWgHfzHILVv0OgjHDYSygUJGjZHvtHAcT27rMyaOMBbv/e9R6w9q993bIT5PbGQlPp9jvb/jvTYECMPWVnyZgxY1i/fr0aPNJ/0q8SCtCQpRNxcti/f38kv4AI+ZN0/SdbX8Xh1y233KLOi/F6vQ3S7Xey/XeyL/RRqwUaslwSFpuI0EY8m37kf4UP8nvupSzLGcKyGeeyYvq5rJw2hFXboZXTh7Bi+hBWzfirojU557NqxhDW5l5A2ewrqF1wLZXzrmK940JWzziPNTlDmqTVOeeyasY5rJpxtqLVM85lzfTzIjSEtTP+yuocqeN8ludcwfL8oZStnAoUEyaoln/2NMPowW6HzdMDe/r92fXtH5Nwa3rPMlLE0PNvf/ubcq0eHx/PnXfeqQ6PkzStqRAfRAIgxCW5nAHz/vvvKxsNeRb953A4lIMvKUNcuD///PPINlidpzU9t92W3TvWWjnQ8BH2L6V6xYusmn4sla521LricbsS8Dji8eYmNkEJeHOFzDSPIxEhnzMJvyO5AQWcKYTy0wi6UvA7EvE7E+rI50xASMU5JIzH72yD3xmnKOCIJ+BIrCO/IwmfIwmvM5EaZ2dK8o6nZOH94JlLmECLAA178OzewWP3r92/+wIPaO2PPIv+k1NqDzvsMOVjKDExUe0w0VtYJY8YgwoAadeuHQcccABTp06tMwaVdPEievzxx6vjHMSxlwCXn3/+WYEMASv7Qr/Zz7Dj47/1Ag2xvgx5wf8zvtUj2eg4HLcrkUB+HKH8RIJ5CQRcmuIJ5SUSVpRAOC9B/Q7mJRHMS1YUcqUQjlDQmUzQmULQmUpIwIYzmZAziZAzsY6CzkTqKYGgU1O8ujbzyj1CZnkCXPyuRDx5aVQUHkblL7eAL58wXhto2GcC2JOrzQN7hAdku78Wgmri0Rb1jUKdpymgIWDhww8/VGeayPlPqampXHPNNXX+MsQYVJZOBGhoY1BxQS5/H02dqnxspKSkqKMdLrroIgUyJE1rRHTddlj/rvblvmjlQMMDgZkE1j5AuaMXQacBBQbkG5BngCtCcq2pqbjGaVLO7iKXQcgVQ01+J6qX/A38PxLGYwEatqX1vjyg7GfbPybOveE9bwtk6DR5DivQkN/BoBy3YGo3pk+frg5U02Dj3HPPpbCwUAGZoUOHqu2tAjS++uorBTLeeOMNBg0apPxrCNC47rrrWLp0qUoTkBEMyrZ/7fDQ5pW9gY+ao42tH2j4ZxNYNYLNuQcQdEYRVoJchLlBKM8MJU6BjkbgQcXnRRHOMwjnRUFeNGFnNCiKAaeVokzwIWU1KmdHf+t2BF2xVOf1onrJ1RBw2EDD8oXVHExrl2FP0DYPNOQBDRx2NpTVEk0CLsQrst8fUGBDoQNg1qxZytZCwIYcPvnnP/+Zb7/9lmHDhtGlSxcOHThQHd/w4osvqkMpxSZD8t5///11h1OKQXwoJM6+tH8hWT6xvYPuL3zcyoCGRrqCqGXpxAMCNFYMY/P0A5SmQIR5UEhAhgAIDTKaAAghZxQUJMCcVJidBIVxCqDIPdujpoDL9gCHbkvIFUeNqzfViwVoOBstndgajf1lcNnP2VAY2v2xe/pDIYVGyyI7BjjqQYaACgEcMu8K2BCthvXv119/5corr0T8ZgiIGHjoQI479lj69O6tdp0ce+yx9OrZi6TERDp37szLL7/Mpk2bVBGBgHmqa0g5MJSdKTLP20BjfxoPrQhoaOYzGVAccIWVjcYc/CsepGxaX6WNEGEuQEM0GlqwNwkAXFGE8trgc6Sy6gODZW8bVP0YQ3hOIiFZfpkZDTNjYE5c5Doa5rSB2fI7DuYkQkEcIYdliWY7mg7dHtFo1Lh6UbXoKvA3Bhq7Z7LZn5jWflabh2weqOcBK9Bo2C/6w03yWkCF+oir/y1p+k/uD6mlE8kk94kmwq+0D7///is3XH8tnTt1oFOHdvTs3pU+PbvTo1sXunTqQPu2KfTu0Y2MMaMorztkTeZzceQlYVDtwJNdeOEGYEO30xrWP1/DZ7Lj98b+aCVAQ4MMUauZqjUFNMSHhl+AxrCdBxoFcdQ6U8l7zeD12w2crxr89nYMVTkp1DhTKf4mlrIfU1n1UQzVM9Komp7Gig8MVn0Uy8oPk/nmSYM1H8RAfgJhp0FYAMe2gIYF+KilE1dPKhdeCX5ZOvGpD4y9kUHsNtsTm80DrZsHrNqL+ndlelTeWUWHzLviPTkQBFFq6N9+8TQQguKNZdx//wi6de1Dxw7d6dG9H7169ic5qT0DBhzOlMnvUVVVY94b8cIsbVDakohnZ38klLK31j4TGG2r362gRF9vK7+dVs8be74vWgHQ0CAjgngjKjUTaMjSyVz8K4dvG2g0Xj5xiMYjjuqcNH54ziDzlhhmj2vL3HHJfPpkNHMmJPDuMIN3HjCYcIfBuw8afPSowbg7DCbda/DucIPMGw1+ezMOCts31J5Y62p0LRoNoYDU7epB5cLLwZdrAw3bRqNuF0BLDna77j0/we6ePpc5Uz+LWoloJLEj5zDp85jqQn2PhNYy9MGUkeMeBGBYSAGFyNKKaD48bi/PPPUfunXtSWpyGilJbTn6qMF88/V3BAJBgvr060gz1JkP+mioRuDCfA6rDJDzpJomc7nFlBPK1iPkIyxnUSmNi8Q3fKb6PrI+t33dEv3SSoBGvSZDr901BBojKJvel7DLNAa1Lp1o4a5DpXVQQCOeqpxOfPtcHGNuSWTB2wNZ9flA3n/Y4LmrYvnsqba8en00Ux9L4v1Hk5jyYDyu7N58/0pn3hkRxSePxVP8RU9C+Z0JqPK2b9chbZAlHb8rjipndyoWXALeGTbQqJsU7UHeEoPcrnNf5Lt6bFGHI7Qw15oIOQPKet3oTChzcaR+CcVcPpF1FEmpO9kJkG2rXoEYkVAOkPQxYVw6fxo8iIv+eiYzC3Mj9/kieeQeKWf7f6rGCACReV9Inyelf1tDAT5BOdpBPkoVyPCr61A4pE7ytvm99fF7KwEaVm2GiUyFscJyGqvSaOwk0BAj0PwE3M6OFGYkkHWbwTcvxLHskx4sfLMX7wxNZs2nA5n+cjJTH47BOTqZgswk5k/uwKzxKeSlJzDtBYNFE9oQLuxE0BVTp9XQgGZroQYa1c7uVC64FHw5jYCGPFfrYwS7TfY7sXmgNfOAfK2bZJ4cLfOkaftgGlfKNlWxr6gHF02LeRHrcp8bwhUQKoXgBvCvB+8qqF0GNb9C7WKonQ81c/GXO6nZ+C1VRV9QLbT+Szwbv6V6/Vcs+2kiG357D1/pd3g2fk1N0efUbviC2g1f4y7+EW+JC9+mmfg3zyVctQBqloL7d/CugMA65flZjpiAmgigsRiMNMIoajlFxWkwJM/hIxyWpWkBG+IY0dZqtMZx3IqAht72JGFIodo6oLFi+I5rNPTuE7WtNZlAfh9qnIdQmdMXT34//PkHE8wbSNA1EL9zILUzDsTjOAiv6wC8rj64nb3xunrhc3bDl5tG0BlPKKJJqfPbsY1dKxpo1Di7UyVAw9sYaLTmycxuW2scpHab9m++FAdc2pZBfdlHljXqljQaCWRTG+GBcDkEi8C3nHDtIvzlBbiLv6Vq7ceUr3iLkl+z2LDoZTbMf5ain55g7eyHWF04lDX5d7Em7zbW5N/M6rxrWeX6Oyudl7DKcRGrci9mZc5FrJhxIaty/48NBVdQlH8Zq3MvYnXuhRGS64tZ7biM1c5rWOW8gZXOm1iddytrC+9kXeE9rJ/1IEXzHqfop+coWvAqm34ZT+XK96la8yXVG6bjq5hD2P0r+FabYKgOiGg9jPnQAjka6F4i2hCzv/ZvvmlN80arAxrm+pyowKwajYcom96vwdJJ4+UTAQGiZdBgwFzGiCHgSiaY35FwYUcoaEfI2ZZQbirBnLaEHe0Iu9oRdLYl6GpLIC+VYF4K4YIUgnmJatdKOC9GlRsSg1BL+bq+xpqNLYCG0mjYnkFbE9PbbbEn4L2DB7QWQ2t8I/PiFsBCbBoqIbiOsGcpnpIZVK5+j7LfMyhaMJI1s+5lTd6NrHFewZrcC1kz42zWTj+dddNPomjGsWzIOYqNjiMocQyi1HkYZc5DKXcOoMJ5EBXO/lQ4D6DS1Y8qVz9q8vrhzj+A2rwDqHH2pcbRmxpHL2qdval19on8lrAP1Y5+VDkOpNJxMBWOAZTnDqAs52BKcwdQknMoxTMOZ8OMYyiafgJF009l7bQzWTXtPFbMuJhVrn+wpuAW1hTex4Z5T1P+2zgqV31I1YYf8FfOJ+wvgrBb7YzR3SEaD3OJRfa0iHZDdsuYH657x/ved8dlKwIa5mAiLOt/ph8NU6MxD/+KhymbfsAWQKMx2FA2HHmyNTUN5rWHWcmE8mTnSDR1QEF7CdXbVsXLaIE49Ip4HS00CBeYW2glToCD3C8Ov6QM8UDaGFxYf2ugUe3qTtXCyyJLJ1agYS+d2IN+351Q7HfbfO9WazFUKPYXalVBvujNE62D7t+oLc6hfMU7FC96mdUzh7LSeSOrcy9lXc5f2JB7ggIQmxwHUeHoSY2zEx5XW3x5Sfjz4gnkRRPMNwgJyZyXX+86QNu6qVB/YMn8J9c61PE6bLwrT+e1xMsOPpkjZe4WT8/mHC5zaxxBVwI+VwpuZzuqHJ2ocPRic+4ANk4/kqLpJ7M65xyW5V7KivxbWDf3CTYuyqRq5acESgrAvQxCZcqORGCGtumQnTLKhsVerm7RJftWADRkYGrkXh+aDrtke+s8AiseUQ67rMagilGtXkJleSMvDve0ZH6dZDBztMHaz+Lx5HdnzdQo/AJA5iYo3xlh8ZMxvy3MlUPVYmFmG5iXTHh2In6xxxAnX7NTYV5HAjPbU/61Qc30OPipA+HCeNNZWH4EnGjgEgEgGmhUubpTUQc0fDS18mhPys03Kdt9afflvscDEXChVwtCVYRqFuMu/oxNv7/E2rm3scJxPqtn/ImNuYdR6TqImrwDcOf1xp3Xndq8zlS7OlDjTMPtSsWbn4I3LxGv+BfKj8OfH4svLwZ/XjQBVzSBvCgCeVr4m4BAlo1DrmhFYVe0+tjTH23WD6ztXcu8aJJZXtAVrWzfxBVA0NWGoCtekZxfJedFeV0peF1peFwdcTs7UePqQlVeNyryerE570DKXIdT6jyejc6/UFJwBaVz7qbil1fxb/yGsNiABKsIixCRvlNkj4+WHB+tBGhsyQQm0PCBfz7+5Y9SNu0AwhEX5BpkWMOQuBfPT2Hth+0Zf4vBh48YvDXMIC/D4OeJMaz+JJmFkwyWfRDN+s8T+Pl1gyVvxlGd25GVH8ex9M141n3WiU8fMfjxuUQqpvViTrbBwklRTH/RYOoIgyVTYqjJSSJU0IZgvjgEawg29GBTu07yelC+6DII5BAKe/AH6421xGBLIW0bZbcoym7JgWfXveWYt/ukYZ+oT3G146OCcPViKn6fwtqCu1mdex5FjkFszuuKuyCBYIEcr1C/bKyXj/X5T0ozG/GkrI5tEDBhIQEAeu7SYV0ZVm1FE/l0/m2FW5Sly9zR0PIx1/iZBLD4nKlUO3pTmnMMa3MvomjeQ1Sv/ZiQ+38gGwpEFWSuxdvzTQvJnBYEGqb2Qi2VyHKJIr1/WiNR2XXyE4Hlj1I+vf8OAY31n3Ti62faUlN4Ij+91Yf0Ww0+ftzgrQcMxt4ahePVOD5+xGDinQafPG7w+VMxzHg1iYybDCbeYfD+MIOpDxt8PtLgy2eiyR3Vhg8fNZh4t8Gb9xs4XmtD+KcOhPLNM1Q040uoB5sAjUrRaCy6FAIzCIfFgY14vAkSDoYIi16vDmXXa3HsibbhRGv3h90f+yMPmDJRdKDiI6IYd9HXrJ95P2unnc2mGYdT5ehJrbMdXjmduqANoXzZFWdu/ddzkA7rNQlao7BlqPO2tlDa3uBjsk4rIvFR5m7APNEwJxPIk/7oQpWrLyXOwazNu5jSJf/BXzU3srtGbDXsZeuWGk8tAjQaW1HrPdPWULzHhQTN+5fiXzmSsukHNmmjoRlRNBqh/Las+rArb9wbz8yJXfngKYPJ4pjroTb88Eon3hkeTfatBpPviePLZzry4yu9eeUGgynDophwbyxZt7Xhi6e789Fjabz3cByzJ/Zm8XuH8/5jbXBk9CI/sxffPh9P+KcuBMVItBHS1gPVBBo9qVh8BeGAkwB+PGGQZ9Kkn1VhjgjgNtdkbeHSUoPBrtfmvdbAA/VAoxp/WT4b59zPphmH4XfKsQgRWzKxMcttaC+h5x8d7owmQd/TmkIr0NBaF2UfYrURsc7BYm8ndiYFBjX5yaxzHE/Jkufx1yxSdi020Gi58b2HgIb+ardqLiTO3LZVZ7hjcdbiU9eydLIQ/4on2DT9wDrUrsGFNVRLJwUplHzVRWks3hlukJuexNqvDmLO+GRmj2/HZyNj+P6FFN4blsCo6w2+ezGRRW/35fuX4vh0ZDTOMe2YN7En3z4Xz7yJXfj4MYPpr8Sy8M2O/O/DHvz6bgeWvhlLeGYKAYWoza+DxoNTPINWiQvyxVdA0EEQrwIa3jDIc/nExa/eoqY0HLKWIn2jNTpmP9me7lpuYLQGgWO3Yf98/wpoqK0UFVAxnbK5/6JkWi98jpi6JRJ1LELdF77YPYhGQ1O9drXx3LQ3/bYCDZnrNdiof079vKY2RwEr0SznG3jy49ngOIzyXx4hWDsLQrW2UWgLLZvIPLZHgIb5pb6lx7emDCT1ViUz9EFgAf7Vj1E6rZ9Sl8lAsQIMfW0yZRsC+Z3xFRyAt+AA/DP74y/spyg4awChuUdTU3A88yd04rd3u8O8kwjNGUxg1iB8hQPxFR6Kf+bBhOYcrPxq+PMPIlDYn0BhPwKFfQgW9iA8qwOmAZMM7i0HtMSJRkN2nVQvvgxwRDzlNXwy6y/pB9kLbtV21IOv/XOytYWs/d73Vx7Qmk0og3ABlD6D7+fjqc5Jwjsjyjx3aUftG5qYo/Y2sKHn2e1paOS5Ao4YvI54avM6Evjtr+DOhvDPhIM1tl3cvgs0rHYYpgajXsDKekEN4ZpVeIvnsnnZdxQv/ojixR+ycfGHbFg4ldJFb1G16DkqZ11OlaO30iII022dZHdJG2qF0RwJuB0JBApSCBQk489LVet4AVcXKOxFqKAbXmc7AvltYWYaofwUfLkJBJwJBF2JBBxJBF0pBJyyRdYMKUghXJigvh408zcetBIfcMXidXXGPfNUahc8Qun8Nymd/yGbFphUuuAjyn/5Hu+6n6B6HQTEK575J6BDTzSmlzvRbmiNkC189lfhYz/3/sP75vgXI64yqHLCxiwofxTW/53Q/KPwOdvjy4khZF06sWwh1QK5fm4yv/y3Nm/W59vyw6l50+o1EOZuFlMT01Abo/PIPC92GPUfdPq5GoSRAy/9Mwxqp8sumh6El54GJbdC+XMESycT8i5URqH2NteWG0O7TaMhYlMJTXF4K5hClgbEuClYTqB4LutnTWHxZw/z05vX8tOEC5mbfQZzMk9ibuaJzMs4kZ8yTmJe+rH8nNWftVN7Eczvgj/PqNt+pTUZW4T5Bn5Zp5PtpwXmHnEJZe1OBo32haHWOsUSW/Zyy3pnJE8dE0fW++p+N2XVHXHipQejKkvtE48h6Eyl6tvuLB7bh7mvDWZB+sksTD+RBWNOYP6Yk/k542zmj7+U+ZNvYNGHw1y7MZ8AACAASURBVFiTNwH3upng26hc8YYI4w2Zyywy8Wjtjy1wWm6w2H1v9/2e4IF6oLERT/FnrC+8h7LZVxFaexNU3Aabr4PVQwjPPwp/fi/cuWl4chLx5bYh6Igl7IwG2YXniqpzYKjmMattg2hErKdSy2+Z86w2D9brndCg1M2Z27vHWv5Wr+U4iWjIjyWcF0vAGYfPEY8nJ4maGanU5HYiMLMfLB4Ma/4Km2+CsjsJr7iN9QU3sHruY3gq84Ba2xh039NoCBrXUEPCIAQ241uXw7IfnmTBGxezNOsYVmX0pzirJ5uyu7F5bDfKs7vWUUW2/O7EpteTqf0klbArVS2Z+AUYRJy+NIXQtwAekaWWOg2EM5qwMwYURYOci+KSUAZeVCOS+MbUMI9suQ3JoWsWCjuiCecm4P0qkZJJ8ZSObUfFuC6Uj+1ERXZnKtVzdqMsqzslmT1Yl96P3zOO4Jc3LmDN949QvewL8K1XZxKEkX/6T67syX5PTPZ2HTaftRQPqA8L+fxmLeGSiVTOvphNOf0pF0+bhSfgX/J3KBoKFY9C+VAouh6WXwCLTyQ05xB8eV3x5KbgnRGDb4aBf7pBcIZhLrk4DMI5BmLjUQcstDZkW2Bje6BhB9JVnZJPQIWE1nr1tXz0RUg0Nv6cKLwz4nDnJFGb255aVy8Cc46EpWfBisuh6GbYfB+U3Q9rbiG8+BLchX+iwtGfDTmDqFhyI8HaLyC4ydzx14LCtqX4qTXU2+waDeuOEiUhw178FQtZ7XiBBVMu5NfsQynJ7oAvOwYyjXrKMKAJCo01YGoU4dw2BJwGPrGBELAR2QcuXu2UR7v8iLbDsj9c51FhoyUX0ULUMbpmcmu4vYEjeSNlKg93EQCkQJAAltxoQl9H4ZtkEJTnzGriWdMNiFAwI4qK9ERWZ/Rh6YQzWPXD49SsESTuVt2obTbMXSrik0O8p5rLUa2Bkew22ILZ5oHm4QEFNJSjnZVQ+hruOSfgdooTq0QqHQewMedkNuReSEnBVdQsuJHQ6rug5F4ouxvK/w2bb4ANl8LKs+HXk2DhUTB3AKGC3gScnfE72uPLbYsvV5aLk/HmJiq7Bq8jFp8jGr8zRlHAGUPAGW0h+b1j5JdycoVi8OfG4s+Nw5djhv7ceHw5iXhzEvHkJODJTcTtSMad2xZ3bnt8rm4EZ/Yj/NPhsOQE+N9fYO2lsOl6qLgdKu+BzffDhnsJLrudmp//SWnehRRPO42y6YNxO3vhz0+kwtUez9ILCNe+A8FiG2i0IMhqdqAhOyVCEZ8RBKrwrviWpe9ez7xRh7F6bE/KX+9E7bhk/NltCGVHE8o0CDdBZEapNN9Yg+B7MZCTDPlxETWaqNOioCAaCi0kcVslUb+JO/JmJnFxLhoRTXmmmg9HHMEvYqidaODLMghmGYSyGj5rKMNAKJhh4M+IwpsZR21WEpuyOvHbmENZNOlyyua/D4FNhMNBAqGwWoaSI5KDNtCwne+04MRhg4rmARVN9aMJNGS9dDWUZOGe/Wc8jhTzGASxH3N1xOfsitvRi8rcfpTlDGBT7lFU5p2Me/a5BBdfCiuug7W3woa7YPMDUD0Myu+FTbfBppug+B+w+lJYfjH8PgR+OQMWHU94/hEE5w7AN7Mv3sJeeAt74CnojjuvGzXOLtQ6O9VRjaMj9dSBGkcHap0dcYt9mqIuePK6483vjb/gAMKzB8K8o+Dn42DBibD0dFg+BFZdDGuvgA3/hOKboPTfUHEfVDxgamw23Q/r7yS8/Ab8Sy6jcvZZlLmOo8xxGGU5/aiYIX3REb+rA8G8DoTzk5RvkQpp36KLCdV8AOFNhEO775019R7tuPr+blagIdoMEYbqyF7fBsoXvMuCsUNYm94L97gkAtmGAg8Nvu6bABkm8DCBhtzjn2gQmhoF30UT+t4g8O2uUfA7g12lQKSM0LcGwW8i9K1B+DuD8DdR+D4yqJ5s4BlXDzA0sLCG8qwNNDuR3/6MODaM7s7CzDNYMf1lcK9VPr782ubFdj5jAw0baOyTPKCUGQptrIGSbAU0fI7k+iUHvfygzmKKw+9Mw+PoSXXuACpyjmTTjOMomXESxdNPo3jG2WxyXkjFzMvw/HwVocXXwK/XwvLrYfUtsO4uKL4PSu+DzfdA1Z1QdRtU3AyVYhNyE5TfCOU3QPn1JomNiFDZtRaS3xIveW4w76282Syn4hYovw3K74AK0brcA2WihbkDiu+Aojth9W2El/2L0G834Vl0HRVz/87Ggr+x3nU+6xznqbNb1uecSnHOMZQ5BirHXG6XgIt4Qmr527IkE7HFq8hJo3rhBQSrbaDR0qCn2YCGssgIBwmFfIR8xVQsnsLSyReyKusgasa2x5fdhkB2VJNf9k1pNMKZUUrTIVoA/1iD6myD8nEGlRMMaiYbVL1hUDnRoGqiQfVOkOSX+5qbKiYYKHrdoHKcQfVYA3e2QVDAVUSTIQAj3IiaAhny7EGl3Uhjfaa5lLK+YLSy2xCNkanRsL3ctfTgseuv/2Kx+6L5+qIh0Miitk6jod2Mi12ZaVsWdsYScrYh5Ewk5Eoh5JKTqNPUDjufqz1eOUjN0YVaR3dqcntRldtHaUHKc/qzOWcAFY4jqXQdT2X+yVQVnkbNrFOpnfNn3PPOpHbeX6iddy7un4bgnX8+gcUXEVzyNwKLhS6x0KUEFl+myL/oUrwLL8G78P/wLLiI2p/+StXcc6mYfTYVs86ksvDPVBacSkX+SZS7jmez8xg2O45ks3MQ5a5DqXQdTE3egeqEWHd+Hzz5vfDm98Cf3w1/Xif8ee0J5LVV3kBDebJDMDbiQ8TsG7UkLkAjz6DC0Y6aRRcQqnkPwqW2RqMFP0yaDWiYtgPyuV2De8XXLJx4DuszO+HVthhio2CxU2gaXDRcWtB5RFDL0kMgy1yG8GQaeCPXvkwD/06Q5BfyRkL9+4+GUo4qSwCRaF8i7ZQ2q+dttFwiQEPbZSiblEYaDf3Muq8CWVGUZqXy6xtnUjR3PITLlM2GaTDWfJObLSjsvrR5oHXwQD3QWA2bsqidczputXSigYYlbGxXZt29YbEzUzvu1HbROAKuRHyutnidHfE4upnHuzsPotp5CJXOQ6lwDqTcMYgyx5FscgymNNekkpzBSqOwMfdYShx/osQZIfHA6TiBEseJbMw9geKcP7FhxnFsmCH55Qj6oyhxHsUm15Fsdg2iwjWQatch1LoOwp3XF29eD3x5XfDndyBYkKoOtVQOGK3PsrXryDPqnX8aaIjX5kpnO2oWC9B41wYaLQgyZF5pNqAhgk8OsPGWzub3j/7N7xmHUp6VpIRwOFsL3agmlwma+qrXcSJ4RWhbwYYIdAEdgczWR8oWI9tAnjncGGRYQYUADutv6xKS3CfaEAEvWQZVWfGsyujDL5Mvpub3LyHsVaeyyQu0AUfrEA62kLbfQ3PxgDmmZdfJKijNVBoGZaNhWTKp27lhARPWralWwSvbXM0TWOVMFDktVY5kj5yY6kwk4Ewi4EzB77JSqglGXGnqFFU5SVWdpupsq46al+PmPa5Uy3V9vDcvDV9eO0XmCaxmmlfAjRxT70pT5HelEnAlKeAjvovkmPiAU4z+Ywk65cTYhodWWp9PXzd8znrvoXKvCTTOtzUaLQwymgVo1Am6UJCQu5jNzuf5fcxAasa1V+BAf9WTFRXZVRIJGwnZxkK3qa99yaOARySsvycaMq0kgGZ7FAMZQrENQ1XO9u7dsXRz+cdcAqrTVGzluXW6DjW4UmAly8CTEcO6Md1Z9amsdy4QLxvoHT7NNcHZ5djC0uaBlucBc4eZeNJZSWjjaKpnnaJ2ZTQWqjv6e4f9WlhBS0tca+1Mo7p39DkFXIh7Awll6USARu0SDTRK7KWTFgQcu6zRUJoM0fUFK/AWOVj+9t8ozuyCd1yi2lViAo1oyBIgsOVX/M7GaaBRv1tFBHm0hRoKdi2468PG+a33yvX27m96eae+/OZLl2es1+REszmzLSsmnkTlgkygmDAhW6PRgoPHFsotL5T3xXcgQCMgY1sBjVFUzzq5Dmior/y93K34jgKHnc1nAg3Tk6i4NKh0daB2iSydvAPhjYRtdwAtZjzdTEDDD57luGe+wIr0/niyopSADIsWIysGskRr0DxAQwOTem2BgIMYC20PKEi6zt8YZLQmoGE+hwYbAtj8mdEUZ3diw1dXQ9VswjId2btPWmzw7ItCzn6mlgdPgYhvYA00amadjMeRbHo2VjtNdrer8L2zfCvQCIgxqLO9BWgUYx9S2XK83TxAI+wmUOpgw0f/YO3obviyYhXQCFk0DeZSxq5rNDTQkPIaajI0aNgRoKHzNhVu7/7m01hsTwuifWyILYo4/fJmRlOa2Za1b52Gb9lHpkt3MY2xbTVssGFrdvYZHhCNhj+i0QiXjKZ29il4HSl1DgJtrUbTQMgKNIJ5UVQ4G2k01JlRLSds92cQ/4eBhtgHqI4Tm6VABb7fJrA6+3A2j0khJJoMBQTqNQdNA42mbB12AIwoQ0oBCbp8HUrc9oDC1gCKBh3bu7/lgIbsrqlJj2bDuAMpL3wRAiXqaHkbaNiTx/48ie1rz94YaLhtoKG0OdtbStk20LA1Gi05TnYBaJhf0ursXc96vAVPsz6zP7WZqQSzRGiLQNbCW5ZNrMagct0URfLtkC2HAAINMGIJZ2qSOEnbGmCQ+Pp2bVmGbvsfBRTiaMyk+nZsqz1br6exRkM8iHoyotmY3ZuS6SPAvVztQLGBhg00WnISsetuXv6zgUbTGgsbaDQvn+3JcbuLQCMEYR+hmt+o/v52NmV0IpCdgLlkogW6CP4IgMgWo1BTYxGSMz70Fk/tc0IAho7TYEPZeUS2x2aLBiSi8VBgZmtgorHwtubT7dJgI6rOiZYuW0CScq5l3XIqTrTSzXJlB43kkVDyNcjbuP0qX317zLxiu2J5lsgzmeBMyjZJ8gq4UEsnkXoCGQabM9tT9Nm1UFoA1Ni7T7R2zQ73meWDPTkJtra6bKDRDEDDFUWlWjq5MOJHY6Nto9GC82MzAA03weqFVHx9A5syOhDIaqOARr0NhdY6mMLZFKaGEtrIgWlC4mdDPGjWCW3Jq4FANIExBv7R1vRowlkxhLJjCGebhqdiw+BPN0kLZjmoLJgRXUch0YBkxUF2G5PGtlHliDDXdSvjy0y5R8BBROBLmBWDf4y4UDevpWyJkzCQbsbrcsQplwApE4xokBFNOCOGUIY8V8RAVsKMGMLpkhatDGbD6VFYSYMNCVW5mQI02rLmo0sJbphOOFxNSLl9tz2FtjaBYbdn7/0Ca8l3ZwONXQcaIQEacvbKYg007O2tLcnTuw40qCZU/TM13/6T8vQUgmoJw9RgWMGCBhgqlK2ur8fChDglkAOyjPJGgkkRJ1dau1Dvh8PUZIiwVWTZ+hkeFwMTZDttPIxPUkBHaR90XtEy6JNSI3ECEEJZ8TChHUzpAlM6w1udYWIqIQEQkj+iaRAhr8CQ1nCIpmF0PZDQ+ZQ2RvKqZ4iGcQkwIRkEUGgNjqRbSbdLpUdBuqZodR0WEKMBmISZBhWZyaz/6HzCxd8QDleo1St794kt1FpyIrHrbj7+2xJonIo3N9U2Bt3Otl6rjYYAjSoFNGzPoK1hbDYD0KhRQKPyy39QPiY5AjTkCHirViLKFNTjYmFcMu5RKSwbZlD6bCxM7IB3TBIrRhisHxlNUIT/uCgYb95TJ+QlTrxtymmu6eaSAuNj8Y9LYs1TBksejGHd0yksGRpF+YtxhLMTYJwIe1mmMLUTiDt0ASXjoglnx+Eek8jvj0bhvM3gu+sMfrjOYPmTcTCpPeHsWOXZU2laZGlnbBThsRH7jYj2RYGgsVEmaJJnUwAlGveoOLyZaSweGsX3V0RR/YoAoGRQzx9r2qvIMpKiKBgrGg7RbphajQah6kcTbGiQVZWRwoaPL4CNNtBoDYPIbkPzCVm7L8M0CTQcNtDYGRsNE2i0p3axOOwSPxq2RqMlx9auA41wLaGq+VR+8Q8qR6cQzhKjTBHIGmjU2zHIsoE/qy3LH+/IC4MMvrs2BaaeQNEL/Xj+cIMPL0ki/PZh1GakUvpyNL5xiYRfT8aXEU9gXBo16cnUpMcTGJ9C4PV2eF/vStFrXZl6tcHjh8XxxbUdeGyAwZxhyfjfPZSS1+IpfTWWwMSOBF/vhC+7A57s9lSMSaQ2uy0lr3Ul/XSDm7oavHC6wSunG8z4dzw1Y7vhyUrGlxWHOzNR3VOb3Z6a7PaUj0rBO64DTGpHeFwinswkNr8ST21GGu7x3XHeEsWoE6NZ+EgyPz3Yju+ujacioy/BNw6kalQqVaMSYWInwhM6EhjfEc+4LpS9loJ3bDvC41MJyVKK2LRo0CFGtBGbEKUNyjCozhCNxnmEij8nHN5sL5204NpjSw5eu+59E+BYgUZo4yhqZ52K1wYa29150lijUan8aPzVBhqtYH7cRaAh3qK8hKoXU/XldVSMbhsBGqZtg7mjI9o0lhS1f1YMnux2LHmiM48dYTDl7ymsH3sShQ/1YcThBm/+PYHZI/rx6vEGL/7JYNJFbfj12S68/X8Gzx9n8PQxBs8ONljwRCKLn+7Ff443ePBwg2HHGgw7Jon3bjqQewfF8v3wznx7fxee+JPBk38yeOfqROY90YuXTzFUvaPPMFjxYgrF2f159TyDR//cgd/HD2HN66cy67EDST/DYPbQeJY93ZnsMw2+vMlgymUGz59sMHKwwXPHRbHkiWT+93RXXj7BYOiBBi+dYPDljQbPn2rw93YGo8+O4fPrkphycRJLnu3DB/+I54GDDB4/0uDb25JZMLIPr55q8OyfDEYMNBh/bhTrX0ok8HpbZXtiOjoTTYcY0Ep/alsPg+rMZNZNPYdA0UeEw6U20GgFA8kW+vum0G+J92oCDfH7u5rwxjHUzq4HGvJVLwJ1e1/3+2P6FkDDXjppNcbhzQA0fISqllL1xQ2Uj0pTxpYiFMVuQX2ZR7a6qmWPcXF4xndiwVM9uONQgyt7Gdx5pMFt6jqG7Gt7kjfyRN64PJ6sS9K4+cAYxl2VxMhTDB49PoWch49k+GCDZ86I4sUhcdw7uC1fPXYSjw3pyC2D05h4+/HcfHQCr/6zJ7ceY/Do2W147YouXH9QLK9cksq/Bxk8e2YSv7w6kM2TBlI09hCePtdgSDeDmw8zeOi4GMZfkcyIwQbf392Wn0YeztBBsWRcnsxDpxg8fEp7vh5xHA8ea/DM6YYCKQ//KRXXE4cx9eZkPripLROuP5jbjmzLtw8O5q2re/Hg4YmMv6oH9x6VyBcPHso7tw/k1oFtGHN5e+4YZJB+eUem3jWYfw8w+PyWZIJv9SY4LlYZuZpgoymgkcS6qWfjW/8h4XAJoZDtirwlBIJdpw0udgcPNAQa6bhnnWZrNHYAXDUGGlXOjriXiDGoHBO/SazlW43g3R1805rLbB6gUb2U6q+2BBqmky7za1yARzAzBnd2OxY+2ZWhgwzGXNaeJRkX8OMjR3HPsdG8clka46/uyhMnxfLqRWncfEgc2f/ozPNnR5F1UQfWjz+bF/5i8NgpUYw8K46RZ3Vh2ZQryb62D/8alMqk247itqPb8MLfOnLz4QZPntuGCdd3IvuqVN7818E8eJzB+9enUPPmkdRM6ktRxgE8f57B/SenMe/Fk/nff4/ixwcGct8R0Xx3XzfmPH089x4RR8aV7Rh5psGYS7uyYPQ5PHmmoYDH46cb/HdIFyreuZDVY47hlxcOY+otB3HvUe2Z8+zJTL2xLyMGJ5FxSU8eObEdv2SdhfOZM7j1sDheuDCFYSfE8dXQQ5jzwpk8cLTB1JsSqZ7QjYBs4xVS2gwTaGiDU7HTqNdofAxssre32hOIPYHuEzygZKGy0QiIt19Ww8YI0LCNQberxTGBRuRQtYgxqHuR2GjIMfEm0CDiSXlXhLJ82Mn91rLUx57lLBVrmsoYqdd6rdug79Xl6nhraE1rqgzdHp1va3msZe7J610HGiEPoeolVH15PeWjZOkkrqGPCO1zQgGNaDzZaSx6vJO5VHJteza9eykL/nsSQ4+N4tm/xvDYnw3uOTKeMVf04rr+bRh9eVdGnh7Da2e3Y13maTx7qsHjp6Uw5V9HcE1fg4dPM7UiNw1MIuva/tw6KJ43bu7JM39N5L7jY3ntbym8cF4q79w2iNsPNZh8aRKBNwfgndiNdaN68vxZAlzaUT7pdAKT/8QvLx7NiGMNbutv8MjxBtf3j+PVy9ox8gyD7Eu7sPi1M3nsFIOnz2vH5FuP5NYBBs+cYvDk0QYf/bMt398zgFv6Gow6L56Jl3Vi+NHt+OiOI7jvKIP7jzG471iDEae0551/H8ldR0Tx2R3dKHjyOO4+1ODd65KontgDf+SIeQUuZIeKaIgioWiLajKT2fDxEMLFnwObbaCxTwgZ+2trT058rbOueqARFJ6OAA3PrNPwRWw07KWTrS8bNQ00ZNfJe+qDrE74QmTODKtwR3hBgwGdV5cVDAaVRlni5U+nW39b4/V9jUOdX+e1plvLDAQCSJ06v06TuMZpuiydpyXDXQQaIQiJjcYvVH11I+WvpSobDbUbI7J8Yj21VbaUujOTKH6lPXn3xbJgZFdKxx7K2td6Mf3eeAqf7MfCF4/k3Wtj+Oz2dnx3bw9mPjGA/BHdmf94Z0ozDmHW8I7MerQva8aezHf3d+TNf7bh2wd68/3wvrieOphv72vL76MO59dRg3n/pmQmXR5L/kM9+X3UMfx4XzJLRybjfb0b3nHt2ZzensLh8TgfSKU6+wD82V2pyj6IBU/25v1r4vjmrk5Me7AXhY8fSMFDPVjwRE82pA9i1vBU5jzejXXjT+GHB3ow4TKD3PuS2DTucIoyBzP97g58fmMicx7pSe7Q9iwfcwxznx3IlGti+eDmZH4bfTQr0gcz/d5kfnmuJ6te7cf0e2JY8mwangmdCGbXa4E0wKjTaGSKRkN2nZwPxV/YQMMGGQ0mt5acTOy6dxUsmkBDTnVQRzxsBWjsj/YXO/LMWwKNjrgXydLJ+0CZkt0CB6R/BchpqjtOYxtziVVoaxCg+d36WwS+BgKSrjUMOq811GXq+63h1u6VPFZAoctrfK/+rdNbOmwGoCEajaVUf30jm1+TXScxdT4nlHC0HA8fyojCnxWHJyuF4MQueMd3wJ2ViCcrkcDE7ngmHUj1hINxTx6EZ8rhhN45Gu8bhxJ6cwCBiT2pHJNKcFIf/JMOoGZCX/zvHIb7raOoeesYat4eTMUbB+N7sz81r3elcnwvvG8dhm/KYbgnHkT1+N74J/chNKEzgaxE/JltCI1Phcm9CL/Zl1B2onKaFcxOI/zGQYTeOhbflOPxTB5M9fiD8b1+IP5xfXBndCA8oZtqh3v8AbjfPIratwbjmTwA97geVGf1IDRlIIE3BuKbNIDA5AOpGtcL9+QjCLx/EoH3jqF2Yn+qx3Yn/GY/9dze8V0ITu6Le3xXPJkJBK2+RBprNLIMqrJTKPror4SKbI1GSw8gu/5dFa7Ne7+eYCWUd6PDPfWemhIsO9oG1VgFMkyggRVoRJZOdkTg7q95GgONaocAjYsI1XwA4TJERySgIhAK4QsG8YeC+CUMBgiGTC3BtvhEBLykW8GEfrcSJ+9e/nQ+naYiI/9ZedLKKzqvrt/6W19rABMpqo6/dbq1bGseXebWQuv9W8uzq/HNADTcCmhUfXMTZa+1JTxWvG7WO7uq02hEHGWJC21fepQ6s8ObGYM/Kxo5LMyXGYMvK0GBDgEealtpZiLezAT82UJx+CTv2DZ4s9rgyY6nNjuemqwEarKTcY9LpXZsMu7seDxZcXjHJeAeK1tTk/Blp+DLTjbLyWqjfH2Il9BQdpxyme7PTiSY3UZ57AyJoM9OxZ+Zhje9HZ6MNDwZKfgyk/BnxhPIbENAhckEstrhzW6PO6stnsxE/FJ2lgCFFPyZyfiEshLxCmWnKIDlzUoyf2dJu5JUm7zy3OpZEwmo7cGW/tOaoQjgEA+om7NSKfr0b4SLvwXKUSjdPi7e/rLfxhfZrk4Ue8v9eoLVk6eezK3xe8/1eijOxDPzNHwCNJxbXzbYX8GF9bk10DDjoqh2dMK96GJCNZ8ClX/otQvfCw9ZwYO1oMagw5om9+o/K0jQ8Y3LtI4xfZ81T1Nl6Hxyr6RrsCO/9bXOs61Q8gpZ29Cc14auYGfDoLi9DgUJBWsV0Kj94XY2vZpGMDPO3IqpvXKKTw25HmMgXi6Vp0vxdhlxumXdtqk9ftbF6TIiX/hhCS0kQldIvGVa4+XadCUeSdPlbCO0et9U7Yi0VbW58X1Sn8TpPI3Td+K3rldCVebWwoiHUF+6QWl2OzZ8dQ3hzS7C4UqCoRDm+zCZZWffpZ3f7rd9hQf0BNt4kvT7/WzevJl169axdu1aFcr17iRrPXK9fZK2rWf1mmLWF22ktnYF4ZLxuGediTcnlbDDIOS0aWt9EHQaBHT/OKKoyu1I7cKLCVZ/Qk3FajYUlbBmfRFr1q9j9bq1iuR67fp6PpB3tGbNGlavXk1RUREej6dOAFdWVvLRRx+Rnp7O119/zfr16/npp58oLRUXA9sX0lJ2SUkJwouaPxcsWMBvv/2G2+1WcbqcvLw8PvnkEzZulDNa6rV+mod//fVXli5dSk1NTYN0a15dlsSVlZUp/pNnsz5fbW3tFm3fHXPBLgINmaD9hN0r8M96nJLRXfGlNwIaVsEpZ4VokJFuqDNCNFDQwKAOPETOC5FzTiRNzhMRknR/5KAxOdNkWySnyAYiZ53IVlurULde6zNK6uPEyVhjqncFbuaT8mLU+SXmWSX1h7NtDTDUl2+WJfWapM9kkbNQtlJOBGh4Mgw2ju1M6Yy7CLsXEA5X2UAjgsZ3xwCxy9y7QJj+zXKo6AAAIABJREFUqpPJ1ev1MmvWLJ544gnOOeccDjnkEHr16kXPnj33CFnrkuttkdkmaVtvunXvS9euPfnXNX9mybTb8cz9C77cdoQdUX8IaAQdBsFcg9A+BVSkLzSZ4KsB0HAaVOZ0oGbBhXz5xmWcdcoh9O3dn779+tOzd2+6dO9G525d6dajB7369KZP377069uXvn360KdPH9LS0jjxxBOZOXNmnSBfvnw5L7/8MnPnzmXKlClMnjyZ7777DofDwcSJE8nNzaWgoEDFT5gwAQEDLpeLN998k8LCQsWHGRkZ6nr8+PF8+umnTJo0ScWPGTOG//3vf0pzIlqMUaNGcdddd/HLL7+watUqXn/9dQVyxo0bx/Dhw/nwww+ZPXs2M2bMICsrS9UtvyWf1LFs2bI6LYyMhQcffJAePXrQrVs3xYdy3bdvX4499lguueQSXnnlFVW/BkF6HDXX/GdIgX+EAvq+UICQpwjfknQ2jh1ATUYCIdEoRM7naBAKaIiADXEjroBDnbDVQrf+XpXHAjTkUDO19GIFGnItB5spMtP9YguSHq2WSAIZcvBZtDr/pL4+Eez1JMK9/nd9O+qBQH2cHKqmzklRB68J2IgmlC5k9YBa/wzW52+qvPo4KVfK20o5EQ1QTXoUG8b1YnPB44T8ywkFatT7CwRDf+g9/pF3b9/zx8aM3W+7v9/0xJifn8+VV15Jp06diI2NxTCMvYSiMAxpbwzHHZbKt6+fS+2sM/DmtieUG40CDQIcdoRyDQI5JgnICOYY+HMioMNpliHaASkrIHktJHFac7BDdUl+CwmwkfJUObqsJtqs8+xoHXX5cqMISn9IGCk34DDwW+qoyGlH+dxzeebeA+neKVr1qWFEY0RFERUTTVRMDEa0/G6aNwSYCojQPLVixQoFIgQQ5OTk8MILLzB69GgV9+KLL/LNN98oQT9t2jSmTp2KgA3RSjz99NP897//VYDg+++/V0BAgMfKlSt54403+OyzzxAAIVoS0TzMmTOHRx99lPvvv58PPvhAgQ6n06k0El9++SXvvvuuAjgCep5//nkWL16s6ho5ciSff/45r732miqrokLOwTI/FP71r3+Rmpq61TEQFRVF9+7deeyxx5SmRu4TwKNDud6V+asZgEaQkH8zgaLPKH//bEpGtcWvhLEpnK2CdlevtVAWsLFjtCWAMAV5BCAowd74Wu6pBxbbvt6y/G3n31a5uqyGeer6TE6mzYimPD2ejW8NJvjbeEKBIkIBtw00NOi1w12aDHZlImkN9+pJVb4UTzjhBJKTk0lMTKRjx46cdNJJ3HzzzeprcNiwYbQuelC158Fhwxn24AjuH/oQQ4cO47uPR1H9+3PUzDoTT04aIYtQ1cJ1a6ECCQIgIkBDCf46oGFqAuTeOqAh+VT5puDWIKMuXYOQSHlSrlXI17dD7tdlROqRe3MEGEQp8CFgR9dlaiUEQEne6AZkllMPJOrrEABjlqfrkrQGQCPX1Gh4F1/MxsUvMDHraR4e8SgjRjzM8BEjGDZc03D1e8SIETw0YgQjhg9n+IPDuO+ee3jpxRcRcKH5SpYcnnvuOTIzM5UwFxAhQEEAhmgRnnnmGV566SWys7MVABFNg4AMKVs0GEJvv/22Ahxy/dVXXzF27FiljZCyBIQI0BBNiaS///77vPrqq6ounf/HH39UdQnYEG2IAB3Rrki6tEs0MO+88w4//PAD5eXlaplGQIIs+Ug7RBsi9NBDDyktxzXXXMOgQYNISkoiJSVFgZELL7xQLefo5/b5fKqcXRnjhjRiV8gfCBL01xKsmoPbeR+rX+2IV7QVon2Qr/Bt0RhJj9phkvJ2lVR9Y2IIbo3SzWPfd7We5rq/rv/GGHhHR7EpPY3SLy4kWPYjAX8ZPr9HvT95D7vyHu17d20c2P235/tP1Ly632USlGtRKR911FEkJCTQvn17LrjgAvWVJ5PurkyULXNvEYGibKoL/4x7RpopqCMCVYTqtsgvwt0ZRbAwjuCcRJNmJxDIj0GlyZe/aDM0uczylDDPjyI4K45AXgxBl0GwwFChVeMh1yZgiGhEVHlRBPPjCM5MJji7HcHCVALOOAICCnQ90u6IpkPVZYm35lHXFu3EFs+qQEu0KluniTbDZ+kXsdGoWXgB/sqPCAbL/tD71/wlodhriE2FAAtZ0hD7BrHTEDAimg9ZrhCBLuBBNBCiURBtg6SJzUdxcbH6LbYaovWYP3++0lKIjYfEbdq0Sdlq/P777+pe4TlZNpH7RIMiIELKFNuMRYsWqfxSv4APaYPYc0gZAojkHlk61O3fFv9KXtGoHHnkkQpoxMTEqKVGeUa5T5exK2EzAQ0PQc9v+NZOovSNIyh/xUCWOfwitBWY2DbgaC6hvCPlmEAjmuCYrVArAxoB1R4BYwY1o2Mpff1AAvMfJhBYhN9XgX8XgeKuMI99754Xrnaf16twdV/oSVTWyM8++2ylxejatWudGlinN86v41tbGJCPBl+AYGAlgaJ0qgr/TO2MtuorXgvVrYUioCXNl2Pgnh5L1fQkNn2fwvovEqicnkpgdhre/Di8IpAFRLjM5QZreb6caNzT4vBMi8UvAl0L/IixpaojUo/SJOSa9fkdsQQL2lH5fTLrPoyh6of2BAs6EyxMIzgvjeDMNgpw6Lp0W1X5kbJ1Wl2dkbqt8ep6B4FG9YIL8Fe8TTBYQsAfxO8L4PNJGMTvD9R98SsekOUBn5+A10dQ0ny+BsJa+MfKK41/S5oIeTEaleum0q33N3W9M/dI3m3lF02ETpdQfgtYEgAiJEDd2gYBRWeddRYdOnRQy4233XabAkj6WXR9fyQ0pLJdIZ8/oF5MwFNKoGYe3tl3UTommdrRkeUN0Wxo2opGwi/LAnuIlOAeE01ga5Qu9h17rj1N1yVtMNuhlogyDbyZBmUZKWz89HwCpZ/h96/D4/fgC5iDZVfeoX3vro0Bu//2bP/piU73u/yWLzlRCYtNhkyUd999N2K811ReHddaQyUAvQEC/lUEirKoKjydGgEJokXYARKQ4c9LoPS7FMbeHssN4uH4OIN/nWjwzgiDDd+k4p/TmcC89gTmtsNfkIjP1QZ/YRqB+QewcHI7XrzcIPe/HfHmd8Wfn4wvN06FHkcKXlcKgUKhVAKF7fE7kxXV5nbixxcTefg8gxuPNLj9OIMfnk1h2XtJfPp4NIunpFGb2x5fodTdk8DcrvgL2uJ1JePLa0ugsKNJBRJ2UumBme3w5grgafzsUfhzohQQ0mm+XAOvzpdjUD69A9ULLsRf8Q5+9zp8Hq8CGibAkHmzHmgILwVEFvp8Zj6vF5/Xh99Xz9sipDXPqfyRuVcLbp0ufCXpEq+XHXSo03S6tTx9rfM0dY+k6fp0+RpANL5f/9ahLk//llDfK6GULYaup59+Om3btlVjSZYhZWeL5NXtst6/o9fNAjTkZQS8bgK+tfiK3mHzuyez4WXxORFrGmmmR6O/zJvSOjQtbHePsG/9QEODjCjEqFV21Yj/kPKMOIonHox/yfMEAkvw+0vUsoloNHb0Zdv56icNuy/27r7Qk56EQmJcN2TIENq0aaPsMcRoTufRE6zO23rfvRZ+WlMWARoFZ1A7va2yt9BCdWuhfO0L0PC5Eij5vjvPXp3KE39PY+57Z5B5z4HcfbZB3rhDmPtGDzJvNxh3p8Ev73XGXdifvIxUXr/D4KVrDO44zeDdR3ry5fPt+GliChu/ase05+NwvJbAl8/E4UqPYeXHbfnmqXjmZcVTU9iTRe+k8u9TDZ6+qiPz3z2Dz57tw4ePxJLxr2iuGGjw+KUGv03tx9yJHRh1g8GYmw0Wv9OFFZ914JsXYph0n8EX/zH4eUoH3nkokdeuN3CNSaByWkd8jnjzueTZBEgpQLENoJEbxebpHaiafwG+incJ+DYo0ODziqCWr3shU9A25gfhFwEZmm90qPnJykc6Tpeh7pX7I3YNOq8OdT59n4RWwKDvk3yN75E4DWZ0OTrU5Vnvs8ZZ8zVVrvU+MVyVHSnx8fEMHTpULetY26XL2pnQsHbMH7v24/VJB/jxe2vxe37FvSyT4glHU/FqHP7RRj3JckoT5BtjsKfIPyYK/+jordOYqD3Wlqae2RvpC3PpyVD2LmWjYlg3rifVhXfh987G69tMrbcWj6jAIkz9x96dOSDse+1+2Jt4wDox68lOjONkjVm+xGRboKyXS5o8l1YX62fU9+yJUNe5Y6G014+vTsu8Et+6dCryTqd6Wir+GREQERG2ClA0ce2VfHnJrPvmQJ64qiO3nteZCU+cxkNX9eHB/0tg7ANduf+iFJ66rg33XhDDo5cbvDEihjvPiubhS5J4+NI23HCqQfq9/bnznM6MvbcTS9/vx2MXpJD17+68/VhbHrnMYOgFBsMvMHBmdMVdeADFPx5G9n0duPp4g1vONpjyeH9WfvU33nviAP5+rMFLt/Xm7Sfac/tZBk/9I44HL4rhsSsMJj2cwrUntuHWswyyHkji7vPjePBvBk9cbShtzKcjU6mckYbPEdsAbJjPH1UX580x8NT1RxRlP7anYt75eDe/i18BDRnn9QB7m0DDMq9qfrPyi7xP8X0hvKXfraTLb4nXcRJKvP6ty9K/G6db8+o0XY+UrevT+ayhXDf+ba1Hl2fNp9MlTrdb7FBEqyHG1Oeee66yCdHl6vw7GzYD0IhM0l4NNNbjr52DZ9EzbBo/gLJX2ijBLVoL35hoRX4VikDf80K9HmjENAIbkd8t0CbpBwEYnnQDd7oZikFt7RiDTa9GsTajKzV5t+Kv+R6ffxUefxW1fi9unw00dpbh7fz7BqjSE5+eNMXiXvwfiJ8AsfwX40+Z1IV0Xv17T4RWPtNt3NFQgIYJNlbiXZdBeb4AjbbK+HJr4ELHy5e+XPtdSaz7pi/P3dieS44x+MtBBkMOMfj0pdMY+8AArj7B4IlrU3n6xkQev9rg3iEGQ883mP3t5TinnsvQi5MZfdcBDD2/E+88MoDVX53Ks1d1Zfy9vVgz7XKevvFQju9qkD28H6V5R+Mu7E7JDz1Y9umfmPv2mbz9ZD+uOzGOF65P49P/9Gb4/6UwPftcsu4bwAMXGPyUcyX/z951x0V1rO2zoGJBUewaWxKT3ESpmkRjyk2/6e1+KTe5N97ce9NNjCYald5FRWOJJcWanmjsFVBUVGy0XXZZ+rK7ZxdQBHbxr+f7vXN2dg8ICgqIcP54fjNnzpwp75T3Oe/MmXP09wcw85nuCHq1F/73SDfsW/k4jqyfhLcf6IVPnu2NRR/1xfSnu+KXIA9Y9/XFxUPdnKSC9o5cTOKQ6lyXaAgo398X50//DbUVm2REQyIbEslwEQB5e9X31283fp/3K+7ycHJ5GPU1+TVPq35cHp9cTiYoDn+e/PJwHp+nQySBx+V51I9DcRu7R89yokGHir3wwgtsY6i/vz+zFvK0eX7NdQVKoKVAa2AXa+2otZXhYs0Z2HPiYf3OB5YFbrAvoaPHBVwktwHQFxXNA32F0XxcXELkxl3CEjdcdKB2sQoEun816bbIMzLLDpEMMcEdhq9HoPrwe7hYcwgXL5pgr61C1cWLDDUXayWrRgu2YUv1BSWdlhtXiiwblyWf8OjzQiIatAmUiAZ9Jkhyo8m5reV3rXnaScGwN+p82AxfoezwA6jc3xsXEwWQteJKYKQjpRcM22/CrJe8EPzPsdiz8jHMeHEEEt4fg29n34R3HuyKBR/cgTWzx2DdvNvw9ac3Y+rk7lj0/ijE/m8AXr9XwLLP7sSnTw3Dx4+7YenHvfHWPR5Y9N4Y/Bh1Jz5+oTdeu1/AtBcFHF03HPbTo3F6bU/MfFxA3L8HYfeyu/HJ04Mx92UVfg4dgPce7IUVn9yBDXOH4L0HVVgzcxTi/+eNGc+74atpo/CfB/vh15gpOL7pAXz4t76Y++YorA31w8L3+yF5+WBUJg1CbXJXZ92JZNQmuqE2kVxJJvZEATaZfMr2eeHcqcdhL9+Ai7WluOicJ0lpX0QtwdFHrqbNqO9dy/PyfsnTkodxf0P3eHm5y+NercvTobyIaLzyyiuMaIwfP54dOsaJzNWm36JEgwpBBb14sRoX7QZctJ1EbV4CKn+4B6ULPVC5WCIGEtEgJd8F9iVdYFvSBTUy2JZ0xZVAz9UucW8U9iXuqFni5oRtiTskdEHtV91gX9KVgfw1i91RlUBxqSyUt1Qm1zP82ZZzqXwEyqPmK3fYHFYNsmxcWCKgNKErjGvvwMX02bhYk4iLtQW4aKe3NDvstRdhq73ISAZbPnEOoMYn5KvtIMpzikzbcx+Q5puL7AwBWlceNGgQO+uAPhnkE7R8Em2Pdblopw2IEqh8LqJRALthKcoZ0fBsMtFgSyeHaI/GYHwz3RPffjEQhbsfxs6FN2PJuwIOrRyPH4NvwvQnBUx7TMAf4SNRuPVB/PDlcMx+XkDIawLC3xKwb5kPti8cidkvqhDyqgoRbwpYP28Alk7zxNqggTj07Z1Y+lE/7IrzQEVyf1QeHIH9iz0x7/8EvPOggLl/F3B01a0o2no3Vn3YH7FvCEhdfSe2RA7CjKcEfPKEgJ0Jd+D4Wl8se78PkpeORcXBB3B0zWiEvN4V7z8iYPF7AnJ+GQzbwX6oTXJzWDSIXKhQe8DhNko0+uDcqcdgL1+Pi7UG6SWYzZVEEDiU8c36nGwJiBMNOldj3Lhx7FPdayYaNAhbCja7HdU1NlTbalFDa1U151Bry0StdSNqkt+A6ethMM13R+VCFWyLBNQS8UgQUCv30zWFy0FnSMivm+qntOqDP7tUQO0ygS1ZkHJn6fNykKWEwloKTbC82JYIOL9IgCVeBXFZX5zf/gRqi5aitvYkau0m2GzVqLbXwmavhd1Wi1qb9LbWUm2npNNy40CRZdvJkk+StHRCRGPgwIGIjIxkb2X8Hk2S1Cb8ur21D41lDiqbjczYTCHmw1ayFGUp9+P8fk/25k5v7U2BLdEN1Un9cOHQbag8dCfOJd+CqpTbUXlwPM4nB+BCyiScPzgR1SkTYEvxge3QnahNmYiqlEdwLuVRVBy6D9bkCShLCUR5ymRUpDyK84cfgyX5bohJPiijdFJ8UHPEFzUHR6LmgCdqkvrDftQXZQfvhWHfJJw/fD/sh/1RlfQXXEjyQ1VyAGwpAbAdvhflSZNRceheVB2dgHMHx6EyeRwqE29BZeIwVKfcgYqDEyEmBuL8obtQmTQYVQe6MmuFq+4q2A+oYE8kSDIha0aNTD7WfX1QcfJR2MrWotZeglq71A/sNIc60XZ9tb31O3l55ESCzuMgiwYRDTrMi84EoTND5PGb6xea+0BT4jsLba9CbVUpam1q1NYcQK3hK9gOvomyNWNhXNAdlvkCKhYIuJAgoHqRgJpFAuyk7LnC525DipoThvqunFjw53kcnjalt0zFNlo6yQaPQ648jWv1U3oNlJ+WkmyLBVQtElAWL8C8qBusq0fAtvUx1GqCUFuzG7X2LNTailFrr0CtnRpaPkDkfmWwNKVfKnE6Xj/h5IF+dEVLJwrR4EREhZrEbqhK6oMLiX1xIbEPqpP6wnawP6qTB+JC8mBUJQ9GdfIA1CT2Q/W+PrAl9octeRguJA7GhaRBOJ/ojXMH+qEyeQAqkwczVNGzSf1xgUhMUj9UJ/dDTZInbIldYE/qhppEL1w4MAAXkoeiOnkwbIn9YE/yRu2hQbAfGoSaJG9U0WenSYOkciT1QxWlQ+6B3qhK7IkLSX1wLrE/Kg4MQOWBfqhO7AVboruTUEjEoqlE4zEH0aB5VCEajc2BTp1dW8sO/mpxokEZtAZqbHYQqgjEhmossNv1sNccg92yEfb0WbDtehbnf/SH9bsxMC8bANNiL5gJi3rDnNAL5sVyeMK8uA+DmNAHBEsdeMGSIEFc5AUxoS/MCf1gZq4jXUo7wQumhX2YW7lqKGrWDEflisGwJPRF2eJ+sC7qC8tCKgPF84JxoeSSv/noA9PC3jAt9JTqtKg3KzeVwbzEG+YVw1C29nZUbXkI9rQPYC9dDnvNHtjtWbDZRSa7SrsdF8hSZKPdzGQlcrj8mrmt04at0S+UNJW2ask+QBMnpUc/pZITDXor4/fobYzi8OuWzL8l0rLX2MFB6ZE1mGC356Gm+CtYD92P83s9YT9Ah3A1HRS/IVAaNY50mNKmePs5QXG49AUHWQccX3KQtaChtORlauy+0+Igz7NeelQmisetEtVkneBlaLDOKtj2q2A7QJBkQnWqlsW17O2D8rTHUGNdC7utCHab1A/YPOqcP5XxyPqczGJBJ4W+/PLLTosGnWxKZ2lcS18XruXhpj5rt1XBXnNOIhs19OvdQtjtathrjsJ+bjvspWth1y2EPTsC9swQ2DOCYM+YC3vGlw7MgT1zHuyZQTIEw54hBz0XCnt6iISMMPbliz0zHPZM8odKaZOriUKNLhaZq59BxJNdsD3EB/bcONjzF0hpUDoMlCYHD2uq66jH2bmwn54D+5k5sJOfgeoXBXveCtgtv8BevR92+0nY7RrYa/JgryqFvaYcdpvUuDU0+TgHhkI0mtrvlHgdfxLl5KEjE42yqyQaXAE35NYcUDnJBlPypKD3E1So2S8wUDjzy4hJQ2k1HOYiAA3fb5wwEWHgkBOJuuk0lWg86iAaxQrRuIxRQb400ipEgzJobdC+jQs1NlTW2HDOAbq2EWxVsNkssNmKYLPpYLPlwGbTwGbLhs2WCZstw+FmOcIonKB2xKO4BHpO6wClkwubTV8vTYpTiMoyPfb/FIspY3tjuJuAu0f0xddR/4Otip6n/RDkUhr1wdO/nEvP0H1eD15OcqncVA8qb4EjLyuqbJWosNlQRqixobxKkhURDFKWrvYhf0No/TZ0lUHJS5FF++kDfHzIiQb93IomS36Pt9f1IJ4878u5tmobOChetY32udHY16O66CtYD96Pc3s8YdsnkQFOBK7WlQhFw2mRMufpMj/l6ciXnuP3WtO9XPlc+apQs88NNftcxKh6v4AqWRnFPb1RlvYoqi1rYasphq2m2jGXyufQ9tOXL9dHWvue3GIhJxp33nkn++lbVVWVTA81X2ZCa1fAlb7UuHxA2apqYLtwAbaqCtiqrLBVibBVmWGrMjlQCluVAbaqEsmtLoWtDkywVZsvBaVRaYTtghG2aopTClsNpVPM4opmA1YtCcfwfh4Y1LsLbh3qhdEDe2OIlyem/e9NVFeYYKu5AFsl5W9ypEP5UFqUZkuAl90KW00FbLZK2GwXUFNDoAYl8EHR/EZ1yVx5VpFFx+4DnEw0hWi0177gnBOraY68AtFoIbLhUtitTx6q9wkgUJ5y/7WVoSlEow/K0h5DtWUdbDVFCtGgvlXdsF5pdaJBGbQdalBT5UJ1VQ0uVNWgsroG56prUFFTg/Iaya1whFF4c1FRVQOOypoanK+pYftECoqK8cXcCHTr1R/deg3CgGG3YejIOzFw+O3w9B6JXn2G4eU3/gddgYhqx3OUTvkFKb3mluNK8c9X14BA9a+qljpBdXUVqqsvQHLbsm2UvNpuHCiybilZM8VcXc1+l833aHCLBr/XUnm1Vjp15sTqajZX0b62mppcVBUugSX5flTs9kTNXsEJrrA7rbtXhWrCPoJEYKr2Cbjg8FOYuNsL1hOPo0pci5rqItSwuZXGHs21HJ1rLHKyXb8vyy0WJpPJuUeDLBr059gLF0gnXb2sBMrg+qAaVVUcUhkuVFWBoyXKJAmGFHc18vPzMHPmDHasau/evTFkyFCMGXMrRowYjdGjxmDYsBHo1asPvLy88fe/v4bc3Pw6gm2J8jSWBtW57r0L9a7r31eu68pLkUdnlQeNbar74sWLnZtBw8PDQZMlv9feZVN9oRocVNYL1dUM1dU6XChYDDFpCsp390L1XsEJUqqtCbYM0cp5XFP596pQtY/gkgORjErZtXm3FyzHH8cFcS2qq4pQ7Zxnud6R+k577x9tUT45kTAajXjppZeYriSikZiYyP5Iey3luI5Eg5QpR8sqColgVDtZmFarxX/+8x/07NmLCe/mm2/GnDnz8PzzL8LTsw/uuWcSoqJicN9998PdvSv6evXDY489gUOHDjsnqwsXKll61yJs5dmWbWdFnoo8OZnoaESjir09NkI0ZMpUrmg7l78uyaC6N0401qG6qrjTEw36fT0nFDR38rFDfh5OYc0lGvQs4XLzscAj3XguCacxXHAysMzMTDz33HNwd3dnJOP2228H/YApKysbr7zyKrp28cCUKQ/gzJl0pKWdxH2TiWx0Qa9eveHrG4Bdu/bUEeCNJyepEyjlVuTQEfsAnyTrEw2aLPm99l7vqsoqcFBZKx2W3aoqLSrzF0NMvh9luzxRtUdA1V4BFxQ0KIPKvQIIXD6mXV4Qjz2BSvM6VF0oQpVDIdbVG51nXiCi0RgZkN8rLS29xKJx/vx5RibkY0meFt3nREYeh/s7JNHgQjt16hT7C12XLl3YXx0DAwOxfft2JmwiIC+9+DI8unVnFo3U1GMs/OzZs3jqqWdYeO/eXhg79jZs2LDB2UBccIrbeQao0tbtt605megUREOmRLkyVVwXsSCScV4mI9NOL1iOPYlKcb1CNGQWB9J9mzdvRmFhIdNrpC+5zqTxdCWiweOWlZVh69at7F8odGz55eZJgWfSUVxiVhXl5WxdacqUKejevTu8vLwwadIk7NixwykM+hUuWTp69OiByZMnM2FxQWVkZODVV19lB5bQb6fpGNZvvvmmDmPrKPJS6iENMkUON6YcaMxS2yUkJGDEiBHsZFDao0GT5Y3SphfOXwAHlfk81Ym9fefgfF4CzEn3w7rTExf2CKhU0KgMzu8RcE4mH+OOvhBT/4bz5vW4UFmECw6FWllJfYbjxuz3V9O3aazQi/TDDz8MDw8P9gtKtsFzAAAgAElEQVT406dPM51YUVHh1G8Gg6GORePAgQPsb8g8T0qHflo4c+ZMeHt749Zbb8XevXvB0+Dx5G6HIxokhLS0NNw9cSIEQWBE4sknnwQXKN0nENF49tln0b27ByZNuhcpKYeYoElYdF+j0eC9995jf7AjMkL7OtavX+8kKnIhKv7OM1iVtm5fbU1jlV4uFi1ahJtuuokRDfrqhJZO+Fhv723GSQa5VNY6RCM/AeZkB9HYLShkQ0Yk6pMuIhoEHm7c0Q9i6lMK0XAQLBoPRDQeffRR9hJN2wnuuece9lUJJwkUh4gGPxmUNoNyosGXT8gS8tprr2HAgAHo1q0b+8cQEY1z5841Su4FergjgQbq6VOn8PBDf2V7Ml579VXo9XppADvWkSgOCVwiGt2ZtYN+HMMnJJIH+fPy8jBv3jy27OLj64vf//iDyYoE2pFkptSlY42BztSeNE6pvrR0QkSjf//+CAsLq2PRaO/yqDxXCQ4q6zmqE1MOGlTkJcCYNAWWHZ6o3CVI2C3gvIJGZKBCJZONCqU7vGE++jTOmTag8nwhzp9TxjmNlzNnzjCrBlnr+Uv0li1bQH88pvslJSXMokE/VSOisW/fPqe1gpZdnn/+eUZU3NzcMHbsWPz222/s/yicaDQ03jok0ag8fx7GkhKcOHYMZpPJSSBIiBxXIhrE8Ehg9M+EjPR0ZGdlOZ9tSJBKmDKIlT7Q9n2AxjPJPTo6mpEMmjhnz57N3sr4WG/v7cJJBrlU1isSjV0K0WiUaO1SoXKXCud3EdHoD/PRZxSi4TAm8BdkGhf0JSZtD6ClD1pGGTZsGL799lv2WXhxcTFefJG+yJSIBlk0SB8ePXqUbTPo2bMns2RMnDjRaQ1h/fYyL+ACZd6RcJ4qW3GpxYHqSOtKvK7E6rhF495770XywYNskDsnpXPnUFFW7kqL5FReIV1XdCyZcZkortKuN1of4BPcTz/9xMy9zzzzjHPCvFHqcr7iPFygPsgJmwbl+kUoTZwCcYcnzhPBcODcbgEKGpABIxkUroLBYdGoMG7A+Yp8nFPmbaf+o3FTUFCAt956i5EN2ss4ePBgrF69mlkDaWmkV69ezKJBBIPIBi2z0H5HIib33Xcf+3086VT+Uk7jjfwM5edQIUPHIxpEMghEChwD1ln5igon2bgs0aDnCDytRtwbZSJTyqkQiI7aB2hsU92cLwiyt7cbpc4ukiHNOQrRaIBANJlYkTVDwLldKhi2k0XjaShEQ5r/6o8Ruqa9TNOmTWNkg4gFLT+SRfCpp55iFsLxPj6YM3cu6ItNOuiS9mQ8/vjjbM8jPU8fXpSXSS/wdM3HIvVhOQS5Eu4IfrI6nKOKEyrOMSHQ2hN9fkOf4/A60uZQsmgQO7vn3nuRlJzsZHuM+RL7pbQuA56W4jpYLGeziuvsZ0rfaL2+cTkicSPJ/Vw5zTUcJC9OjNUoy10Ew4H7YN7eC+d2Ck5U7BKgoGEZnCPZ7FShZFt/mI48jfLSdThXnoeK8tbri9fe3yQLgKsf8P7Qgq6zX0l5lVnJGiH1tfCwcAwZPBQ9e/SCV+++GDb0Jtw0fCRG3DQK3v0GoK+XNzvy4fVX3wDt02Bjr4Ks/lL5uNtY+Tse0SAlRySDCIKMaFjLrE5rBnWKyxINWia5EtFQlKmiTJU+0OZ9QE4uaBzXv6aXCb5EKp/8uYlXHtZe/HUn5yYQDYVkXJZkMaKxS4CB9mikPo2K0rU4V5HX5n21qf2rvKIc5RVWlJ0TGaznzGgNlJ8TQbBWmGGpMLO8yK04J1kkFi1eiOEjhsLTqwcGDfHGsJsGYcjwgfDy7oXunt3w3of/hSZHw8acpVxKg56nslLZyaVrCSIsFS4INAA7Omjy4RMQrysd5sUtGrRHg34cQx2D31fcjt8vlDZuv23MxyKfrMkqyccwD+Ptx+Pya3IpTD7u5c/yeDwdnja/5vfbyq0oo5cjF8qdb97ZsOoWoeTA/TBt80TFDgHlOxVcSQYVTEYqFG/vD9PRZ1BuWIeKCn07nttJP1lgLTPDWi6irMICa4UIscLUIrBUmFBGhKDCxFBWQWRDhKWM8ioDewmvkMbMmjWrcMcdY9GvX28MGzYI3v37oEfPbpj26YfQanPYuLJWWGBxQKwQYS4zwVJOaZvBCEg55SXlwfIpN6NTEI2GJgyFaLRfJdNQeylhnae9iBTIlzvNZjMInAhwAkHXvF/we425FI+WT+lna+TS12Tkp3Tpmu7zZ3mabeXKSQb5XUQjE2W6OJQeuBvm7T1AClRSogrZqE82uGzkbsl2L5hSn0B56feoqMhjcm2rNm16PmUoKy8DWTV4/7ve7v5diXjkgSfg1cMbY4bfgq+/WoPiopJrKp/AB21nc0+ePAnaoU57NLhFgzpHZ5ODUl/J2qXIoX3IgU/Q9O0+fZ+v0+nYccl//PEHOw+H1ofz8/MZOaBD9TZt2oQ///yTHbBHn+zRPbqmU4Bpo1tubi47D4fSpRN/KT6dmUP47rvvsGLFCmbN5Hu4rkc/KLeWwwVqB04qMyFq56Nw70QYt/ZA+XYBZTtUsDpA/rIdFNaZQTJwk7DdDWXb3VC+ncJUKNraH4bDT8Nash7l5fmwlpXD6rBuX492rp8nWRIIRDQspeVI3aPBrg2nsG99JpI2qpG8SYND14CDmzQsDUqH/IRDm3JwcJMWyT8QcpD8g4Yh6QcNkijOjzqc2SliRdAW/M33HQT9ZyWO/p6P1D+KkPyjDkkbcxgojZQfcnH4h1ykkH+TFoc2kqtrAFooREMhGgq5akeTT/3JqLNdc6Kxc+dO9vNDIg/0X4aoqChERkYiKCgIK1euZJ+wLly4ELNmzWKf5BERoYO64uPj8cUXX7BzNYhIhISEsOcOHjzIDulbs2YN9u/fzw4hWrJkCbtHpIQvn3C3LeXuIhlEOOREIwflpetReuxlGLYNgGWbCuW0fELY7nD5dT2y4YxXL/xGIyVUj/plltetvr9suwDrdgGmrV1RvGssxMyPUG7ejrKy4nZINCyMZIiF5VgTtRvvPLgE7wR+jQ8nrsO0CRvwScAGTPNfj2n+6xwgf33we+TK763Dx/7r8HHAOnzkwMeBG8Dx0YT1+CBgLT6asBYfBH6H9wO/xwcT1uH9wHX4YMIGzHr4T4T8bS/mPLoN0+79ER9M2IiP7t6EDydswseBG/ExKxuVr2F8ErARLmyAQAOrM6K+RSMxMZEp3M4oC6XOnXMMtMd25wqefn5IRIE2bf/4448IDg5m1zROly5dyj7JI4JAJISOH6fDhoiEhIaGggjEunXrGDmh5+jUULKQkDWESAo9R0SGnqODvshPFo3rJY8ySxlcsMLKrq0osxSgzHoUZcXLUXbqZRj3jkbptp4wb3NjyrRsO1k33GDd4Q7Lji4M4nZ3WLa7MVi3UzwOFawUvw4kpUyK+fqifrnompeb6qKCuF2AyFzpmsprIexwYKcA0w4BJVvJkuEJ476/wJr1X5SZNqGs7BSsViMsVmlJ7nq1c/18LVYzs2jkHC1D2OvbMHPSLoTedxKRkzMRNTkTkZMyEHlvBiLuTXeArjMReW+WA5mIaPA+xZE/Jz3P0puUgYg6SGf5RUxKd4ZT/nXjSM+ET8oAg7M8UrpRkzIRPfnyUIiGw6KhEA1F2dafCJTr69MniGxkZ2eDrA/0Tf+yZctAB3IRifjss8/YP4d+/fVXkEWD/mtC5GH58uWMaNCBQ99//z37CSKRjQULFjA/nQRMZIJIBT1D1g86dnnbtm1ITk5mezUo3+vR5i6SQYSDCAZ3RZRZClFmTUOZ+UeU6eei7NSLMCf6onT7EBi29IBxqzvMRBT4mz8tr1wjGiMd15rutTxP9WNgy0dSHamc5m0CSrcJKNzWFcW7B8N0MADWM/+HMkMkysr+QFnZGZRZi2C1iu2IaEiklhONvMNlSPh7GkIDcrBwoojFE8uQEOjCooAycMjDyc/Dyb3cvYbuJ/jLnqHnG0ijfpoLKU9Z2erfl5dH7hdo8HVG0I/X+B4NOvGMTj6jSaYzyuL611mExcJhhtUihwlWiwKXDCTZWCy0iZHLjNyONY5pLNIeC9pzQf9eoNMJybJBlkhOBuioZALVneIUFRUxwsA3epJLYRSHP0Mu7dugdOVhcn9by9IqWuGCBVaRQ4RVLIXVnAer6Sys4iFYrX/AWroE1pxpsKY9AzHZF8bdw1C6vRdKt7ihdLMA4xYB5q0SxG0COJgFgFkGyDrQOIi41IUKZmZNUDHrAlkYeFpyl/aOSNYHskC4IMXnzzosEdwiUc+awtOTWyxYWbdJ9Sn9U0DJHwKKfhNg2NIL4t7RsKbcDeuZF2HNnQ6raRmsVvpvB8nqLKwWHayWEkjjpb3M79J4FWkMWy3QHrRi/kspCAo4jbi7SxE/UcT8iWbMn2hiiJtgBAcP4y4PJ5eHcZffmz/BiPiJpmsGpRfrgJR2KSuXVFYqr4j4iRZH2enaBYVo0IFdCtG4bopKtFghh9liBcFErtUFk9WK6wF5GdqLXyS5OOQkl11bK8jWyo+UPk+b++nrECIOdE0u9/P75DZ0j4dTevQMuTxMniYPI5fn3Vaui2QQ4SCSQQTDAotIdbXCYrbCSiBCYimB1ZrpUKS/wiouhbV4Dqza/8B6+llYj94HS/JdMO0bhdLdg1G6sx9Kd/aGaWd3GLe7w0j7F3YIMO8QIO6UYNkpgCBSGMGxJGHdKYCDliiYRYHCaLlim2O5hcJ5PE4aeBi5PIzH59cOlxMLytNE1ontZKFwQylZKLZ2Q+Gf3VG83QuGnYNQunsUTIk+sKQ+BOvpl2DNeQ/W4ghYxW9c5MKSCatYArPZApMojROx3ZFwx4uBlfqzBdpkKxa+mIrQgHTMn1iK+Aki5k9wKWm5wr4af/xEMxZMuHZQOoRLy0DEyIL4idZGIfBB29ncEydO4Omnn5ZOBr3nHrZBjE9GnU0WbV9fMyyiqS7oM0OzCIvZAtFsgVm0gCYIM32SeB1B+VM5OOiah1mYMiCF0HLg+dRXcs5wkgvJiFymcEmWIiwiuaSM5ZAUctu3b8vny+VxuboQceDkgY9lHsbDL/d8+7sntTWNCQlGWMQiWEQ9LGIOLJZMWCynYbGkwmJJgsWyHRbLj7AYV8BSFAmLbgYsGW/DcuJ5WFIfgZhyN0yJt8Ow9yaU7O6P4p19ULSjJ1t2KNzqjsI/VSjYLKDwdwFFvwso/oOsBhJKNgso2SKg5E8BxZsFGLYKEPf0hHlXH4j7+sGyx0OKSxaVPwWYtggwbhZQusWBP2VpbZHSKNwsoGBzFxRu9UTxzoEo2nUTivbcCsMBX5gPPwjLiWdhOf0aLNnvwaKbBUvRfFhM38Fi+R0Wyy6pzuJRWMRTsIjpsIgah2xIRqUQRZNsPLR8n7z6/iKRZjOVzyJCm2RBwsvHEBaQifmBBsQHEtEQET/BjPjAjgGFaDgsGrQTnU9OV9+B2lNnbp9lMYsiIxEm0YJS0QKD2QKjg1RwZSK58uUA8tNSQWcArzevM537wOtdd3mEyAeRMJIfB8mVkTQnEWmf/aClx1jdvsNJ2I1ed4lQUnsSqG0J1NalZheM9PbOyDn1GVom0DoISIpDIf8Ki2UdLOIKWExxsBiCYSn4DBbdu7DkTIVF8yYsGS/DcvopWNIehSX1flhS7oXl0ASIBwNgTvaFKfkuGBJvR8mBW2E6PB6W1Lvxe8wA/Pd+AbNfEHB801hYUgNgSr4Nhn2jYdp/K8SkO2A5OA6WFF+Ih/wgpgTCkjoZlrQHYTnzBCzpz8OS+TosOf+FJX8GLIXzYCmOhKV0MSwiEYpfYLHsgMWS6CBTRKwKGXmgOhsc8wfJgurP4JBR+x4DDRGN4wgLyML8wFLEB1qYVYMsG0Q6bgxcnhAJcsbfmfzHjx+vY9GgXek0+XUmGbRdXelgJCNEhlLmUt4uZWOEaMqFOT8NhvQ90B/9AZoDK5G9JwEZO+ORviMO6dtjkL4tGunbopC+LbLVcFaWdsbWSNRH5tYoZG2NdoD8LYloZG+LYcjaFgMOzc750O5JQG7S1yg5+TPM2mSIhkyIYolLhmYRZpMIs1GEaDJDNJkgmkjm0qFUbdfWklWhrfLjfai0tJTtxygsLGR/n+xMY1lq61KIphKI5iKIYgFEUQ9R1EIUsyCKZyGKpyGKaRDFYxDFIxDFFIhiEkSR5r09EMWdEMUtEMXfIIo/QxR/gChuhCh+D1FcA1FcDdG4HKL5O4jieqxf9iQmj/XAsC4ChrgJeOOxATi8fyZE8TuIZoq3DKL4NUTzSojm1VI4S4/SpfR/hyj+6cj7gKMsByGKhyGKqRDNJyGazkA0ZkI0aSAatWyOEI0FjnoandaKtuprLZePNCZNZiPMohk5iSISXiKikYm4QAPmB5oRR0snE0yID+wYUIiGw6KhEI3WUxAmswijA+SXlIMBoiEbJel7kLl3OQ5v/Az7lr+KvQlPYH/8/UiMnYADkXfhQPgdSAy/HckRhNuQHDG2TXAoYixSHCA/R0r4WBwOv62VMRYp4bfhUMRtSIm83YE7kBw5HgfiJmF/wt9wcPXbOPFrMHQpG2HOPQ7RRAqGiLIIk1FyyXpE8m65CbL1+sjVlJGTDNo0Sp+0jh8/HmPHjmWfrObl5XXYel8qKyKXDqJpohNPL4WxgTCKR+RUZH2E/CaIRgNEUzFEcwFEcx5Esw6iSMiFKBax67jIz3DriIEY6OWJEYOHYdjAwejp0Q1TJo/Dzu3fSs+YtRDNGojmHIjkF/MgimSNKIYoGiCypQ3qT42Xm8osh7O8VGZeX+rvjiWzS+XSvvqrq3yNEY0sRjRouYTt0ehIRIOO4e2MOHbs2CUWDeoInVEWrVdnI0ymUphM5JphJpgNMBaeRe6RDTi28VMkJTyFQ7ETcDzudpyZPwoZ8cOgXjAEmviByJnvDe38fjL0hXZ+20AX1xe5DUAf1xd5hNh+yIv1blnEeSN/fn/kz/dG3nxv6OWI7w/9goHQLRwK9aJRSIu7GclRf8G+2PtwcOmrSP8jHCWnt8JcnAOz04pBY9sIs7MNOtZY5xM39d/Y2FgMGTIEXl5e+PLLL9mXJRTe2ce0mbU/9QGpH1BfkGCA2UQocaAYZmMRzMYCmI35MBvzXCjNZ3HzczUImvUpbh4xEF69umJwvz4YMWQwhg/qj4FePeDVyw0T/Mbi502rUVpSCLOZvgKiZyktPcymfJjNPLwYZrMjb2MJzEYDzMZSmI1GmI0mmI1mBpPRDII0d9D8LF2zcPI7cSP1bZoPTTDSuDSboDlgxqKXpD0acYElzIoxP9CEuEAj5ncQCK2nZNp3wytEo3Xbx2gyodRkhsFkhpERDBNMxVroU3/BkQ3TkbjwYZyIuwOa2IEojO0GQ6wAY6wAsxxxAszXE/KytCO/KVZAaZyAkviujPRkxtyEY9HjkZLwFE79GoTCzD0wmwvYmx5vA3KpTSTSRxOdNNndyONfTjTi4uIwfPhwDBgwgB3updfrnf8yuZHreC1lp/auC2ks0njkIGsA95NbajTDYDSzscv6DL18mc3I0eTj3Xc/w8CBo9Hdoz+GDrkFY0bfiaFDRmPE8Ftw8+i/oL/3cHTt0ge3jLkL337zA0pKiNSYYSSyQITAkZbcpTzZS4iDWHCCQS4nEzyOi1TICQb3t+58di3tcOmzdYlGDiMaqY7NoCVYECAtl3QUkkH1EMjs2BmRmpqKp556in11cvfdd2Pv3r0Sy+yk8mjpPlBqLEUpk6UJJmMRCrL2I/WH2dgd91ccjr0T6QtGQruA3uB7oiiuK4pj3VAcq0JxrICSeiAScr1RSso9RoCxDWGKVcEUJzhhjJPkUBInMFkVxXZFcVxPFMZ5ITduEDLixuBQtB/2L34eGbsWwpR/mhEKo9EEQ6kBpaXFMBpLHCjtEOOeJnGDwcCWS8ii0a9fP8ybN49ZNFq6T3em9GjPC9WX5JuWdgqvvfYG+vTuCzeVO265+VbExczHv99+BwO8B+Ivt9+JhfEL8a83/4X+/QagW5duGDZkGObHxUOn1cFYakSpgfSMRAYMBlfaTZOpiT1LzzeOG0mPSfUvNRpgNBmh3m/CwpeOIiwgA/MDi7Eg0Ih4ZskoZZtDaYPojQ6FaHh4QCEaLTtIDUYTikkB0Bt0sQ65R9bj4LKXcTBiLDJj+qIwrgsMcZIFg97OOUiJkzJnSp0Uu0O5s7AYlXSPx2k115FPPXLT1iTDGKOCKdYNjGzIZETEgwgHyYzkZeJgFiE35Md2x5mowTgUG4i0TR+hKH03TKZiNqFRuxiMRhAJbNoE37L9ojXyJEVISpGWToYNGwZvb292QigdytUa+XWWNPlbOJ2Y/OSTT6JXL094ePTAX/5yFzulle5/8N4H6NunL8aMHIONGzaiIK8Asz6fjeFDhqNHtx4YMmgIZs74AmfOnHG8xElEgZ5tnhwvRzD4vfbfV111vpRoLHjxqHSORkclGjRIOyPopEG5RWPPnj2s83dGWbR8nentuRTGoizokhJwOOEhnIgahZy4fiiI80ARWS9iBJTEqGCIFhhKHS6/bm8ula+tQWTjUkhkzCkfJkcBhhiSowrFMV1RGOuJnNj+SI25DanfvIG8U7/AaNQzC5Oh1AhCaakRRnrLNEj+lu8DbTOv0ORNZSeiQUsn/fv3ZxYN+uvrjVqn1i63S+FJspPnR9YhuqY49B+ZRx55hFmJunXrhsDACfj5519QXFwCXY4O//33f+Ht5Y3RI0fjm1XfoLioGCXFJYgMi8SI4SPg2dMT3t4D8MEHH4JOYmZtJetvdJorz09ehob9vJ825rZNf2u4bM3NW5KxobSEkX71fiPiX6hLNMiCQV+gdBQILSO45gr6+sdXiEbLtoGhtBQlpUYUG4wwkAIryob2QAKOxAciO6onWxKhPRgMtPwQLaE0WgUX2l6ZtzV5aE5+LpLhBmMMgYiHZMng6TCC4bAC8XtcxoXR3XAqehiOr3oReSd+gtFYwMgGtRMzZdchGpcqnfY+N8iVFN+joRCNK49rOdFgyl/2ssnv0b9lJk6ciJ49e6Jr166YMmUK+y8Mv6/N0eLfU99BPy9vjLxpFL5Z/Q076p3fj42Jw8iRo9C9ew/07OmJqW9PxbHUY3UsGdS/qA3lcPU5Usb1QXXrqETjCEL8zzqXTjoKweD1EOSN3Jn89YnG7t27GZPvTDJoybqWGErZ5i/aAFZKJCPpKxxZOAVnIgehMM4DxXH0tk1WDMmC4Xwjb+eWjOtZzlK2XERLOXLUs2iQ/PhyE1tOUqE0VsXCiuO6sC9XUqNvxdFVr6Lg5G8oNeSjlNrIIMFQQpM9R91JvyX7R2ukxd+IKW050Zg7dy7o9/KtkWdHSNOlzOuSEqob3aM/5v7tb3+DSqWCIAjMT5//y4lBDiMa/0Hfvt4YcdMorFy52vFfmRIYSqR0vv76a9x11zi4u7szBAeHICcnx/n/GZ4etSOHJF+ydBQ3AMkC4uqvlxKVG6N9pHqUUB1LDcjeV4r5LxxGiN8ZxAUWIZ6sGQElHQoK0XDs0VCIxtUrmRKDAUWGUhQz5VUAberPSF30ENSRfWCIc2d7LWgzJ5GMEoVYOJeLrkRi6hIMTjYaIBq0rOMkG7J4jnDat5EWPRpn170NQzopDGprBzG8QUkGKZTGiAZtBlWIRvPGM1f65NIZJEFBQexckrfffhuHDh1ykAxSkCXMT0Rj6r8lokGWi1WrJKJBLxrsZcNhJfntt9/w8MMPY/LkyWxvB/3kjufFyYW8HesSjSIYDHIQ+aAycGKsEI2WJSQGxAVcLS5PjAR5Y3cm/5EjRxhT93AQjV27drE3oM4kg5aqa3FJCYpLaGIrREHmfpxa9y5SI8YgL6aHcx8GEYziKAElCposA9pzcSn4fgyZLB1WDWmfhrRXg0gMyZpkXhDdFdkx/ZEaP4GdrGooOAtDCf351MDaraSElLakuFuqT7RFOvRXVp6PfI/GnDlz2Jszv6e4LotBU2RByp7+bpuZmQn6TJiTOv4sXWs0OZg69R1m0SCisXr1NygsLEJJsasvSaTBgOzsbNYe1F48LfJz8HTrutS2RQ4UOlxXe9eN27z6Xf9npXoUU/0MJcjaa8D8F1IQzCwahYgPNCA2oPg6oASxAVeLy5dXIRoK0XBO1lczAIlgcBhyT0PzZxCORtwBbZSnY4MiXypRORQsd2WKUiEfjZKPS4mGtIG2PmFzWUdc5ITiGBwojFQhI9IbacufRu7RDTAYclFMlignyeiYRIMrtqvp2531GU7guOz4NZcHhWs0Gkyd+m9GNEaNGoNVq9aAjn+XnpGsKRSfP8vTIosGgad1eVdONugZhWhcHwJyeRLRlDIJnFV2Nvfw4cNOiwZtetq5cyfr/J1NDtda36Jix2RSnAfd8T+QuvhvOBncHwXR3VESXZdU0Nu1gusjg6IoFXKieyM1+g6krfsfCtMPsC8EiotKQODt2FB/4MqgoXvXM4wUFs8/Ojra+dUJnQxKipDucWXH4ymuy5JwtbIgmUpEYyr69u2HUaNGY+XKVSgoKKgjb3n7XG1excXUxhzXXvarL0dL5i3126LiQhSXFCNzTwninj+EYL/TiA0swPzAEsQEFLUhimV5FSImoLngZZWnw8MkVyEaHh5sd7VCNJo/kIqKix0Kqggluaeg2RqO4xG3IC/CXXpDj1ShhCNKpZCM60K0JLmzpauYLtBE9UHqwnuQuX85SkpynWTjckSjfUzOrv7ZkAJriGi0V4LU3uTZ3PJIREONqVPfRt++fTFqFG0GXXkJ0Whuup0nfnslGoWICSxoPhgxIUJxGaJBg7YzIiUl5RKLBnX0ziiLa61zcZEW+Wc248w3b+B0xHC2J6A40g3FEV1QHOGO4gg3FEeqUBQpKLhOMiimfJ55gUEAACAASURBVKNU0EV64ET0WJz57XMU646iuCgfhYXFKCy6fN8ns/i19pOWer6hssTExNSxaKjVambRaKk8lXRceoLmSZLv1Klk0XARDdrXocyhLjk13meksVRYVICi4iJk7C5G7PMHEeR3CrGB+YgLJIXdXKvCtcQnkkDPE8nIbz7oOSfZaLgcAg3azgjaSU0n3tFmUFo62bFjB5tIO6MsrqbOBbJ+U6Q/hZy9MTgRPwHqyL4oIlIRQejigBu7LowQoKCtZaBCYQSB56tCeng/nF71PPJP/ICiQg0KCopQUFh0yTzAJ0rqH3I/mcib02cofnNxufTl+VO5KG5UVBQ7GZTO0Zg9ezbbgMjvXS4t5V7z53+SK23wpC9SONGgT1npaxVF5k2RpzR+CgrzUVhUiPTdRYh9Phnz/E4iJiAPcQFFiPYvaEMUOvLKR3RAXvPhn+94nqdzadkVoqEQjWYpDT4xS4qpAEWFeSjMTkL2Lx/hWNStyInqi8LILiiKJHLhzlAY4VZP2XGlp7guAtBasqhLNAoi3JAV0QenFk5Czp44FOWdZl8LXI5o0HHeWVlZoNM2SZFw8L7QGi7PoyGX58cJB7mRkZENEg16nsdX3KYowSvHIZkqROPKcmq8v3VCotHcN42OEv/gwYN1LBrbt29nE1JHqV9r1yO/oBAFBXkoLMyG9uTPSFv9FE5HD4AuqgcKIrugINId+RFuIMUmQYWCCEFBm8qAZM7l75K9NqI70mNuhvrX91GoTkJ+QQHy8qk9JcsDmcAJNFHSZ+DvvPMO+wX766+/jqSkJKfi5vGb6tafeC/3HC9DYy5/ltKkN2kiGvzvrbQZlIgRxeF5kp/S4s8pbvOtTFxmJFOSr9yisWLFCvYpLN3j8RS3MRlL/TC/IA8FhQU4u6sQMc8lYZ5vGqID9IgNIMsAWQnaCmSBoLzImqFvPug5p1Wj4TILnbUzKESjsUHQtHAX0ciAJvVbpC6ZgozIPtBHdkF+FCcanGzcyCTjRi47kQtONlz10EV0w9noYcje9A8UZuwATXj6vELk5xcw0kFzAikMIhVvvfUWM4/T6Y733Xcffv311zrKuyXmj6tRTvwZ7tJm0Jtuuon962TWrFnsDAheNh6HXytu08Z4Y3IieSpE41pkeL2Jhnxpg4jBVRINfz2iCYESuYjykwhHpC+F0zJMIaL88kHhQmNvDB09PDk52WnRmDBhAjvHnwZWR693S9QvLz8feaSU8nNRkH8S6iPLcGyBDzLDukAfoYI+3A154SroIyQ3P1xAWyMvTMDlIC8PxZNfdyy/CvnhbsgPJ1dAQbiA3HA3nA3vg6zvnkLB6V9ZO+rzCpCnJ8uGNIHSnqUXXngBvXv3ZsdH+/j4sC8LaPlEroCa05/I8tAY6qdzpXjysUr+iIgIDB06FAMHDgQd2MUtGvJ0KU35teKXLFfNlQPJmw7z+te//uXco0EWDVpik7dLc9PtPPGlfpiXr0d+QT7O7CxgFo25viccFo0CRPnnXQPyEeXPQWlxP7kNpSsP1yPKvwEE6BHVCKIDpTQj/cjNR7gvxc1HzIQCRAXkIdJPrxAN2gyqEI3mTTiXEI1DX+F4vA+yw7oxcuEiGkQ2BOQR2phsyEmGvh7pYNfhUpn4veaQC1LW9UHPUx0lqBjRIrJF4Eq+OXm0XNyGicaZME9kfPMECk7+jIICPfT6PGb6JkVBVguyXtDYIAQGBmLDhg11CAZXKHRyJIGUBA+r729MgdQnE43Fayhcnhf9hvzdd9+Fl5cX+9Ry4cKFTkKhkIvmje2GZF0/jGSvEI1rkWtrE408RF5CKPSIDNA7wiUiQXE4GAFhRCIXUQEEB7Eg0sH9jbhENCLJskEbSQMLpDwCiHRIFg/a4CrUH+yd5ZosGk888QSbSIlobN26lU1OnaX+11JPfR6Z2vORl5eLfH0a1MmLcXK+D3IiPKAPVyGXrBn05hzhAiMcTkXMFXLruEQe5CDSIb/Wh7qsHdzPFLuMFLlIQwPWDrKAhArI567DLyc3cqIgT6vt/UR2JMsS5U3lyg1zx5mwnji76hHkHf8Refm5yMuTJs5169bB398f9Ftw+nPngw8+yIhHfWVD19SHONFobn+Sp9fQs/L7cj/Pk1x6g6b8qcxEhogUUXl//vnnS8YyL29DeSlhjVuaGpINyTIjI8Np0Rg5ciSWL1/ONgsrcm6KLPXS2MnLRV5+Hk7vyEf0s4mY63ucKfmYgHymuEl5Xx3ymEWBrAsRfpQWLWPIrRqXXlMcF6TnWd4BuYj056hfHh5ORMOVD7dsxPjnI8ZPgkI0HBYNhWg0ZYBIcVxEQ+cgGkuQRkQjnBMNN4lwyIlGG5EMUqZEKnLDBOhCiei4Iz+uG/TR7tBSeIQb8mPckR/lzty8KDfksngC8uNU0Ee7IZcpYykdTgzyuVVGRi7YkgtdO8CuG7Dc8DSuj1ufaKgY0Tgb3hvpqx9D3vEf2NJJbq6e/RjLz8+fEQwiGY8//ji2bNnSZOtAfaXUEEEgYlA/XnOu6XlOMCh92mtFm1Rpiadfv3746KOPcOrUKZaHXOnJ/c3JT4l76bxAslSIxqVyaXpfaS2iIVkWiCBE+eciZJwac+/MwJy/pOPL29MRNl6HCL88Rj5oaUMiHxRXIgoRAXkI8dFh3rhsRBC5CMhFRIAOEQFaRDIQsZCTjVxE+WsRHZDLzt6I8KP0dYjw1bHlklhaPiGS45cPgb+RdDaXNrrVt2hQR+lscria+ubSZM9M7Trk5Z5AdtIinIgdD02YB3LDVNCFuUEXroIuXHCCFH8dq0IrXkskQwVteFecmuuB5E8EnJrjDm2kB07NdsehT9xw7HN3pHwiIG2mAF2EO7JCuuDwpwKOzXRDTpg7dKEq6EIEab9JVBfkRbpLloEIct2hD3FYYyJU0l4QWiahOHRNpCrKDXnR7siLcoc+wh25YW7Qh6naTAYuWVOerrzzqH1CuyA9tA8yVj0KferPoD9xLliwALfeeisjGbQE8eqrr4Ksfk2fPK9l4r26Z+nX5a+99hq8vb2ZBYasGfS3UOrTtJeEExK6rj+2619fzTjorM+Q7NLT0/HPf/6T7dEgi8ayZcvYH3MVuUpLiZfvG5IlLlevgz5Pj1Pb8xD17AHM8T2GKH8d+/rDZUXgVoOmuBIJiPDXIcQvEwse0mHDW3nY8n4evn8lDyH+pxDql40wXy1CfbQI99U592OE+2oR7JOJmPt0WPJoHsICMxHim4Vwfy3C/XMQ5quRSIRfLkLGqxHqk8VIRpSfFpF+lJYWYeM1iPLRIcpXj/DxuYjwIVJD0CtEg+/RIIuGMkiaMkiIZNQlGllJCTgWMw7qUCIabtedaJCS1YWpoInsiR/+6YVP7hTw8z97Q7tgJDa95oXP7xKw+GkBIfcIWP1MN2jjBiPxs0EI8hew5JEe0ER5QxfuAV14V+TF9YUuqh804b2RG90X2she0IZ3R25kd+ijekAX4QFddC/oovtAHeIBHYXH9kRuVA/oYzyRG+0JXUR36MO71FH4LiLQ2gTsUqKRG+qO9JBeyFj/HLSnfkZ0xDwMGTqULT0MHToMH3/8MU6ePNkuSQYRCPpPUXh4OO666y5GMOiLGPKvWbOGlZniEOSTvTK2mza25TJrzK8QjWuVZesSjXB/NWb7HEVKpBp5P+bhyII8ZG/MQ2JwHkLuOYwv7kxB5L0ZCAvMQJBPJuaOO4M5449jtl8yvn8jG2fi87Dg0SMsjRD/DIT6ZzuQiTl3nUTUPZmIuvssQv1OIXT8Wcz5y3FEU9iETIT5ZCDMl9I9hZAJZzHb/zhmjj8IgVh/Z0RiYmIdi8aff/7JJqbOKIvm1lmXmwtdLpmwtdDrjiMrMQHHY8YhO7QbU/BaZtUQ2FIFLVcQdI7lDLI2tAWoDJkRXvj2X4Pw37sErH+zL7Lj/4Jv3xiK9316IPJpL8y82w3Lnu2FrPm3Yuf0EZg1UcDCxz2RFT2UEYSTM92x5kkBM+8QEDxRwMoXBCx9SsDK53ogda431v+fBxY87I6fp3ZBwhMCvvARsOBhAds/9MDa13vgSz8BUfcI2Da1OyMd+jCybLRN/V350FKJG7M0URhZVXSh7sgK74u0hMmYM3UKBg3ojT59+mDgwEEYMXIk7r//fjY2pkyZwvwPPPAAyD958mQG2ijKr8lP8QkUJgcPb+iePF5T/ZQXff0yaNAgdO3alaFHjx7sZN+1a9c6LRn0wy+tVquM51aa24mAnD179hKLRk5OjiLzJslcsrbpcrXI1efi5DY9op7djzm+qYikpQh/vcN64FiK4EsSV3Aj/XKZlSLY/yxm+u3DgZhMrJq2B8/d8gli/+8nnFqdjYUv7sUf0zNwcpEeJxfq8dULJxH2UCpSwjQ4tViP9FV6HP9Kj2+nnsSOGRpEP3Aci59UY/cMPWIePoQ/PshC9mI99Cv1+P1/esQ8eAx7ZmiQsVCPs7F6LHvmNFa+qMWxGD1OLNZjw6enseydJIVocIuGQjSaTjhdRCOHEY3spASkxZFFo6tDkTqWCBx7HTjJoA2i9CbvUoKt5yeLRkZ4H3z7z4F4z1fAj1O9kDn/Nqz5x2B8NKEHYp7ri9mT3LH6RU9oFtyKnZ/dhNn3CFj4ZA9kxgxCbmxfnJjVAxteFbDoaRWmT3DDh34eCH2kF76Y1BXf/KsHgv+qwvSJ3TDr/h74wLcrIp/sjvfvEjBzYnfMeaAX/nuHgPVveOB0kBe04T2Ypact6l43j4aIRhdoYwZgw3v9MWmMCn09PUGWjEGDh8C7f390794dgiBApVIxkL8+6J6bmxsDj3c5l8dtzG3oWR6X50UulYMsGEQwaKmH9mTs37/fqeC4NYPIMynE5pJoJf6V5wGFaFxZRpfvRy1NNHIdxERyQ/zPYKbvHuwNz0D6Jj12xmfh5BottgSlY/NcLU6u1GPZ1D3YHZmO5Hg99kTocTRBj6Anf8SPn5/EwSV6rP3oKE4uUyPmsQNY/GImji7S44dPziJtmRZf/T0ZK/4vC2un6rD1Cz0yV+ux4q3dSI7OwPFFemwLykLGeh02Bf+OtWGbsDZyLQQ+MDube+DAAbbZjRMN2vRGnaOzyeFq6qvV6aDVkaw0yNUeAy2dpMWNR3ZoV2kDJm2ulBEK2pTJyAYnHnTd2ggTkBHhhTVvDcY/bxew5q2hyFjyAJa8cQveGueJsGcG44tJ3bH8BU+cjRuLP6bfhOmTBcQ9642MBB/kJNyBHR/2R8hD7vjir174z8R+eHfSICz+12349EEPvOUr4MMHeyDileF4997+eOUOL8x7fgxmPzEAwc8OxccPDcW0KV5InHsLcuKGMhKWE0LWhDaoe508KE83ac8JtUuoCtoQd2SEe+Fw3ER8/ua9GDygD3p59kH//gMxavQYZpV45JFH2CeuZG0gSwJZMyZNmsTALRvNcfmzzXUpD25BIfevf/0r3njjDcTGxrIDxaj/8kn9avqy8oy0zNQcOZC86ZNi2qNB+3loj8bSpUvZr+OVObQp8tQyPaPV5UCXq8PJbbmIfGYfvvQ5igj/HLaRM8JPi6aDLB8UX8eeD/I9gZk+27E/8iySl+di5yItMv7U4csXluGX4MM4uS4XG+YcwKago1g76ygOfa3GT3OP47VxQYh4YyN2JWRgzfSdOLr8LGb/dSOCn96MXfGZ2BJzFnsX5eCT+1fjn7cvx799lmB7dBpOr83Fr/OS8XvwCWz4IhnLp63HT/HrsHZhHJbGzsDy+OkK0VCIRlMGRt04DRGNE4xodJO+4OBEQ04siHjIr+sow9ZRvpooL+ycMQQf+avw2nABn04Q8NoYAdMmD8aKf96Kj30ELHnKExnzb8PWGSPxQYB0f86DAuKeVCHofje8MUbAzIc88d7d/THVpw9+mj4O8/8+Bg/1E/DhlEHYPCcQcS8Nxds+3fDFY5748jEPxL48ADMeGoIPJ3ggcVY/5ET1Qk6oG7QhrVPPy5OXS4lGTog7TgX1wul1zyLr+EYEzZmJ/gMGwsOjB4YPvwmffTYdp06ddCpwrsjbo8sVJC8bv1bcumO2JeVBslaIxrXIt6WJBiclEuEI8TuFL/324tCCDGz8PBVTAxdhR8QR7I3R4buPjuLosmys/mA3fpx1Fsv/exTrPk3Hme91+P7TvTj8dTrObszFord/x9F1p7AjQoeUxbnI2JSLFe/twLHvzuKXWWexNywHu8NymeXjxPJsrHl3BzZ+dhCrp23B8s9W45uIRVgdG46vImfh67g5EGgtszOCzK30+R4RDfoGf/PmzRLL7KTyaE4fyNFqkaPVQatVQ5eTiszERTgeNw7ZId2YMpUrVPIzELFwfHLqDOP3WslVh3ngdORw7J09Ggkv9MSX9wlY/Epv7AsZh33z7sS6f3hgxwc9cDZqGJLnDMf3//JE7DMCwh4XsPAFD2x6dyhWvDkQ4U91xcJXeuHbfw/G7iBfLH5tDF4YLSDq5UE4EhuA5OAxWPmPPpj7sIDFf++NzTNvwfr3hmD9v7sjLaQ3tBHu0IY65NBKdW1cpmTBIJJDrgBdiAo5IV1wKrgPTq94FLojPyErKxtRUTEYNWo0evToif79vdnbKn110pIKqiXTak5/VeK27BxP7Xj69Gl2PD23aHz11Vfs1/F0T5H3leSdw2SUo9VAq9MibasOkc/sxZc+RxDhr2FfnoT75aD50CLcT4sQv7OY45OMVa9kYNELx/FxwE8IeXQ31r+biS8f+A2L/y8Fe0I12BGsQ+wLR/DJPb/jm/+cxt5wHdZ/fBIrph7FZ1M2YsHfD2LbXA3WfnAGK/59DNPvW4+o5/dgV1A29gbpkPDSEXw68ScsfuUw9gRr8GdIGlZ9vhEr5s3H8shZWDF/BpbPn4HVC79UiIZCNK40KC69X59oZBxYhOOxVyAajrf5xhViyytiTYgb0kM9cDaiH9KjhiM9ejTSY0bgTNQQnI0ajKyYwdBE90NWaE9khPWBOnoI1HEjkTV/NDLjRiA9ejjSY0YiPWYU0mNHIz3uNvz0n8F4/04BX97XA9tnDMXJ8CHst+vpMcOQHjcS6bHDcTpqMM5GD0V27CBkh/eAhqwZbMmi5et4ZXk2RDS64mxIX6R//Th0RzZAp1Ozkx7j4xdg7NixbJMl/f77xRdfBP1skBMEUiBckdDGP47GFAt/rjXcxvJUwi8dry0tE2pPhWhci5xbj2iE+eawz1JD/elLklTM8T2CeQFH8KX/IXzuk4g5Ew5ipu9efDpuJ6aPP4DZgccxK+Aopo/fh099duFT3134zG8PZk1Ixgy/A/h03F5M99mLGX57MSswEV9OTMZM3wP4bNwBfOF3BF8G0DLNQbx32y/4+N7FWDp9OVaEhuOr8OlYGjUNX0V9ihVxMyHwyaKzufQNvtyi8ccff0gsUzaBdjaZNLW+mpwcaHK0yMnJhjbnCDIOLGREQx3aDTkhAjTBAnLoDT5UYNcUdt0QKkDN4AZ1qDvUoeTyMAGaUBVyOAkgf5gULyvUHdlh7lCHq6AOk+JnhnrgyOze2De9N44FD0R6hLdj74UAdbAURxOuQnaoAI3jaxuSgyQLsiRcDzlQvm6g/SGUP1k2NMFdcSakL85+/QS0RzYyyxRXRitXrsSdd97JyAYd2vXoo4+ysynoPn3NoVarnQSD9xcKbyvwPBXXRfTaWhbUF+hQNPrhntyiQb+Op3ttXZ4bLz8Nk5EmR40cbQ5O/KlFxDN7MdvnCOjTVPryJMxPc00I9VEjdJyGnXFBh2qF+2kQ6qtmadK9ED81gn00CPbRIthPiyA/DYL81Ajx1yDUP4eB/MH+FKZGqBwBUliIbw5C6UwOPy2+8DmEkKfX49vQxfgmfi5WLpiBr+d/imXRn2BFzGcK0eAWDYVoNH3iqkM0NEeQsX8BjseOh5qWToIE5ARLb+7XR7HWVeYaIj6MWKgkkhHiDnWIG9TBKqhDVBJBCBYgxaM4KmSFCMgmQhLehSE71B2ZoW7ICO2C7AhPqKP7Qh3ZB+qwHhJ5CVEhO0iQ0mNERgVNOBEWSs9FZq6PPC4lGuqQrjhdj2gQgSCQoqD/mtx9993sjAo6ipz8FEb3uCLhLp/k61/zcHKJhMivFX/Tx1p7lBW1tUI0rqUNW5po5MhICZEJCaG+2QjzVyMiQI0w/2xGYiKIyARoEBFAREaN4PGZjESEBRDBIEKR1QAoDp2nwUHXFM9BQALSETQxCfGvbsKakFisjpuFVQs+x4rY6VgRMx3fLJgNoa3eRNpbPnv37sVjjz3m3KNBRINPiu2trO2tPGp6s9WQAslCDhGNxEU4EeeDrKCuyHEQDblSZRYOh6WD/G0NIj6XQ53yhDisE0FSOdVEOkIEZAULyCarhew+qyOlTdYC5nLCIiAnzEFwqN4OQlMnnzaTA1kw3KAJJpfkoEJ2MO3R8MKZ1U8j59hPzDKlVmuQna0GtS2NA/qxGln86HwNIuPjxo1jXxbQWytXfu2tXyrlaRvLErU/Hej25ptvOi0aS5YsYX/MVebQprSBWrIOarKhydHg+JYchD+9B7N8DiPcLxsRfnQSp7oZ0DjiZiPMLxuMYDiflwgGWTRozwelHe7LoUaEnxrhvgQK0zj8PIy72Qj3rQ+6R/lmI9g3DfMm7ELCW+vxXWQkVsZNx4rYzxiWR3+KVXGfK0RDbtFQBklTBgmRDE40SOkcQ9bB5Ti5aCIygj2gaYBocCXMlf31UbhNJzhsGYRIhRwOwkCkgfZ+0D0iGA3WhYfLLSZtRizq17M+0SDS1AVpof1x5rsXkHPiN0Y0mJVKk+MgkBLZoNNyn3vuOfTq1QtdunRhn73SD8sUotG0cdJRiY9CNK61/VuaaDSHlFBcTkya+pxEYIjE1AFbislGsN8JzAr4Ewv/8T2+i4rF0uhPsDjiIyyL/pRZNFbGzoDATaadzd2zZ08di8bvv//uXIPubLK4mvpmq2m9Pgsa9QlkHf4WZ5Y+gDNB3aEOakT5yhRtHQUuV+bt3E9WAbbkwlxS6LKlF6ef6u8Kv/51pbI4loocbZAe1AVp4UNw5sd/QnNmO9SabEYe5YqR+gRd0zih/4nQD8toc+iOHTtYON27mn6jPCMtUd3IcqC2T0tLq2PRWLx4MdtQrPSLprRvNhs72eosqDVqHNusQfjTuzHLJwVhflmIYPspJMsEWSeaDjXbh0F7MaRn5NfcL0+Ph10uPr+XhVC/LIT6Olzmz2Zhwf7H8UXAZsx/8xusiYrE13Gf4avIaQxLI6dhSfjHCtHgFg2FaDRlgLjiuIjGaWhO/IbMtX/HqaB+yArqArVj2aGht31SvLSfge1paOfEoukkgVsNaIlCWqZo+rP1LCctLpP6REPFCGFa7B3I/HMGNFlJjGRk19vQSUskWVlZbEIkMzl96krKhRQk3auvKEnBNBf101CuXeOrPctCIRrX2k6tRTTkJKIl/JxkSISCEQ0iGBxEgvyy4CIa3+Kb6CisiJuOZTH0tckMLKevTqKnQ6BJozNCbtEICAhgO+tpcHdGWVxNnbOyHQonOxPqjERkbv8cZ6JuRvrcblDPExjZYMqWNknKQAQja54ETjg6kksWj/ZVHyqPG7KDHBtW5wk4Oa8X0pY+BPXBJVCrjyFLrUYma09q04bHgFzxNdRf5Peb6m8oHSWs/c/H1L4nTpzAP/7xD7ZHY8SIEUhISGC/jqd7ShteqQ2zmIyysjORrc5G6mY1wp7ehS/GH0KoXybC/UjBO6wH19UlskLlyGTlorLVAbNuZCLI/xg+d1g0VkdFYnHkh1gS+TEWh3+EZVGfYPX8zxWiQRYNhWhcaWBcej/LSVCzoM4+BnXKVzi75D6kfdnTRTSCVHVIBhGOaycaKmQFuSEzyB2ZwS5kBHcBIVMGHiZ35ffbj99RjyA3ZDFC0JJkRSIatKRF8s+cJ+DYPG8c//51qE/9CnX2aWRlqSERRxfRIGtGQ2hMiTSVXMjjNZaWEn7peGtPMlGIxrW2DycaWfWIxsEbk2j4HZeIxj/WYHVUBCMaS2l/Bm0IjfkMX9MejYYmk84Qtnv3bnZGACcatMueBnNnqHtL1TEzKwuZWSSz08g+9RtObXobh+d4I3OOgOx5BJXD5deSJYOUHYFbNprjSum60rvs9VwB2XKwMjXx2esctzkyuXxcFbJ4OwQJOP2lgCNho3By8xxkZ6cgKyudtaHUjpf2//oKrqX6jpJOw0TuRpAL9Ynjx49fYtFIT09X5tBGCHrdds1keiYzKxNZ2Vk4+kc2wp7aiS/GJyPUL4NtuAzxzcT1R9YVypCFED/JovGF/x+IeX0VVoSFYNH/t/fd/1Fc5/qzAguDcXccl1wwLnEwIIgdx7nJTRzH98YlzieJ/Y3j2E5s09V7XzVEBwk1uuk2BhlEEUKol92d7VX473m+n+fMntVoWVXAAev88HzOmdPnnXfmfeY9Z+bUbMSeGno1srB3ay6aa7MU0VBEY+YPvBjRGAngu5EejAzugn/3KriLLYJIJCIaJAYTG8bE+SNWtpkkEDOcJAP0kkQ/QeWPskScafFEgWnRT1RnHMp+bkVoHkvU0yPOr2IuRiruiZ4rz5lEIbFMzOmCvNFjEQ9R3yB8EasF3or74D/0Jr7TD+O771y4fj2E2HWc0kNy5voy9mGr2rlb5TER0bhbz+n7H/d3gmR8FyManShOGUZNlGhwyuI/TzQmIzvfxYhGYZRo7K+pQdNmTplkgQtBOXXSWJMJbWRkRKwWnk1hJBJBZ2fnGI9Ga2urwTJnoTxu5tpHRq5jJBLG9YgL1/3nEDj7L9itD8BXGvValGu4LhH1ZEiPxnRCYVRN7Vyv5A6kC+Hd9CiGa36M/uon0V/9FAarnsRw9RMYqvqxCUx7CkPVT2Ow6ikMzAhPY5D1Z4iBmqfRb8JgzdMYrn4amifiJgAAIABJREFUevWP4d/0qDiX69Vzxf86zASC8RvlZBA5c3rEqiFSkQAm75G3bA7c21/ASEcBro90YuR6AJHrEURGDNyMHqi6s+c5SqPscrnGeDTq6+sRCoVmnS2Zmd5fxwifm/RoXB+B4/x1VNOjkcKpkzBqoiSjcmUEdwZGULkyEa6L8VWs4hqNNmz/+BAO1XIjtUwc2FkA/kODUyf7OHUyM0Hd3TeVJBrcCvuee+7Bz3/+c/D/ALyBZqM8buacDaIRwfWIH9cj3bhu2w5/y6/gKJuPSGWScNtfLzdCs2Gcapxv4RFrEhiKt3v+Prv6YfRVLsbx4pewOe+XKMj9AzJz3kJ65lvIyvg/5KS/iez0N5FFpL2JbKZl/hG5WW8hJ+stZGe9PQO8g5zsd5GTzTAeTJcw572L7Ozx8CcUZL+N8uw3UF/w32itWIHhTYsQqrkf1yu5BoXnbIYkFwzp2ZHHBhFJTDQoO4N8BK0aHJUPw33sb7ju+hLXI8MYEQQj+tDjg0+RbCWDKeiAIhq3wv6NEg37HU80xiM8o0Sj6BV+3noYhzfXYt/2bPFX0MbaTDRv5i/Ic6HR6M42cC7x6tWrMBONM2fOiIfMbJPFrTjfcCQCyjQSdmIkfAGBzkI4tiyBpyxqDMs0sW4jUq5h6rCIsiPlRl0aV1/VA7hifRZNea8gI+0t/CX1c/xPdjlScuuwNK8ZP8ttwUtZTViWUY+lGXVYKsIGLM1sxEuZjViW1YSlRCbDZiMu0yYKWT67CS/lNEfRgpdyJGRa4nBpTjPi8bNsprVgRU4jXsnagTfSi/Bh6qcozHwTXxatRF/VfyFYdR9i504ZCNlRJklRGPKR8gyXawhbx4IeDhK6YJkGvWwe3E2/wshAPUYiw4iEgwhHRhAJj2AkiluhC6qNH/7zlITU6XTi448/jn11UldXJ7aOV9d/qtd/RHgSSfaHW0dQ9U4HClMGxc6r/MqjKiWCypTwHY4RVKZEYF3ljH11cnjzZjRsShMEgySjZUsOmjZnK6IhPRqKaEz1Bhm/3EjYh5FwP0b8JxA8/ymctY/DW5aEcBkJhgXh8qQoxhpJaSxvDC3CwIYqk2Gr+jGOFi3HxvR38WZqLlIy6rAk9xSeyL+ERwo68XBhl8AjBV14dAI8XNCFh/Ov4eF8GTLeiYfzr0ZDHpvzmdeJh0Uf14x+2IaE6JfpEtE8U/pDhdeQCKzzaGEHnsy/gGdzT+DnGdvxbuoGFGb9Ea3lL8JX/aDwanBxLWUTjsrQIBtjZThKNCwIWy0I0yNSmYRwhQa9ZC6cO1/CSFcxRsLtGAm7MRIJYSQcxkg4EgONBEmjMhZKBhPpgCIat0I/RomG7dwIqt69W4lGOI5o1AqiUV+VhsZNGWjalIm6qlRofBOdbeBcIv9waPZofPPNN+IBO9tkcevON4JIiAgiEh5ExHMYvm8+xHDlY3AVawiVaohEDaYkFMI4CgNKIzoWskzIOhf9FY+jvvCX+H9pn+BnWc24r3AQWnEYWnEEWsk4YF4isHyi9KmkjdfXVNJLI9AmwZxiPx7K68Cq9C1Ym/U+jpalQK98yPACxWQnCRtDQ2ahcg0CViNkOqdMQiQZpRr0bc8hfCUPkdBFREJuhMMkFCHh1YiEQoiEwgLUhdAsfB7cuntgdjxLSUJ0Xb/Bo8Gt45Usp6oDvAfDiETCGP42gqp3rqBwxQCqVgVRzbUZKWFUpITucETE+KyrdLFGYyc/b91cK7aHP7AzP7oYNEeEs5Jo8GYg0fjDH/4QW6OhiMZUb5DJypFouBCJ9CDiPoTA6b/DXv0Y9GLDhc+38lB50hgYb+o0nKPGk0QjYE0WizgPWH+Nv2atxXNZLXiooBPJhU4kFflgKQpAKw4lQDBBmqlcUQjapAhDK4qMLSfIDQmOGaZ2JfmJkRZzuYniIViKA5hb7MGCIhsez7uIZVm78UnOZzhhXQVv5UIhG0G+ot4hw0NEYmFB0JoUQ8hqQYg/5SrXMFSchKEtixC8sB6RwBlEIrpBLqJTXeEwyQZJRgRhggREYLJrrPJns0FVRONW6L8kGpw6+WERjZatWdi/PRf11alifQYXhWp8u59t4EOivb0dv/vd78RmUfxhF/+jwfSpymI6D5qptjndcnIMrCfj8aG5zWAwKOZRGZrTb1U8GAohGAojGCQ4JgfCvhMIXFwN25bFGCrQ4C/RxFQKp1PkG7kIyzSETAjzTbziQRyxvoqPc77A09lHoRX7oJWEDQijTkJhBomHP4oAtKLgODATDRIKiamkm8swbu6Dx7IthvFlJzuOnltJGJYCJxZnHUBG3vu4bH0WXut8UCYxRGU1RoZRL4anTMNQ+TzoTasQ7ilBONiGcNhl6EiIOk7PBa9VELFrJtNFOPueCbfqHpgN7fAZQ4/GP//5z9gajd27d4ut42fD+d+aczTuQcpyqDWMynfaUbCiH5WrAqhaKb0ZQVSk3MngOIMoX6Wj4OXz2PHJIRysrUFjbTr2bs1GU22GCPmp66wlGvxh13vvvYc5c+Zg2bJlOHnypHgQT9UIm422OU4lpPLIUMZvjXJObgDYn+xTnosMOQYZl2Vu9ThpuESboSDCQTfCwT6Eg2cQ7imGt/k12MruF1MpJBzBUg1BvpGXJyFYloRgqcUIGbcm4Wr5kygo+At+kbkJj+RfQlKR12TITQZ+DNkwEY9JDL2lMIQbUBSCRSI+X6ZPFBaGYREw2p4R2SgOIanYh8eyz+CP6enYXfJ78VluqMyCcKkFIcqnLEmEMS+QVYO3RBNkbrDyEXhO/AlhvQ7hcAfCIQfCQR/C1M1gGOEQdYRkU2Jyvfq+9Ff1c+dfCz47FNG42ev0AyQanx7GgU01qKvagIYartFIF9Mm9VUboZmN5GyKDw0NISMjA/xh1xNPPIH8/PzYW/5U5MD5yERIVFc+POPzmB6fNtNjjsXv98eIhBwb25NxGco+5LEcB49lnjmU+ea08eOyjRACgRD8wRACQS9CoWsIuVsQOv85PLtewlDJAtgLNXiiUyrCm1GqIVRirOfwWufhZNlLeDcnFw/mtsNS6BceAkthEEmFAVgKA9AkOIVyA4LQCicG2yLR0KK4gXRE8410lp0+JhtDwnx6SUpCmFdow/PZh7C2cC0uVC5DsGxuTD5c8yI9QCRtenESbBUPwN38MkKdGQgFTiIUHEQg4IM3EIIvEETAH0AoEEAoaITBIK+VvF6j3q7xr60qo2RjeEMdDscYj8auXbvAzfeUfKZ6jxgeRT5bh86Goh6NPlSu9KNSrM0IwpoSuMMREuMrW+lAwcvnsP2TgzhYuwktW/lZayYaazMESDpmLdHgTpQtLS147LHHhPvv9ddfF9MpvFFosM1G1xyf7Eai4owHWXd6hnus4kpyED8mHkuiIfsxh7KeOY1xc/rNjMvcrtEm2w4hGAgiGPAi5B9CyH8VIf9phIZ3InD2E7h3LYet/BHYCubCma/BX6ghVMzfZCdhsOxBNJT8Bq/n1GBhfm+UWJA40FMgDb4kGxMTioTGPEpSSFjGgkQmFMVoPyxDgjMeRsdk1Enc5zTGWRRCcoETT+W24i95Rfiy/FfwVCwUi2opI3+RBlehBkfRPbBX/gjuplcRurQWIXcDQqFvEQr2IBTQDWIRuw4BBAN+hAQk2aB+kfCaMVbnzNdWxZVs+JxQRONm9eCHTTT2bcsRX5/wHxriPxrS0My2kEaZC0L/9Kc/iXUa9Gp89NFHYldC+TBlmUSgrFhGhrJ8/LFMl2VvtYxl+7Jd87HsU46fZRiXZRmyjMyXeeY2zGXj47LcZGGAcmI/AfYVQMDvRjDQi2CwFUF3A4KduQge/TO8O1PgqHgC9qJ5GCicjzNFzyA/989YmtmCpDwPtIIgtIIAtHwDloIgiJkZdBIUekj80ZBrO6JTLvQm0BNiblumTeYhEWMKwMJxSm/LjEJjDCQ3C3IH8Gp2PTYVvYOO4h9jMD8Zesl98NY+hUDDKgS/+huCvSUIevYjGGxDMDiAQMAblTe9GEEEBQII+n0I+j2C+AXp/fIzjXocj8TeungdUMezU0685+12u3hePvjgg/jJT34CejT48qZ0Yqo6weei8QwePBNExduXkb+iFxUrfahMCcK6IoDyOwp+lK+IR9AY4yo7Cl8+hx2fHBRfnezdxh928f8ZmWJjtZat2dDMhmY2xk+dOgVuc5yUlIT7779frNsgAflP3TDS4MuQ4zDHJxoXXZfcvpmhvJay/HhtMJ3lZR1Z/vaGPgQCOgKBYQQCvQgELiMQOIGAZzcCg4UIdGag/3QWyreV4KeZhzEn3zWGZJBs0JgLg06jPm34oBV6oOXr0LKHoGUOQsuJ9iGJAQlNtg9atgdarhdajtfoh/nj9GeMyQ9LgR/aDGDUG23fUuBDclYPflFwEA1NJfB8tRqBrz9BoD0DAVstAr79CAROI+C7iIC3EwHvAAI+BwI+NwJ+HwIklr6ACT4EfB4E/B4EfIwb+SSAY5GYYEudUuHslg+fDTabbQzR2Llzp3j2KN2Yqm4E4A8YL34D3wRgffsS8pf3wLrSiwpOmdxg1OON/Pd97EP5iniQDPlRutKGgpdbsePjg9hfU409NalivxNOnXC/E67VmLVEQxpX/rOfUyhPP/20WBianJyMZ555RvzHn3+7a2trE38R5d4oBP8oeuXKFTHNwi9XLl++fAOYLsGyJC6slwjMJ3p7e8WNOhUDz7/yHTlyBJ999plYW/LVV1/hwIED4Hi//PLLGEliua+//hr799MgBcT+BKdPn0Z1dbV4A+FPyuSDgfKgO7Srq0uMR45LhuZzlecmQymD0ePR829vp6xG5dXe3oErHV1o7+xFe2cPrlzpxLUrF9HXcRaOzuPwX9sPf88hDA1dRPWpdizKOQct132LiYYXSQU6ntrmwhunA/jjmQCW7nHj3oIhWHKGYcmxY16+Ez+qCuCxSjcerXDhsSovknMdsGQNw5JtQ1K2DZYsG7RMHtuRVMA2DZIxPtEYJRE3khXWjc/3Q8sawArrBbRc6EIg0INA4CICgXYEAjweht/nhdcbgNsXgCsKjy8AHwmk3yCco2SD5MMbhSIaUvdVOFXjaJRTRGN68kqsX6NEo/90ANa3LhpEI8VMNHywpvhhXXn7cCN5iCcTEx2TaPhiRGPbxwfQZLWirnqjgaoN2FOdht0VG6BJgztbQ7r7aJBpoH/zm99gwYIF4t8a/GMoPRxPPfWUIB5LlizB4sWLBRYtWgQz6BGRMKfL8uaQJMYM5tH1yC9guru7Y4a/v78fW7ZsQVpaGg4ePIjm5makpqaioqICjY2NgmRs375dkIvS0lJs2LABWVlZ2LFjBw4dOhQra7VasX79ekGm9u3bJ4hJbW0ttm7diqKiolh/vP6UwcqVK8U5m8/XPP7J4vLclixZjGeeMbBkyTNY8swzWLJ48Rg8u3gxnlu8CM8v/gmeX/wUfrr4cby46BE8t+hH+Okrv8IvvqjG03lXYBFTJ35Y8m/EtD0H+T4k5bpwb+4AXq4fwrrLfqz91o+PvnHjv5ucWFHnwgtbdbx51I9/XvTj40t+fHTRjw8vePBynQtvHvfjfw55sXyHB78/5Mfbp/1Y0eDB/EIdljwXLPleWPJ90AriMU0vB6d2Cn3Qsgbx09J2bP92EB6fE37vAPzeQfjdQ/B7HPB7XfB7PYJwyHvY6/PB6/PCF4PhsTLyx0s3l1FxKUsV3qgLNJzDw8PCo/HAAw+I5xefO9w6XsnrRnkllol8EfCh77QfFW9fQP6KHpSneFCRQm+FF2UrvChd7rntYD8zAb0ZYowrh5D3ciu2fXoQe6sqxJQJF4PuqUpFM/c7qc1URINKQLLBm4fGvaSkBCkpKeANRO+GxWKBpmm3FZy2ee2112JEg8SHXpZ//etfglR88MEH4i98JBMkHjzOzMwUBIk3N70WJBNffPEF3n///Zg35ujRo6L80qVLsXbtWtCbwXr8Zwg9IkwbHBwU5045kIg8+eSTN5zrrZKBRdMwFpRtEjRtDjRtLjTtHmhaMjTtPmgPvID7fp+Dx/N6kESjS29Bvu8GTI9o+KAJouHEfVld+PXObhS22ZF/qheZp21YfcaBD04O4X/39mD1eQ8+PuHCXw/04729V/H5WTc+OuXE30/a8NejA8jv9WN1qxcffeXF+2f9+K9qHZbMYSTFiAbHLMnGNEkG6xX6YRFEYxjPlveg4pwTA34/nH4/vD4/vN4oGBcwP+AkmeA0GuPmPBVX8rg5HVBE4+bk5/NxunoSopHiRVmK586AICI+lK2Ihx9lKV6UrBwURGPn50fEVydcCEo01aRj35ZsNG3KgEYjq2DIQD6AOP94/PhxbNq0SRhqGuR169YJw8z4rcKaNWuwevVqMGRf/OSWY+A6C64d4aZFJBD//ve/hbeCZSorK5GTk4O8vDxBODh9wji9GSzL9jZu3CjGy7LMo7eEefRkkKhwKqWhoUF4Qfg9PPukDly8eFG0Q4LDdnieHBshZUA5SLBNGZcykefE+sa5sZ01WLtmDdatWZsQa9esxZrV7Gc11q5ejc/WpWFd+R78Y/dVPFnQDY0eDZKMPO8NYPr04EVSno752d34ZV0v8jq8yDvvQWabF1+0erD+sg/rLvvwz9MOvH98CB98NYD/29eFT1ud+PCEjtVtPnx62ofPW314//Aw3mrux7vHfVhU7YAlc0gsXOU4jTHJcLpjlATFKzwaz5V1ouZbO4apG14ffB6vgNfD62Zcu7H3sAderxnqHh8rHyWPm5EHnxd8Vv3jH/8QL2T0yNKjwWnom2l39tSN3rfRl4De0z5Y325DzrIOFC+3oXS5E6UrnChLcX2vKE1xIjFcKE1xozTFMzZcwWMXilL6kPvyaWz/Nz0aleJrk71bs9CyOQv7+OOuTZmKaEjllsZWLqbk8fcNjoX9y5DrIzidQa8DvS2cWuFaDnl8+PBh4c2gB4R5XAvCsK+vT3gsuL6EDwTWJXjMP/iRfFRVVaGpqSlGMsxy+L7PO1F/fV4f8s4M4pGsK8YajVtKNFxIzh3A4wWd+Hn1Nfx261UsKz2LZ/O/wsu17fh57RUsKW7FsxWX8MKmq1hUdgE/rbiMF8va8MqWq1hZcwlL8k7ihaJWvFDShsVl3XigYBBJubpBNPIlwZDhrSAathuJhiAZiYgGDakiGlKnVXhriRXvV0U0blamnN40PI79p32o5BqNZT0oX+5BxTIfrMt9KL/DwDGZIcdZmjKMvFWt2PrxfjSWlWFXxTrxwy56Moj6yo3QaNgURmUQ/1C63bLh1AdhJhiyz/ixyOOJ8sfLk+2TlJCIEOyXbTIv0Thkf7KMbFuWjQ9lfnzIch72JeCB122GF163AVnG7fGgQ/ci8+QAHs/pgCXXBU14MzxivQbXbEhowqjToE8dlnw35uQ5MC+7HwvSO7Aw/TIWZndgQU4n7s26inlZHUjOvork7E7ck92J5OxrmJd9DQuyu7Ag6yrmZ7HsNYH7crowP6cPyXkOzMl3w5LnhpZPD4zE1Md14zm4oWX24qflHdhy3gab1ws3PZAeyos6y2tnXL94mRvHhl4lzhvVeZWvZDEdHeDzgC87Zo8G14vx2TKddmZ7WbfXBY/Xg75vvCh/qxU5SztQvsKJihVeWFd4Ub7ci7Jl3w/YlwD75VTJMjfK6LFY7hZx5lnjULHMi/JlXpQsH0DuytPY/ul+7KuqQGNNGpr5s66adDRtSkcdF4PO9osdf/7jGVeWEwbzFhAzabhlX/FjMB8n6lMaeJabqC1Zji5N2abs0xzKdmRbPDb3a26HbUnIdBnKPuLDWH4CouFxe+B2eeBxeuDR3fA6nXC63ehwepH31SCezOuAlqMLIiHJhTm80ThPxbBLEmAOE9Uz5RfE5fO4gAs/PUgygcejJIPxuHrTOjaIxrLqa9jd7oJDXBfPNIiGMqDxuqiOb14n+JxQROPm5SiJhrfPi4Z1l7Fh6SmsXXQOGxdfQeqSDqQ92yHC1CU8vp0w99OOtOfakb+iD+WvOlC0cgDpz11B6uKLSFt8EelmLLqM9MWXkfrsGax7sQlbPqnH/ppytGzJEGs09lSlYa9coyGNgAoNz0K8HKRRZWjOm8kDS9aPryvT40PZJ8ub82R9ppnLyLEyXZaRdWXodLpAsKxMiy8v68p0hjcD2R5JhcfljgPTJNzwiLG50evxYNslG14s7YSW0Q9NeAvo2XDDkjsKsX6DazimBbdoR8tjey5Y8pwilMeJQn5RkpTvjoJxF5LynAL8z0dSntv4sRg9GmMw3bFFy5Ow5NiRlNaO3+y6iqODHujR6y3l5SZJi+HmrtHNXF9Vd3bJnvfzwMAAPvzww9gajW3bton9T5QuTF0XXB4n3J7os7rDg/adHnxT5MHZQg9aiz04W+TBmcLpg/XGQ6L2zGW/KfCgzerBnn8N4B/P14n/e7QWutBW4sH5olG0FXnQVhg9LvWgtcKOY9XHsa+2DM38BXltJhqq09G8KRNNNRnQlGJMrhhmA/59ykuSiPH6lOOSIctJo26uwzQeJyrn8fD8DRJl1DXkMZrOvLEky9z2VOJyTHIcY8mGJBmjIY2n3ePB8T4P/rdxGEkZXdBySQYMI2zJ9UBCpk09dEPjVAz/zSHAH3JNAZLIRD0WnH4xPmd1g3GDAJlJBdPMx9OIF/BPqCQag3g4px0fH+3DBY8HLrcLHhLEKDEbJRmScEyuy1O5XqqMkuNEOsD7OJ5ocOqEC8snqqfyxuoV72e3J3o/i6nQm/eSmJ+1M47rHnzx52I8ueAV/P5nH6Pt9BWIl8RJvPltx09hT3U26qs3oHFTBhqq09BYw3UamdCk8VHh6JTAD1sWTrhcM8XtkJEbLuco3Iy73GL6pN3tRuZ5Gx4vvAYtoy/mKZAejbGeg3hPwgTHgmiQbEwH5vYMT4gmPCHSG2LOn3mcazyMdR5OWDKu4qWqK9jc7kav2w2nywm3k4jKy2XIivKaGLfjuqk2f9jPifGvLwkD13j9/e9/F/8akl+dSKJBuXC9xmyVz1TPm/czy/J+FnC44Sbs0VAeTze0ueEeD5O15XJjqNuFt377NzyU/CR+tuhlnDp4Fi7dNDaOzwzmOd04e/QAdlekYZd1LfZUp2JP1UbUVazHbus6RTSmqhQ/nHJUbn2akMRk/IfPzOWTyEga/Qy63Dg85Ma7+/uRnHYFWrY9RjZmTDI4rUFPRo4J8cfmPMal92PMlMjMycSkY6eHJGsAPyq8gjUn+3HR7YZNPJCccHENC4nYpOTCLNfbcd1UmzPX+btbdmaiIX/YZfZoUC6KaEz9GpNw6G4bHO5hONyDsLsHRcj4TGBzD2A8TNaey21Dz2AH3vjjbzDv/mQ8++J/4fCJfdCdxljs7gFI2MRYB6C7++By96LtzH60bM9D8+YMtGzORPMmLgrlgtA0aFQIhdkkAx1O50xxO+RkrBmRa0dioe7CsO5Ch8uF+i4XXts5AG3DFWiZQzA8CfRGOE240TthyXEhEbRsJ6YPHZYcZwxj+zaPIz4+8bikV0WMU3pY0vuwMKsdfzrchyO6C70uF2y8T3UdLp3XbhyZjZt+O66banO2PjdJJLhdAX8Q+Mgjj4jdr/mXYU6nSJJB78Zslc9/+rwp+/Ew0dhYh9fv0qVLePXVVzFv3jwRtra2xq6rub4e5Q66boNLH8D5rw+gcXM2WrZkC4JBbwb/EEooojHriJYkGY4pEg5zudthXBIbTZfugq47YdNduOZyoa7Hhd82DmA+/6uR2WtsiMbN1iS4sFMaahlyo7REyHZBmwnMbck+ZhpGF6KOWXhKj01qFx7N78TfTw7jiMuFbqcLdt1pEAw+vHVeg8QyGz/9dlw31ab5oTub4jRGBPdMeu6558Tu19wF++zZs4pc3AH2ZDySwfTJ9JTXldtccKsJbsPB6TH+z4np8XUl0TA85Hac/3o/6msyxSetLVvo0UgXhIOfu2oTDUrljc8M717ZOKDrhD0ayuPxQnO52yEPpyAUJBVj4HDC4XDC5nCiV3fiotOJvcNO/ONrG35c0glt40VoaT3QMu3Qcpxjkc1dWcdBlgNapgMaw2mB7c3EE8I6icYix+yAljEILbUT96RdwvM1PVh/zokTTieuOp3o152wO3TxBukQIa9BnKwmPb4d1021efc+A27u2tGbwXPnZo6//e1vMX/+fDzxxBPglycyT4azVUb/yfOm7MfDROMikeDGmL/73e/E10T33Xef+BM1f/aYqJ4j6jlxOvky6kDrqf3YVZmK3RXrBNlo3JQm1mnwWBGNCdxMiYR796eNRyimkn5zD6jEsktsNB06iYYDTj7UHHbYHQ70Op0443Siut+J90468fwWOx4o6kNSWqcw1DTWWupVWFKvICn1iggZj4e2sR3ThSW1A0mpnbCI9q+KOI8nB8uyrhkcXzssGy9hbtplPFbchVf22PBZmxP1NifO86dqTh0O3Q6nwyZkYJAMg3wponE79FC1mfj+vFEukkTQMBUWFopNGOlmX758udjkkRuuMY/txb8Fxx+by8i4eRzmvmS6bFsey1C2LY8ZJkqT+bKdicqY25DlZCjbMZcxp8XHZT0ZynzzMeMyfbqhuR1ZN55wyHQZyjoMuXP3X/7yFzz22GPg/ltvvPEGzp07FyOPss5oKK8xiYYdraf2oa4mQ2wLz3Ua9GTwh10NNanQ4geijsdngz8c2djhcEwXt0sufFsfDw7Y7RynQ7zVDzp0dOs62nUdrbqOQ7qO2iEdOR06NlzQsbZNx7oLOtbfYVjXpmP9+SjajLFuvKAj/aKOwms6dgzrOKbrOBc9t2u6jn5dh03XBcGy2yn78WQ0Ufrtumaq3R/Os2Bm15L7QfHe5LoM/iGUO12TbNCzwf2OuG/SqEG6kazpM7xGAAALVklEQVRMlse2Y/e+3S5+ec5jkhiGieozj79GHy9f1pHXTh6b25R9Mk88d6LPH279wLULPF9Zb7JQyii+XE9Pj9gugmNl3tWrV8X0hDyOL5/oWI6N42U/PE5UbqppBw4cwK9//WvQi8FNNLl7NzflZPtSJlJuo6EhI8M7bse5rw+goTYH+7flYu9WrtPIwP5tOSJURGMCN9OoQGd2M6r6U5HbxIbSLgiRAzofLgI2OPjAcejo0w3i0cWbVddxJWqoSURuBy5H22U4HVyKlpehHBvHy3Fz/AaxoLxs0O3D0O0M7cKbY+jRRHJKlDcV2asy6h6duQ5IA3Tt2jWxAeRDDz2EOXPmiF2vaai4boM7Tufn56OgoECAHhAJLiAtLi4W6bIMN4zkBm00vvLacIpmy5YtYq+m+vp6sSEk8+nm52e2NKbc44n19uzZI4w28+jypwHlrtTM51oD1qNhJtgWN5jcunWr2CWbeTwnEgHW599P2TY3uORYOTZuRrlr1y5wnymWu3z5shgDy9TV1cX6YH0zcSBJ6ezsFODGljwfjmnv3r2x8+eO3fx6h22xLuvwHGScZIdtmNuW14Ay4s7jBfkFKCkqQWlx6RgwjSguNFBSXIrighL8+9PP8NovXwOvHddk0JPx/PPP4+DBg0JGsn15Lfg8HgVfAElwSPyG0Hpyr1ijwcWfXKMhvjzhr8j51QkbUlAyuFt0wGZ3YNjuwKDDgX6HA31R9Doc6LmN6HY4INHlcOBmIdvimDl2ngvPiefGc7Sp+1I9l+4CHaA3gEabRpCbNb7wwgvCYPGteO7cuSJOAzYe7r33XhDJyckxQ8d1HydOnIhd/yNHjsBqteLbb7/Fzp07BTnhbtVyc0gSDO5UzV2uuVkkyQDzGadRJ4khmWD59PR0sRElSQTjJBBMz8zMFCHrlpeXi52nueaEJOrkyZMijySAY2DbpaWlOHTokBgXDTzJE9sjCWGcu1qTOJAIsRz7YTrH+umnn4o8jqGxsRHZ2dki5GJa1uMu3dxpm+SM50WwT6axDe6U3dzciL6+3piMeA6PP/445s6Zi+R7kjHvnnm49557ce+8ezH/3gUiZNwMWSZ5brIgGFxr88477wiiw+tKcmG2Cza7DWNhN55TDnpUBnHmRAt2VmxEfdVG4cXg7q30avB/Gopo3AU3s/liqzg9GjY4bMNw2AbhsA3AYeuHw9YHh63XBB7fYgz3wjETjDsOjpvj53kMRc/JOD+73XBNq+utXgLudB0g0eAYaZjOnz8vjPJrr70G/siLb8p0xxMLFy5MCE67yDySk9dff10YO7ZL0IVPo3v69GlBGHJzc4Vx5jFJwQcffCA8DPQo8JiGOiMjQ5AMGmbuUk0iQY8Ej0liaORJPuhRIIlhH5s3b8bnn38uPttlH8ynF4Rkg33xa4yysjIBekm4EzbrkhyQeNCbwv5JOEhueMx1D/TaHDt2TBAgtsExcCdtyotTTCQyPD8SI7ZHgkLiQFJTU1MjxsS2SDR4Hvn5eair242urmuQzwlJNObfOx8L5y80sGAh7r/v/jFYuGAhCKYz/NGjP8KLL7yI9957T4yPxIjjotwTEg3HMGxRDDtIPOjhYNkhnD7WiJ3WDWIxKNdlNNVmCNLBH3hp8mKq0FBqJYe7WQ58u7ozYTwQ+ECWMAyo0re7Wd/U2Km/iYiQdPfTwNINz7d6Tjd8+eWXIuQxwTyZz2MacBpeTkvItjl9wE9pP/vsM/FmT+LAt3oe0ziTYNCw0+DTkJMkrF+/XsTpYaCxpjeCxpxE4cKFC2LMJAosz7a//vprYWglWWEbHA8NryQC9I7Qo8IybJN90tPAdklY2BbzSCyYR3JCOZDE0GtBAiKnauQYOLVDb0dqaiqam5sFuWEfJBXsj8SFccrtzJkzomxmZgaOHTsq1ouwfXofSFiOHD6Cw4e+xJHDR/HloSMChw8dhhmHDhzCof2HcPjgYRw7cgxt37ZhoH8AdttYQp/ouTRsG4aAPRrabBgmGbRz3cwgzp5oQV11Olo2ZwiSQaJBrwanURTRiLLmRIJVaepBeit1gA/kW9meakvp552oA4mIx3TTaDwJc72Ojg4xRcN1ETS+0jPBMlzvwOkb1uGCTR7TCDOP3gum0zNBDwPjUm6sw3yWM6dxvQbbkf2zLtdGyDTZJgmRrM88tk1ywn7Yv2yT9VlW9i3bZcg8rr2Q4yWxYjmmsU3ZBsuy7e5utj2IoWFiAIODRr/mNmcSl/2MF8ZIhn0Iw/ZhDAnCMUo0vv1qPxpqM9GyNUt8cbKnyvBqcGGoxhNSUDJQOqB0QOmA0oGb1QH5hh1vrNgu8wgaTwkes6zsl0ZbtiHrMJTtyTQaY5Y115VxWZ+hJASyvgxlO+a2ZX2myXS2wbHKNmU6Q5nGeua4uQ9zW+a4PE9ZNj6UZWU/5vOgwSfJGBziQlHKYJTQ2IZtsA1NH+b+xosPDQ9hyEYMinCQccpK9D+Ab443YWdlqlj82bw5XXgyuDCUng1FNBTRit3k4ymYSlcGSOmA0oGp6AANJstNZDjN7chyTKOxHmNQTeRE1mEZQtaToTT05nZkWXOebIf1mC77S1TGXJ9x2Zfsw5wviYNsR5ZlKMszlOXM45BlzWmyjrk9mS/yaPSFV4PjGh3bTEgG65jbHi8uiAb7jYGEZ5RonD7aiC0la7CjbDXqqtajoToVdRUbUFe5AZpZWCpuKLGSg5KD0gGlA0oHZocOSONvvt7CmEdJjTluLhMfN5czx+PL8Xiy/MnKDJJkxPD9XSf2O4ohDIpz4dRUH746sgfbytZjd+U61FWuR2NNulgM2sBfkCcSgkr7/i6ckrWStdIBpQNKB5QO3H06EJ0+GuIakT4xdbK7Kk2s0aiv2mDs4rolC/u25UAjm1NQMlA6oHRA6YDSAaUDSgemqgMDUe4wNMi1Ir345lgj6mrSsadmo/BqNG1OFzu38sddimgooqWIptIBpQNKB5QOKB2Ylg7EiMYQF8v24qsjDdhaulasz6BHY081N1jbADF1Ilf/qnB0JbSShZKF0gGlA0oHlA4oHRhfB/qjXw8NDvILoB4cP7gLtcWrsa3kc/AnXbvK12J7KReHroGmBDm+IJVslGyUDigdUDqgdEDpwI06ECMaA32CaHx9pBG7qtLQWMtFoBvQsiULjZsysG9bNjR+j6ygZKB0QOmA0gGlA0oHlA5MVwcGBvowMNCDU4fqscO6AfU1qdhe+oWYMiHRaOCmatNtVJVXiqh0QOmA0gGlA0oHlA5QBwyi0TtKNKo3is9buTajvoo/8EqHxl+aKigZKB1QOqB0QOmA0gGlA9PVgf6+HvT3d+Hkwd3YXrZerM3YUboaO8tWY1vRZ9hlXaeIxnSFqsqrG1HpgNIBpQNKB5QOGDogicaJA7uwo2w9Gqo2Yrd1nUC9dR2a+MMubiqjoGSgdEDpgNIBpQNKB5QOTEcH+np70dfbg76+Lpw4uBu7KlLFj7rqKtajsSoVe6o2oplTJ9NpVJVVSqh0QOmA0gGlA0oHlA5QBwTR6CPR6MbJg/XYVZmKpk3pqI8SjQau0ahJhcataxWUDJQOKB1QOqB0QOmA0oHp6EBvTw96e7rR23sNx/bvxPby9aivXI/d1rWor9yAnWVrsKdyPbTu7m4oKBkoHVA6oHRA6YDSAaUD09GBnu5u9HRfQ0/PVRzdtx1bS1dje9kX2FW2BlwQur1ktSAdimgooqWIptIBpQNKB5QOKB2Ytg4YRKMLPT2dOH5gF+qr07CnegPqK9aJKROu0WjZnAGtq6sLCkoGSgeUDigdUDqgdEDpwHR0oLurC91d19DdfVUQjYZNGaivWodd5V+grmKdWKvRUL0R/x+KC0Mx7OFucQAAAABJRU5ErkJggg==;" vertex="1" parent="1">
                    <mxGeometry x="420" y="380" width="622.78" height="244.25" as="geometry"/>
                </mxCell>
            </root>
        </mxGraphModel>
    </diagram>
</mxfile>